<?xml version="1.0" encoding="UTF-8"?>
<svg id="Layer_1" data-name="Layer 1" xmlns="http://www.w3.org/2000/svg" viewBox="0 0 1440 1440">
  <path d="M161.71,1233.95l-.84,6.88s-6.2,6.5-10.41,15.56c-4.2,9.07-4.2,17.63-4.2,17.63h62.94v-2.21c-1.16-3.88-24.15-20.84-24.15-20.84l4.66-12.57,5.31,3.44,11.87-16.73s16.92-16.75,29.27-31.86c12.34-15.1,21.88-18.82,36.32-30.21,14.44-11.4,20.46-25.53,20.46-38.31s-5.69-81.24-6.13-86.68c-.43-5.44,4.06-8.72,4.06-8.72l21.41-28.14,7.86,3.97c11.65-10.01,61.5-73.94,61.5-73.94l55.49,17.09,12.98-.1-.13,3.84s14.96.09,18.55.25c3.59.17,3.14-.77,3.14-.77,0,0,.03-2.73-.03-3.44-.07-.71,1.61-.48,1.61-.48,0,0,37.22-.05,44.77.51,7.05.52,7.15-1.88,7.15-1.88h4.6c6.22-.52,6.39-3.06,7.3-8.63.9-5.57,5.05-8.98,5.05-8.98v-95.89c-5.25-2.92-7.58.13-9.65,7.18-2.07,7.06-6.76,30.69-6.76,30.69l-23.11.76v-3.42h-18.85v3.2h-5.58l-64.67-9.75c2.16-4.66.26-8.89.26-8.89,0,0,6.78-11.6,8.11-13.64,1.32-2.04,3.52-.5,3.52-.5,4.72,1.91,9.03,4.63,17.9,4.66,8.87.03,10.41-7.28,11.51-12.07,1.1-4.8,3.22-13.28,3.22-13.28l2.33-.43.14-4.95s1.1-.23,3.46-.2c2.37.04,4.41-1.42,5.05-4.66.65-3.24-1.74-5.76-1.74-5.76l-5.54-6.68.1-1.25.61-3.32-1.96-.5c.42-3.25,1.53-20.82,1.53-20.82l1.1.07.1-4.17c1.38-11.91-27.97-21.99-47.82-21.99s-21.76,11.48-22.8,20.37c-1.03,8.89,1.74,50.95,1.74,50.95,0,0-1.3,4.36-4.48,7.08-3.17,2.72-22.4,5.05-34.44,8.09-12.05,3.04-20.92,15.15-20.92,15.15-31.13,31.31-75.2,100.52-77.57,103.59-2.37,3.06-1.77,5.46-1.77,5.46-11.27,2.72-23.89,14.26-35.46,25.66-11.57,11.4-7.08,34.1-7.08,34.1,0,0,3,102.65,1.9,106.34-1.1,3.69-11.05,20.93-19.68,31.38-8.64,10.45-19.08,27.5-23.83,32.93-4.75,5.44-11.22,12.35-12.78,15.2-1.55,2.85-9.21,8.44-13.01,11.85-3.8,3.41-.95,6.47-.95,6.47,5.96,11.66,17.46,16.3,17.46,16.3ZM407.11,897.48l79.11,2.7.66,3,20.72-2.98-.27-5.38,26.78-2.43s-2.01,9.13-4.66,14.96c-2.66,5.82-2.4,18.58-2.4,18.58h-3.43l-51.64-1.1.02-6.69-20.2-.11v1.08l-6.53-.58-38.99-18.79.82-2.26Z"/>
</svg>