<?xml version="1.0" encoding="UTF-8"?>
<svg id="Layer_1" data-name="Layer 1" xmlns="http://www.w3.org/2000/svg" viewBox="0 0 1440 1440">
  <defs>
    <style>
      .cls-1 {
        fill: #141414;
      }
    </style>
  </defs>
  <path d="M317.47,1248.49s-1.52,1.51-2.56,2.51c-4.39,4.22-5.35,19.89-5.8,23.02h101.48c-.04-1.04-.48-2.03-1.25-2.76-12.03-11.48-21.62-12.38-40.54-24.07l.5-13.76,13.03.28c.07,4.55,5.83-63.67,10.5-120.96l4.76-90.94s.6,4.58,3.11,6.65c2.5,2.07,6.91,1.47,6.48-3.89-.43-5.35-1.3-34.53-1.3-34.53l-6.65-15.11.17-39.91s9.99.24,9.76-.1l-3.02-57.89s12.87,4.73,16.25,3.48c9.45-3.52,15.74-38.17,15.74-38.17l4.03.72,3.97-16.63-3.54-1.92s5.86-40.74,7.12-42.12c7.51-8.2,10.61-14.94,11.96-20.91,4.06-18.02-7.47-18.56-7.47-18.56,0,0,.99-4.36-.6-6.78-1.55-2.35-3.85-2.23-3.85-2.23,0,0,.56-20.16-4.95-19.08-1.31.26-1.94,2.07-1.94,2.07l-2.33,18.84s-6.69,5.47-6.8,4.92c-1.17-5.96-4.86-9.58-6.22-7.64-2.8,4-2.2,22.48-3.3,29.72-.6,3.96,5.99,13.85,5.99,13.85l-10.28,40.18-3.97-1.12-4.32,13.86,3.51,3.6-2.33,4.69-13.22-15.96c.07-1.11-10.3-46.19-9.97-52.12.76-13.44-7.57-21-7.34-21.93.46-1.92.6-10.96.88-12.66.07-.36.13-.74.34-1.04.58-.84,2.36-.15,3.17-.04,1.36.19,12.33.22,14.95-1.38,2.35-1.44,3.72-3.95,4.39-6.56.54-2.06.86-4.87.94-7,.04-.98.05-1.96.04-2.94-.05-3.34-1.42-6.74-1.99-10.03-.01-.11-.34-1.96-.35-1.96l2.67-.43-.76-3.98s-1.02-.52,1.3-.97c2.64-.52,4.01-3.46,4.15-5.92.12-1.97-1.14-4.11-2.47-5.57l-11.21-9,.1-1.25.61-3.32-1.96-.5c.42-3.25-4.17-14.67-4.17-14.67l1.1.07.1-4.17c-2.54-15.69-23.01-10.12-42.79-8.47-19.6,1.64-27.55,13.69-28.59,22.58-1.03,8.89,19.45,50.32,19.45,50.32,0,0,5.38,5.78,1.63,18.37-2.36,7.9-12.9,24.83-18.9,33.22-10.54,14.76-7.24,33.66-7.35,45.57-.51,57.06,1.69,109.24,1.17,114.25-.39,3.85,5.9,4.68,5.9,4.68-6.21,6.61-7.93,12.77-8.49,35.36-.6,24.43,2.55,31.55.65,80.42-1.01,26.02-5.74,73.59-5.74,73.59l-5.38,108.69,12.42.25-.59,15.18ZM340.98,1235.25l6.3.09-1,12.12-5.64-.34.34-11.86Z"/>
  <path class="cls-1" d="M296.75,629.39c-2.82,0-5.52.85-7.6,2.42-2.08,1.56-3.72,4-3.72,7.02s1.64,5.46,3.72,7.02c2.08,1.56,4.78,2.42,7.6,2.42s5.52-.85,7.6-2.42c2.08-1.56,3.72-4,3.72-7.02s-1.64-5.46-3.72-7.02c-2.08-1.57-4.78-2.42-7.6-2.42ZM266.84,579.88c-5.61,0-10.58,2.74-13.64,6.96-3.5-.81-7.16-.48-10.45.94-3.29,1.42-6.05,3.85-7.86,6.95-1.82,3.09-2.6,6.69-2.23,10.25.37,3.57,1.87,6.93,4.27,9.58.07,2.78.82,5.5,2.2,7.91,1.37,2.42,3.33,4.45,5.68,5.93,2.35,1.48,5.04,2.35,7.81,2.54,2.77.19,5.55-.31,8.08-1.45,2.02,1.61,4.39,2.73,6.91,3.28,2.52.55,5.14.51,7.65-.11,2.51-.62,4.84-1.81,6.81-3.48,1.97-1.67,3.54-3.77,4.57-6.13,3.33-1.45,6.1-3.94,7.9-7.09,1.8-3.15,2.53-6.81,2.09-10.41-.44-3.61-2.04-6.97-4.55-9.59-2.51-2.62-5.81-4.36-9.39-4.96-1.18-3.26-3.33-6.07-6.17-8.06-2.84-1.99-6.22-3.06-9.68-3.05h0Z"/>
</svg>