<?xml version="1.0" encoding="UTF-8"?>
<svg id="Layer_1" data-name="Layer 1" xmlns="http://www.w3.org/2000/svg" viewBox="0 0 1440 1440">
  <defs>
    <style>
      .cls-1 {
        fill: #141414;
      }
    </style>
  </defs>
  <path d="M317.47,1248.49s-1.52,1.51-2.56,2.51c-4.39,4.22-5.35,19.89-5.8,23.02h101.48c-.04-1.04-.48-2.03-1.25-2.76-12.03-11.48-21.62-12.38-40.54-24.07l.5-13.76,12.61.27c.07,4.55,5.45-63.93,10.12-121.22l7.2-137.55-.33-39.51s10.49-.16,10.27-.5l-4.18-58.77s15.42,3.89,18.8,2.63c9.45-3.52,5.53-41.47,5.53-41.47l4.03.72.39-18.32-5.44-.75s-2.88-43-2.36-44.8c3.58-12.39,2.44-10.47,2.94-14.99,2.02-18.36-2.09-17.37-3.69-19.79-1.55-2.35-5.14-4.66-5.14-4.66,0,0-5.18-29.76-10.69-28.68-1.31.26-1.94,2.07-1.94,2.07l4.79,25.19s-6.99-1.81-9.78,2.4c-2.41,3.64-2.59,8.36-2.64,8.1-.84-4.31-2.67-8.7-5.38-9.98,2.26-.22,4.28-.58,5.22-1.16,2.35-1.44,3.72-3.95,4.39-6.56.54-2.06.86-4.87.94-7,.04-.98.05-1.96.04-2.94-.05-3.34-1.42-7.74-1.99-11.03-.01-.11-.34-1.96-.35-1.96l2.67-.43-.76-3.98s-1.02-.52,1.3-.97c2.64-.52,4.01-3.46,4.15-5.92.12-1.97-1.14-4.11-2.47-5.57l-11.21-9,.1-1.25.61-3.32-1.96-.5c.42-3.25-4.17-13.67-4.17-13.67l1.1.07.1-4.17c-2.54-15.69-23.01-10.12-42.79-8.47-19.6,1.64-27.55,13.69-28.59,22.58-1.03,8.89,20.45,50.32,20.45,50.32,0,0,4.03,6.04,1.05,18.56-1.91,8.02-12.32,24.21-18.32,32.6-10.54,14.76-6.23,34.09-6.34,46-.51,57.06,1.69,109.24,1.17,114.25-.39,3.85,5.9,4.68,5.9,4.68-6.21,6.61-7.93,12.77-8.49,35.36-.6,24.43,2.55,31.55.65,80.42-1.01,26.02-5.74,73.59-5.74,73.59l-5.38,108.69,12.42.25-.59,15.18ZM381.13,735.13c.07-.36.13-.74.34-1.04.58-.84,2.36-.15,3.17-.04.61.08,3.13.14,5.97.03-3.77,2.73,4.09,20.13,4.81,26.37.46,3.98,11.84,13.1,11.84,13.1l-.5,43.77-5.34.17-1,7.9c.07-1.11-12.16-49.74-11.83-55.67.76-13.44-7.57-21-7.34-21.93.46-1.92-.4-10.96-.12-12.66ZM340.98,1235.25l6.3.09-1,12.12-5.64-.34.34-11.86Z"/>
  <path class="cls-1" d="M274.95,593.05c-8.26,0-16.16,2.5-22.24,7.07-6.1,4.56-10.89,11.71-10.89,20.54s4.79,15.98,10.89,20.54c6.07,4.57,13.98,7.07,22.24,7.07s16.16-2.5,22.24-7.07c6.1-4.55,10.89-11.71,10.89-20.54s-4.79-15.98-10.89-20.54c-6.07-4.58-13.98-7.07-22.24-7.07ZM187.44,448.21c-16.42,0-30.96,8.03-39.9,20.37-10.22-2.36-20.93-1.39-30.57,2.76-9.64,4.15-17.7,11.27-23.01,20.32-5.31,9.05-7.59,19.56-6.52,29.99,1.08,10.44,5.46,20.26,12.5,28.03.2,8.13,2.41,16.08,6.43,23.15,4.02,7.07,9.73,13.03,16.61,17.35,6.88,4.33,14.73,6.88,22.84,7.44,8.11.56,16.23-.9,23.65-4.25,5.91,4.71,12.83,7.99,20.21,9.6,7.38,1.61,15.04,1.5,22.37-.32,7.33-1.82,14.15-5.31,19.92-10.19,5.77-4.88,10.35-11.02,13.37-17.95,9.74-4.24,17.85-11.52,23.12-20.75s7.41-19.91,6.11-30.46c-1.3-10.55-5.97-20.39-13.32-28.06-7.35-7.67-16.98-12.77-27.47-14.52-3.44-9.53-9.74-17.77-18.04-23.59-8.3-5.82-18.18-8.94-28.32-8.94h-.01Z"/>
</svg>