<?xml version="1.0" encoding="UTF-8"?>
<svg id="Layer_1" data-name="Layer 1" xmlns="http://www.w3.org/2000/svg" viewBox="0 0 1440 1440">
  <path d="M531.25,840.28c-2.07,7.06-6.76,30.44-6.76,30.44l-22.11.76v-3.42h-18.85v3.2h-5.58l-62.25-6.23c2.16-4.66.65-7.21.65-7.21,0,0,5.75-8.26,7.08-10.3,1.32-2.04,3.52-.5,3.52-.5,4.72,1.91,7.38,4.39,16.25,4.42,8.87.03,11.47-6.72,12.57-11.51,1.09-4.8,3.2-12.26,3.2-12.26l2.33-.43.14-4.95s1.1-.23,3.46-.2c2.37.04,4.41-1.42,5.05-4.66.65-3.24-1.74-5.76-1.74-5.76l-5.54-6.68.1-1.25.61-3.32-1.96-.5c.42-3.25,2.3-21.03,2.3-21.03l1.1.07.1-4.17c1.38-11.91-27.97-21.99-47.82-21.99s-21.76,11.48-22.8,20.37c-1.03,8.89,1.74,46.75,1.74,46.75,0,0-1.92,6.42-5.1,9.14-3.17,2.72-20.79,3.66-32.83,6.7-12.05,3.04-23.02,16.61-23.02,16.61-31.13,31.31-75.99,97.16-78.36,100.23-2.37,3.06-1.77,5.46-1.77,5.46-11.27,2.72-23.99,13.49-35.56,24.89-11.57,11.4-9.62,34.67-9.62,34.67l-20.18,93.25-96.82,46.68,4.02,7.47s-11.53,7.06-24.39,6.41c-4.2-.21-18.44,4.75-18.87,6.31-.44,1.55,33.24,71.95,33.24,71.95,0,0,9.07-6.25,9.03-13.12-.09-13.82,1.14-22.56,2.76-28.64,1.62-6.09-2.33-12.39-2.33-12.39l11.93-5.64,5.77,10.56s.64,2.78,4.07,1.29c2.26-.97,88.81-33.21,114.95-44.18,5.36-2.24,21.22-46.1,21.22-46.1l6.73,17.44-29.22,105.18c-1.55,2.85,7.51,3.69,7.51,3.69l-5.35,16.03s-5.04-.91-9.25,8.15c-2.07,4.46-3.12,8.8-3.64,12.06h65.71c-7.48-6.28-25.78-17.48-25.78-17.48l4.62-14.97,12.8,2.85s34.75-89.95,40.79-116.59c2.83-12.46-26.76-90.64-27.2-96.08-.43-5.44,4.06-8.72,4.06-8.72l13.08-15.67,7.86,3.97c11.65-10.01,65.13-72.9,65.13-72.9l54.88,16.61s12.22-2.07,13.84-1.61c1.62.45,1.21.81,1.76,2.56.55,1.75,1.13,1.62,1.13,1.62,0,0,12.92-1.91,16.51-1.75,3.59.17,3.14-.77,3.14-.77,0,0,.03-2.73-.03-3.44-.07-.71,1.61-.48,1.61-.48,0,0,36.44-3.94,43.39-2.64,6.95,1.29,6.69-.93,6.69-.93h4.6c6.22-.52,6.39-3.06,7.3-8.63.9-5.57,5.05-8.98,5.05-8.98v-96.89c-5.25-2.92-8.58.13-10.65,7.18ZM528.22,908.7c-2.66,5.82-2.4,18.58-2.4,18.58h-3.43l-51.01.97-1.09-6.25-18.68.48-.27,2.11-6.15-.46-42.49-16.56,3.23-5.4,78.42-2.54.12,2.59,20.27-1.42-.06-4.41,28.2-2.65s-2.01,9.13-4.66,14.96Z"/>
</svg>