<?xml version="1.0" encoding="UTF-8"?>
<svg id="Layer_1" data-name="Layer 1" xmlns="http://www.w3.org/2000/svg" viewBox="0 0 1440 1440">
  <path d="M171.27,1274.02c-.82-8.8-3.11-12.3-4.08-17.4-2.33-12.17-5.2-18.75-5.2-18.75l12.65-11.43,9.52,8.52s2.2,1,5.63-.49c2.25-.98,55.86-45.93,76.92-70.45,4.37-5.08,43.05-73.69,43.05-73.69l21.09,32.74-26.08,107.29c-1.55,2.85,7.55,5.35,7.55,5.35l-4.14,12.3s-4.15,3.47-5.05,4.32c-6.73,6.29-7.27,18.03-7.27,21.67h71.88l.14-5.53c-4.83-7.86-33.28-19.47-33.28-19.47l3.76-11.61,15.28,3.88s32.65-98.07,35.37-120.6c1.53-12.69-42.45-83.85-42.89-89.29-.43-5.44,4.92-10.55,4.92-10.55l10.47-12.32,7.86,3.97c11.65-10.01,58.74-78.7,58.74-78.7l53.94,16.29,17.48,1.6.82,4.19s14.24-1.09,17.83-.93c3.59.17,3.14-.77,3.14-.77,0,0,.03-3.73-.03-4.44-.07-.71,1.61-.48,1.61-.48,0,0,38.32-2.93,45.27-1.63,6.95,1.29,6.69-.93,6.69-.93h4.6c6.22-.52,5.47-1.27,6.38-6.84.9-5.57,5.05-8.98,5.05-8.98v-96.89c-5.25-2.92-8.58.13-10.65,7.18-2.07,7.06-6.76,30.44-6.76,30.44l-20.62,1.75v-3.42h-20.38v3.2h-7.58l-63.09-6.43c2.16-4.66,1.59-14.66,1.59-14.66,0,0,5.43-7.4,6.76-9.44,1.32-2.04,3.52-.5,3.52-.5,4.72,1.91,7.38,4.4,16.25,4.43,8.87.03,10.52-7.02,11.62-11.81,1.1-4.8,3.21-12.26,3.21-12.26l2.33-.43.14-4.95s1.1-.23,3.46-.2c2.37.04,4.41-1.42,5.05-4.66.65-3.24-1.74-5.76-1.74-5.76l-5.54-6.68.1-1.25.61-3.32-1.96-.5c.42-3.25,2.3-21.03,2.3-21.03l1.1.07.1-4.17c1.38-11.91-28.53-23.75-48.38-23.75s-21.76,11.48-22.8,20.37c-1.03,8.89,1.62,48.69,1.62,48.69,0,0-1.85,7.96-5.03,10.68-3.17,2.72-21.13,6.88-33.17,9.92-12.05,3.04-21.41,16.03-21.41,16.03-31.13,31.31-70.93,98.8-73.3,101.87-2.37,3.06-1.77,5.46-1.77,5.46-11.27,2.72-25.85,15.15-37.42,26.55-1.94,1.91-7.62,15.23-8.75,22.39-8.46,53.49-32.95,116.44-32.95,116.44l-80.28,78.87,5.63,5.31-13.11,11.09s-3.86-.51-4.92-.37c-4.17.56-19.38,12.11-19.81,13.66-.29,1.03,20.72,25.15,34.85,41.23h21.57ZM536.1,901.42l.12,2.59,20.38-2.2-.09-6.3,26.81-3.64s-3.46,11.88-6.11,17.71c-2.66,5.82-2.09,16.65-2.09,16.65h-3.43l-52.2.8-.3-5.27-19.12-.13.03,2.67-9.78-1.39-36.15-19.4-3.65-2.13,85.57.03Z"/>
</svg>