<?xml version="1.0" encoding="UTF-8"?>
<svg id="Layer_1" data-name="Layer 1" xmlns="http://www.w3.org/2000/svg" viewBox="0 0 1440 1440">
  <path d="M77.76,1235.56c-.09-13.81,1.14-22.55,2.76-28.64,1.62-6.09-2.33-12.39-2.33-12.39l11.94-5.63,5.76,10.55s.65,2.78,4.08,1.29c2.25-.98,89.63-35.19,115.78-46.15,5.35-2.24,38.44-67.19,38.44-67.19l16.36,39.93-18.26,106.75c-1.55,2.85,7.5,3.69,7.5,3.69l-5.35,16.04s-5.04-.92-9.25,8.14c-2.07,4.47-3.12,8.81-3.65,12.06h65.73c-7.48-6.28-25.79-17.48-25.79-17.48l4.62-14.96,12.8,2.85s25.45-92.37,31.49-119.01c2.83-12.46-35.73-88.85-36.17-94.29-.43-5.44,3-6.95,3-6.95l13.08-15.67,7.86,3.97c11.65-10.01,63.88-74.04,63.88-74.04l55.9,16.66s11.22-1.07,12.84-.61c1.62.45,1.22.81,1.77,2.56s1.13,1.62,1.13,1.62c0,0,12.92-1.91,16.51-1.75,3.59.17,3.14-.77,3.14-.77,0,0,.03-3.73-.03-4.44-.07-.71,1.61-.48,1.61-.48,0,0,36.41-3.99,43.36-2.69,6.95,1.29,6.69-.93,6.69-.93h4.6c6.22-.52,6.39-3.06,7.3-8.63.9-5.57,5.05-8.98,5.05-8.98v-96.89c-5.25-2.92-8.58.13-10.65,7.18-2.07,7.06-6.76,30.44-6.76,30.44l-22.11.76v-3.42h-18.85v3.2h-5.58l-60.5-5.14c2.16-4.66.65-7.21.65-7.21,0,0,5.43-6.54,6.76-8.58,1.32-2.04,3.52-.5,3.52-.5,4.72,1.91,7.38,4.4,16.25,4.43s11.46-6.72,12.56-11.51c1.1-4.8,3.21-12.26,3.21-12.26l2.33-.43.14-4.95s1.1-.23,3.46-.2c2.37.04,4.41-1.42,5.05-4.66.65-3.24-1.74-5.76-1.74-5.76l-5.54-6.68.1-1.25.61-3.32-1.96-.5c.42-3.25,2.3-21.03,2.3-21.03l1.1.07.1-4.17c1.38-11.91-27.97-21.99-47.82-21.99s-21.76,11.48-22.8,20.37c-1.03,8.89,1.74,46.75,1.74,46.75,0,0-1.72,5.21-4.9,7.93-3.17,2.72-21.02,4.51-33.06,7.55-12.05,3.04-22.31,14.83-22.31,14.83-31.13,31.31-77.41,97.25-79.78,100.32-2.37,3.06-1.77,5.46-1.77,5.46-11.27,2.72-23.99,13.49-35.56,24.89-11.57,11.4-10.31,33.92-10.31,33.92l-33.84,91.57-101.31,48.37,4.01,7.47s-11.53,7.06-24.39,6.41c-4.2-.21-18.44,4.75-18.87,6.31-.43,1.55,33.35,70.95,33.35,70.95,0,0,9.06-6.25,9.02-13.12ZM404.43,902.02l79.93-2.39.12,2.59,20.27-1.42-.06-4.41,28.2-2.65s-2.01,9.13-4.66,14.96c-2.66,5.82-2.4,18.58-2.4,18.58h-3.43l-50.89.87-.3-5.27-17.68-.52v2.98l-11.28-.62-40.27-18.13,2.46-4.58Z"/>
</svg>