<?xml version="1.0" encoding="UTF-8"?>
<svg id="Layer_1" data-name="Layer 1" xmlns="http://www.w3.org/2000/svg" viewBox="0 0 1440 1440">
  <path d="M318.76,1274.02h93.09v-.03c-12.78-12.96-23.99-15.02-43.72-27.21l1.17-13.35,7.92-.35c.07,4.55,11.31-73.12,20.81-116.11,1.71-7.75-3.11-82.16-1.08-126.91,1.03-22.92.66-52.94.66-52.94l10.39.36c-.69-11.57-.13-14.03-.13-14.03l6.41,9.87s16.66,22.4,21.97,27.06c4.79,4.21,17.5,9.82,21.71,12.71,6.41,4.41,11.25,21.08,16.17,23.7.7.38,2.37.25,3.15-1.12,1.02-1.81.5-5.7.65-5.48,1.64,2.53,6.71,2.23,7.3.02,1.41-5.31-.18-14.73,0-15.56.28-1.27,13.56,10.99,16.77,8.05,1.49-1.37,1.04-3.11.91-3.69-.38-1.63-25.19-21.36-30.93-26.19-.79-.66-1.74-1.09-2.75-1.26-10.7-1.78-17.01-3.95-17.54-4.11-1.24-.37-2.3-1.19-3.02-2.27l-28.08-41.97,2.68-3.63-6.32-9.09,32.89-24.6,1.43,2.63,14.97-11.5-2.95-4.43s28.39-27.93,30.17-28.52c10.36-3.44,17.01-10.46,21.74-15.62.87-.95,2.69-2.54,3.95-3.66.42-.38,8.84-5.29,10.77-8.25.65-1.01,1.4-2.45-.84-3.99-2.46-1.68-7.34,1.13-5.39-1.12.93-1.07,10.81-7.57,6.22-10.75-1.1-.76-3.67.47-5.8,1.77,3.54-2.68,8.26-7.11,5.41-9.66-2.68-2.4-8.83,2.55-11.03,4.47,1.96-1.81,6.75-6.49,5.33-7.65-5.45-4.45-10.22.5-15.86,5.44-2.91,2.55-8.03.65-14.77,6.99-5.98,5.64-16.12,25.93-16.12,25.93l-28.15,25.44-2.49-2.78-13.75,9.6,1.55,2.37-14.04,8.24-16.49-29.11c.07-1.11-8.42-41.32-8.09-47.25.76-13.44-6.1-22.81-5.87-23.74.46-1.92,1.67-11.16,1.95-12.86.07-.36.13-.74.34-1.04.58-.84,2.36-.15,3.17-.04,1.36.19,2.72.33,4.09.44,2.73.22,1.22-.08,3.97.03,2.95.13,6.1.28,8.72-1.32,2.35-1.44,3.72-3.95,4.39-6.56.54-2.06.77-4.19.85-6.32.04-.98.05-1.96.04-2.94-.05-3.34-.8-7.03-1.37-10.32-.01-.11-.34-1.96-.35-1.96l2.67-.43-.76-3.98s-1.02-.52,1.3-.97c2.64-.52,4.01-3.46,4.15-5.92.12-1.97-1.14-4.11-2.47-5.57l-11.21-9,.1-1.25.61-3.32-1.96-.5c.42-3.25-2.25-14.85-2.25-14.85l1.1.07.1-4.17c-2.54-15.69-25.93-9.94-45.71-8.29-19.6,1.64-26.09,12.92-27.13,21.81-1.03,8.89,19.45,50.32,19.45,50.32,0,0-.36,14.49-2.19,18.26-2.67,5.53-12.88,22.82-18.88,31.21-10.54,14.76-9.63,47.05-9.63,47.05-3.88,53.36-4.49,106.6-5.01,111.61-.39,3.85,5.9,4.68,5.9,4.68-6.21,6.61-7.93,11.84-10.04,34.34-2.72,29.07,5.05,36.65,7.45,81.22,1.39,26,1.87,80.2,1.87,80.2l-9.56,101.89,5.85,1.47-1.81,14.76s-1.71.26-2.77.4c-4.17.56-10.27,20.46-10.7,22.01-.1.37,5.76,1.55,14.76,3.12ZM340.98,1235.25l6.59.56-1.36,12.26-6.05-.99.82-11.83Z"/>
</svg>