<?xml version="1.0" encoding="UTF-8"?>
<svg id="Layer_1" data-name="Layer 1" xmlns="http://www.w3.org/2000/svg" viewBox="0 0 1440 1440">
  <path d="M138.41,1238.56c2.78-6.28-.96-39.92.98-41.92,1.94-2.01,8.36-5.17,9.59-3.23,1.23,1.94,5.76,10.55,5.76,10.55,0,0,.65,2.78,4.08,1.29s47.12-25.07,47.12-25.07l3.11-.78-16.36,53.01c-1.55,2.85,8.01,4.86,8.01,4.86l-3.13,11.04s-5.04-.92-9.25,8.14c-3.99,8.62-4.19,16.76-4.2,17.55h64.29v-2.13c-1.16-3.88-24.02-17.06-24.02-17.06l3.51-12.95,14.1,1.74s23.89-61.09,31.66-77.76c13.34-28.62,14.46-33.88,14.46-46.66s-.77-75.63-1.21-81.07c-.43-5.44,4.06-8.72,4.06-8.72l20.3-27.71,7.86,3.97c11.65-10.01,61.43-75.49,61.43-75.49l56.02,18.76s10.01-.46,11.63,0c1.62.45,2.14,1.81,2.69,3.56.55,1.75,1.13,1.62,1.13,1.62,0,0,11.92.09,15.51.25,3.59.17,3.14-.77,3.14-.77,0,0,.03-3.73-.03-4.44-.07-.71,1.61-.48,1.61-.48,0,0,39.38-2.73,46.33-1.43,6.95,1.29,6.69-.93,6.69-.93h4.6c6.22-.52,6.39-3.06,7.3-8.63.9-5.57,5.05-8.98,5.05-8.98v-96.89c-5.25-2.92-8.58.13-10.65,7.18-2.07,7.06-6.76,31.69-6.76,31.69l-22.11.76v-3.42h-18.85v3.2h-5.58l-65.1-9.87c2.16-4.66.65-8.46.65-8.46,0,0,7.75-11.26,9.08-13.3,1.32-2.04,3.52-.5,3.52-.5,4.72,1.91,8.34,4.38,17.21,4.41,8.87.03,10.41-7.28,11.51-12.07,1.1-4.8,3.21-12.26,3.21-12.26l2.33-.43.14-4.95s1.1-.23,3.46-.2c2.37.04,4.41-1.42,5.05-4.66.65-3.24-1.74-5.76-1.74-5.76l-5.54-6.68.1-1.25.61-3.32-1.96-.5c.42-3.25,2.3-21.03,2.3-21.03l1.1.07.1-4.17c1.38-11.91-27.97-21.99-47.82-21.99s-21.76,11.48-22.8,20.37c-1.03,8.89,1.74,46.75,1.74,46.75,0,0-1.92,6.43-5.1,9.15-3.17,2.72-21.5,5.44-33.54,8.48-12.05,3.04-24.18,17.85-24.18,17.85-31.13,31.31-73.12,97.13-75.49,100.2-2.37,3.06-1.77,5.46-1.77,5.46-11.27,2.72-23.99,13.49-35.56,24.89-11.57,11.4-8.39,34.33-8.39,34.33l1.45,98.78-81.13,51.21,3.28,7.65-12.63,8.71s-9.17.43-14.31,1.29c-4.09.69-12.97,4.21-13.4,5.76-.43,1.55,34.58,68.24,34.58,68.24,0,0,6.39-8.59,9.17-14.87ZM484.87,899.41l.12,2.59,20.27-1.42-.06-4.41,28.2-3.65s-2.01,9.13-4.66,14.96c-2.66,5.82-2.4,18.58-2.4,18.58h-3.43l-51.77.51-1.36-7.12-17.68-.52v2.98l-6.15-.46-43.66-23.43,82.58,1.39Z"/>
</svg>