<?xml version="1.0" encoding="UTF-8"?>
<svg id="Layer_1" data-name="Layer 1" xmlns="http://www.w3.org/2000/svg" viewBox="0 0 1440 1440">
  <path d="M304.52,1274.02h107.33v-.03c-12.78-12.96-22.87-15.02-42.6-27.22l1.04-11.87,2.5-.39c.07,4.55,14.16-108.63,14.89-151.3.14-7.93,1.38-48.11,3.67-95.2,1.11-22.82,1.73-45.67,1.73-45.67l11.38.92c3.63-23.31,2.38-43.66,2.38-43.66l3.93,1.51-1.04,3.31,13.82,14.09,3.7-2.26,7.38,5.94s30.45,29.65,37.4,30.95c5.2.97,11.17,2.52,16.2,3.41,6.42,1.13,16.34.71,21.03,1.03,1.72.12,4.69,7.04,9.62,9.66,1.64.87,3.32-3.58,3.76-3.43,3.5,1.13,6.61-1.19,5.35-3.1-2.8-4.28-6.3-6.16-6.12-6.99.28-1.27,11.89,5.99,15.1,3.05,1.49-1.37,1.04-3.11.91-3.69-.43-1.85-9.5-7.39-9.5-7.39,5.35-1.05,14.69-1.72,13.52-5.41-.4-1.27-6.32-2.15-13.91-3-16.69-1.89-32.76-1.55-32.76-1.55-1.01.79-12.44.19-13.72.19-.96,0-1.89-.24-2.73-.69l-35.9-36.33,2.01-5.31-8.66-8.7,21.92-5.84.32,3.36,18.99-5.5-.27-5.03s23.09-12.21,33.82-19.01c2.39-1.51,7.37-.18,9.16-.78,10.36-3.43,20.07-15.99,27.02-16.83,1.5-.18,3.65,4.34,6.51,5.11,1.19.32,4.93-1.47,4.73-2.69-.86-5.11-8.34-8.23-7.09-9.36.42-.38,5.18,3.36,5.99,3.82,1.77,1.02,6.16,2.05,6.19,0v-.03c0-.79-1.07-2.3-1.07-2.3l-5.96-6.57c1.91.16,5.48,3.07,7.43.83.93-1.08.9-2.69.08-3.85l-2.16-3.05-1.59-1.5c.28-.06.56-.12.85-.2,2.06-.58,2.7-3.19,1.15-4.67l-3.15-2.99c-13.99-6.82-26.29.64-31.73,4.1-6.94,4.4-21.93,22.71-21.93,22.71l-32.83,11.96-1.36-3.43-19.17,5.74.33,3.21-12.63,1.97-30.52-35.78c.07-1.11-3.96-32.49-3.63-38.42.76-13.44-6.36-22.55-6.13-23.48.46-1.92,3.67-12.05,3.95-13.75.07-.36.13-.74.34-1.04.58-.84,2.36-.15,3.17-.04,1.36.19,2.72.33,4.09.44,2.73.22,1.22-.07,3.97.04,2.95.13,6.1.28,8.72-1.32,2.35-1.44,3.72-3.95,4.39-6.56.54-2.06.77-4.19.85-6.32.04-.98.05-1.96.04-2.94-.05-3.34-.8-7.04-1.37-10.32-.01-.11-.34-1.96-.35-1.96l2.67-.43-.76-3.98s-1.02-.52,1.3-.97c2.64-.52,4.01-3.46,4.15-5.92.12-1.97-1.13-4.11-2.46-5.57l-11.21-9,.1-1.25.61-3.32-1.96-.5c.42-3.25-2.25-14.85-2.25-14.85l1.1.07.1-4.17c-2.54-15.69-25.93-9.94-45.71-8.29-19.6,1.64-24.41,12.15-25.45,21.04-1.03,8.89,17.76,51.09,17.76,51.09,0,0,.55,14.89-2.63,17.61-3.17,2.72-15.13,21.41-21.13,29.81-10.54,14.75-12.32,42.8-12.32,42.8-10.23,49.86-12.02,106.2-14.39,109.27-2.37,3.06,5.27,6.85,5.27,6.85-6.21,6.61-9.85,10.59-14.27,34.36-2.47,13.24,10.01,60.28,10.64,70.01,1.68,25.99,2.22,76.92,2.22,76.92l-13.16,119.35,5.85,1.47-3.11,11.48s-1.71.26-2.77.4c-4.17.56-8.91,21.94-9.34,23.49-.2.72,3.89,2.23,8.37,3.65ZM346.18,1235.26l-1.12,14.29-9.39-1.13-.47-13.51,10.98.35Z"/>
</svg>