<?xml version="1.0" encoding="UTF-8"?>
<svg id="Layer_1" data-name="Layer 1" xmlns="http://www.w3.org/2000/svg" viewBox="0 0 1440 1440">
  <defs>
    <style>
      .cls-1 {
        fill: #141414;
      }
    </style>
  </defs>
  <path d="M317.47,1248.49s-1.52,1.51-2.56,2.51c-4.39,4.22-5.35,19.89-5.8,23.02h101.48c-.04-1.04-.48-2.03-1.25-2.76-12.03-11.48-21.62-12.38-40.54-24.07l.5-13.76,12.61.27c.07,4.55,5.45-63.93,10.12-121.22l7.2-137.55-.33-39.51s8.62.08,8.39-.25l-3.54-58.98s15.49,4.08,18.86,2.82c9.45-3.52,4.9-41.52,4.9-41.52l5.83.55-.86-18.35-6.39-.12s-2.85-44.22-2.33-46.03c3.58-12.39,2.44-10.47,2.94-14.99,2.02-18.36-1.66-16.19-3.26-18.6-1.03-1.57-3.28-3.12-4.66-3.99-.74-.46-1.24-1.22-1.38-2.08-.92-5.9-4.75-28.54-9.55-27.6-1.31.26-1.94,2.07-1.94,2.07l4.1,25.72s-6.88-2.61-9.67,1.6c-2.41,3.64-3.58,9.19-3.63,8.94-1.17-5.96-4.21-12.11-8.87-9.91-4.42,2.09,2.75,19.93,4.79,26.83.46,3.98,12.52,11.95,12.52,11.95v44.55l-4.88.22.15,7.15c.07-1.11-12.16-49.74-11.83-55.67.76-13.44-7.57-21-7.34-21.93.46-1.92-.4-10.96-.12-12.66.07-.36.13-.74.34-1.04.58-.84,2.36-.15,3.17-.04,1.36.19,12.33.22,14.95-1.38,2.35-1.44,3.72-3.95,4.39-6.56.54-2.06.86-4.87.94-7,.04-.98.05-1.96.04-2.94-.05-3.34-1.42-7.74-1.99-11.03-.01-.11-.34-1.96-.35-1.96l2.67-.43-.76-3.98s-1.02-.52,1.3-.97c2.64-.52,4.01-3.46,4.15-5.92.12-1.97-1.14-4.11-2.47-5.57l-11.21-9,.1-1.25.61-3.32-1.96-.5c.42-3.25-4.17-13.67-4.17-13.67l1.1.07.1-4.17c-2.54-15.69-23.01-10.12-42.79-8.47-19.6,1.64-27.55,13.69-28.59,22.58-1.03,8.89,20.45,50.32,20.45,50.32,0,0,4.03,6.04,1.05,18.56-1.91,8.02-12.32,24.21-18.32,32.6-10.54,14.76-6.23,34.09-6.34,46-.51,57.06,1.69,109.24,1.17,114.25-.39,3.85,5.9,4.68,5.9,4.68-6.21,6.61-7.93,12.77-8.49,35.36-.6,24.43,2.55,31.55.65,80.42-1.01,26.02-5.74,73.59-5.74,73.59l-5.38,108.69,12.42.25-.59,15.18ZM340.98,1235.25l6.3.09-1,12.12-5.64-.34.34-11.86Z"/>
  <path class="cls-1" d="M271.51,587.33c-9.12,0-17.83,2.75-24.55,7.8-6.73,5.03-12.02,12.92-12.02,22.67s5.29,17.64,12.02,22.67c6.7,5.05,15.43,7.8,24.55,7.8s17.83-2.75,24.55-7.8c6.73-5.02,12.02-12.92,12.02-22.67s-5.29-17.64-12.02-22.67c-6.7-5.06-15.43-7.8-24.55-7.8ZM174.95,427.49c-18.12,0-34.16,8.86-44.04,22.47-11.28-2.6-23.1-1.53-33.74,3.05-10.63,4.58-19.53,12.44-25.39,22.42-5.86,9.99-8.38,21.58-7.19,33.1,1.19,11.52,6.02,22.36,13.8,30.94.22,8.97,2.66,17.74,7.1,25.54,4.44,7.8,10.74,14.38,18.33,19.15,7.6,4.77,16.26,7.59,25.21,8.21,8.95.61,17.92-1,26.09-4.69,6.52,5.2,14.16,8.82,22.3,10.6,8.15,1.78,16.6,1.65,24.69-.36,8.09-2.01,15.62-5.86,21.99-11.24,6.37-5.38,11.42-12.16,14.75-19.8,10.75-4.68,19.7-12.71,25.52-22.9,5.81-10.18,8.18-21.97,6.75-33.61-1.43-11.64-6.59-22.5-14.7-30.97-8.11-8.47-18.74-14.09-30.31-16.02-3.8-10.52-10.75-19.61-19.9-26.03-9.15-6.42-20.07-9.87-31.25-9.86h-.01Z"/>
</svg>