<?xml version="1.0" encoding="UTF-8"?>
<svg id="Layer_1" data-name="Layer 1" xmlns="http://www.w3.org/2000/svg" viewBox="0 0 1440 1440">
  <path d="M263,1274.02h104.73l.14-5.53c-4.83-7.86-33.28-19.47-33.28-19.47l.47-11.61,17.07.88s9.24-96.63,11.96-119.16c1.53-12.69-2.32-81.75-2.76-87.19-.43-5.44-4.49-21.24-4.49-21.24l18.04-37.29,7.86,3.97c11.65-10.01,45.88-81.02,45.88-81.02l32.29,19.17,17.44,5.96-.18,4.19s15.27,5.99,18.86,6.15c3.59.17,3.14-.77,3.14-.77,0,0,.03-1.73-.03-2.44-.07-.71,1.61-.48,1.61-.48,0,0,46.14,15.26,53.09,16.56,6.95,1.29,6.69-.93,6.69-.93,0,0,19.39-16.12,20.98-23.4.81-3.72.96-13.46.96-13.46l7.15-7.13.3-19.94-.95.71s-14.48,20.07-19.4,25.45c-4.32,4.72-12.5,17.16-12.5,17.16h-3.43l-47.3-17.72-.3-5.27-21.44-8.15.03,2.67-4.01-1.94-20.1-18.17,54.52,10.93.12,3.59,21.38.8.15-3.92,33.33,2.88.37-.15s2.52-4.71,6.67-5.31,5.01-1.94,7.77-9.97c2.76-8.03,5.62-11.02,5.62-11.02l-.57-28.41c-1.1-6.18-6.93.52-10.75,6.79-4.27,7.01-16.51,26.78-16.51,26.78l-23.76-4.83-.06-4.79-20.29-4.27v3.2l-65.58-23.65c.52-8.55-1.26-9.07.05-14.32.47-1.87-.29-13.42-.29-13.42,0,0,4.96-10.66,5.72-11.82,1.32-2.04,3.52-.5,3.52-.5,4.72,1.91,8.5,1.76,17.37,1.79,8.87.03,9.19-6.5,9.87-11.37.68-4.89,1.21-14.27,1.21-14.27l2.33-.43.14-4.95s.44-.81,2.8-.78c2.37.04,3.41-1.42,4.05-4.66.65-3.24-1.74-5.76-1.74-5.76l-7.99-7.82.1-1.25.61-3.32-1.96-.5c.42-3.25.33-17.61.33-17.61l1.1.07.1-4.17c-.26-13.99-28.24-16.92-48.09-16.92s-22.18,9.9-23.22,18.79c-1.03,8.89,6.78,53.4,6.78,53.4,0,0-1.87,5.31-5.05,8.03-3.17,2.72-20.27,12.41-31.9,16.77-9.51,3.57-26.94,34.19-26.94,34.19-28.36,39.01-47.14,91.68-49.51,94.75-2.37,3.06-1.77,5.46-1.77,5.46-11.27,2.72-28.96,21.22-35.7,45.22-3.64,12.96,1.92,31.02,4.58,40.4,18.65,65.96,25.21,97.21,25.21,97.21l-57.13,93.91,5.46,5.35-8.68,13.34s-3.86-.51-4.92-.37c-4.17.56-15.95,19.1-16.38,20.65-.27.96,21.91,15.03,39.01,25.71ZM276.25,1226.23l14.24,9.02s8.65-11.72,12.09-13.21c2.25-.98-.52,12-.52,12-1.55,2.85,7.48,1.69,7.48,1.69l-1.37,12.3s-4.15,3.47-5.05,4.32c-4.42,4.14-6.17,10.63-6.85,15.62-4.75-4.39-11.72-5.84-12.49-9.89-2.33-12.17-14.35-22.14-14.35-22.14l6.82-9.71Z"/>
</svg>