<?xml version="1.0" encoding="UTF-8"?>
<svg id="Layer_1" data-name="Layer 1" xmlns="http://www.w3.org/2000/svg" viewBox="0 0 1440 1440">
  <path d="M238.57,1274.02h29.91c-2.86-9.54-12.33-13.41-13.34-18.68-2.33-12.17-11.91-19.68-11.91-19.68l11.65-11.4,8.46,7.29s3.3,3.95,6.73,2.46c2.25-.98,13.64-21.8,34.71-46.32,4.37-5.08-2.59,45.15-2.59,45.15-1.55,2.85,7.35,2.87,7.35,2.87l-1.37,12.3s-4.15,3.47-5.05,4.32c-6.73,6.29-7.27,18.03-7.27,21.67h71.88l.14-5.53c-4.83-7.86-33.28-19.47-33.28-19.47l.47-11.61,17.07.88s17.09-102,19.81-124.53c1.53-12.69-20.76-85.56-21.2-91-.43-5.44,9.36-21.27,9.36-21.27l13.13-21.2,7.86,3.97c11.65-10.01,48.68-79.96,48.68-79.96l39.78,21.37,18.03,5.01-.18,4.19s14.24,2.91,17.83,3.07c3.59.17,3.14-.77,3.14-.77,0,0,.03-1.73-.03-2.44-.07-.71,1.61-.48,1.61-.48,0,0,45.84,10.14,52.79,11.44,6.95,1.29,6.69-.93,6.69-.93,0,0,15.77-18.1,17.35-25.38.81-3.72.26-15.22.26-15.22l3.56-5.12.3-19.23-.95.71s-14.75,23.46-17.4,29.29c-2.66,5.82-9.22,14.75-9.22,14.75h-3.43l-48.59-13.47-.3-5.27-20.68-6.25.03,2.67-6.03-2.54-22.84-19.17,60.11,9.8.12,2.59,21.38.8.15-4.92,30.53,2.03.37-.15s4.4-6.22,8.55-6.82c4.14-.6,2.85-1.04,5.61-9.06,2.76-8.03,3.11-12.43,3.11-12.43l-.57-28.41c-5.25-2.92-7.29-.74-9.36,6.31-2.07,7.06-12.95,29.18-12.95,29.18l-25.18-2.61v-3.42l-20.29-3.27v3.2l-70.98-24.19c5.29-5.83,6.63-18.35,6.63-18.35,0,0,5.34-14.55,6.67-16.59,1.32-2.04,3.52-.5,3.52-.5,4.72,1.91,8.73,2.62,17.6,2.65,8.87.03,8.95-6.94,9.62-11.81.68-4.89,1.21-12.27,1.21-12.27l2.33-.43.14-4.95s.44-.81,2.8-.78c2.37.04,4.41-1.42,5.05-4.66.65-3.24-1.74-5.76-1.74-5.76l-6.99-6.82.1-1.25.61-3.32-1.96-.5c.42-3.25.83-18.73.83-18.73l1.1.07.1-4.17c1.38-11.91-26.85-20.5-46.71-20.5s-22.79,9.24-23.83,18.13c-1.03,8.89,4.7,57.73,4.7,57.73,0,0-4.01,3.37-7.19,6.09-3.17,2.72-19.87,7.98-31.5,12.34-9.51,3.57-25.12,27.46-25.12,27.46-28.36,39.01-53.57,95.17-55.94,98.24-2.37,3.06-1.77,5.46-1.77,5.46-11.27,2.72-33.01,23.24-39.37,42.13-4.29,12.76,2.32,39.25,4.19,48.82,12.59,64.68,14.09,90.6,14.09,90.6l-65.78,86.1,6.9,6.58-11.68,12.26s-3.86-.51-4.92-.37c-4.17.56-15.99,16.33-16.42,17.88-.27.98,22.42,20.12,39.14,34.05Z"/>
</svg>