<?xml version="1.0" encoding="UTF-8"?>
<svg id="Layer_1" data-name="Layer 1" xmlns="http://www.w3.org/2000/svg" viewBox="0 0 1440 1440">
  <path d="M183.88,1274.02c-.26-12.79-3.22-16.56-4.37-22.55-2.33-12.17-5.2-18.75-5.2-18.75l12.65-11.43,9.52,8.52s2.2,1,5.63-.49c2.25-.98,64.01-46.32,85.08-70.83,4.37-5.08,27.37-60.69,27.37-60.69l11.57,25.9-21.36,106.69c-1.55,2.85,7.55,5.35,7.55,5.35l-4.14,12.3s-4.15,3.47-5.05,4.32c-6.73,6.29-7.27,18.03-7.27,21.67h71.88l.14-5.53c-4.83-7.86-33.28-19.47-33.28-19.47l3.76-11.61,15.28,3.88s32.65-98.07,35.37-120.6c1.53-12.69-42.15-87.39-42.59-92.83-.43-5.44,7.24-13.51,7.24-13.51l10.47-12.32,7.86,3.97c11.65-10.01,58.12-78.2,58.12-78.2l50.94,18.29,17.48,1.6.82,4.19s14.24-1.09,17.83-.93c3.59.17,3.14-.77,3.14-.77,0,0,.03-1.73-.03-2.44-.07-.71,1.61-.48,1.61-.48,0,0,39.32-.93,46.27.37,6.95,1.29,6.69-.93,6.69-.93h4.6c6.22-.52,5.47-1.27,6.38-6.84.9-5.57,5.05-8.98,5.05-8.98v-96.89c-5.25-2.92-8.58.13-10.65,7.18-2.07,7.06-6.76,30.44-6.76,30.44l-19.62.75v-3.42h-20.38v3.2h-7.58l-62.71-11.84c2.16-4.66,1.21-14.25,1.21-14.25,0,0,5.43-9.4,6.76-11.44,1.32-2.04,3.52-.5,3.52-.5,4.72,1.91,7.38,4.4,16.25,4.43,8.87.03,10.52-7.02,11.62-11.81,1.1-4.8,3.21-12.26,3.21-12.26l2.33-.43.14-4.95s1.1-.23,3.46-.2c2.37.04,4.41-1.42,5.05-4.66.65-3.24-1.74-5.76-1.74-5.76l-5.54-6.68.1-1.25.61-3.32-1.96-.5c.42-3.25,2.3-21.03,2.3-21.03l1.1.07.1-4.17c1.38-11.91-28.53-23.75-48.38-23.75s-21.76,11.48-22.8,20.37c-1.03,8.89,1.62,48.69,1.62,48.69,0,0-1.85,7.96-5.03,10.68-3.17,2.72-20.2,7.06-32.24,10.1-12.05,3.04-23.34,18.84-23.34,18.84-31.13,31.31-68.93,97.8-71.3,100.87-2.37,3.06-1.77,5.46-1.77,5.46-11.27,2.72-25.85,15.15-37.42,26.55-1.94,1.91-9.62,21.23-10.75,28.39-8.46,53.49-16.27,115.73-16.27,115.73l-84.64,74.42,5.63,5.31-13.11,11.09s-3.86-.51-4.92-.37c-4.17.56-19.38,12.11-19.81,13.66-.32,1.15,25.8,30.98,39.39,46.39h17.31ZM536.1,901.42l.12,2.59,20.38-2.2-.09-6.3,26.81-3.64s-3.46,11.88-6.11,17.71c-2.66,5.82-2.09,16.65-2.09,16.65h-3.43l-52.2-4.2-.3-5.27-19.12-.13.03,2.67-9.78-1.39-30.9-17.26-5.9-4.27,82.57,5.03Z"/>
</svg>