<?xml version="1.0" encoding="UTF-8"?>
<svg id="Layer_1" data-name="Layer 1" xmlns="http://www.w3.org/2000/svg" viewBox="0 0 1440 1440">
  <path d="M296.82,1156.74l2.22,76.79,7.92,1.72-.02,16.71s-1.71.25-2.77.39c-4.17.56-8.12,19.95-8.55,21.51-.01.05,0,.1.02.16h106.22v-3.86c-4.83-7.86-41.43-23.35-41.43-23.35l.78-11.74,17.76.71s10.16-104.74,11.37-114.84c1.53-12.69-8.56-84.99-9-90.43-.43-5.44-6.17-38.07-6.17-38.07l8.5-41.15,9.71,3.08c8.62-17.2,19.23-79.32,19.23-79.32l36.13,22.79-1.04,3.3s14.27,9.63,17.86,9.79c3.59.17,3.14-.77,3.14-.77,0,0,.63-.78.57-1.49-.07-.71,1.61-.48,1.61-.48,0,0,39.04,25.88,45.99,27.18,6.95,1.29,8.89-.87,8.89-.87,0,0,24.09-5.09,31.1-13.36,1.49-1.75,19.75.79,21.07-.51.46-.46-.1-3.28-2.17-4.24-4.08-1.89-12.87-1.79-12.69-2.62.28-1.27,21.13-4.94,24.35-7.89,1.49-1.37,1.04-3.11.91-3.69-.42-1.84-7.92-.63-7.92-.63l-6.78.84s10.77-7.07,9.51-11.15c-1.26-4.08-4.93-.24-8.36,2.8-3.43,3.04-13.04,8.85-17.93,8.34s-28.27,11.53-28.27,11.53c-1.01.8-2.51,2.26-3.8,2.26-.95,0-1.89-.24-2.73-.69l-43.45-27.53,1.24-4.8-16.5-11.57-.9,1.74-3.08-1.01-15.93-14.24,47.2,12.02-1.17,3.5,23.05,5.05,1.22-5.16s30.27,6.89,39.17,1.58c4.09-2.44,20.1-9.17,24.43-12.58,6.54-5.15,13.73-9.26,13.73-9.26l.14-15.11c-1.1-6.18-6.87-4.99-12.31-1.53-6.93,4.4-34.32,19.3-34.32,19.3l-28.81-6.17,1.26-4.39-20.74-4.36-.91,2.92-70.45-39.28c.07-1.11.49-7.11.13-13.04-.56-9.11-3.58-12.73-3.58-12.73.22-.93.32-2.92.54-3.85.47-1.92,1.06-16.05,1.34-17.74.06-.36.12-.74.33-1.05.58-.84,2.37-.14,3.17-.03,1.36.19,2.72.33,4.09.44,2.74.22,5.48.32,8.22.44,2.95.12,6.1.28,8.73-1.33,2.35-1.44,3.72-3.94,4.39-6.55.53-2.06.76-4.2.85-6.32.04-.98.05-1.96.03-2.94-.05-3.34-.53-6.69-1.09-9.98-.02-.1-.35-1.96-.36-1.96l2.67-.43-.75-3.97s-1.03-.53,1.29-.98c2.65-.51,4.01-3.46,4.16-5.92.11-1.96-.51-4.04-1.85-5.5l-9.62-8.82.1-1.25.61-3.32-1.96-.5c.42-3.25-1.88-14.74-1.88-14.74l1.1.07.1-4.17c-2.53-15.69-28.09-12.82-47.87-11.16-19.6,1.64-24.08,11.4-25.12,20.29-1.03,8.89,16.27,51.84,16.27,51.84,0,0-.62,10.32-3.8,13.04-3.17,2.72-14.05,13.97-22.92,22.66-12.95,12.69-22.14,42.35-22.14,42.35-17.13,50.23-27.89,102.62-30.26,105.69-2.37,3.06,2.76,5.27,2.76,5.27-9.68,5.68-12.73,9.8-19.47,33.8-3.64,12.96.75,40.34,1.38,50.07,4.92,76.27,2.3,144.5,2.3,144.5Z"/>
</svg>