<?xml version="1.0" encoding="UTF-8"?>
<svg id="Layer_1" data-name="Layer 1" xmlns="http://www.w3.org/2000/svg" viewBox="0 0 1440 1440">
  <path d="M99.24,1274.02h11.51c1.88-2.37,3.5-5.25,3.48-8.15-.09-13.81-15.17-22.23-13.55-28.32,1.62-6.09-2.14-8.16-2.14-8.16l10.83-9.11,6.15,7.64s.65,2.78,4.08,1.29c2.25-.98,64.92-52.96,86.96-72.3,5.04-4.42,47.48-69.5,47.48-69.5l21.58,39.71-44.44,87.63c-1.55,2.85,10.66,7.99,10.66,7.99l-5.22,10.96s-5.96,2.92-6.86,3.76c-8.03,7.51-10.08,20.57-10.08,20.57l45.85,15.97h21.66l.76-1.54c-1.16-3.88-24.24-25.01-24.24-25.01l5.59-12.8,12.95,4.27s54.65-85.96,55.08-117.69c.17-12.78-41.41-85.42-41.85-90.86-.43-5.44,3-6.95,3-6.95l11.76-14.74,7.86,3.97c11.65-10.01,64.53-72.52,64.53-72.52l54.31,17.09s16.17-1.79,16.72-.04c.55,1.75,1.02,2.61,1.02,2.61,0,0,12.92-1.91,16.51-1.75,3.59.17,3.14-.77,3.14-.77,0,0,.03-3.73-.03-4.44-.07-.71,1.61-.48,1.61-.48,0,0,35.41-5.14,42.36-3.84,6.95,1.29,6.69-.93,6.69-.93h4.6c6.22-.52,6.39-3.06,7.3-8.63.9-5.57,5.05-8.98,5.05-8.98v-96.89c-5.25-2.92-8.58.13-10.65,7.18-2.07,7.06-6.76,30.44-6.76,30.44l-21.11.76v-3.42h-18.85v3.2h-6.58l-59.5-4.14c2.16-4.66,1.22-10.92,1.22-10.92,0,0,4.41-3.69,5.74-5.73,1.32-2.04,3.52-.5,3.52-.5,4.72,1.91,7.38,4.4,16.25,4.43,8.87.03,11.46-6.72,12.56-11.51,1.1-4.8,3.21-12.26,3.21-12.26l2.33-.43.14-4.95s1.1-.23,3.46-.2c2.37.04,4.41-1.42,5.05-4.66.65-3.24-1.74-5.76-1.74-5.76l-5.54-6.68.1-1.25.61-3.32-1.96-.5c.42-3.25,2.3-21.03,2.3-21.03l1.1.07.1-4.17c1.38-11.91-28.53-23.75-48.38-23.75s-21.76,11.48-22.8,20.37c-1.03,8.89,1.74,46.75,1.74,46.75,0,0-1.72,5.21-4.9,7.93-3.17,2.72-21.12,6.07-33.16,9.11-12.05,3.04-21.86,14.99-21.86,14.99-31.13,31.31-77.55,97.43-79.92,100.5-2.37,3.06-1.77,5.46-1.77,5.46-11.27,2.72-24.99,14.49-36.56,25.89-1.94,1.91-7.89,8.44-9.43,15.51-12.99,59.83-44.59,110.5-44.59,110.5l-82.53,80.07,4.66,6.3-12.73,12.17s-2.7.12-3.76.26c-4.17.56-20.89,13.55-21.32,15.11-.35,1.24,35.33,35.44,49.65,49.11ZM407.15,901.73l78.2-2.1.12,2.59,20.27-1.42-.06-4.41,27.2-2.65s-2.01,9.13-4.66,14.96c-2.66,5.82-2.4,18.58-2.4,18.58h-3.43l-49.89.87-.3-5.27-19.12-.13.09,3.32-12.43-.43-36.82-17.7,3.24-6.22Z"/>
</svg>