<?xml version="1.0" encoding="UTF-8"?>
<svg id="Layer_1" data-name="Layer 1" xmlns="http://www.w3.org/2000/svg" viewBox="0 0 1440 1440">
  <path d="M531.25,840.28c-2.07,7.06-6.76,30.44-6.76,30.44l-21.11.76v-3.42h-18.85v3.2h-6.58l-59.5-4.14c2.16-4.66,1.23-6.92,1.23-6.92,0,0,4.41-3.69,5.74-5.73,1.32-2.04,3.52-.5,3.52-.5,4.72,1.91,7.37,4.4,16.25,4.43,8.86.03,11.46-6.73,12.56-11.52,1.1-4.8,3.21-12.26,3.21-12.26l2.33-.43.14-4.95s1.1-.23,3.46-.2c2.37.04,4.41-1.42,5.05-4.66.65-3.24-1.74-5.76-1.74-5.76l-5.54-6.68.1-1.25.61-3.32-1.96-.5c.42-3.25,2.29-21.03,2.29-21.03l1.1.07.1-4.17c1.38-11.91-28.53-23.75-48.38-23.75s-21.76,11.48-22.8,20.37c-1.03,8.89,1.74,46.75,1.74,46.75,0,0-1.71,5.2-4.89,7.92-3.17,2.72-21.03,4.52-33.07,7.56-12.05,3.04-21.86,14.99-21.86,14.99-31.13,31.31-78.65,96.98-81.02,100.05-2.37,3.06-1.77,5.46-1.77,5.46-11.27,2.72-23.99,13.49-35.56,24.89-1.94,1.91-6.17,8.05-9.43,14.51-20.72,41.1-57.84,93.07-57.84,93.07l-102.11,64.79,4.56,8.28s-11.52,7.06-24.39,6.41c-4.2-.21-18.44,4.75-18.87,6.31-.43,1.55,34.5,68.73,34.5,68.73,0,0,7.91-4.04,7.87-10.91-.09-13.81,1.14-22.55,2.76-28.64,1.62-6.09-2.33-12.39-2.33-12.39l11.94-5.63,5.76,10.55s.65,2.79,4.08,1.3c2.25-.98,81.23-42.29,106.25-55.62,5.91-3.15,70.29-80.98,70.29-80.98l38.16,61.64,5.74,109.45c-1.55,2.85,8.08,2.87,8.08,2.87l1.2,14.09s-5.04-.91-9.25,8.15c-2.07,4.47-3.12,8.8-3.64,12.06h67.44c-5.08-5.43-28.37-19.35-28.37-19.35l-.19-15.9,18.13-.43s.78-93.2,1.21-124.93c.17-12.77-51.57-81.64-52.01-87.08-.43-5.44,2.99-6.95,2.99-6.95l7.07-9.48,7.86,3.97c11.65-10.01,64.36-71.53,64.36-71.53l55.83,15.9s16.17-1.79,16.72-.04c.55,1.75,1.01,2.61,1.01,2.61,0,0,12.92-1.91,16.51-1.75,3.59.17,3.14-.77,3.14-.77,0,0,.03-3.73-.03-4.44-.07-.71,1.61-.48,1.61-.48,0,0,35.41-6.14,42.36-4.84,6.95,1.29,6.69-.93,6.69-.93h4.6c6.22-.52,6.39-3.06,7.3-8.63.9-5.57,5.05-8.98,5.05-8.98v-96.89c-5.25-2.92-8.58.13-10.65,7.18ZM528.23,908.7c-2.66,5.82-2.4,18.58-2.4,18.58h-3.43l-49.89,1.87-.3-5.27-19.04,1.1v2.98l-13.24-.34-35.78-17.36,3.23-6.22,77.98-4.41.12,2.59,20.27-1.42-.06-4.41,27.2-2.65s-2.01,9.13-4.66,14.96Z"/>
</svg>