<?xml version="1.0" encoding="UTF-8"?>
<svg id="Layer_1" data-name="Layer 1" xmlns="http://www.w3.org/2000/svg" viewBox="0 0 1440 1440">
  <defs>
    <style>
      .cls-1 {
        fill: #141414;
      }
    </style>
  </defs>
  <path d="M317.47,1248.49s-1.52,1.51-2.56,2.51c-4.66,4.49-5.46,20.12-5.89,21.67-.06.22,1.92.7,5.35,1.35h97.47v-.03c-12.78-12.96-23.32-14.61-43.05-26.8l.5-13.76,13.77.58c.07,4.55,5.66-67.46,9.76-121.25.6-7.91,4.36-76.39,6.39-121.14.99-22.12.75-22.62.74-22.63l1.07.16s4.71,8.85,9.54,14.01c9.14,9.78,8.95,10.72,3.19,19.9-3.93,6.26,5.7,1.73,5.7,1.73l-3.65,3.06s-1.65,2.59.71,4.79c2.73,2.54,8.4-4.07,8.4-4.07,0,0-3.56,4.63-2.42,6.53,4.01,6.66,16.42-13.27,16.42-13.27,0,0,3.56,8.68,5.57,10.29,5.31,4.27,6.24-1.02,6.11-1.6-.38-1.63-9.76-43.25-28.32-45.93-1.28-.18-14.95-32.98-15.67-34.06l-.15-44.83.09-5.87s11.13,6.37,14.5,5.12c9.45-3.52,22.03-33.69,22.03-33.69l3.25,1.76,8.29-14.68-3.63-2.98s16.77-36.87,18.55-37.46c10.36-3.44,17.52-17.09,17.52-17.09,0,0,8.99-14.63,3.11-20.63-2.08-2.13-6.63,2.83-4.68.58.93-1.07,9.14-17.41-.33-15.94-1.07.17-3.13,2.35-3.86,3.15.15-.22.32-.47.53-.78,3.04-4.47,3.03-13.53-2.15-12.93-3.99.46-11.65,18.11-11.55,17.55,1.14-6.54-3.54-8.41-6.09-5.5-3.22,3.67-9.93,20.74-11,29.94-1.04,8.94-.64,11.51-.64,11.51l-19.01,35.15-3.17-1.96-7.8,12.5,1.36,1.23-5.74,8.37-13.82-20.78c.07-1.11-12.11-46.41-11.78-52.34.76-13.44-7.57-21-7.34-21.93.46-1.92.56-11.74.84-13.44.07-.36.13-.74.34-1.04.58-.84,2.36-.15,3.17-.04,1.36.19,14.07,1.43,16.69-.17,2.35-1.44,3.72-3.95,4.39-6.56.54-2.06.86-4.87.94-7,.04-.98.05-1.96.04-2.94-.05-3.34-.8-7.03-1.37-10.32-.01-.11-.34-1.96-.35-1.96l2.67-.43-.76-3.98s-1.02-.52,1.3-.97c2.64-.52,4.01-3.46,4.15-5.92.12-1.97-1.14-4.11-2.47-5.57l-11.21-9,.1-1.25.61-3.32-1.96-.5c.42-3.25-4.16-14.9-4.16-14.9l1.1.07.1-4.17c-2.54-15.69-24.02-9.89-43.8-8.24-19.6,1.64-27.55,13.69-28.59,22.58-1.03,8.89,19.45,50.32,19.45,50.32,0,0,2.69,13.99.86,17.76-2.67,5.53-12.37,25.65-18.37,34.04-10.54,14.76-7.24,33.66-7.35,45.57-.51,57.06-.27,108.69-.79,113.7-.39,3.85,5.9,4.68,5.9,4.68-6.21,6.61-7.93,12.77-8.49,35.36-.6,24.43,2.55,31.55.65,80.42-1.01,26.02-3.3,73.59-3.3,73.59l-5.38,108.69,9.98.25-.59,15.18ZM340.98,1235.25l6.3.09-1,12.12-5.64-.34.34-11.86Z"/>
  <path class="cls-1" d="M301.67,637.59c-1.6,0-3.13.48-4.3,1.37-1.18.88-2.11,2.27-2.11,3.98s.93,3.09,2.11,3.98c1.18.88,2.71,1.37,4.3,1.37s3.13-.48,4.3-1.37c1.18-.88,2.11-2.27,2.11-3.98s-.93-3.09-2.11-3.98c-1.18-.89-2.71-1.37-4.3-1.37ZM284.74,609.56c-3.18,0-5.99,1.55-7.72,3.94-1.98-.46-4.05-.27-5.92.53-1.86.8-3.42,2.18-4.45,3.93-1.03,1.75-1.47,3.78-1.26,5.8.21,2.02,1.06,3.92,2.42,5.42.04,1.57.47,3.11,1.24,4.48.78,1.37,1.88,2.52,3.21,3.36,1.33.84,2.85,1.33,4.42,1.44,1.57.11,3.14-.17,4.58-.82,1.14.91,2.48,1.55,3.91,1.86,1.43.31,2.91.29,4.33-.06,1.42-.35,2.74-1.03,3.86-1.97,1.12-.94,2-2.13,2.59-3.47,1.89-.82,3.45-2.23,4.47-4.01s1.43-3.85,1.18-5.89c-.25-2.04-1.16-3.95-2.58-5.43-1.42-1.48-3.29-2.47-5.31-2.81-.67-1.84-1.88-3.44-3.49-4.56-1.61-1.13-3.52-1.73-5.48-1.73h0Z"/>
</svg>