<?xml version="1.0" encoding="UTF-8"?>
<svg id="Layer_1" data-name="Layer 1" xmlns="http://www.w3.org/2000/svg" viewBox="0 0 1440 1440">
  <path d="M297.98,1159.76l-.02,64.32,5.46,5.35-5.61,13.91s-3.86-.51-4.92-.37c-4.17.56-8.12,19.95-8.55,21.51-.26.94,11.11,5.84,20.08,9.54h63.32l.14-5.53c-4.83-7.86-33.28-19.47-33.28-19.47l.47-11.61,11.89-1.04s9.64-28.81,17.72-57.38c6.56-23.21,21.14-52.06,22.36-62.16,1.53-12.69-14.24-82.1-14.68-87.54-.43-5.44-7.42-33.6-7.42-33.6l14.05-34.37,8.74,4.05c10.29-13.63,34.25-85.34,34.25-85.34l43.03,23.47-.18,4.19s15.27,6.99,18.86,7.15c3.59.17,3.14-.77,3.14-.77,0,0,.63-.77.57-1.48-.07-.71,1.61-.48,1.61-.48,0,0,43.98,22.04,50.92,23.34,6.95,1.29,6.69-.93,6.69-.93,0,0,28.72-16.3,30.3-23.58.28-1.27,8.96-1.14,12.17-4.08,1.49-1.37,1.04-3.11.91-3.69-.42-1.84-12.5,2.01-12.5,2.01l12.88-8.29.43-18.84-.95.71s-21.1,16.97-27.25,21.82c-4.02,3.17-11.49,10.19-15.41,13.27-1.01.8-2.51,2.26-3.8,2.26-.95,0-1.89-.24-2.73-.69l-46.04-24.86,1.24-4.8-18.44-9.15-.9,1.74-3.08-1.01-21.17-19.53,54.58,13.01.07,4.2,21.38.8.15-2.92s32.98,8.62,41.88,3.31c4.09-2.44,8.57-7.94,12.91-11.35,6.54-5.15,8.22-5.53,8.22-5.53v-22.98c-1.1-6.18-4.85-.13-9.25,4.4-5.72,5.89-22.6,18.26-22.6,18.26l-25.79-7.1-.06-4.79-19.99-6.13v3.2l-77.04-30.26c.07-1.11.71-7.93,1.11-13.86.47-7.04-1.29-14.27-1.29-14.27,0,0,5.47-13.41,5.63-13.66,1.32-2.04,3.52-.5,3.52-.5,4.72,1.91,7.45,1.26,16.32,1.29,8.87.03,8.54-8.09,9.22-12.95.68-4.89-.13-14.27-.13-14.27l2.67-.43.14-3.95s.48-.32,2.8-.77c2.75-.53,3.41-2.42,4.05-5.66.65-3.24-1.74-5.76-1.74-5.76l-8.99-8.82.1-1.25.61-3.32-1.96-.5c.42-3.25-1.55-15.43-1.55-15.43l1.1.07.1-4.17c-2.53-15.69-26.23-16.76-46.01-15.11-19.6,1.64-24,10.53-25.04,19.42-1.03,8.89,11.25,54.5,11.25,54.5,0,0-.51,7.17-3.69,9.89-3.17,2.72-16.32,12.4-26.91,18.88-11.01,6.73-29.4,45.71-29.4,45.71-21.76,45.71-36.88,91.41-39.25,94.48-2.37,3.06,1.38,5.18,1.38,5.18-11.27,2.72-20.91,18.78-27.65,42.78-3.64,12.96,4.06,33.71,5.31,43.38,10.32,79.64,9.54,144.91,9.54,144.91Z"/>
</svg>