<?xml version="1.0" encoding="UTF-8"?>
<svg id="Layer_1" data-name="Layer 1" xmlns="http://www.w3.org/2000/svg" viewBox="0 0 1440 1440">
  <path d="M125.99,1274.02h44.3c-1.32-12.13-17.44-10.26-15.89-16.11,1.62-6.09-6.38-10.15-6.38-10.15l7.81-10.58,10.08,6.14s2.2,1,5.63-.49c2.25-.98,34.23-61.79,56.27-81.13,5.04-4.42,29.83-56.12,29.83-56.12l6.65,16.06-56.46,88.36c-1.55,2.85,7.55,5.35,7.55,5.35l-8.5,13.25s-4.97,1.67-5.87,2.51c-8.03,7.51-10.32,16.44-10.32,16.44l53.83,26.46h13.8l1.48-6c-1.16-3.88-24.82-29.7-24.82-29.7l5.53-10.32,12.35,6.22s69.32-83.74,72.04-106.27c1.53-12.69-32.25-90.13-32.69-95.57-.43-5.44,3-6.95,3-6.95l16.44-21.24,7.86,3.97c11.65-10.01,61.61-76.25,61.61-76.25l52.94,17.29,17.48,1.6.82,4.19s14.24-1.09,17.83-.93c3.59.17,3.14-.77,3.14-.77,0,0,.03-3.73-.03-4.44-.07-.71,1.61-.48,1.61-.48,0,0,38.41-1.14,45.36.16,6.95,1.29,6.69-.93,6.69-.93h4.6c6.22-.52,6.39-3.06,7.3-8.63.9-5.57,5.05-8.98,5.05-8.98v-96.89c-5.25-2.92-8.58.13-10.65,7.18-2.07,7.06-6.76,30.44-6.76,30.44l-22.11.76v-3.42h-18.85v3.2h-7.58l-64.07-7.73c2.16-4.66.59-11.66.59-11.66,0,0,7.61-9.36,8.94-11.4,1.32-2.04,3.52-.5,3.52-.5,4.72,1.91,7.38,4.4,16.25,4.43,8.87.03,11.46-6.72,12.56-11.51,1.1-4.8,3.21-12.26,3.21-12.26l2.33-.43.14-4.95s1.1-.23,3.46-.2c2.37.04,4.41-1.42,5.05-4.66.65-3.24-1.74-5.76-1.74-5.76l-5.54-6.68.1-1.25.61-3.32-1.96-.5c.42-3.25,2.3-21.03,2.3-21.03l1.1.07.1-4.17c1.38-11.91-28.53-23.75-48.38-23.75s-21.76,11.48-22.8,20.37c-1.03,8.89.53,46.96.53,46.96,0,0-1.85,7.96-5.03,10.68-3.17,2.72-20.27,5.66-32.31,8.7-12.05,3.04-22.86,15.99-22.86,15.99-31.13,31.31-74.18,99.86-76.55,102.93-2.37,3.06-1.77,5.46-1.77,5.46-11.27,2.72-25.34,16.55-36.91,27.95-1.94,1.91-8.39,15.15-8.75,22.39-2.59,51.92-21.5,108.9-21.5,108.9l-63.13,101.61,7.14,7.08-11.91,16.58s-2.7.12-3.76.26c-4.17.56-14.48,17.11-14.91,18.67-.27.96,13.43,9.28,23.98,15.51ZM403.54,898.5l82.82,1.12.12,2.59,20.27-1.42-.06-4.41,28.2-2.65s-2.01,9.13-4.66,14.96c-2.66,5.82-2.4,18.58-2.4,18.58h-3.43l-51.89-2.13-.3-5.27-19.12-.13.03,2.67-9.78-1.39-39.95-19.21.15-3.32Z"/>
</svg>