<?xml version="1.0" encoding="UTF-8"?>
<svg id="Layer_1" data-name="Layer 1" xmlns="http://www.w3.org/2000/svg" viewBox="0 0 1440 1440">
  <path d="M161.18,1252.86c0-2.36-1.84-46.21-1.84-46.21l14.27-7.66,9.86,9.21-3.4,22.91c-2.07,2.16,8.03,3.37,7.94,5.01-.09,1.64-.69,5.01-2.33,7.86-1.64,2.85-8.81,15.8-10.79,18.39-1.48,1.93-2.17,8.45-2.43,11.66h66.41l-.1-.68c-.07-.81-.53-1.53-1.23-1.94-2.09-1.22-25.75-20.28-25.75-20.28l5.46-11.35,8.42,4.01,42.46-76.73c14.4-16.08,19.42-29.07,19.42-41.85s1.11-80.77.67-86.21c-.43-5.44,4.06-8.72,4.06-8.72l22.91-29.3,6.86,4.82c11.65-10.01,59.77-76.97,59.77-76.97l55.91,18.26,14.5.43.22,3.5,16.49.24,3.02.06s.15-2.56.09-3.27c-.07-.71,1.61-.48,1.61-.48,0,0,38.28-.74,45.23.56,6.95,1.29,6.69-.93,6.69-.93h4.6c6.22-.52,6.39-3.06,7.3-8.63.9-5.57,5.05-8.98,5.05-8.98v-95.89c-5.25-2.92-7.58.13-9.65,7.18-2.07,7.06-6.76,30.69-6.76,30.69l-23.11-.24v-3.42h-18.85v3.2h-5.58l-64.67-9.75c2.16-4.66.26-8.89.26-8.89,0,0,8.78-13.6,10.11-15.64,1.32-2.04,3.52-.5,3.52-.5,4.72,1.91,9.03,4.63,17.9,4.66,8.87.03,10.41-7.28,11.51-12.07,1.1-4.8,3.22-13.28,3.22-13.28l2.33-.43.14-4.95s1.1-.23,3.46-.2c2.37.04,4.41-1.42,5.05-4.66.65-3.24-1.74-5.76-1.74-5.76l-5.54-6.68.1-1.25.61-3.32-1.96-.5c.42-3.25,1.53-20.82,1.53-20.82l1.1.07.1-4.17c1.38-11.91-27.97-21.99-47.82-21.99s-21.76,11.48-22.8,20.37c-1.03,8.89.74,48.95.74,48.95,0,0-1.3,4.36-4.48,7.08-3.17,2.72-24.4,8.05-36.44,11.09-12.05,3.04-20.92,15.15-20.92,15.15-31.13,31.31-74.2,102.52-76.57,105.59-2.37,3.06-1.77,5.46-1.77,5.46-11.27,2.72-23.89,14.26-35.46,25.66-11.57,11.4-7.08,34.1-7.08,34.1,0,0,8.5,81.9,4.71,98.74l-3.8,4.49s-19.08,19.77-23.31,22.96c-4.23,3.19-38.77,31.24-38.77,31.24l6.19,8.42s-15.68,7.94-17.84,8.63c-2.16.69-3.19-.43-7.86-.09-4.66.35-12,5.09-12,5.09,0,0,29.17,58.72,30.46,61.08s10.39.23,10.39-2.13ZM407.26,897.21l77.71,2.02.12,2.59,20.27-1.42-.06-4.41,29.2-2.65s-2.01,9.13-4.66,14.96c-2.66,5.82-2.4,19.88-2.4,19.88h-3.43l-52.77-3.1v-7.3s-19.04-.52-19.04-.52l.05,2.42-6.47-.39-38.52-20.62v-1.46Z"/>
</svg>