<?xml version="1.0" encoding="UTF-8"?>
<svg id="Layer_1" data-name="Layer 1" xmlns="http://www.w3.org/2000/svg" viewBox="0 0 1440 1440">
  <path d="M135.73,1243.12c2.78-6.28-2.99-42.87-1.05-44.88,1.94-2.01,8.68-5.24,8.68-5.24,0,0-.31.08.92,2.02,1.23,1.94,5.76,10.55,5.76,10.55,0,0,.65,2.78,4.08,1.29,3.43-1.49,8.03-9.26,16.64-11.46,8.61-2.2,34.51-10.75,34.51-10.75l3.11-.78-18.17,43.55c-1.55,2.85,8.01,4.86,8.01,4.86l-6.93,16.04s-5.04-.92-9.25,8.14c-3.99,8.62-4.19,16.76-4.2,17.55h64.29v-2.13c-1.16-3.88-24.15-20.84-24.15-20.84l6.04-11.62,11.7,4.19s30.94-62.67,40.62-78.3c13.9-22.45,15.37-27.93,15.37-40.71s-4.35-81.04-4.79-86.48c-.43-5.44,4.06-8.72,4.06-8.72l19.3-25.71,7.86,3.97c11.65-10.01,62.28-73.72,62.28-73.72l56.16,17s10.01-.46,11.63,0c1.62.45,2.14,1.81,2.69,3.56.55,1.75,1.13,1.62,1.13,1.62,0,0,11.92.09,15.51.25,3.59.17,3.14-.77,3.14-.77,0,0,.03-3.73-.03-4.44-.07-.71,1.61-.48,1.61-.48,0,0,39.38-4.73,46.33-3.43,6.95,1.29,6.69-.93,6.69-.93h4.6c6.22-.52,6.39-3.06,7.3-8.63.9-5.57,5.05-8.98,5.05-8.98v-96.89c-5.25-2.92-8.58.13-10.65,7.18-2.07,7.06-6.76,31.69-6.76,31.69l-21.11-.24v-3.42h-20.85v3.2h-4.58l-63.1-6.87c2.16-4.66.65-8.46.65-8.46,0,0,4.75-8.26,6.08-10.3,1.32-2.04,3.52-.5,3.52-.5,4.72,1.91,8.34,3.38,17.21,3.41,8.87.03,11.41-8.28,12.51-13.07,1.1-4.8,3.21-12.26,3.21-12.26l2.33-.43.14-4.95s1.1-.23,3.46-.2c2.37.04,4.41-1.42,5.05-4.66.65-3.24-1.74-5.76-1.74-5.76l-5.54-6.68.1-1.25.61-3.32-1.96-.5c.42-3.25,2.3-21.03,2.3-21.03l1.1.07.1-4.17c1.38-11.91-28.97-21.99-48.82-21.99s-21.76,11.48-22.8,20.37c-1.03,8.89.97,47.5.97,47.5,0,0-2.16,6.09-5.34,8.81-3.17,2.72-20.49,5.03-32.53,8.07-12.05,3.04-20.92,15.15-20.92,15.15-31.13,31.31-75.39,98.83-77.76,101.9-2.37,3.06-1.77,5.46-1.77,5.46-11.27,2.72-23.99,13.49-35.56,24.89-11.57,11.4-8.39,34.33-8.39,34.33l1.45,96.78-82.66,50.81,3.28,7.65-16.47,9.28s-6.56-1.81-11.7-.95c-4.09.69-10.59,3.22-11.03,4.78s28.77,71.22,28.77,71.22c0,0,9.91-3.95,12.69-10.23ZM404.01,900.09l80.86-.69.12,2.59,20.27-1.42-.06-4.41,28.2-3.65s-2.01,9.13-4.66,14.96c-2.66,5.82-2.4,18.58-2.4,18.58h-3.43l-51.77.51-1.36-7.12-17.68-.52v2.98l-6.15-.46-42.83-18.7.88-2.65Z"/>
</svg>