<?xml version="1.0" encoding="UTF-8"?>
<svg id="Layer_1" data-name="Layer 1" xmlns="http://www.w3.org/2000/svg" viewBox="0 0 1440 1440">
  <path d="M296.82,1156.74l2.22,76.79,7.92,1.72-.02,16.71s-1.71.25-2.77.39c-4.17.56-8.12,19.95-8.55,21.51-.01.05,0,.1.02.16h87.07v-3.36c-4.83-7.86-37.58-24.78-37.58-24.78l.78-11.74,20.63,1.64s24.51-107.23,25.73-117.32c1.53-12.69-13.16-83.65-13.6-89.09-.43-5.44-9.06-37.94-9.06-37.94l11.64-36.04,9.71,3.08c8.62-17.2,27.22-84.14,27.22-84.14l38.96,22.8-1.04,3.3s14.97,8.77,18.56,8.93c3.59.17,3.14-.77,3.14-.77,0,0,.62-.78.56-1.49-.07-.71,1.61-.48,1.61-.48,0,0,42.58,23.84,49.53,25.14,6.95,1.29,8.89-.87,8.89-.87,0,0,28.23-10.17,29.82-17.45.28-1.27,14.01-.12,17.22-3.06,1.49-1.37,1.04-3.11.91-3.69-.42-1.84-7.92-.63-7.92-.63l-6.78.84,19.54-11.36s.54-5.42,0-5.72c-.54-.3-7.08.97-7.08.97l.99-1.62c2.42-4.49,5.04-4.05,3.78-8.13-1.26-4.08-4.93-.24-8.36,2.8-3.43,3.04-15.96,15.75-20.84,15.23-4.89-.52-19.96,12.49-19.96,12.49-1.01.8-2.51,2.26-3.8,2.26-.95,0-1.89-.24-2.73-.69l-46.64-29.23,1.24-4.8-18.44-9.15-.9,1.74-3.08-1.01-17.98-18.58,53.11,13.49-1.17,3.5,23.05,5.05.97-4.12s30.82,11.27,39.71,5.96c4.09-2.44,12.54-7.9,16.88-11.31,6.54-5.15,11.65-.95,11.65-.95l-.41-25.6c-1.1-6.18-5.05-.9-10.49,2.56-6.93,4.4-25.87,16.58-25.87,16.58l-26.64-9.85,1.25-4.39-20.4-6.26-.91,2.92-76.32-33.07c.07-1.11,2.67-6.38,3.06-12.3.47-7.04-5.41-16.21-5.41-16.21.22-.93.45-1.86.67-2.79.47-1.92.93-3.85,1.4-5.77.41-1.67.9-3.29,1.19-4.99.06-.36.12-.74.33-1.05.58-.84,2.37-.14,3.17-.03,1.36.19,2.72.33,4.09.44,2.73.22,5.48.32,8.22.44,2.95.12,6.1.28,8.73-1.33,2.35-1.44,3.72-3.94,4.39-6.55.53-2.06.76-4.2.85-6.32.04-.98.05-1.96.03-2.94-.05-3.34-.53-6.69-1.09-9.98-.02-.1-.35-1.96-.36-1.96l2.67-.43-.75-3.97s.48-.32,2.8-.78c2.65-.51,4.01-3.46,4.16-5.92.11-1.96-.51-4.04-1.85-5.5l-8.99-8.82.1-1.25.61-3.32-1.96-.5c.42-3.25-1.88-14.74-1.88-14.74l1.1.07.1-4.17c-2.53-15.69-23.41-14.97-43.19-13.32-19.6,1.64-27.32,10.92-28.36,19.81-1.03,8.89,14.16,52.2,14.16,52.2,0,0-1.58,10.8-4.76,13.52-3.17,2.72-16.64,10.86-25.51,19.55-12.95,12.69-27.06,48.04-27.06,48.04-20.98,49.6-30.74,94.7-33.11,97.77-2.37,3.06,1.38,5.18,1.38,5.18-9.68,5.68-16.44,12.78-23.17,36.78-3.64,12.96,2.37,37.58,3,47.31,4.92,76.27,6.22,143.96,6.22,143.96Z"/>
</svg>