<?xml version="1.0" encoding="UTF-8"?>
<svg id="Layer_1" data-name="Layer 1" xmlns="http://www.w3.org/2000/svg" viewBox="0 0 1440 1440">
  <path d="M135.89,1274.02h33.72c-2.47-5.82-7.21-7-8.08-11.56-2.33-12.17-12.37-19.91-12.37-19.91l7.81-10.58,10.08,6.14s2.2,1,5.63-.49c2.25-.98,41.16-46.48,62.23-70.99,4.37-5.08,45.58-75.67,45.58-75.67l14.24,30.69-37.47,100.49c-1.55,2.85,7.55,5.35,7.55,5.35l-8.5,13.25s-4.97,1.67-5.87,2.51c-8.03,7.51-9.84,18.81-9.84,18.81l35.69,11.94h36.4l-.87-8.45c-4.83-7.86-27.93-20.55-27.93-20.55l5.53-10.32,12.35,6.22s51.45-96.47,54.17-119.01c1.53-12.69-40.93-85.14-41.37-90.58-.43-5.44,1.66-6.33,1.66-6.33l14.44-18.85,7.86,3.97c11.65-10.01,61.61-76.25,61.61-76.25l52.94,17.29,17.48,1.6.82,4.19s14.24-1.09,17.83-.93c3.59.17,3.14-.77,3.14-.77,0,0,.03-3.73-.03-4.44-.07-.71,1.61-.48,1.61-.48,0,0,39.32-2.93,46.27-1.63,6.95,1.29,6.69-.93,6.69-.93h4.6c6.22-.52,5.47-1.27,6.38-6.84.9-5.57,5.05-8.98,5.05-8.98v-96.89c-5.25-2.92-8.58.13-10.65,7.18-2.07,7.06-6.76,30.44-6.76,30.44l-20.62-.25v-3.42h-20.38v3.2h-7.58l-63.09-6.42c2.16-4.66.59-11.66.59-11.66,0,0,7.61-9.36,8.94-11.4,1.32-2.04,3.52-.5,3.52-.5,4.72,1.91,7.38,4.4,16.25,4.43,8.87.03,10.52-7.02,11.62-11.81,1.1-4.8,3.21-12.26,3.21-12.26l2.33-.43.14-4.95s1.1-.23,3.46-.2c2.37.04,4.41-1.42,5.05-4.66.65-3.24-1.74-5.76-1.74-5.76l-5.54-6.68.1-1.25.61-3.32-1.96-.5c.42-3.25,2.3-21.03,2.3-21.03l1.1.07.1-4.17c1.38-11.91-28.53-23.75-48.38-23.75s-21.76,11.48-22.8,20.37c-1.03,8.89.53,46.96.53,46.96,0,0-1.85,7.96-5.03,10.68-3.17,2.72-20.27,5.66-32.31,8.7-12.05,3.04-22.86,15.99-22.86,15.99-31.13,31.31-74.18,99.86-76.55,102.93-2.37,3.06-1.77,5.46-1.77,5.46-11.27,2.72-25.34,16.55-36.91,27.95-1.94,1.91-8.38,15.15-8.75,22.39-2.91,57.23-32.67,110.29-32.67,110.29l-67.53,93.82,7.25,4.49-13.99,18.13s-2.7.12-3.76.26c-4.17.56-15.37,15.8-15.8,17.35-.26.93,18.38,12.91,33.28,22.3ZM422.55,900.47l85.57.03.12,2.59,20.38-2.2-.09-6.3,26.81-1.64s-3.46,11.88-6.11,17.71c-2.66,5.82-2.09,16.65-2.09,16.65h-3.43l-52.2-.2-.3-5.27-19.12-.13.03,2.67-9.78-1.39-39.95-19.21.15-3.32Z"/>
</svg>