<?xml version="1.0" encoding="UTF-8"?>
<svg id="Layer_1" data-name="Layer 1" xmlns="http://www.w3.org/2000/svg" viewBox="0 0 1440 1440">
  <path d="M531.95,839.31c-2.07,7.06-6.76,31.69-6.76,31.69l-20.11-.24v-3.42h-20.85v3.2h-5.58l-63.1-5.88c2.16-4.66.65-8.46.65-8.46,0,0,6.75-8.26,8.08-10.3,1.32-2.04,3.52-.5,3.52-.5,4.72,1.91,7.34,3.38,16.22,3.41,8.86.03,10.4-7.28,11.51-12.07,1.09-4.8,3.2-12.26,3.2-12.26l2.33-.43.14-4.95s1.1-.23,3.46-.2c2.37.04,4.41-1.42,5.05-4.66.65-3.24-1.74-5.76-1.74-5.76l-5.54-6.68.1-1.25.61-3.32-1.96-.5c.42-3.25,2.3-21.03,2.3-21.03l1.1.07.1-4.17c1.38-11.91-28.97-21.99-48.82-21.99s-20.76,11.48-21.8,20.37c-1.03,8.89.74,46.75.74,46.75,0,0-1.92,6.42-5.1,9.14-3.17,2.72-21.5,5.45-33.54,8.49-12.05,3.04-20.92,15.15-20.92,15.15-31.13,31.31-75.38,98.83-77.75,101.9-2.37,3.06-1.77,5.46-1.77,5.46-11.27,2.72-23.99,13.49-35.56,24.89-11.57,11.4-9.62,34.67-9.62,34.67l-8.16,93.67-92.07,49.77,4.02,7.46s-9.2,7.39-22.06,6.74c-4.2-.21-18.44,4.75-18.87,6.31-.44,1.55,33.24,71.95,33.24,71.95,0,0,9.07-6.26,9.03-13.13-.09-13.81,1.14-22.55,2.76-28.64,1.62-6.08-2.33-12.38-2.33-12.38l12.15-7.73,5.76,10.55s.65,2.79,4.08,1.3c3.43-1.49,91.9-37.58,91.9-37.58l3.11-.77-23.27,66.95c-1.55,2.85,9.09,3.69,9.09,3.69l-6.93,16.03s-5.04-.91-9.25,8.15c-2.85,6.16-3.77,12.08-4.06,15.25h69.17c-1.87-4.18-28.82-20.67-28.82-20.67l6.05-11.62,12.79,2.85s46.62-100.75,46.62-113.53-14.28-90.38-14.72-95.82c-.43-5.44,4.06-8.72,4.06-8.72l16.82-20.52,7.86,3.97c11.65-10.01,62.28-74.72,62.28-74.72l55.88,16.61s11.22-.07,12.84.39c1.62.45,1.21.81,1.76,2.56.55,1.75,1.13,1.62,1.13,1.62,0,0,11.92.09,15.51.25,3.59.17,3.14-.77,3.14-.77,0,0,.03-3.73-.03-4.44-.07-.71,1.61-.48,1.61-.48,0,0,39.38-4.72,46.33-3.42,6.95,1.29,6.69-.93,6.69-.93h4.6c6.22-.52,6.39-3.06,7.3-8.63.9-5.57,5.05-8.98,5.05-8.98v-96.89c-5.25-2.92-8.58.13-10.65,7.18ZM528.92,907.73c-2.66,5.82-2.4,18.58-2.4,18.58h-3.43l-51.77.5-1.36-7.12-17.68-.52v2.98l-6.15-.46-42.95-16.87,2.36-3.91,80.63-1.59.12,2.59,20.27-1.42-.06-4.41,27.08-3.31s-2.01,9.13-4.66,14.96Z"/>
</svg>