<?xml version="1.0" encoding="UTF-8"?>
<svg id="Layer_1" data-name="Layer 1" xmlns="http://www.w3.org/2000/svg" viewBox="0 0 1440 1440">
  <defs>
    <style>
      .cls-1 {
        fill: #141414;
      }
    </style>
  </defs>
  <path d="M317.47,1248.49s-1.52,1.51-2.56,2.51c-4.39,4.22-5.35,19.89-5.8,23.02h101.48c-.04-1.04-.48-2.03-1.25-2.76-12.03-11.48-21.62-12.38-40.54-24.07l.5-13.76,12.61.27c.07,4.55,5.45-63.93,10.12-121.22l7.2-137.55-.33-39.51s8.62.08,8.39-.25l-3.54-58.98s15.49,4.08,18.86,2.82c9.45-3.52,4.9-41.52,4.9-41.52l5.83.55-.86-18.35-6.39-.12s-3.92-44.16-3.4-45.96c3.58-12.39,2.44-10.47,2.94-14.99,2.02-18.36-3.09-17.69-4.68-20.1-1.03-1.57-3.28-3.12-4.66-3.99-.74-.46-1.24-1.22-1.38-2.08-.92-5.9-4.6-24.23-9.4-23.29-.63.12-1.1.61-1.42,1.08-.4-1.79-.83-3.56-1.1-5.09-.01-.11-.34-1.96-.35-1.96l2.67-.43-.76-3.98s-1.02-.52,1.3-.97c2.64-.52,4.01-3.46,4.15-5.92.12-1.97-1.14-4.11-2.47-5.57l-11.21-9,.1-1.25.61-3.32-1.96-.5c.42-3.25-4.17-13.67-4.17-13.67l1.1.07.1-4.17c-2.54-15.69-23.01-10.12-42.79-8.47-19.6,1.64-27.55,13.69-28.59,22.58-1.03,8.89,20.45,50.32,20.45,50.32,0,0,4.03,6.04,1.05,18.56-1.91,8.02-12.32,24.21-18.32,32.6-10.54,14.76-6.23,34.09-6.34,46-.51,57.06,1.69,109.24,1.17,114.25-.39,3.85,5.9,4.68,5.9,4.68-6.21,6.61-7.93,12.77-8.49,35.36-.6,24.43,2.55,31.55.65,80.42-1.01,26.02-5.74,73.59-5.74,73.59l-5.38,108.69,12.42.25-.59,15.18ZM381.13,735.13c.07-.36.13-.74.34-1.04.58-.84,2.36-.15,3.17-.04,1.36.19,12.33.22,14.95-1.38,2.35-1.44,3.72-3.95,4.39-6.56.54-2.06.86-4.87.94-7,0-.18,0-.37,0-.55l3.03,16.12s-5.6,1.34-8.39,5.55c-2.41,3.64-8.51,14.75-7.78,21.14.46,3.98,12.52,11.95,12.52,11.95l.83,44.71-4.88.22.15,7.15c.07-1.11-12.16-49.74-11.83-55.67.76-13.44-7.57-21-7.34-21.93.46-1.92-.4-10.96-.12-12.66ZM340.98,1235.25l6.3.09-1,12.12-5.64-.34.34-11.86Z"/>
  <path class="cls-1" d="M270.58,585.77c-9.35,0-18.29,2.83-25.18,8-6.9,5.16-12.33,13.25-12.33,23.25s5.43,18.09,12.33,23.25c6.88,5.18,15.83,8,25.18,8s18.29-2.83,25.18-8c6.9-5.15,12.33-13.25,12.33-23.25s-5.43-18.09-12.33-23.25c-6.88-5.19-15.83-8-25.18-8ZM171.53,421.81c-18.59,0-35.04,9.09-45.17,23.05-11.57-2.67-23.7-1.57-34.6,3.13-10.91,4.7-20.03,12.76-26.04,23-6.01,10.24-8.59,22.14-7.38,33.95,1.22,11.81,6.18,22.93,14.15,31.73.23,9.2,2.73,18.2,7.28,26.2,4.55,8,11.01,14.75,18.8,19.64,7.79,4.9,16.68,7.79,25.86,8.42,9.18.63,18.38-1.02,26.76-4.81,6.69,5.33,14.52,9.05,22.88,10.87,8.36,1.82,17.02,1.7,25.33-.37,8.3-2.06,16.02-6.01,22.55-11.53,6.53-5.52,11.71-12.47,15.13-20.31,11.03-4.8,20.21-13.04,26.17-23.49,5.96-10.45,8.39-22.54,6.92-34.48s-6.76-23.08-15.08-31.77c-8.32-8.69-19.23-14.45-31.09-16.43-3.9-10.79-11.03-20.11-20.42-26.7-9.39-6.59-20.58-10.12-32.05-10.12h-.01Z"/>
</svg>