<?xml version="1.0" encoding="UTF-8"?>
<svg id="Layer_1" data-name="Layer 1" xmlns="http://www.w3.org/2000/svg" viewBox="0 0 1440 1440">
  <path d="M208.27,1274.02c-.36-12.18-3.22-15.93-4.35-21.8-2.33-12.17-5.2-18.75-5.2-18.75l12.65-11.43,9.52,8.52s2.2,1,5.63-.49c2.25-.98,58.23-49.12,79.29-73.64,4.37-5.08,12.67-25.45,12.67-25.45l1.1,3.86-14.82,95.53c-1.55,2.85,7.55,5.35,7.55,5.35l-4.14,12.3s-4.15,3.47-5.05,4.32c-6.73,6.29-7.27,18.03-7.27,21.67h71.88l.14-5.53c-4.83-7.86-33.28-19.47-33.28-19.47l3.76-11.61,15.28,3.88s25.4-102.3,28.12-124.84c1.53-12.69-33.23-85.64-33.67-91.08-.43-5.44,6.36-14.27,6.36-14.27l12.8-16.81,7.86,3.97c11.65-10.01,55.68-77.96,55.68-77.96l47.53,19.04,17.03,5.01.82,4.19s14.24-1.09,17.83-.93c3.59.17,3.14-.77,3.14-.77,0,0,.03-1.73-.03-2.44-.07-.71,1.61-.48,1.61-.48,0,0,42.51,2.39,49.46,3.69,6.95,1.29,6.69-.93,6.69-.93h4.6c6.22-.52,5.47-1.27,6.38-6.84.9-5.57,5.05-8.98,5.05-8.98v-96.89c-5.25-2.92-8.58.13-10.65,7.18-2.07,7.06-6.76,30.44-6.76,30.44l-19.62.75v-3.42h-20.38v3.2h-7.58l-65.1-18.79c4.17-7.17,3.61-18.48,3.61-18.48,0,0,5.43-9.4,6.76-11.44,1.32-2.04,3.52-.5,3.52-.5,4.72,1.91,7.38,4.4,16.25,4.43,8.87.03,10.52-7.02,11.62-11.81,1.1-4.8,3.21-12.26,3.21-12.26l2.33-.43.14-4.95s1.1-.23,3.46-.2c2.37.04,4.41-1.42,5.05-4.66.65-3.24-1.74-5.76-1.74-5.76l-5.54-6.68.1-1.25.61-3.32-1.96-.5c.42-3.25,2.3-21.03,2.3-21.03l1.1.07.1-4.17c1.38-11.91-28.53-23.75-48.38-23.75s-21.76,11.48-22.8,20.37c-1.03,8.89.78,50.32.78,50.32,0,0-1.01,8.37-4.19,11.09-3.17,2.72-20.05,7.3-32.09,10.34-12.05,3.04-23.34,18.84-23.34,18.84-31.13,31.31-68.32,101.6-70.69,104.67-2.37,3.06-1.77,5.46-1.77,5.46-11.27,2.72-27.46,14.1-36.09,27.86-4.79,7.64-9.33,25.08-9.06,32.32,1.97,54.08-1.42,113.54-1.42,113.54,0,0-19.6,19.2-26.14,25.6-13.18,12.91-52.72,51.63-52.72,51.63l5.63,5.31-13.11,11.09s-3.86-.51-4.92-.37c-4.17.56-19.38,12.11-19.81,13.66-.31,1.13,24.97,30.02,38.73,45.63h17.95ZM532.2,899.08l.12,2.59,20.38-2.2-.09-6.3,30.71-1.3s-3.46,11.88-6.11,17.71c-2.66,5.82-2.09,16.65-2.09,16.65h-3.43l-54.28-6.73-.3-5.27-19.15-1.38.03,2.67-6.03-2.54-28.51-17.01-5.9-4.27,74.63,7.38Z"/>
</svg>