<?xml version="1.0" encoding="UTF-8"?>
<svg id="Layer_1" data-name="Layer 1" xmlns="http://www.w3.org/2000/svg" viewBox="0 0 1440 1440">
  <path d="M274.27,1274.02h93.46l.14-5.53c-4.83-7.86-33.28-19.47-33.28-19.47l.47-11.61,11.89-1.04s.98-30.99,9.06-59.57c6.56-23.21,20.36-43.69,21.58-53.78,1.53-12.69-8.83-85.64-9.27-91.08-.43-5.44-6.57-29.34-6.57-29.34l15.24-36.27,8.74,4.05c10.29-13.63,39.86-84.04,39.86-84.04l45.75,25.14-.18,4.19s15.27,6.99,18.86,7.15c3.59.17,3.14-.77,3.14-.77,0,0,1.03-1.73.97-2.44-.07-.71,1.61-.48,1.61-.48,0,0,45.14,19.26,52.09,20.56,6.95,1.29,6.69-.93,6.69-.93,0,0,22.68-17.05,24.27-24.33.81-3.72,4.06-7.94,4.06-7.94l7.77-6.71.3-19.94-.95.71s-16.71,16.17-21.63,21.54c-4.32,4.72-16.27,18.06-16.27,18.06h-3.43l-47.83-22.19,1.24-4.8-18.44-9.15-.9,1.74-3.08-1.01-19.1-18.17,52.52,11.93.12,2.59,21.38.8.15-2.92,36.33,9.88.37-.15s2.53-4.71,6.67-5.31c-2.53.37,9.01-13.58,7.77-9.97,2.76-8.03,5.62-11.02,5.62-11.02l-.57-28.41c-1.1-6.18-6.93.52-10.75,6.79-4.27,7.01-17.51,22.78-17.51,22.78l-26.76-6.83-.06-4.79-20.29-4.27v3.2l-66.84-26.06c.52-8.55-2.45-29.6-2.45-29.6,0,0,2.43-11.39,3.19-12.55,1.32-2.04,3.52-.5,3.52-.5,4.72,1.91,8.5.76,17.37.79,8.87.03,9.19-6.5,9.87-11.37.68-4.89.21-14.27.21-14.27l2.33-.43.14-3.95s.44-.81,2.8-.78c2.37.04,4.41-2.42,5.05-5.66.65-3.24-1.74-5.76-1.74-5.76l-7.99-7.82.1-1.25.61-3.32-1.96-.5c.42-3.25-.55-17.43-.55-17.43l1.1.07.1-4.17c-2.53-15.69-26.23-16.76-46.01-15.11-19.6,1.64-24,10.53-25.04,19.42-1.03,8.89,8.2,50.94,8.2,50.94,0,0-.51,7.17-3.69,9.89-3.17,2.72-18.44,13.39-30.06,17.76-9.51,3.57-30.94,43.19-30.94,43.19-25.61,44.48-40.08,90.06-42.45,93.13-2.37,3.06,1.38,5.18,1.38,5.18-11.27,2.72-26.59,19.53-33.32,43.53-3.64,12.96,2.66,34,5.31,43.38,18.65,65.96,17.87,136.71,17.87,136.71l-29.11,63.02,5.46,5.35-8.68,13.34s-3.86-.51-4.92-.37c-4.17.56-15.95,19.1-16.38,20.65-.2.73,12.61,9.06,26.28,17.71ZM308.15,1239.46l.03,8.57s-3.52,2.94-4.78,4.07c-1.39-3-2.48-4.53-2.48-4.53l-.19-11.75,7.42,3.65Z"/>
</svg>