<?xml version="1.0" encoding="UTF-8"?>
<svg id="Layer_1" data-name="Layer 1" xmlns="http://www.w3.org/2000/svg" viewBox="0 0 1440 1440">
  <defs>
    <style>
      .cls-1 {
        fill: #141414;
      }
    </style>
  </defs>
  <path d="M317.47,1248.49s-1.52,1.51-2.56,2.51c-4.39,4.22-5.35,19.89-5.8,23.02h101.48c-.04-1.04-.48-2.03-1.25-2.76-12.03-11.48-21.62-12.38-40.54-24.07l.5-13.76,13.03.28c.07,4.55,5.83-63.67,10.5-120.96l6.4-137.82.17-39.91s9.99.24,9.76-.1l-3.02-57.89s14.49,4.65,17.87,3.39c9.45-3.52,11.79-41.6,11.79-41.6l4.03.72,2.23-16-3.7-1.26s1.5-41.37,2.76-42.76c7.51-8.2,7.75-14.54,9.1-20.51,4.06-18.02-6.12-17.62-6.12-17.62,0,0,.5-3.8-1.1-6.22-1.55-2.35-3.85-2.23-3.85-2.23,0,0,1.04-22.74-4.48-21.66-1.31.26-1.94,2.07-1.94,2.07l-2.33,18.84s-8.02,6.55-8.13,6c-1.17-5.96-6.25-9.84-7.61-7.9-2.8,4-.21,21.14-1.32,28.38-.6,3.96,8.87,14.7,8.87,14.7l-5.65,42.91-3.97-1.12-3.24,14.24,4.32,2.37-2.33,4.69-11.77-14.63c.07-1.11-11.3-46.19-10.97-52.12.76-13.44-7.57-21-7.34-21.93.46-1.92.6-10.96.88-12.66.07-.36.13-.74.34-1.04.58-.84,2.36-.15,3.17-.04,1.36.19,12.33.22,14.95-1.38,2.35-1.44,3.72-3.95,4.39-6.56.54-2.06.86-4.87.94-7,.04-.98.05-1.96.04-2.94-.05-3.34-1.42-6.74-1.99-10.03-.01-.11-.34-1.96-.35-1.96l2.67-.43-.76-3.98s-1.02-.52,1.3-.97c2.64-.52,4.01-3.46,4.15-5.92.12-1.97-1.14-4.11-2.47-5.57l-11.21-9,.1-1.25.61-3.32-1.96-.5c.42-3.25-4.17-14.67-4.17-14.67l1.1.07.1-4.17c-2.54-15.69-23.01-10.12-42.79-8.47-19.6,1.64-27.55,13.69-28.59,22.58-1.03,8.89,19.45,50.32,19.45,50.32,0,0,5.38,5.78,1.63,18.37-2.36,7.9-11.9,24.83-17.9,33.22-10.54,14.76-7.24,33.66-7.35,45.57-.51,57.06,1.69,109.24,1.17,114.25-.39,3.85,5.9,4.68,5.9,4.68-6.21,6.61-7.93,12.77-8.49,35.36-.6,24.43,2.55,31.55.65,80.42-1.01,26.02-5.74,73.59-5.74,73.59l-5.38,108.69,12.42.25-.59,15.18ZM340.98,1235.25l6.3.09-1,12.12-5.64-.34.35-11.86Z"/>
  <path class="cls-1" d="M293.01,623.16c-3.76,0-7.35,1.14-10.12,3.21-2.77,2.07-4.95,5.32-4.95,9.34s2.18,7.27,4.95,9.34c2.76,2.08,6.36,3.21,10.12,3.21s7.35-1.14,10.12-3.21c2.77-2.07,4.95-5.32,4.95-9.34s-2.18-7.27-4.95-9.34c-2.76-2.08-6.36-3.21-10.12-3.21ZM253.21,557.28c-7.47,0-14.08,3.65-18.15,9.26-4.65-1.07-9.52-.63-13.9,1.26-4.38,1.89-8.05,5.13-10.46,9.24-2.41,4.12-3.45,8.9-2.96,13.64.49,4.75,2.48,9.21,5.69,12.75.09,3.7,1.1,7.31,2.93,10.53,1.83,3.21,4.42,5.93,7.56,7.89,3.13,1.97,6.7,3.13,10.39,3.38,3.69.25,7.38-.41,10.75-1.93,2.69,2.14,5.83,3.64,9.19,4.37,3.36.73,6.84.68,10.18-.15,3.34-.83,6.44-2.41,9.06-4.63,2.63-2.22,4.71-5.01,6.08-8.16,4.43-1.93,8.12-5.24,10.52-9.44,2.4-4.2,3.37-9.06,2.78-13.85-.59-4.8-2.72-9.27-6.06-12.76-3.34-3.49-7.72-5.81-12.49-6.6-1.57-4.33-4.43-8.08-8.2-10.73-3.77-2.65-8.27-4.07-12.88-4.06h0Z"/>
</svg>