<?xml version="1.0" encoding="UTF-8"?>
<svg id="Layer_1" data-name="Layer 1" xmlns="http://www.w3.org/2000/svg" viewBox="0 0 1440 1440">
  <path d="M532.93,840.84c-2.07,7.06-6.76,30.69-6.76,30.69l-23.44-.06v-3.42h-18.85v3.2l-12.16-1.52-57.3-8.83c3.14-3.39,2.69-7.85,2.2-8.48,0,0,5.53-10.31,6.86-12.35,1.32-2.04,2.36.09,2.36.09,4.72,1.91,7.87,4.81,16.74,4.84,8.87.03,11.58-8.33,12.68-13.12,1.1-4.8,3.22-13.28,3.22-13.28l2.33-.43.14-4.95s1.1-.23,3.46-.2c2.37.04,4.41-1.42,5.05-4.66.65-3.24-1.74-5.76-1.74-5.76l-5.54-6.68.1-1.25.61-3.32-1.96-.5c.42-3.25,1.53-20.82,1.53-20.82l1.1.07.1-4.17c1.38-11.91-27.97-21.99-47.82-21.99s-21.76,11.48-22.8,20.37c-1.03,8.89.96,49.74.96,49.74,0,0-2.43,5.48-5.61,8.2-3.17,2.72-17.83,3.69-29.87,6.73-12.05,3.04-23.58,16.6-23.58,16.6-31.13,31.31-75.2,100.52-77.57,103.59-2.37,3.06-1.77,5.46-1.77,5.46-11.27,2.72-23.89,14.26-35.46,25.66-11.57,11.4-7.08,34.1-7.08,34.1,0,0,8.5,81.9,4.71,98.74l-3.8,4.49s-19.08,19.77-23.31,22.96c-4.23,3.19-40.78,30.24-40.78,30.24l6.2,8.42s-15.71,7.57-17.87,8.26c-2.16.69-3.19-.43-7.85-.09-4.67.35-12,5.1-12,5.1,0,0,29.17,58.71,30.46,61.08,1.3,2.36,10.39.23,10.39-2.14s-1.81-45.84-1.81-45.84l13.05-7.61c.18.23,1.08,1.2,4.56,4.78,5.52,5.7,4.7,10.03,4.7,10.03-2.08,2.15-1.9,17.35-1.99,18.99-.09,1.64-1.81,8.37-3.45,11.22-1.64,2.85-13.9,17.18-15.89,19.77-1.64,2.14-.57,8.94-.15,11.23h66.84l-.25-1.72c-.08-.81-.53-1.53-1.23-1.94-2.09-1.23-25.76-20.28-25.76-20.28l3.24-12.17,8.42,4.01,10.96-14.98,44.72-58.92c14.4-16.08,19.43-29.07,19.43-41.85s3.11-81.77,2.67-87.21c-.43-5.44,4.06-8.72,4.06-8.72l21.91-27.3,6.86,4.83c11.65-10.01,61.58-76.12,61.58-76.12l56.1,17.4,14.5.43.22,3.5,16.49.24,3.02.06s.15-3.56.09-4.27c-.07-.71,1.61-.48,1.61-.48,0,0,38.28-1.74,45.23-.44,6.95,1.29,6.69-.93,6.69-.93h4.6c6.22-.52,6.39-3.06,7.3-8.63.9-5.57,5.05-8.98,5.05-8.98v-95.89c-5.25-2.92-7.58.13-9.65,7.18ZM529.9,908.26c-2.66,5.82-2.4,19.88-2.4,19.88h-3.43l-52.77-2.1v-7.3l-19.04-.52.05,2.42-6.48-.39-40.54-20.46,1.13-1.33,78.61.73.12,2.59,20.27-1.42-.06-4.41,29.2-2.65s-2.01,9.13-4.66,14.96Z"/>
</svg>