<?xml version="1.0" encoding="UTF-8"?>
<svg id="Layer_1" data-name="Layer 1" xmlns="http://www.w3.org/2000/svg" viewBox="0 0 1440 1440">
  <path d="M110.38,1274.02h25.83c.02-.21.05-.42.05-.62-.09-13.81-15.17-22.23-13.55-28.32,1.62-6.09-2.14-8.16-2.14-8.16l8.27-8.37,7.41,7.57s2.2,1,5.63-.49c2.25-.98,55.34-58.88,77.37-78.22,5.04-4.42,35.91-61.12,35.91-61.12l13.08,27.8-53.96,87.97c-1.55,2.85,7.55,5.35,7.55,5.35l-7.77,9.76s-5.7,5.16-6.6,6.01c-8.03,7.51-10.32,16.44-10.32,16.44l49.66,24.41h20.35c-1.51-4.25-25.73-33.65-25.73-33.65l6.91-11.57,12.35,6.22s67.64-84.78,70.36-107.31c1.53-12.69-35.11-91.89-35.55-97.33-.43-5.44,3-6.95,3-6.95l12.68-15.87,7.86,3.97c11.65-10.01,63.62-72.38,63.62-72.38l54.31,17.09s16.17-1.79,16.72-.04c.55,1.75,1.02,2.61,1.02,2.61,0,0,12.92-1.91,16.51-1.75,3.59.17,3.14-.77,3.14-.77,0,0,.03-3.73-.03-4.44-.07-.71,1.61-.48,1.61-.48,0,0,35.41-4.14,42.36-2.84,6.95,1.29,6.69-.93,6.69-.93h4.6c6.22-.52,6.39-3.06,7.3-8.63.9-5.57,5.05-8.98,5.05-8.98v-96.89c-5.25-2.92-8.58.13-10.65,7.18-2.07,7.06-6.76,30.44-6.76,30.44l-21.11.76v-3.42h-18.85v3.2h-6.58l-60.76-7.33c2.16-4.66,1.73-7.42,1.73-7.42,0,0,5.16-6,6.49-8.04,1.32-2.04,3.52-.5,3.52-.5,4.72,1.91,7.38,4.4,16.25,4.43,8.87.03,11.46-6.72,12.56-11.51,1.1-4.8,3.21-12.26,3.21-12.26l2.33-.43.14-4.95s1.1-.23,3.46-.2c2.37.04,4.41-1.42,5.05-4.66.65-3.24-1.74-5.76-1.74-5.76l-5.54-6.68.1-1.25.61-3.32-1.96-.5c.42-3.25,2.3-21.03,2.3-21.03l1.1.07.1-4.17c1.38-11.91-28.53-23.75-48.38-23.75s-21.76,11.48-22.8,20.37c-1.03,8.89.53,46.96.53,46.96,0,0-.51,5-3.69,7.72-3.17,2.72-21.12,5.07-33.16,8.11-12.05,3.04-22.86,15.99-22.86,15.99-31.13,31.31-76.55,99.43-78.92,102.5-2.37,3.06-1.77,5.46-1.77,5.46-11.27,2.72-24.99,14.49-36.56,25.89-1.94,1.91-7.39,15.27-8.75,22.39-10.01,52.49-35.57,106.88-35.57,106.88l-76.9,89.61,7.14,7.08-12.82,12.91s-2.7.12-3.76.26c-4.17.56-19.83,13.9-20.27,15.45-.28,1.01,24.54,20.74,42,34.47ZM407.15,901.73l78.2-2.1.12,2.59,20.27-1.42-.06-4.41,27.2-2.65s-2.01,9.13-4.66,14.96c-2.66,5.82-2.4,18.58-2.4,18.58h-3.43l-49.89-.13-.3-5.27-19.12-.13.03,2.67-9.78-.39-38.92-18.18,2.74-4.12Z"/>
</svg>