<?xml version="1.0" encoding="UTF-8"?>
<svg id="Layer_1" data-name="Layer 1" xmlns="http://www.w3.org/2000/svg" viewBox="0 0 1440 1440">
  <path d="M58.75,1240.51c-.09-13.81,1.14-22.55,2.76-28.64,1.62-6.09-2.33-12.39-2.33-12.39l11.94-5.63,5.76,10.55s.65,2.78,4.08,1.29c2.25-.98,84.28-40.48,109.3-53.82,5.91-3.15,62.68-79.51,62.68-79.51l32.46,55.08-.56,108.12c-1.55,2.85,8.07,2.87,8.07,2.87l-2.4,15.37s-5.04-.92-9.25,8.14c-2.07,4.47-3.12,8.81-3.65,12.06h67.42c-5.04-5.18-27.48-17.48-27.48-17.48l2.98-15.5,14.68,1.38s6.22-93.03,9.67-125.15c1.37-12.71-48.33-83.45-48.77-88.89-.43-5.44,3-6.95,3-6.95l9.8-11.53,7.86,3.97c11.65-10.01,64.35-71.53,64.35-71.53l56.83,14.9s11.22-1.07,12.84-.61c1.62.45,1.22.81,1.77,2.56.55,1.75,1.13,1.62,1.13,1.62,0,0,12.92-1.91,16.51-1.75,3.59.17,3.14-.77,3.14-.77,0,0,.03-3.73-.03-4.44-.07-.71,1.61-.48,1.61-.48,0,0,36.41-6.14,43.36-4.84,6.95,1.29,6.69-.93,6.69-.93h4.6c6.22-.52,6.39-3.06,7.3-8.63.9-5.57,5.05-8.98,5.05-8.98v-96.89c-5.25-2.92-8.58.13-10.65,7.18-2.07,7.06-6.76,30.44-6.76,30.44l-22.11.76v-3.42h-18.85v3.2h-5.58l-60.5-5.14c2.16-4.66,1.55-4.9,1.55-4.9,0,0,5.08-4.71,6.41-6.75,1.32-2.04,3.52-.5,3.52-.5,4.72,1.91,7.38,4.4,16.25,4.43,8.87.03,11.46-6.72,12.56-11.51,1.1-4.8,3.21-12.26,3.21-12.26l2.33-.43.14-4.95s1.1-.23,3.46-.2c2.37.04,4.41-1.42,5.05-4.66.65-3.24-1.74-5.76-1.74-5.76l-5.54-6.68.1-1.25.61-3.32-1.96-.5c.42-3.25,2.3-21.03,2.3-21.03l1.1.07.1-4.17c1.38-11.91-28.53-23.75-48.38-23.75s-21.76,11.48-22.8,20.37c-1.03,8.89,1.74,46.75,1.74,46.75,0,0-1.72,5.21-4.9,7.93-3.17,2.72-21.02,4.51-33.06,7.55-12.05,3.04-21.86,14.99-21.86,14.99-31.13,31.31-78.65,96.99-81.02,100.06-2.37,3.06-1.77,5.46-1.77,5.46-11.27,2.72-23.99,13.49-35.56,24.89-11.57,11.4-15.74,33.56-15.74,33.56l-52.66,88.32-95.27,54.65,4.01,7.47s-11.52,7.06-24.39,6.41c-4.2-.21-18.44,4.75-18.87,6.31-.43,1.55,34.5,68.74,34.5,68.74,0,0,7.91-4.04,7.87-10.91ZM407.38,904.04l76.98-4.41.12,2.59,20.27-1.42-.06-4.41,28.2-2.65s-2.01,9.13-4.66,14.96c-2.66,5.82-2.4,18.58-2.4,18.58h-3.43l-50.89,1.87-.3-5.27-19.04,1.1v2.98l-12.23-.34-35.78-17.36,3.24-6.22Z"/>
</svg>