<?xml version="1.0" encoding="UTF-8"?>
<svg id="Layer_1" data-name="Layer 1" xmlns="http://www.w3.org/2000/svg" viewBox="0 0 1440 1440">
  <path d="M182.91,1234.15l-.84,6.88s-6.2,6.5-10.41,15.56c-3.85,8.31-4.17,16.16-4.2,17.43h62.71v-2.21c-.81-2.7-16.66-7.86-18.65-13.56-1.63-4.67-4.49-8.76-4.49-8.76l2.13-10.41,7.54,3.29s10.99-22.22,16.14-28.58c13.52-16.67,49.45-45.96,63.89-57.35,14.44-11.4,13.42-16.03,13.42-28.81s-19.55-84.82-19.99-90.26c-.43-5.44,4.06-8.72,4.06-8.72l20.05-28.46,7.86,3.97c11.65-10.01,60.28-76.58,60.28-76.58l55.15,19.3s10.01.54,11.63,1c1.62.45.88,4.18.88,4.18,0,0,14.86.09,18.45.25,3.59.17,3.14-.77,3.14-.77,0,0,.03-2.73-.03-3.44-.07-.71,1.61-.48,1.61-.48,0,0,38.28-1.74,45.23-.44,6.95,1.29,6.69-.93,6.69-.93h4.6c6.22-.52,6.39-3.06,7.3-8.63.9-5.57,5.05-8.98,5.05-8.98v-95.89c-5.25-2.92-7.58.13-9.65,7.18-2.07,7.06-6.76,30.69-6.76,30.69l-20.92.76v-3.42h-21.04v3.2h-5.58l-63.34-10.24c2.16-4.66.26-8.89.26-8.89,0,0,6.45-14.11,7.78-16.15,1.32-2.04,3.52-.5,3.52-.5,4.72,1.91,9.03,4.63,17.9,4.66,8.87.03,10.41-7.28,11.51-12.07,1.1-4.8,3.22-13.28,3.22-13.28l2.33-.43.14-4.95s1.1-.23,3.46-.2c2.37.04,4.41-1.42,5.05-4.66.65-3.24-1.74-5.76-1.74-5.76l-5.54-6.68.1-1.25.61-3.32-1.96-.5c.42-3.25,2.27-20.92,2.27-20.92l1.1.07.1-4.17c1.38-11.91-27.97-21.99-47.82-21.99s-22.5,11.58-23.54,20.47c-1.03,8.89,1.52,49.13,1.52,49.13,0,0-1.3,4.36-4.48,7.08-3.17,2.72-21.94,6.71-33.98,9.75-12.05,3.04-20.92,15.15-20.92,15.15-31.13,31.31-73.84,102.35-76.21,105.42-2.37,3.06-1.77,5.46-1.77,5.46-11.27,2.72-24.15,11.87-35.72,23.27-11.57,11.4-8.37,34.71-8.37,34.71,0,0,6.06,102.95,4.96,106.64-1.1,3.69-45.87,103.03-49.67,106.44-3.8,3.41,13.98,10.7,13.98,10.7ZM484.57,899.28l.12,2.59,22.18-1.41-.06-4.41,27.29-3.66s-2.01,9.13-4.66,14.96c-2.66,5.82-2.4,18.58-2.4,18.58h-3.43l-51.84-1.31-.29-6.91-19.84-1.35v2.98l-4.99-.63-38.59-21.48,76.51,2.05Z"/>
</svg>