<?xml version="1.0" encoding="UTF-8"?>
<svg id="Layer_1" data-name="Layer 1" xmlns="http://www.w3.org/2000/svg" viewBox="0 0 1440 1440">
  <path d="M84.3,1246.56c-.09-13.81-7.75-21.28-6.13-27.37,1.62-6.09-1.6-10.01-1.6-10.01l10.3-7.25,6.67,9.8s.65,2.78,4.08,1.29c2.25-.98,70.33-47.92,95.35-61.25,5.91-3.15,61.3-77.01,61.3-77.01l28.49,51.45-26.11,107.5c-1.55,2.85,8.07,2.87,8.07,2.87l-2.12,14.27s-5.04-.92-9.25,8.14c-2.79,6.02-3.72,11.81-4.04,15.02h68.94l-.16-1.61c-1.16-3.88-29.31-20.7-29.31-20.7l1.58-12.15,12.82,1.04s37.17-89.52,37.6-121.25c.17-12.78-41.49-87.58-41.93-93.02-.43-5.44,3-6.95,3-6.95l7.07-9.48,7.86,3.97c11.65-10.01,64.35-71.53,64.35-71.53l55.83,14.9s16.17-1.79,16.72-.04c.55,1.75,1.02,2.61,1.02,2.61,0,0,12.92-1.91,16.51-1.75,3.59.17,3.14-.77,3.14-.77,0,0,.03-3.73-.03-4.44-.07-.71,1.61-.48,1.61-.48,0,0,35.41-5.14,42.36-3.84,6.95,1.29,6.69-.93,6.69-.93h4.6c6.22-.52,6.39-3.06,7.3-8.63.9-5.57,5.05-8.98,5.05-8.98v-96.89c-5.25-2.92-8.58.13-10.65,7.18-2.07,7.06-6.76,30.44-6.76,30.44l-21.11.76v-3.42h-18.85v3.2h-6.58l-59.5-4.14c2.16-4.66,1.22-7.92,1.22-7.92,0,0,4.41-3.69,5.74-5.73,1.32-2.04,3.52-.5,3.52-.5,4.72,1.91,7.38,4.4,16.25,4.43,8.87.03,11.46-6.72,12.56-11.51,1.1-4.8,3.21-12.26,3.21-12.26l2.33-.43.14-4.95s1.1-.23,3.46-.2c2.37.04,4.41-1.42,5.05-4.66.65-3.24-1.74-5.76-1.74-5.76l-5.54-6.68.1-1.25.61-3.32-1.96-.5c.42-3.25,2.3-21.03,2.3-21.03l1.1.07.1-4.17c1.38-11.91-28.53-23.75-48.38-23.75s-21.76,11.48-22.8,20.37c-1.03,8.89,1.74,46.75,1.74,46.75,0,0-1.72,5.21-4.9,7.93-3.17,2.72-21.12,5.07-33.16,8.11-12.05,3.04-21.86,14.99-21.86,14.99-31.13,31.31-78.55,97.43-80.92,100.5-2.37,3.06-1.77,5.46-1.77,5.46-11.27,2.72-23.99,13.49-35.56,24.89-1.94,1.91-6.96,7.71-9.43,14.51-19.14,52.77-55.75,106.99-55.75,106.99l-87.17,66.06,4.56,8.28s-5.92,10.95-18.78,10.31c-4.2-.21-17.53,8.89-17.96,10.45-.43,1.55,40.39,57.7,40.39,57.7,0,0,9.19-6.85,9.14-13.72ZM407.38,904.04l77.98-4.41.12,2.59,20.27-1.42-.06-4.41,27.2-2.65s-2.01,9.13-4.66,14.96c-2.66,5.82-2.4,18.58-2.4,18.58h-3.43l-49.89.87-.3-5.27-19.04,1.1v2.98l-13.23-.34-35.78-16.36,3.24-6.22Z"/>
</svg>