<?xml version="1.0" encoding="UTF-8"?>
<svg id="Layer_1" data-name="Layer 1" xmlns="http://www.w3.org/2000/svg" viewBox="0 0 1440 1440">
  <path d="M304.16,1252.36c-4.17.56-8.11,19.95-8.54,21.5-.01.05,0,.11.03.16h112.59v-4.4c-4.83-7.86-41.43-23.36-41.43-23.36l.78-11.74,11.62.2s8.45-142.19,9.67-152.29c1.53-12.69-1.68-47.91-2.12-53.35-.43-5.44-6.17-38.07-6.17-38.07l5.78-41.93,11.38.92c5.27-21.09,12.3-66.89,12.3-66.89l23.7,16.96-1.04,3.31s14.28,9.63,17.87,9.79c3.59.17,3.14-.77,3.14-.77,0,0,.62-.78.56-1.49-.07-.71,1.61-.48,1.61-.48,0,0,40.9,31.18,47.85,32.48,6.94,1.29,8.89-.87,8.89-.87,0,0,21.82-6.31,30.18-8.97,2.19-.69,15.97,5.58,17.29,4.28.46-.46,2.85-2.45,1.59-4.36-2.8-4.28-7.39-7.72-7.21-8.55.28-1.27,15.31.47,18.52-2.47,1.49-1.37,1.04-3.11.91-3.69-.43-1.85-7.19-3.01-7.19-3.01l-4.97-1.25c4.68.86,11.83-1.15,10.22-6.81-1.18-4.11-6.03-.52-10.04,1.16-4.23,1.78-12.23,4.33-16.96,5.63-4.93,1.36-29.54,7.45-29.54,7.45-1.01.79-2.51,2.26-3.79,2.26-.96,0-1.89-.24-2.73-.69l-42.4-31.76,1.23-4.79-16.5-11.58-.89,1.75-3.09-1.02-1.21-3.52,32.93,4.45.32,3.36,22.01.65-.27-5.03s36.04-1.78,44.93-7.09c4.09-2.44,16.84-9.28,21.17-12.69,4.47-3.51,13.27.59,18.39,3.54,1.77,1.02,3.99-.25,4.02-2.3v-.03c0-.79-.35-1.54-.94-2.05l-6.3-5.39,7.29,1.42.27-16.88c-1.1-6.18-17.88-9.26-23.32-5.8-6.94,4.4-34.44,24.13-34.44,24.13l-32.9.1.02-4.24-23.5-.52.33,3.21-60.29-43.87c.07-1.11,1.74-10.39,2.07-16.32.76-13.44-3.33-19.75-3.1-20.68.46-1.92-.37-16.16-.09-17.86.07-.36.13-.74.34-1.04.58-.84,2.36-.15,3.17-.04,1.36.19,2.72.33,4.09.44,2.73.22,5.47.32,8.22.43,2.95.13,6.1.28,8.72-1.32,2.35-1.44,3.72-3.95,4.39-6.56.54-2.06.77-4.19.85-6.32.04-.98.05-1.96.04-2.94-.05-3.34-.53-6.69-1.1-9.98-.01-.11-.34-1.96-.35-1.96l2.67-.43-.76-3.98s-1.02-.52,1.3-.97c2.64-.52,4.01-3.46,4.15-5.92.12-1.97-.51-4.04-1.84-5.5l-9.62-8.82.1-1.25.61-3.32-1.96-.5c.42-3.25-1.88-14.75-1.88-14.75l1.1.07.1-4.17c-2.54-15.69-28.09-12.81-47.87-11.16-19.6,1.64-24.09,11.4-25.13,20.29-1.03,8.89,16.28,51.84,16.28,51.84,0,0-.45,13.11-3.63,15.83-3.17,2.72-11.59,15.39-20.46,24.08-12.95,12.69-22.14,42.35-22.14,42.35-17.14,50.23-20.9,104.01-23.27,107.08-2.37,3.06,4.51,5.9,4.51,5.9-6.21,6.61-11.89,9.24-16.31,33.01-2.47,13.24-.18,39.76.45,49.49,4.92,76.28-.38,221.44-.38,221.44l7.92,1.73-.02,16.7s-1.71.26-2.77.4ZM335.2,1234.91l10.98.35-2.88,14.28-9.39-1.13,1.29-13.5Z"/>
</svg>