<?xml version="1.0" encoding="UTF-8"?>
<svg id="Layer_1" data-name="Layer 1" xmlns="http://www.w3.org/2000/svg" viewBox="0 0 1440 1440">
  <defs>
    <style>
      .cls-1 {
        fill: #141414;
      }
    </style>
  </defs>
  <path d="M346.28,1247.45l-5.64-.35.35-11.86,6.3.09-1,12.12Z"/>
  <path d="M317.47,1248.49s-1.52,1.51-2.56,2.51c-4.39,4.22-5.35,19.89-5.8,23.02h101.48c-.04-1.04-.48-2.03-1.25-2.76-12.03-11.48-21.62-12.38-40.54-24.07l.5-13.76,13.03.28c.07,4.55,5.83-63.67,10.5-120.96l6.4-137.82.17-39.91s9.99.24,9.76-.1l-3.02-57.89s14.49,4.65,17.87,3.39c9.45-3.52,7.8-43.85,7.8-43.85l4.03.72-.26-17.09-3.7-1.26s-1.29-42.6-.77-44.4c3.58-12.39,4.44-15.36,5.09-18.82,3.4-18.16-6.96-14.26-6.96-14.26,0,0,.5-3.8-1.1-6.22-1.55-2.35-3.85-2.23-3.85-2.23,0,0-3.81-27.32-9.32-26.24-1.31.26-1.94,2.07-1.94,2.07l3.37,22.42s-3.97-.25-6.76,3.96c-2.41,3.64-3.68,11.85-3.73,11.59-.92-4.68-2.27-12.84-5.07-15.05,1.61-1.47,2.63-3.51,3.17-5.62.54-2.06.86-4.87.94-7,.04-.98.05-1.96.04-2.94-.05-3.34-1.42-7.74-1.99-11.03-.01-.11-.34-1.96-.35-1.96l2.67-.43-.76-3.98s-1.02-.52,1.3-.97c2.64-.52,4.01-3.46,4.15-5.92.12-1.97-1.14-4.11-2.47-5.57l-11.21-9,.1-1.25.61-3.32-1.96-.5c.42-3.25-4.17-13.67-4.17-13.67l1.1.07.1-4.17c-2.54-15.69-23.01-10.12-42.79-8.47-19.6,1.64-27.55,13.69-28.59,22.58-1.03,8.89,20.45,50.32,20.45,50.32,0,0,4.03,6.04,1.05,18.56-1.91,8.02-11.31,24.64-17.31,33.03-10.54,14.76-7.24,33.66-7.35,45.57-.51,57.06,1.69,109.24,1.17,114.25-.39,3.85,5.9,4.68,5.9,4.68-6.21,6.61-7.93,12.77-8.49,35.36-.6,24.43,2.55,31.55.65,80.42-1.01,26.02-5.74,73.59-5.74,73.59l-5.38,108.69,12.42.25-.59,15.18ZM381.13,735.13c.07-.36.13-.74.34-1.04.58-.84,2.36-.15,3.17-.04,1.06.15,7.91.2,12.14-.54-1.56,5.72,2.24,20.79,2.86,26.2.46,3.98,10.4,14.89,10.4,14.89l-.86,42.63-6.35-.04-1.29,7.96c.07-1.11-13.29-49.51-12.96-55.44.76-13.44-7.57-21-7.34-21.93.46-1.92-.4-10.96-.12-12.66ZM340.98,1235.25l6.3.09-1,12.12-5.64-.34.34-11.86Z"/>
  <path class="cls-1" d="M281.68,604.27c-6.58,0-12.87,1.99-17.72,5.63-4.86,3.63-8.68,9.33-8.68,16.37s3.82,12.73,8.68,16.37c4.84,3.64,11.14,5.63,17.72,5.63s12.87-1.99,17.72-5.63c4.86-3.63,8.68-9.33,8.68-16.37s-3.82-12.73-8.68-16.37c-4.84-3.65-11.14-5.63-17.72-5.63ZM211.96,488.87c-13.08,0-24.67,6.4-31.79,16.23-8.15-1.88-16.68-1.11-24.36,2.2-7.68,3.31-14.1,8.98-18.33,16.19-4.23,7.21-6.05,15.58-5.19,23.9.86,8.32,4.35,16.14,9.96,22.34.16,6.48,1.92,12.81,5.13,18.44,3.2,5.63,7.75,10.38,13.24,13.83,5.49,3.45,11.74,5.48,18.2,5.93,6.46.44,12.93-.72,18.84-3.38,4.71,3.75,10.22,6.37,16.1,7.65,5.88,1.28,11.98,1.19,17.83-.26,5.84-1.45,11.27-4.23,15.87-8.12,4.6-3.89,8.24-8.78,10.65-14.3,7.76-3.38,14.22-9.18,18.42-16.53,4.2-7.35,5.91-15.87,4.87-24.27-1.04-8.4-4.76-16.25-10.62-22.36-5.86-6.11-13.53-10.17-21.88-11.57-2.74-7.59-7.76-14.16-14.37-18.79-6.61-4.64-14.49-7.12-22.56-7.12h0Z"/>
</svg>