<?xml version="1.0" encoding="UTF-8"?>
<svg id="Layer_1" data-name="Layer 1" xmlns="http://www.w3.org/2000/svg" viewBox="0 0 1440 1440">
  <path d="M133.39,1274.02h33.54c-1.97-6.28-4.43-11.32-5.11-14.9-2.33-12.17-9.58-16.83-9.58-16.83l11.65-12.43,9.52,8.52s2.2,1,5.63-.49c2.25-.98,48.65-49.6,69.71-74.11,4.37-5.08,48.6-75.54,48.6-75.54l24.09,35.74-26.98,105.76c-1.55,2.85,7.55,5.35,7.55,5.35l-4.14,12.3s-4.97,1.67-5.87,2.51c-8.03,7.51-7.25,22.78-7.25,22.78l6.12,1.34h66.54l.15-6.18c-4.83-7.86-33.28-19.47-33.28-19.47l3.76-11.61,15.28,3.88s34.49-97.08,37.21-119.61c1.53-12.69-46.95-82.45-47.39-87.89-.43-5.44,1.66-6.32,1.66-6.32l13.62-17.19,7.86,3.97c11.65-10.01,62.42-77.91,62.42-77.91l52.94,17.29,17.48,1.6.82,4.19s14.24-1.09,17.83-.93c3.59.17,3.14-.77,3.14-.77,0,0,.03-3.73-.03-4.44-.07-.71,1.61-.48,1.61-.48,0,0,39.32-4.93,46.27-3.63,6.95,1.29,6.69-.93,6.69-.93h4.6c6.22-.52,5.47-1.27,6.38-6.84.9-5.57,5.05-8.98,5.05-8.98v-96.89c-5.25-2.92-8.58.13-10.65,7.18-2.07,7.06-6.76,30.44-6.76,30.44l-20.62,1.75v-3.42h-20.38v3.2h-7.58l-63.09-6.43c2.16-4.66.59-11.66.59-11.66,0,0,5.43-7.4,6.76-9.44,1.32-2.04,3.52-.5,3.52-.5,4.72,1.91,7.38,4.4,16.25,4.43,8.87.03,10.52-7.02,11.62-11.81,1.1-4.8,3.21-12.26,3.21-12.26l2.33-.43.14-4.95s1.1-.23,3.46-.2c2.37.04,4.41-1.42,5.05-4.66.65-3.24-1.74-5.76-1.74-5.76l-5.54-6.68.1-1.25.61-3.32-1.96-.5c.42-3.25,2.3-21.03,2.3-21.03l1.1.07.1-4.17c1.38-11.91-28.53-23.75-48.38-23.75s-21.76,11.48-22.8,20.37c-1.03,8.89.53,46.96.53,46.96,0,0-1.85,7.96-5.03,10.68-3.17,2.72-20.27,5.66-32.31,8.7-12.05,3.04-21.41,16.03-21.41,16.03-31.13,31.31-73.44,97.86-75.81,100.93-2.37,3.06-1.77,5.46-1.77,5.46-11.27,2.72-25.34,16.55-36.91,27.95-1.94,1.91-7.62,15.23-8.75,22.39-8.46,53.49-37.29,107.45-37.29,107.45l-78.11,88.89,7.25,4.49-13.99,18.13s-2.7.12-3.76.26c-4.17.56-15.37,15.8-15.8,17.35-.24.87,14.47,15.56,27.41,28.27ZM441.12,902.28l85.57.03.12,2.59,20.38-2.2-.09-6.3,26.81-3.64s-3.46,11.88-6.11,17.71c-2.66,5.82-2.09,16.65-2.09,16.65h-3.43l-52.2,1.8-.3-5.27-19.12-.13.03,2.67-9.78-1.39-39.95-19.21.15-3.32Z"/>
</svg>