<?xml version="1.0" encoding="UTF-8"?>
<svg id="Layer_1" data-name="Layer 1" xmlns="http://www.w3.org/2000/svg" viewBox="0 0 1440 1440">
  <path d="M304.16,1252.36c-4.17.56-8.11,19.95-8.54,21.5-.01.05,0,.11.03.16h112.59v-4.4c-4.83-7.86-41.43-23.36-41.43-23.36l.78-11.74,11.62.2s8.45-142.19,9.67-152.29c.95-7.87-2.03-57.65-2.01-94.99.01-22.85,3.15-41.61,3.15-41.61l11.38.92c5.27-21.09,7.94-55.7,7.94-55.7l13.34,10.05-1.04,3.31s13.72,12.74,17.31,12.9c3.59.17,3.14-.77,3.14-.77,0,0,.62-.78.56-1.49-.07-.71,1.61-.48,1.61-.48,0,0,37.55,31.85,44.5,33.15,6.94,1.29,8.89-.87,8.89-.87,0,0,18.95.79,27.31-1.87,2.19-.69,16.64,6.74,17.96,5.44.46-.46,2.85-2.45,1.59-4.36-2.8-4.28-7.71-5.6-7.53-6.43.28-1.27,17.85,2.34,21.06-.6,1.49-1.37,1.04-3.11.91-3.69-.43-1.85-7.19-3.01-7.19-3.01l-4.97-1.25c5.35-1.05,13.05-3.7,11.89-7.4-1.29-4.08-5.8-2.35-9.81-.67-4.23,1.78-46.85,4.37-46.85,4.37-1.01.79-2.51,2.26-3.79,2.26-.96,0-1.89-.24-2.73-.69l-39.7-31.59,2.01-5.31-6.47-6.09-2.07-1.36-.97-.78-2.15-.65,20.98-3.16.32,3.36,21.22-2.37-.27-5.03s33.26-8.59,42.15-13.9c4.09-2.44,16.84-9.28,21.17-12.69,4.47-3.51,13.27.59,18.39,3.54,1.77,1.02,3.99-.25,4.02-2.3v-.03c0-.79-.35-1.54-.94-2.05l-6.3-5.39,6.41.54c2.36.2,4.44-1.51,4.71-3.86l-3.14-4.43,1.61-.32c1.85-.37,3.15-2.04,3.05-3.92l-.16-3.26c-1.1-6.18-22.92-11.36-28.36-7.9-6.94,4.4-34.32,26.03-34.32,26.03l-30.62,5.72.02-4.24-21.14,1.02.33,3.21-14.26-.36-38.72-40.6c.07-1.11,1.74-10.39,2.07-16.32.76-13.44-8.56-29.69-8.33-30.62.46-1.92,3.88-15.77,4.16-17.47.07-.36.13-.74.34-1.04.58-.84,2.36-.15,3.17-.04,1.36.19,2.72.33,4.09.44,2.73.22,1.22-.07,3.97.04,2.95.13,6.1.28,8.72-1.32,2.35-1.44,3.72-3.95,4.39-6.56.54-2.06.77-4.19.85-6.32.04-.98.05-1.96.04-2.94-.05-3.34-.53-6.69-1.1-9.98-.01-.11-.34-1.96-.35-1.96l2.67-.43-.76-3.98s-1.02-.52,1.3-.97c2.64-.52,4.01-3.46,4.15-5.92.12-1.97-.51-4.04-1.84-5.5l-10.61-8.55.1-1.25.61-3.32-1.96-.5c.42-3.25-2.25-14.85-2.25-14.85l1.1.07.1-4.17c-2.54-15.69-26.73-12.98-46.51-11.33-19.6,1.64-24.09,11.4-25.13,20.29-1.03,8.89,17.65,54.43,17.65,54.43,0,0-.45,13.11-3.63,15.83-3.17,2.72-10.01,13.8-18.88,22.49-12.95,12.69-18.13,47.53-18.13,47.53-10.23,49.86-17.42,105.12-19.79,108.19-2.37,3.06,4.51,5.9,4.51,5.9-6.21,6.61-10.6,13.52-15.02,37.29-2.47,13.24,4.23,46.61,4.86,56.34,4.92,76.28-7.8,209.27-7.8,209.27l7.92,1.73-.02,16.7s-1.71.26-2.77.4ZM346.18,1235.26l-1.12,14.29-9.39-1.13-.47-13.51,10.98.35Z"/>
</svg>