<?xml version="1.0" encoding="UTF-8"?>
<svg id="Layer_1" data-name="Layer 1" xmlns="http://www.w3.org/2000/svg" viewBox="0 0 1440 1440">
  <path d="M333.61,1274.02h78.23v-.03c-12.77-12.96-23.99-15.02-43.71-27.21l1.03-11.87,3.63-.39c.07,4.55,10.96-76.72,20.46-119.71,1.71-7.75-3.93-81.28,1.21-125.79,2.62-22.7.53-47.82.53-47.82l11.38.92c3.56-22.83.29-29.09.16-29.34l2.41,2.19,5.27,5.05,2.11-1.77,6.78,7.36s22.18,28.72,29.13,30.02c5.2.96,8.49,23.28,13.51,24.17,6.42,1.13,16.34.71,21.04,1.02,1.72.12,4.69,7.04,9.61,9.66,1.64.88,3.32-3.57,3.76-3.43,3.5,1.13,6.61-1.19,5.35-3.1-2.8-4.28-6.3-6.16-6.12-6.99.28-1.27,11.9,5.99,15.11,3.05,1.49-1.37,1.04-3.11.91-3.69-.43-1.85-9.5-7.39-9.5-7.39,5.35-1.05,14.69-1.71,13.52-5.4-.4-1.28-6.32-2.15-13.91-3.01-16.69-1.88-19.37-17.06-19.37-17.06-11.59-1.85-19.07-4-18.81-3.62.54.8-1.89-.24-2.73-.69l-33.26-38.46,2.68-3.63-6.31-9.09,24.89-13.01,1.43,2.63,16.66-9.88-1.38-4.29s17.15-11.68,27.88-18.48c2.39-1.51,6.59-4.54,8.37-5.14,10.36-3.43,18.83-11.98,23.55-17.15.87-.95,2.7-2.53,3.95-3.65.42-.38,5.19,3.35,5.99,3.82,1.77,1.02,7.33,1.18,7.36-.87v-.03c0-.79-1.11-4.6-1.11-4.6l-9.84-6.27c3.2-1.55,11.22.7,13.17-1.55.94-1.07,1.43-2.7.61-3.86l-2.42-1.92-4.19-1.42c.28-.05,3.47-2.3,3.76-2.38,2.06-.58-1.78-2.33-3.34-3.8,0,0,4.56-3.8,1.17-5.91-11.62-7.26-27.11,3.36-32.55,6.82-6.94,4.4-20.8,24.47-20.8,24.47l-32.6,20.08-1.36-3.43-16.28,7.6,1.16,3.76-11.41,5.16-24.17-34.58c.07-1.11-5.6-37.15-5.27-43.08.76-13.44-6.1-22.81-5.87-23.74.46-1.92,1.67-11.16,1.95-12.86.07-.36.13-.74.34-1.04.58-.84,2.36-.15,3.17-.04,1.36.19,2.72.33,4.09.44,2.73.22,1.22-.07,3.97.04,2.95.13,6.1.28,8.72-1.32,2.35-1.44,3.72-3.95,4.39-6.56.54-2.06.77-4.19.85-6.32.04-.98.05-1.96.04-2.94-.05-3.34-.8-7.04-1.37-10.33-.01-.11-.34-1.96-.35-1.96l2.67-.43-.76-3.98s-1.02-.52,1.3-.97c2.64-.52,4.01-3.46,4.15-5.92.12-1.97-1.13-4.11-2.46-5.57l-11.21-9,.1-1.25.61-3.32-1.96-.5c.42-3.25-2.25-14.85-2.25-14.85l1.1.07.1-4.17c-2.54-15.69-25.93-9.94-45.71-8.29-19.6,1.64-24.41,12.16-25.45,21.05-1.03,8.89,17.76,51.08,17.76,51.08,0,0-.36,14.5-2.18,18.26-2.68,5.53-13.88,22.79-19.88,31.18-10.54,14.75-11.32,43.11-11.32,43.11-6.35,50.37-8.85,107.14-9.37,112.14-.4,3.85,5.14,5.2,5.14,5.2-6.21,6.61-9.33,12.33-11.44,34.84-2.72,29.07,14.52,71.53,15.15,81.26,1.68,25.99,5.57,78.86,5.57,78.86l-20.78,97.85,5.85,1.47-3.11,11.49s-1.71.26-2.77.4c-4.17.56-13.9,20.46-14.33,22.01-.37,1.33,29.36,9.28,38.22,11.62ZM346.07,1236.74l-.95,7.52-4.99-.88-.56-6.44,6.5-.2Z"/>
</svg>