<?xml version="1.0" encoding="UTF-8"?>
<svg id="Layer_1" data-name="Layer 1" xmlns="http://www.w3.org/2000/svg" viewBox="0 0 1440 1440">
  <defs>
    <style>
      .cls-1 {
        fill: #141414;
      }
    </style>
  </defs>
  <path d="M317.47,1248.49s-1.52,1.51-2.56,2.51c-4.39,4.22-5.35,19.89-5.8,23.02h101.48c-.04-1.04-.48-2.03-1.25-2.76-12.03-11.48-21.62-12.38-40.54-24.07l.5-13.76,13.03.28c.07,4.55,5.83-63.67,10.5-120.96.65-7.91,3.21-51.65,5.24-96.4h0c2.64-.62,5.44-2.94,5.44-2.94,0,0-3.56,4.63-2.42,6.53,4.01,6.66,15.1-8.29,15.1-8.29,0,0,2.42,9.16,4.44,10.78,5.31,4.27,5.32-1.71,5.19-2.29-.38-1.63,1.64-31.94-10.15-42.95-.27-.25-13.14-15.41-13.14-15.41l-1.6-26.77s8.47.24,8.25-.1l-3.02-56.89s11.13,6.37,14.5,5.12c9.45-3.52,20.16-37.23,20.16-37.23l3.25,1.76,6.3-15.45-3.63-2.98s11.32-36.53,12.58-37.91c7.51-8.2,11-12.57,13.47-18.17,2.42-5.48,6.1-15.73,2.61-20.28-1.81-2.36-5.27-1.55-5.27-1.55,0,0,4.42-15.71-3.93-14.09-1.31.25-1.6,1.13-1.6,1.13,0,0,4.09-13.54-1.82-14.77-3.93-.82-10.57,25.33-10.55,24.77.32-9.78-4.94-12.17-7.49-9.27-3.22,3.67-7.51,21.4-8.61,28.64-.6,3.96,3.24,14.94,3.24,14.94l-13.64,36.45-3.17-1.96-6.52,13.47,1.36,1.23-3.59,7.77-14.24-17.79c.07-1.11-10.3-46.19-9.97-52.12.76-13.44-7.57-21-7.34-21.93.46-1.92.6-10.96.88-12.66.07-.36.13-.74.34-1.04.58-.84,2.36-.15,3.17-.04,1.36.19,13.33.22,15.95-1.38,2.35-1.44,3.72-3.95,4.39-6.56.54-2.06.86-4.87.94-7,.04-.98.05-1.96.04-2.94-.05-3.34-1.42-6.74-1.99-10.03-.01-.11-.34-1.96-.35-1.96l2.67-.43-.76-3.98s-1.02-.52,1.3-.97c2.64-.52,4.01-3.46,4.15-5.92.12-1.97-1.14-4.11-2.47-5.57l-11.21-9,.1-1.25.61-3.32-1.96-.5c.42-3.25-4.17-14.67-4.17-14.67l1.1.07.1-4.17c-2.54-15.69-24.01-10.12-43.79-8.47-19.6,1.64-27.55,13.69-28.59,22.58-1.03,8.89,19.45,50.32,19.45,50.32,0,0,5.38,5.78,1.63,18.37-2.36,7.9-12.9,24.83-18.9,33.22-10.54,14.76-7.24,33.66-7.35,45.57-.51,57.06,1.69,109.24,1.17,114.25-.39,3.85,5.9,4.68,5.9,4.68-6.21,6.61-7.93,12.77-8.49,35.36-.6,24.43,2.55,31.55.65,80.42-1.01,26.02-5.74,73.59-5.74,73.59l-5.38,108.69,12.42.25-.59,15.18ZM399.82,994.69c3.67,1.2,2.08,10.85,2.08,10.85l-3.48,2.44c.49-12.07.38-13.35.34-13.45.07,0,.81.08,1.06.16ZM340.98,1235.25l6.3.09-1,12.12-5.64-.34.35-11.86Z"/>
  <path class="cls-1" d="M300.03,634.85c-2.01,0-3.93.61-5.4,1.72-1.48,1.11-2.65,2.84-2.65,4.99s1.16,3.88,2.65,4.99c1.48,1.11,3.4,1.72,5.4,1.72s3.93-.61,5.4-1.72c1.48-1.11,2.65-2.84,2.65-4.99s-1.16-3.88-2.65-4.99c-1.48-1.11-3.4-1.72-5.4-1.72ZM278.77,599.66c-3.99,0-7.52,1.95-9.7,4.95-2.48-.57-5.09-.34-7.43.67-2.34,1.01-4.3,2.74-5.59,4.94-1.29,2.2-1.84,4.75-1.58,7.29.26,2.54,1.33,4.92,3.04,6.81.05,1.97.59,3.91,1.56,5.62.98,1.72,2.36,3.17,4.04,4.22,1.67,1.05,3.58,1.67,5.55,1.81,1.97.14,3.94-.22,5.75-1.03,1.44,1.14,3.12,1.94,4.91,2.33,1.79.39,3.65.36,5.44-.08,1.78-.44,3.44-1.29,4.84-2.47,1.4-1.19,2.51-2.68,3.25-4.36,2.37-1.03,4.34-2.8,5.62-5.04,1.28-2.24,1.8-4.84,1.49-7.4s-1.45-4.95-3.24-6.82c-1.79-1.86-4.13-3.1-6.67-3.53-.84-2.32-2.37-4.32-4.38-5.73-2.02-1.41-4.42-2.17-6.88-2.17h0Z"/>
</svg>