<?xml version="1.0" encoding="UTF-8"?>
<svg id="Layer_1" data-name="Layer 1" xmlns="http://www.w3.org/2000/svg" viewBox="0 0 1440 1440">
  <path d="M318.76,1274.02h93.09v-.03c-12.78-12.96-23.99-15.02-43.72-27.21l1.17-13.35,12.23.51c.07,4.55,8.76-66.56,12.86-120.36.6-7.91,2.8-77.22,4.83-121.97,1.03-22.92-.12-53.86-.12-53.86l3.06-.06s12.37,22.67,17.68,27.33c4.79,4.21,15.73,16.4,19.94,19.29,6.41,4.41-1.09,18.93,4.14,20.85,3.86,1.42,6.88-3.47,7.27-4.13-.24.43-1.38,2.73.76,4.71,2.73,2.54,7.89-1.03,8.67-3.18,2.48-6.84,2.57-11.85,2.57-11.85,0,0,10.08,14.72,13.05,9.93,1.07-1.72,1.04-3.11.91-3.69-.38-1.63-20.22-39-38.78-41.68-1.28-.18-2.3-1.19-3.02-2.27l-24.14-45.7,3.98-5.7-8.72-13.73.09-5.87s10.31,4.61,13.86,3.95c11.53-2.14,26.09-27.47,26.09-27.47l2.47,1.74,11.26-13.7-3.99-3.54s25-33.55,26.77-34.14c10.36-3.44,10.46-4.68,15.19-9.84.87-.95,17.01-17.96,15.12-21.79-1.44-2.93-6.23.21-6.23.21,0,0,8.55-9.84,4.4-13.73-.76-.71-1.82-.32-2.79.4,2.35-2.94,5-7.9-1.78-10.76-.66-.28-1.87,1.09-2.85,2.43,1.99-3.64.49-5.45-4.19-4.92-3.99.46-10.04,14.11-10.09,13.55-.67-7-3.54-8.41-6.09-5.5-3.22,3.67-18.23,18.2-19.29,27.39-1.04,8.94-.64,11.51-.64,11.51l-23.92,29.59-2.45-2-9.01,11.89,1.36,1.23-11.44,8.48-16.06-24.73c.07-1.11-8.41-41.92-8.08-47.85.76-13.44-7.14-23.76-6.91-24.69.46-1.92-.06-11.3.22-13,.07-.36.13-.74.34-1.04.58-.84,2.36-.15,3.17-.04,1.36.19,2.72.33,4.09.44,2.73.22,1.22-.08,3.97.03,2.95.13,6.1.28,8.72-1.32,2.35-1.44,3.72-3.95,4.39-6.56.54-2.06.77-4.19.85-6.32.04-.98.05-1.96.04-2.94-.05-3.34-.8-7.03-1.37-10.32-.01-.11-.34-1.96-.35-1.96l2.67-.43-.76-3.98s-1.02-.52,1.3-.97c2.64-.52,4.01-3.46,4.15-5.92.12-1.97-1.14-4.11-2.47-5.57l-11.21-9,.1-1.25.61-3.32-1.96-.5c.42-3.25-2.71-14.98-2.71-14.98l1.1.07.1-4.17c-2.54-15.69-25.47-9.81-45.25-8.16-19.6,1.64-26.09,12.92-27.13,21.81-1.03,8.89,19.45,50.32,19.45,50.32,0,0,1.87,14.23.04,18-2.67,5.53-14.03,24.18-20.03,32.57-10.54,14.76-8.2,47.14-8.2,47.14,0,58.23-1.9,106.96-2.42,111.97-.39,3.85,5.9,4.68,5.9,4.68-6.21,6.61-9.26,12.44-9.82,35.03-.6,24.43,2.35,29.86,4.75,74.43,1.39,26-.6,82.69-.6,82.69l-5.5,105.12,5.85,1.47-1.81,14.76s-1.71.26-2.77.4c-4.17.56-10.27,20.46-10.7,22.01-.1.37,5.76,1.55,14.76,3.12ZM340.98,1235.25l6.59.56-1.36,12.26-6.05-.99.82-11.83Z"/>
</svg>