<?xml version="1.0" encoding="UTF-8"?>
<svg id="Layer_1" data-name="Layer 1" xmlns="http://www.w3.org/2000/svg" viewBox="0 0 1440 1440">
  <path d="M231.96,1274.02c-.51-11.23-3.22-14.92-4.3-20.59-2.33-12.17-8.66-16.72-8.66-16.72l12.65-11.43,9.52,8.52s2.2,1,5.63-.49c2.25-.98,22.1-22.19,43.17-46.71,4.37-5.08,19.94-21.76,19.94-21.76l1.1,3.86-6.25,61.66c-1.55,2.85,7.55,5.35,7.55,5.35l-4.14,12.3s-4.15,3.47-5.05,4.32c-6.73,6.29-7.27,18.03-7.27,21.67h71.88l.14-5.53c-4.83-7.86-33.28-19.47-33.28-19.47l3.76-11.61,15.28,3.88s20.56-101.05,23.28-123.59c1.53-12.69-27.39-88.89-27.83-94.33-.43-5.44,6.36-14.27,6.36-14.27l14.8-21.81,7.86,3.97c11.65-10.01,52.68-78.96,52.68-78.96l41.53,18.04,18.03,5.01-.18,4.19s14.24,2.91,17.83,3.07c3.59.17,3.14-.77,3.14-.77,0,0,.03-1.73-.03-2.44-.07-.71,1.61-.48,1.61-.48,0,0,48.51,7.39,55.46,8.69,6.95,1.29,6.69-.93,6.69-.93l16.03-22.85v-89.85c-5.25-2.92-8.58.13-10.65,7.18-2.07,7.06-6.76,30.44-6.76,30.44l-25.08-1.74v-3.42l-20.29-3.27v3.2h-7.58l-62.97-19.82c5.29-5.83,4.64-18.13,4.64-18.13,0,0,4.25-11.93,5.58-13.97,1.32-2.04,3.52-.5,3.52-.5,4.72,1.91,7.38,4.4,16.25,4.43,8.87.03,10.52-7.02,11.62-11.81,1.1-4.8,3.21-13.27,3.21-13.27l2.33-.43.14-4.95s.44-.81,2.8-.78c2.37.04,4.41-1.42,5.05-4.66.65-3.24-1.74-5.76-1.74-5.76l-6.99-6.82.1-1.25.61-3.32-1.96-.5c.42-3.25,1.83-19.73,1.83-19.73l1.1.07.1-4.17c1.38-11.91-26.85-20.5-46.71-20.5s-22.79,9.24-23.83,18.13c-1.03,8.89,2.7,49.73,2.7,49.73,0,0-1.01,8.37-4.19,11.09-3.17,2.72-19.46,9.3-31.5,12.34-12.05,3.04-26.63,24.26-26.63,24.26-31.13,31.31-60.05,97.38-62.42,100.45-2.37,3.06-1.77,5.46-1.77,5.46-11.27,2.72-29.66,19.89-38.29,33.65-4.79,7.64-6.8,26.6-5.7,33.76,9.99,65.14,8.2,109.68,8.2,109.68,0,0-19.6,19.2-26.14,25.6-13.18,12.91-45.42,57.29-45.42,57.29l5.63,5.31-13.11,11.09s-3.86-.51-4.92-.37c-4.17.56-19.38,12.11-19.81,13.66-.3,1.09,24.99,27.08,40.01,42.4h20.08ZM527.64,896.36l.12,2.59,20.38-2.2.15-4.92,35.02.04s-6.13,12.04-8.78,17.87c-2.66,5.82-5.18,16.83-5.18,16.83h-3.43l-50.21-9.4-.3-5.27-21.15-5.38.03,2.67-6.03-2.54-22.45-16.08-5.9-4.27,67.71,10.06Z"/>
</svg>