<?xml version="1.0" encoding="UTF-8"?>
<svg id="Layer_1" data-name="Layer 1" xmlns="http://www.w3.org/2000/svg" viewBox="0 0 1440 1440">
  <path d="M155.78,1274.02h62.22c4.54-2.09,4.64-10.69,4.85-11.96,1.26-7.49-4.28-15.33-11.48-26.07-4.33-6.47,6.39-14.31,6.39-14.31l8.33,6.51s87.2-74.84,90.82-95.24c2.23-12.58-25.26-92.13-25.7-97.57-.43-5.44,3-6.94,3-6.94l19.44-26.24,7.86,3.97c11.65-10.01,60.61-75.25,60.61-75.25l51.94,16.29,17.48,1.59.82,4.19s14.24-1.09,17.83-.93c3.59.17,3.14-.77,3.14-.77,0,0,.03-3.73-.03-4.44-.07-.71,1.61-.48,1.61-.48,0,0,38.41.86,45.36,2.16,6.95,1.29,6.69-.93,6.69-.93h4.6c6.22-.52,6.39-3.06,7.3-8.63.9-5.57,5.05-8.98,5.05-8.98v-96.89c-5.25-2.92-8.58.13-10.65,7.18-2.07,7.06-6.76,30.44-6.76,30.44l-23.11.76v-3.42h-18.85v3.2h-7.58l-62.07-9.73c2.16-4.66,1.6-12.66,1.6-12.66,0,0,6.61-10.36,7.94-12.4,1.32-2.04,3.52-.5,3.52-.5,4.72,1.91,7.38,4.4,16.25,4.43,8.87.03,11.46-6.73,12.56-11.52,1.1-4.8,3.21-12.26,3.21-12.26l2.33-.43.14-4.95s1.1-.23,3.46-.2c2.37.04,4.41-1.42,5.05-4.66.65-3.24-1.74-5.76-1.74-5.76l-5.54-6.68.1-1.25.61-3.32-1.96-.5c.42-3.25,2.29-21.03,2.29-21.03l1.1.07.1-4.17c1.38-11.91-28.53-23.75-48.38-23.75s-21.76,11.48-22.8,20.37c-1.03,8.89.54,46.96.54,46.96,0,0-1.86,7.96-5.04,10.68-3.17,2.72-20.26,5.65-32.3,8.69-12.05,3.04-22.87,17.99-22.87,17.99-31.13,31.31-75.17,101.87-77.54,104.94-2.37,3.06-1.77,5.46-1.77,5.46-11.27,2.72-23.77,12.74-35.34,24.14-1.94,1.91-10.48,18.95-10.32,26.19,1.5,69.87-1.57,101.47-1.57,101.47l-49.98,121.04,8.07,4.83-5.18,16.01s-1.27.51-2.33.65c-4.17.56-9.84,16.88-10.28,18.43-.2.71,3.21,3.43,6.96,6.18ZM405.53,897.51l80.82,2.12.12,2.59,20.27-1.42-.06-4.89,28.2-2.65s-2.01,9.61-4.66,15.44c-2.66,5.82-2.4,18.58-2.4,18.58h-4.43l-51.89-3.13-.3-5.27-19.12-.13.03,2.68-8.78-3.39-37.95-20.21.15-.32ZM195.9,1250.54l5.87,8.9-8.03-5.53,2.16-3.37Z"/>
</svg>