<?xml version="1.0" encoding="UTF-8"?>
<svg id="Layer_1" data-name="Layer 1" xmlns="http://www.w3.org/2000/svg" viewBox="0 0 1440 1440">
  <defs>
    <style>
      .cls-1 {
        fill: #141414;
      }
    </style>
  </defs>
  <path d="M317.47,1248.49s-1.52,1.51-2.56,2.51c-4.39,4.22-5.35,19.89-5.8,23.02h101.48c-.04-1.04-.48-2.03-1.25-2.76-12.03-11.48-21.62-12.38-40.54-24.07l.5-13.76,13.03.28c.07,4.55,5.83-63.67,10.5-120.96l6.4-137.82.17-39.91s9.99.24,9.76-.1l-3.02-57.89s14.49,4.65,17.87,3.39c9.45-3.52,8.76-43.6,8.76-43.6l4.03.72,2.23-16-3.7-1.26s-1.08-46.49.05-47.99c6.02-7.96,6.28-10.67,6.93-14.14,3.4-18.16-6.12-17.62-6.12-17.62,0,0,.5-3.8-1.1-6.22-1.55-2.35-3.85-2.23-3.85-2.23,0,0-2.28-25.49-7.79-24.41-1.31.26-1.94,2.07-1.94,2.07l1.83,20.58s-3.97-.25-6.76,3.96c-2.41,3.64-3.68,11.85-3.73,11.59-1.17-5.96-3.04-17.55-7.71-15.35-4.42,2.09,1.84,21.23.73,28.47-.6,3.96,8.94,14.63,8.94,14.63l-2.18,41.63-6.02.26-1.29,12.13-5.75-5.81c.07-1.11-11.3-46.19-10.97-52.12.76-13.44-7.57-21-7.34-21.93.46-1.92-.4-10.96-.12-12.66.07-.36.13-.74.34-1.04.58-.84,2.36-.15,3.17-.04,1.36.19,12.33.22,14.95-1.38,2.35-1.44,3.72-3.95,4.39-6.56.54-2.06.86-4.87.94-7,.04-.98.05-1.96.04-2.94-.05-3.34-1.42-7.74-1.99-11.03-.01-.11-.34-1.96-.35-1.96l2.67-.43-.76-3.98s-1.02-.52,1.3-.97c2.64-.52,4.01-3.46,4.15-5.92.12-1.97-1.14-4.11-2.47-5.57l-11.21-9,.1-1.25.61-3.32-1.96-.5c.42-3.25-4.17-13.67-4.17-13.67l1.1.07.1-4.17c-2.54-15.69-23.01-10.12-42.79-8.47-19.6,1.64-27.55,13.69-28.59,22.58-1.03,8.89,20.45,50.32,20.45,50.32,0,0,4.03,6.04,1.05,18.56-1.91,8.02-11.31,24.64-17.31,33.03-10.54,14.76-7.24,33.66-7.35,45.57-.51,57.06,1.69,109.24,1.17,114.25-.39,3.85,5.9,4.68,5.9,4.68-6.21,6.61-7.93,12.77-8.49,35.36-.6,24.43,2.55,31.55.65,80.42-1.01,26.02-5.74,73.59-5.74,73.59l-5.38,108.69,12.42.25-.59,15.18ZM340.98,1235.25l6.3.09-1,12.12-5.64-.34.35-11.86Z"/>
  <path class="cls-1" d="M288.19,615.12c-4.96,0-9.7,1.5-13.36,4.24-3.66,2.74-6.54,7.03-6.54,12.33s2.88,9.6,6.54,12.33c3.65,2.75,8.4,4.24,13.36,4.24s9.7-1.5,13.36-4.24c3.66-2.73,6.54-7.03,6.54-12.33s-2.88-9.6-6.54-12.33c-3.65-2.75-8.4-4.24-13.36-4.24ZM235.65,528.15c-9.86,0-18.59,4.82-23.96,12.23-6.14-1.42-12.57-.83-18.35,1.66-5.79,2.49-10.62,6.77-13.81,12.2-3.19,5.43-4.56,11.74-3.91,18.01.65,6.27,3.28,12.16,7.51,16.83.12,4.88,1.45,9.65,3.86,13.9,2.41,4.24,5.84,7.82,9.97,10.42,4.13,2.6,8.85,4.13,13.72,4.47,4.87.33,9.75-.54,14.2-2.55,3.55,2.83,7.7,4.8,12.14,5.77,4.43.97,9.03.9,13.43-.19,4.4-1.09,8.5-3.19,11.96-6.12,3.47-2.93,6.21-6.62,8.03-10.77,5.85-2.55,10.72-6.92,13.88-12.46,3.16-5.54,4.45-11.96,3.67-18.29-.78-6.33-3.59-12.24-8-16.85-4.41-4.61-10.2-7.66-16.49-8.72-2.07-5.72-5.85-10.67-10.83-14.16-4.98-3.49-10.92-5.37-17-5.37h0Z"/>
</svg>