<svg width="702" height="346" viewBox="0 0 702 346" fill="none" xmlns="http://www.w3.org/2000/svg">
<path d="M323.136 45.8906C323.136 30.4482 335.654 17.9297 351.097 17.9297H357.136V45.8906H323.136Z" fill="#F4F0DC" stroke="#F4F0DC" stroke-width="0.805851"/>
<rect x="323.136" y="45.8906" width="34" height="1.5791" fill="#F4F0DC" stroke="#F4F0DC" stroke-width="0.805851"/>
<path d="M357.136 47.4766V73.8828H349.542C343.603 73.8828 338.122 71.9217 333.711 68.6123C326.547 71.1524 317.013 72.8786 306.016 71.3906C309.374 70.3196 320.934 64.6681 323.863 53.6553C323.388 51.6732 323.136 49.6043 323.136 47.4766H357.136Z" fill="#F4F0DC"/>
<path d="M357.136 47.4766H357.539V47.0736H357.136V47.4766ZM357.136 73.8828V74.2857H357.539V73.8828H357.136ZM349.542 73.8828V74.2857V74.2857V73.8828ZM333.711 68.6123L333.953 68.29L333.78 68.1603L333.576 68.2325L333.711 68.6123ZM306.016 71.3906L305.893 71.0068L305.962 71.7899L306.016 71.3906ZM323.863 53.6553L324.253 53.7588L324.279 53.6604L324.255 53.5613L323.863 53.6553ZM323.136 47.4766V47.0736H322.733V47.4766H323.136ZM357.136 47.4766H356.733V73.8828H357.136H357.539V47.4766H357.136ZM357.136 73.8828V73.4799H349.542V73.8828V74.2857H357.136V73.8828ZM349.542 73.8828V73.4799C343.693 73.4799 338.297 71.5489 333.953 68.29L333.711 68.6123L333.469 68.9346C337.948 72.2945 343.513 74.2857 349.542 74.2857V73.8828ZM333.711 68.6123L333.576 68.2325C326.464 70.7545 316.994 72.4694 306.07 70.9913L306.016 71.3906L305.962 71.7899C317.031 73.2877 326.631 71.5503 333.846 68.9921L333.711 68.6123ZM306.016 71.3906L306.138 71.7745C307.863 71.2243 311.636 69.5207 315.351 66.5665C319.068 63.611 322.758 59.3773 324.253 53.7588L323.863 53.6553L323.474 53.5517C322.039 58.9461 318.485 63.0445 314.85 65.9358C311.212 68.8283 307.526 70.4859 305.893 71.0068L306.016 71.3906ZM323.863 53.6553L324.255 53.5613C323.787 51.6097 323.539 49.5724 323.539 47.4766H323.136H322.733C322.733 49.6363 322.989 51.7367 323.471 53.7492L323.863 53.6553ZM323.136 47.4766V47.8795H357.136V47.4766V47.0736H323.136V47.4766Z" fill="#F4F0DC"/>
<rect x="357.136" y="17.9062" width="187" height="56" fill="#F4F0DC"/>
<rect x="357.136" y="17.9062" width="187" height="56" stroke="#F4F0DC" stroke-width="0.805851"/>
<path d="M366.76 53.2183C364.232 53.2183 362.136 52.3862 360.472 50.7222C358.808 49.0422 357.976 46.9702 357.976 44.5062C357.976 42.0422 358.808 39.9782 360.472 38.3142C362.136 36.6342 364.232 35.7942 366.76 35.7942C368.28 35.7942 369.68 36.1542 370.96 36.8742C372.256 37.5942 373.264 38.5702 373.984 39.8022L371.584 41.1942C371.136 40.3622 370.48 39.7062 369.616 39.2262C368.768 38.7302 367.816 38.4822 366.76 38.4822C364.968 38.4822 363.512 39.0502 362.392 40.1862C361.288 41.3222 360.736 42.7622 360.736 44.5062C360.736 46.2502 361.288 47.6902 362.392 48.8262C363.512 49.9622 364.968 50.5302 366.76 50.5302C367.816 50.5302 368.776 50.2902 369.64 49.8102C370.504 49.3142 371.152 48.6502 371.584 47.8182L373.984 49.1862C373.28 50.4182 372.28 51.4022 370.984 52.1382C369.704 52.8582 368.296 53.2183 366.76 53.2183ZM376.226 52.9062V35.3862H378.818V52.9062H376.226ZM391.331 40.9062H393.923V52.9062H391.331V51.1782C390.355 52.5382 388.955 53.2183 387.131 53.2183C385.483 53.2183 384.075 52.6102 382.907 51.3942C381.739 50.1622 381.155 48.6662 381.155 46.9062C381.155 45.1302 381.739 43.6342 382.907 42.4182C384.075 41.2022 385.483 40.5942 387.131 40.5942C388.955 40.5942 390.355 41.2662 391.331 42.6102V40.9062ZM384.827 49.6662C385.547 50.3862 386.451 50.7462 387.539 50.7462C388.627 50.7462 389.531 50.3862 390.251 49.6662C390.971 48.9302 391.331 48.0102 391.331 46.9062C391.331 45.8022 390.971 44.8902 390.251 44.1702C389.531 43.4342 388.627 43.0662 387.539 43.0662C386.451 43.0662 385.547 43.4342 384.827 44.1702C384.107 44.8902 383.747 45.8022 383.747 46.9062C383.747 48.0102 384.107 48.9302 384.827 49.6662ZM399.537 42.9222C400.193 41.4342 401.425 40.6902 403.233 40.6902V43.4982C402.241 43.4342 401.377 43.6742 400.641 44.2182C399.905 44.7462 399.537 45.6262 399.537 46.8582V52.9062H396.945V40.9062H399.537V42.9222ZM407.596 38.6262C407.276 38.9462 406.892 39.1062 406.444 39.1062C405.996 39.1062 405.604 38.9462 405.268 38.6262C404.948 38.2902 404.788 37.8982 404.788 37.4502C404.788 37.0022 404.948 36.6182 405.268 36.2982C405.588 35.9622 405.98 35.7942 406.444 35.7942C406.908 35.7942 407.3 35.9622 407.62 36.2982C407.94 36.6182 408.1 37.0022 408.1 37.4502C408.1 37.8982 407.932 38.2902 407.596 38.6262ZM405.148 52.9062V40.9062H407.74V52.9062H405.148ZM417.445 43.4022H414.469V49.1622C414.469 49.6582 414.581 50.0182 414.805 50.2422C415.029 50.4502 415.357 50.5702 415.789 50.6022C416.237 50.6182 416.789 50.6102 417.445 50.5782V52.9062C415.461 53.1463 414.037 52.9782 413.173 52.4022C412.309 51.8102 411.877 50.7302 411.877 49.1622V43.4022H409.669V40.9062H411.877V38.3142L414.469 37.5462V40.9062H417.445V43.4022ZM428.119 40.9062H430.879L426.271 53.2903C425.119 56.3943 423.167 57.8663 420.415 57.7063V55.2823C421.231 55.3303 421.887 55.1543 422.383 54.7543C422.879 54.3703 423.287 53.7623 423.607 52.9303L423.727 52.6902L418.639 40.9062H421.471L425.047 49.6182L428.119 40.9062ZM444.163 53.2183C442.403 53.2183 440.907 52.6102 439.675 51.3942C438.443 50.1782 437.827 48.6822 437.827 46.9062C437.827 45.1302 438.443 43.6342 439.675 42.4182C440.907 41.2022 442.403 40.5942 444.163 40.5942C445.939 40.5942 447.435 41.2022 448.651 42.4182C449.883 43.6342 450.499 45.1302 450.499 46.9062C450.499 48.6822 449.883 50.1782 448.651 51.3942C447.435 52.6102 445.939 53.2183 444.163 53.2183ZM441.499 49.6182C442.219 50.3382 443.107 50.6982 444.163 50.6982C445.219 50.6982 446.107 50.3382 446.827 49.6182C447.547 48.8982 447.907 47.9942 447.907 46.9062C447.907 45.8182 447.547 44.9142 446.827 44.1942C446.107 43.4742 445.219 43.1142 444.163 43.1142C443.107 43.1142 442.219 43.4742 441.499 44.1942C440.779 44.9142 440.419 45.8182 440.419 46.9062C440.419 47.9942 440.779 48.8982 441.499 49.6182ZM459.155 40.5942C460.531 40.5942 461.643 41.0342 462.491 41.9142C463.339 42.7942 463.763 44.0022 463.763 45.5382V52.9062H461.171V45.8022C461.171 44.9062 460.931 44.2182 460.451 43.7382C459.971 43.2582 459.315 43.0182 458.483 43.0182C457.571 43.0182 456.835 43.3062 456.275 43.8822C455.715 44.4422 455.435 45.3062 455.435 46.4742V52.9062H452.843V40.9062H455.435V42.4422C456.219 41.2102 457.459 40.5942 459.155 40.5942ZM483.642 36.1062V38.7462H478.914V52.9062H476.154V38.7462H471.402V36.1062H483.642ZM486.537 42.9222C487.193 41.4342 488.425 40.6902 490.233 40.6902V43.4982C489.241 43.4342 488.377 43.6742 487.641 44.2182C486.905 44.7462 486.537 45.6262 486.537 46.8582V52.9062H483.945V40.9062H486.537V42.9222ZM493.625 48.0102C493.817 48.9222 494.257 49.6262 494.945 50.1222C495.633 50.6022 496.473 50.8422 497.465 50.8422C498.841 50.8422 499.873 50.3462 500.561 49.3542L502.697 50.6022C501.513 52.3462 499.761 53.2183 497.441 53.2183C495.489 53.2183 493.913 52.6262 492.713 51.4422C491.513 50.2422 490.913 48.7302 490.913 46.9062C490.913 45.1142 491.505 43.6182 492.689 42.4182C493.873 41.2022 495.393 40.5942 497.249 40.5942C499.009 40.5942 500.449 41.2102 501.569 42.4422C502.705 43.6742 503.273 45.1702 503.273 46.9302C503.273 47.2022 503.241 47.5622 503.177 48.0102H493.625ZM493.601 45.8982H500.657C500.481 44.9222 500.073 44.1862 499.433 43.6902C498.809 43.1942 498.073 42.9462 497.225 42.9462C496.265 42.9462 495.465 43.2102 494.825 43.7382C494.185 44.2662 493.777 44.9862 493.601 45.8982ZM511.866 40.5942C513.242 40.5942 514.354 41.0342 515.202 41.9142C516.05 42.7942 516.474 44.0022 516.474 45.5382V52.9062H513.882V45.8022C513.882 44.9062 513.642 44.2182 513.162 43.7382C512.682 43.2582 512.026 43.0182 511.194 43.0182C510.282 43.0182 509.546 43.3062 508.986 43.8822C508.426 44.4422 508.146 45.3062 508.146 46.4742V52.9062H505.554V40.9062H508.146V42.4422C508.93 41.2102 510.17 40.5942 511.866 40.5942ZM528.769 36.1062H531.361V52.9062H528.769V51.1782C527.793 52.5382 526.393 53.2183 524.569 53.2183C522.921 53.2183 521.513 52.6102 520.345 51.3942C519.177 50.1622 518.593 48.6662 518.593 46.9062C518.593 45.1302 519.177 43.6342 520.345 42.4182C521.513 41.2022 522.921 40.5942 524.569 40.5942C526.393 40.5942 527.793 41.2662 528.769 42.6102V36.1062ZM522.265 49.6662C522.985 50.3862 523.889 50.7462 524.977 50.7462C526.065 50.7462 526.969 50.3862 527.689 49.6662C528.409 48.9302 528.769 48.0102 528.769 46.9062C528.769 45.8022 528.409 44.8902 527.689 44.1702C526.969 43.4342 526.065 43.0662 524.977 43.0662C523.889 43.0662 522.985 43.4342 522.265 44.1702C521.545 44.8902 521.185 45.8022 521.185 46.9062C521.185 48.0102 521.545 48.9302 522.265 49.6662ZM536.64 44.2182C536.64 44.6182 536.856 44.9382 537.288 45.1782C537.736 45.4022 538.272 45.6022 538.896 45.7782C539.536 45.9382 540.176 46.1302 540.816 46.3542C541.456 46.5782 541.992 46.9622 542.424 47.5062C542.872 48.0342 543.096 48.7062 543.096 49.5222C543.096 50.6742 542.648 51.5782 541.752 52.2342C540.872 52.8902 539.76 53.2183 538.416 53.2183C537.232 53.2183 536.216 52.9702 535.368 52.4742C534.52 51.9782 533.904 51.2902 533.52 50.4102L535.752 49.1142C536.168 50.2662 537.056 50.8422 538.416 50.8422C539.776 50.8422 540.456 50.3942 540.456 49.4982C540.456 49.1142 540.232 48.8022 539.784 48.5622C539.352 48.3222 538.816 48.1222 538.176 47.9622C537.552 47.7862 536.92 47.5862 536.28 47.3622C535.64 47.1382 535.096 46.7702 534.648 46.2582C534.216 45.7302 534 45.0662 534 44.2662C534 43.1622 534.416 42.2742 535.248 41.6022C536.096 40.9302 537.144 40.5942 538.392 40.5942C539.384 40.5942 540.264 40.8182 541.032 41.2662C541.816 41.6982 542.416 42.3062 542.832 43.0902L540.648 44.3142C540.232 43.4022 539.48 42.9462 538.392 42.9462C537.896 42.9462 537.48 43.0582 537.144 43.2822C536.808 43.4902 536.64 43.8022 536.64 44.2182Z" fill="#131313"/>
<path d="M578.136 45.9062C578.136 30.4423 565.6 17.9062 550.136 17.9062H544.136V45.9062H578.136Z" fill="#F4F0DC" stroke="#F4F0DC" stroke-width="0.805851"/>
<rect width="34" height="1" transform="matrix(-1 0 0 1 578.136 45.9062)" fill="#F4F0DC" stroke="#F4F0DC" stroke-width="0.805851"/>
<path d="M578.136 46.9062C578.136 61.8266 566.04 73.9219 551.12 73.9219H544.136V46.9062H578.136Z" fill="#F4F0DC" stroke="#F4F0DC" stroke-width="0.805851"/>
<path d="M323.136 109.438C323.136 93.9951 335.654 81.4766 351.097 81.4766H357.136V109.438H323.136Z" fill="#F4F0DC" stroke="#F4F0DC" stroke-width="0.805851"/>
<rect x="323.136" y="109.438" width="34" height="1.5791" fill="#F4F0DC" stroke="#F4F0DC" stroke-width="0.805851"/>
<path d="M357.136 111.023V137.43H349.542C343.603 137.43 338.122 135.469 333.711 132.159C326.547 134.699 317.013 136.425 306.016 134.938C309.374 133.866 320.934 128.215 323.863 117.202C323.388 115.22 323.136 113.151 323.136 111.023H357.136Z" fill="#F4F0DC"/>
<path d="M357.136 111.023H357.539V110.621H357.136V111.023ZM357.136 137.43V137.833H357.539V137.43H357.136ZM349.542 137.43V137.833V137.833V137.43ZM333.711 132.159L333.953 131.837L333.78 131.707L333.576 131.779L333.711 132.159ZM306.016 134.938L305.893 134.554L305.962 135.337L306.016 134.938ZM323.863 117.202L324.253 117.306L324.279 117.207L324.255 117.108L323.863 117.202ZM323.136 111.023V110.621H322.733V111.023H323.136ZM357.136 111.023H356.733V137.43H357.136H357.539V111.023H357.136ZM357.136 137.43V137.027H349.542V137.43V137.833H357.136V137.43ZM349.542 137.43V137.027C343.693 137.027 338.297 135.096 333.953 131.837L333.711 132.159L333.469 132.481C337.948 135.841 343.513 137.833 349.542 137.833V137.43ZM333.711 132.159L333.576 131.779C326.464 134.301 316.994 136.016 306.07 134.538L306.016 134.938L305.962 135.337C317.031 136.835 326.631 135.097 333.846 132.539L333.711 132.159ZM306.016 134.938L306.138 135.321C307.863 134.771 311.636 133.068 315.351 130.113C319.068 127.158 322.758 122.924 324.253 117.306L323.863 117.202L323.474 117.099C322.039 122.493 318.485 126.591 314.85 129.483C311.212 132.375 307.526 134.033 305.893 134.554L306.016 134.938ZM323.863 117.202L324.255 117.108C323.787 115.157 323.539 113.119 323.539 111.023H323.136H322.733C322.733 113.183 322.989 115.284 323.471 117.296L323.863 117.202ZM323.136 111.023V111.426H357.136V111.023V110.621H323.136V111.023Z" fill="#F4F0DC"/>
<rect x="357.136" y="81.4531" width="283" height="56" fill="#F4F0DC"/>
<rect x="357.136" y="81.4531" width="283" height="56" stroke="#F4F0DC" stroke-width="0.805851"/>
<path d="M364.408 116.765C362.792 116.765 361.416 116.397 360.28 115.661C359.16 114.925 358.376 113.917 357.928 112.637L360.304 111.245C360.976 113.133 362.368 114.077 364.48 114.077C365.52 114.077 366.296 113.877 366.808 113.477C367.336 113.061 367.6 112.525 367.6 111.869C367.6 111.181 367.32 110.661 366.76 110.309C366.2 109.941 365.208 109.541 363.784 109.109C362.984 108.869 362.336 108.645 361.84 108.437C361.344 108.229 360.816 107.941 360.256 107.573C359.712 107.189 359.304 106.717 359.032 106.157C358.76 105.597 358.624 104.941 358.624 104.189C358.624 102.701 359.152 101.525 360.208 100.661C361.264 99.7811 362.536 99.3411 364.024 99.3411C365.368 99.3411 366.544 99.6691 367.552 100.325C368.56 100.981 369.336 101.885 369.88 103.037L367.552 104.381C366.848 102.813 365.672 102.029 364.024 102.029C363.224 102.029 362.584 102.221 362.104 102.605C361.624 102.973 361.384 103.477 361.384 104.117C361.384 104.741 361.624 105.237 362.104 105.605C362.6 105.957 363.488 106.333 364.768 106.733C365.408 106.941 365.872 107.101 366.16 107.213C366.464 107.309 366.88 107.469 367.408 107.693C367.952 107.917 368.36 108.141 368.632 108.365C368.904 108.589 369.192 108.869 369.496 109.205C369.816 109.541 370.04 109.925 370.168 110.357C370.296 110.789 370.36 111.277 370.36 111.821C370.36 113.341 369.808 114.549 368.704 115.445C367.616 116.325 366.184 116.765 364.408 116.765ZM378.914 106.949H375.938V112.709C375.938 113.205 376.05 113.565 376.274 113.789C376.498 113.997 376.826 114.117 377.258 114.149C377.706 114.165 378.258 114.157 378.914 114.125V116.453C376.93 116.693 375.506 116.525 374.642 115.949C373.778 115.357 373.346 114.277 373.346 112.709V106.949H371.138V104.453H373.346V101.861L375.938 101.093V104.453H378.914V106.949ZM386.437 116.765C384.677 116.765 383.181 116.157 381.949 114.941C380.717 113.725 380.101 112.229 380.101 110.453C380.101 108.677 380.717 107.181 381.949 105.965C383.181 104.749 384.677 104.141 386.437 104.141C388.213 104.141 389.709 104.749 390.925 105.965C392.157 107.181 392.773 108.677 392.773 110.453C392.773 112.229 392.157 113.725 390.925 114.941C389.709 116.157 388.213 116.765 386.437 116.765ZM383.773 113.165C384.493 113.885 385.381 114.245 386.437 114.245C387.493 114.245 388.381 113.885 389.101 113.165C389.821 112.445 390.181 111.541 390.181 110.453C390.181 109.365 389.821 108.461 389.101 107.741C388.381 107.021 387.493 106.661 386.437 106.661C385.381 106.661 384.493 107.021 383.773 107.741C383.053 108.461 382.693 109.365 382.693 110.453C382.693 111.541 383.053 112.445 383.773 113.165ZM397.708 106.469C398.364 104.981 399.596 104.237 401.404 104.237V107.045C400.412 106.981 399.548 107.221 398.812 107.765C398.076 108.293 397.708 109.173 397.708 110.405V116.453H395.116V104.453H397.708V106.469ZM405.768 102.173C405.448 102.493 405.064 102.653 404.616 102.653C404.168 102.653 403.776 102.493 403.44 102.173C403.12 101.837 402.96 101.445 402.96 100.997C402.96 100.549 403.12 100.165 403.44 99.8451C403.76 99.5091 404.152 99.3411 404.616 99.3411C405.08 99.3411 405.472 99.5091 405.792 99.8451C406.112 100.165 406.272 100.549 406.272 100.997C406.272 101.445 406.104 101.837 405.768 102.173ZM403.32 116.453V104.453H405.912V116.453H403.32ZM410.961 111.557C411.153 112.469 411.593 113.173 412.281 113.669C412.969 114.149 413.809 114.389 414.801 114.389C416.177 114.389 417.209 113.893 417.897 112.901L420.033 114.149C418.849 115.893 417.097 116.765 414.777 116.765C412.825 116.765 411.249 116.173 410.049 114.989C408.849 113.789 408.249 112.277 408.249 110.453C408.249 108.661 408.841 107.165 410.025 105.965C411.209 104.749 412.729 104.141 414.585 104.141C416.345 104.141 417.785 104.757 418.905 105.989C420.041 107.221 420.609 108.717 420.609 110.477C420.609 110.749 420.577 111.109 420.513 111.557H410.961ZM410.937 109.445H417.993C417.817 108.469 417.409 107.733 416.769 107.237C416.145 106.741 415.409 106.493 414.561 106.493C413.601 106.493 412.801 106.757 412.161 107.285C411.521 107.813 411.113 108.533 410.937 109.445ZM424.749 107.765C424.749 108.165 424.965 108.485 425.397 108.725C425.845 108.949 426.381 109.149 427.005 109.325C427.645 109.485 428.285 109.677 428.925 109.901C429.565 110.125 430.101 110.509 430.533 111.053C430.981 111.581 431.205 112.253 431.205 113.069C431.205 114.221 430.757 115.125 429.861 115.781C428.981 116.437 427.869 116.765 426.525 116.765C425.341 116.765 424.325 116.517 423.477 116.021C422.629 115.525 422.013 114.837 421.629 113.957L423.861 112.661C424.277 113.813 425.165 114.389 426.525 114.389C427.885 114.389 428.565 113.941 428.565 113.045C428.565 112.661 428.341 112.349 427.893 112.109C427.461 111.869 426.925 111.669 426.285 111.509C425.661 111.333 425.029 111.133 424.389 110.909C423.749 110.685 423.205 110.317 422.757 109.805C422.325 109.277 422.109 108.613 422.109 107.813C422.109 106.709 422.525 105.821 423.357 105.149C424.205 104.477 425.253 104.141 426.501 104.141C427.493 104.141 428.373 104.365 429.141 104.813C429.925 105.245 430.525 105.853 430.941 106.637L428.757 107.861C428.341 106.949 427.589 106.493 426.501 106.493C426.005 106.493 425.589 106.605 425.253 106.829C424.917 107.037 424.749 107.349 424.749 107.765ZM449.492 102.293H442.412V106.997H449.252V109.637H442.412V116.453H439.652V99.6531H449.492V102.293ZM454.498 106.469C455.154 104.981 456.386 104.237 458.194 104.237V107.045C457.202 106.981 456.338 107.221 455.602 107.765C454.866 108.293 454.498 109.173 454.498 110.405V116.453H451.906V104.453H454.498V106.469ZM465.21 116.765C463.45 116.765 461.954 116.157 460.722 114.941C459.49 113.725 458.874 112.229 458.874 110.453C458.874 108.677 459.49 107.181 460.722 105.965C461.954 104.749 463.45 104.141 465.21 104.141C466.986 104.141 468.482 104.749 469.698 105.965C470.93 107.181 471.546 108.677 471.546 110.453C471.546 112.229 470.93 113.725 469.698 114.941C468.482 116.157 466.986 116.765 465.21 116.765ZM462.546 113.165C463.266 113.885 464.154 114.245 465.21 114.245C466.266 114.245 467.154 113.885 467.874 113.165C468.594 112.445 468.954 111.541 468.954 110.453C468.954 109.365 468.594 108.461 467.874 107.741C467.154 107.021 466.266 106.661 465.21 106.661C464.154 106.661 463.266 107.021 462.546 107.741C461.826 108.461 461.466 109.365 461.466 110.453C461.466 111.541 461.826 112.445 462.546 113.165ZM486.994 104.141C488.354 104.141 489.45 104.581 490.282 105.461C491.114 106.341 491.53 107.525 491.53 109.013V116.453H488.938V109.181C488.938 108.349 488.73 107.709 488.314 107.261C487.898 106.797 487.33 106.565 486.61 106.565C485.81 106.565 485.17 106.829 484.69 107.357C484.226 107.885 483.994 108.677 483.994 109.733V116.453H481.402V109.181C481.402 108.349 481.202 107.709 480.802 107.261C480.418 106.797 479.866 106.565 479.146 106.565C478.362 106.565 477.722 106.837 477.226 107.381C476.73 107.909 476.482 108.693 476.482 109.733V116.453H473.89V104.453H476.482V105.893C477.25 104.725 478.394 104.141 479.914 104.141C481.45 104.141 482.586 104.773 483.322 106.037C484.122 104.773 485.346 104.141 486.994 104.141ZM507 106.949H504.024V112.709C504.024 113.205 504.136 113.565 504.36 113.789C504.584 113.997 504.912 114.117 505.344 114.149C505.792 114.165 506.344 114.157 507 114.125V116.453C505.016 116.693 503.592 116.525 502.728 115.949C501.864 115.357 501.432 114.277 501.432 112.709V106.949H499.224V104.453H501.432V101.861L504.024 101.093V104.453H507V106.949ZM515.663 104.141C517.039 104.141 518.151 104.581 518.999 105.461C519.847 106.341 520.271 107.549 520.271 109.085V116.453H517.679V109.349C517.679 108.453 517.439 107.765 516.959 107.285C516.479 106.805 515.823 106.565 514.991 106.565C514.079 106.565 513.343 106.853 512.783 107.429C512.223 107.989 511.943 108.853 511.943 110.021V116.453H509.351V99.6531H511.943V105.989C512.727 104.757 513.967 104.141 515.663 104.141ZM525.102 111.557C525.294 112.469 525.734 113.173 526.422 113.669C527.11 114.149 527.95 114.389 528.942 114.389C530.318 114.389 531.35 113.893 532.038 112.901L534.174 114.149C532.99 115.893 531.238 116.765 528.918 116.765C526.966 116.765 525.39 116.173 524.19 114.989C522.99 113.789 522.39 112.277 522.39 110.453C522.39 108.661 522.982 107.165 524.166 105.965C525.35 104.749 526.87 104.141 528.726 104.141C530.486 104.141 531.926 104.757 533.046 105.989C534.182 107.221 534.75 108.717 534.75 110.477C534.75 110.749 534.718 111.109 534.654 111.557H525.102ZM525.078 109.445H532.134C531.958 108.469 531.55 107.733 530.91 107.237C530.286 106.741 529.55 106.493 528.702 106.493C527.742 106.493 526.942 106.757 526.302 107.285C525.662 107.813 525.254 108.533 525.078 109.445ZM554.119 99.6531V102.293H549.391V116.453H546.631V102.293H541.879V99.6531H554.119ZM557.013 106.469C557.669 104.981 558.901 104.237 560.709 104.237V107.045C559.717 106.981 558.853 107.221 558.117 107.765C557.381 108.293 557.013 109.173 557.013 110.405V116.453H554.421V104.453H557.013V106.469ZM564.102 111.557C564.294 112.469 564.734 113.173 565.422 113.669C566.11 114.149 566.95 114.389 567.942 114.389C569.318 114.389 570.35 113.893 571.038 112.901L573.174 114.149C571.99 115.893 570.238 116.765 567.918 116.765C565.966 116.765 564.39 116.173 563.19 114.989C561.99 113.789 561.39 112.277 561.39 110.453C561.39 108.661 561.982 107.165 563.166 105.965C564.35 104.749 565.87 104.141 567.726 104.141C569.486 104.141 570.926 104.757 572.046 105.989C573.182 107.221 573.75 108.717 573.75 110.477C573.75 110.749 573.718 111.109 573.654 111.557H564.102ZM564.078 109.445H571.134C570.958 108.469 570.55 107.733 569.91 107.237C569.286 106.741 568.55 106.493 567.702 106.493C566.742 106.493 565.942 106.757 565.302 107.285C564.662 107.813 564.254 108.533 564.078 109.445ZM582.343 104.141C583.719 104.141 584.831 104.581 585.679 105.461C586.527 106.341 586.951 107.549 586.951 109.085V116.453H584.359V109.349C584.359 108.453 584.119 107.765 583.639 107.285C583.159 106.805 582.503 106.565 581.671 106.565C580.759 106.565 580.023 106.853 579.463 107.429C578.903 107.989 578.623 108.853 578.623 110.021V116.453H576.031V104.453H578.623V105.989C579.407 104.757 580.647 104.141 582.343 104.141ZM595.405 116.765C593.597 116.765 592.085 116.157 590.869 114.941C589.669 113.725 589.069 112.229 589.069 110.453C589.069 108.661 589.669 107.165 590.869 105.965C592.085 104.749 593.597 104.141 595.405 104.141C596.573 104.141 597.637 104.421 598.597 104.981C599.557 105.541 600.277 106.293 600.757 107.237L598.525 108.533C598.253 107.957 597.837 107.509 597.277 107.189C596.733 106.853 596.101 106.685 595.381 106.685C594.325 106.685 593.437 107.045 592.717 107.765C592.013 108.485 591.661 109.381 591.661 110.453C591.661 111.525 592.013 112.421 592.717 113.141C593.437 113.861 594.325 114.221 595.381 114.221C596.085 114.221 596.717 114.053 597.277 113.717C597.853 113.381 598.285 112.933 598.573 112.373L600.805 113.645C600.293 114.605 599.557 115.365 598.597 115.925C597.637 116.485 596.573 116.765 595.405 116.765ZM608.991 104.141C610.367 104.141 611.479 104.581 612.327 105.461C613.175 106.341 613.599 107.549 613.599 109.085V116.453H611.007V109.349C611.007 108.453 610.767 107.765 610.287 107.285C609.807 106.805 609.151 106.565 608.319 106.565C607.407 106.565 606.671 106.853 606.111 107.429C605.551 107.989 605.271 108.853 605.271 110.021V116.453H602.679V99.6531H605.271V105.989C606.055 104.757 607.295 104.141 608.991 104.141ZM618.43 111.557C618.622 112.469 619.062 113.173 619.75 113.669C620.438 114.149 621.278 114.389 622.27 114.389C623.646 114.389 624.678 113.893 625.366 112.901L627.502 114.149C626.318 115.893 624.566 116.765 622.246 116.765C620.294 116.765 618.718 116.173 617.518 114.989C616.318 113.789 615.718 112.277 615.718 110.453C615.718 108.661 616.31 107.165 617.494 105.965C618.678 104.749 620.198 104.141 622.054 104.141C623.814 104.141 625.254 104.757 626.374 105.989C627.51 107.221 628.078 108.717 628.078 110.477C628.078 110.749 628.046 111.109 627.982 111.557H618.43ZM618.406 109.445H625.462C625.286 108.469 624.878 107.733 624.238 107.237C623.614 106.741 622.878 106.493 622.03 106.493C621.07 106.493 620.27 106.757 619.63 107.285C618.99 107.813 618.582 108.533 618.406 109.445ZM632.218 107.765C632.218 108.165 632.434 108.485 632.866 108.725C633.314 108.949 633.85 109.149 634.474 109.325C635.114 109.485 635.754 109.677 636.394 109.901C637.034 110.125 637.57 110.509 638.002 111.053C638.45 111.581 638.674 112.253 638.674 113.069C638.674 114.221 638.226 115.125 637.33 115.781C636.45 116.437 635.338 116.765 633.994 116.765C632.81 116.765 631.794 116.517 630.946 116.021C630.098 115.525 629.482 114.837 629.098 113.957L631.33 112.661C631.746 113.813 632.634 114.389 633.994 114.389C635.354 114.389 636.034 113.941 636.034 113.045C636.034 112.661 635.81 112.349 635.362 112.109C634.93 111.869 634.394 111.669 633.754 111.509C633.13 111.333 632.498 111.133 631.858 110.909C631.218 110.685 630.674 110.317 630.226 109.805C629.794 109.277 629.578 108.613 629.578 107.813C629.578 106.709 629.994 105.821 630.826 105.149C631.674 104.477 632.722 104.141 633.97 104.141C634.962 104.141 635.842 104.365 636.61 104.813C637.394 105.245 637.994 105.853 638.41 106.637L636.226 107.861C635.81 106.949 635.058 106.493 633.97 106.493C633.474 106.493 633.058 106.605 632.722 106.829C632.386 107.037 632.218 107.349 632.218 107.765Z" fill="#131313"/>
<path d="M674.136 109.453C674.136 93.9892 661.6 81.4531 646.136 81.4531H640.136V109.453H674.136Z" fill="#F4F0DC" stroke="#F4F0DC" stroke-width="0.805851"/>
<rect width="34" height="1" transform="matrix(-1 0 0 1 674.136 109.453)" fill="#F4F0DC" stroke="#F4F0DC" stroke-width="0.805851"/>
<path d="M674.136 110.453C674.136 125.373 662.04 137.469 647.12 137.469H640.136V110.453H674.136Z" fill="#F4F0DC" stroke="#F4F0DC" stroke-width="0.805851"/>
<path d="M323.136 172.984C323.136 157.542 335.654 145.023 351.097 145.023H357.136V172.984H323.136Z" fill="#F4F0DC" stroke="#F4F0DC" stroke-width="0.805851"/>
<rect x="323.136" y="172.984" width="34" height="1.5791" fill="#F4F0DC" stroke="#F4F0DC" stroke-width="0.805851"/>
<path d="M357.136 174.57V200.977H349.542C343.603 200.977 338.122 199.015 333.711 195.706C326.547 198.246 317.013 199.972 306.016 198.484C309.374 197.413 320.934 191.762 323.863 180.749C323.388 178.767 323.136 176.698 323.136 174.57H357.136Z" fill="#F4F0DC"/>
<path d="M357.136 174.57H357.539V174.167H357.136V174.57ZM357.136 200.977V201.379H357.539V200.977H357.136ZM349.542 200.977V201.379V201.379V200.977ZM333.711 195.706L333.953 195.384L333.78 195.254L333.576 195.326L333.711 195.706ZM306.016 198.484L305.893 198.101L305.962 198.884L306.016 198.484ZM323.863 180.749L324.253 180.853L324.279 180.754L324.255 180.655L323.863 180.749ZM323.136 174.57V174.167H322.733V174.57H323.136ZM357.136 174.57H356.733V200.977H357.136H357.539V174.57H357.136ZM357.136 200.977V200.574H349.542V200.977V201.379H357.136V200.977ZM349.542 200.977V200.574C343.693 200.574 338.297 198.643 333.953 195.384L333.711 195.706L333.469 196.028C337.948 199.388 343.513 201.379 349.542 201.379V200.977ZM333.711 195.706L333.576 195.326C326.464 197.848 316.994 199.563 306.07 198.085L306.016 198.484L305.962 198.884C317.031 200.381 326.631 198.644 333.846 196.086L333.711 195.706ZM306.016 198.484L306.138 198.868C307.863 198.318 311.636 196.614 315.351 193.66C319.068 190.705 322.758 186.471 324.253 180.853L323.863 180.749L323.474 180.645C322.039 186.04 318.485 190.138 314.85 193.03C311.212 195.922 307.526 197.58 305.893 198.101L306.016 198.484ZM323.863 180.749L324.255 180.655C323.787 178.703 323.539 176.666 323.539 174.57H323.136H322.733C322.733 176.73 322.989 178.83 323.471 180.843L323.863 180.749ZM323.136 174.57V174.973H357.136V174.57V174.167H323.136V174.57Z" fill="#F4F0DC"/>
<rect x="357.136" y="145" width="268" height="56" fill="#F4F0DC"/>
<rect x="357.136" y="145" width="268" height="56" stroke="#F4F0DC" stroke-width="0.805851"/>
<path d="M358.816 163.2H361.576V180H358.816V163.2ZM374.269 163.2H376.861V180H374.269V178.272C373.293 179.632 371.893 180.312 370.069 180.312C368.421 180.312 367.013 179.704 365.845 178.488C364.677 177.256 364.093 175.76 364.093 174C364.093 172.224 364.677 170.728 365.845 169.512C367.013 168.296 368.421 167.688 370.069 167.688C371.893 167.688 373.293 168.36 374.269 169.704V163.2ZM367.765 176.76C368.485 177.48 369.389 177.84 370.477 177.84C371.565 177.84 372.469 177.48 373.189 176.76C373.909 176.024 374.269 175.104 374.269 174C374.269 172.896 373.909 171.984 373.189 171.264C372.469 170.528 371.565 170.16 370.477 170.16C369.389 170.16 368.485 170.528 367.765 171.264C367.045 171.984 366.685 172.896 366.685 174C366.685 175.104 367.045 176.024 367.765 176.76ZM381.922 175.104C382.114 176.016 382.554 176.72 383.242 177.216C383.93 177.696 384.77 177.936 385.762 177.936C387.138 177.936 388.17 177.44 388.858 176.448L390.994 177.696C389.81 179.44 388.058 180.312 385.738 180.312C383.786 180.312 382.21 179.72 381.01 178.536C379.81 177.336 379.21 175.824 379.21 174C379.21 172.208 379.802 170.712 380.986 169.512C382.17 168.296 383.69 167.688 385.546 167.688C387.306 167.688 388.746 168.304 389.866 169.536C391.002 170.768 391.57 172.264 391.57 174.024C391.57 174.296 391.538 174.656 391.474 175.104H381.922ZM381.898 172.992H388.954C388.778 172.016 388.37 171.28 387.73 170.784C387.106 170.288 386.37 170.04 385.522 170.04C384.562 170.04 383.762 170.304 383.122 170.832C382.482 171.36 382.074 172.08 381.898 172.992ZM403.285 168H405.877V180H403.285V178.272C402.309 179.632 400.909 180.312 399.085 180.312C397.437 180.312 396.029 179.704 394.861 178.488C393.693 177.256 393.109 175.76 393.109 174C393.109 172.224 393.693 170.728 394.861 169.512C396.029 168.296 397.437 167.688 399.085 167.688C400.909 167.688 402.309 168.36 403.285 169.704V168ZM396.781 176.76C397.501 177.48 398.405 177.84 399.493 177.84C400.581 177.84 401.485 177.48 402.205 176.76C402.925 176.024 403.285 175.104 403.285 174C403.285 172.896 402.925 171.984 402.205 171.264C401.485 170.528 400.581 170.16 399.493 170.16C398.405 170.16 397.501 170.528 396.781 171.264C396.061 171.984 395.701 172.896 395.701 174C395.701 175.104 396.061 176.024 396.781 176.76ZM411.155 171.312C411.155 171.712 411.371 172.032 411.803 172.272C412.251 172.496 412.787 172.696 413.411 172.872C414.051 173.032 414.691 173.224 415.331 173.448C415.971 173.672 416.507 174.056 416.939 174.6C417.387 175.128 417.611 175.8 417.611 176.616C417.611 177.768 417.163 178.672 416.267 179.328C415.387 179.984 414.275 180.312 412.931 180.312C411.747 180.312 410.731 180.064 409.883 179.568C409.035 179.072 408.419 178.384 408.035 177.504L410.267 176.208C410.683 177.36 411.571 177.936 412.931 177.936C414.291 177.936 414.971 177.488 414.971 176.592C414.971 176.208 414.747 175.896 414.299 175.656C413.867 175.416 413.331 175.216 412.691 175.056C412.067 174.88 411.435 174.68 410.795 174.456C410.155 174.232 409.611 173.864 409.163 173.352C408.731 172.824 408.515 172.16 408.515 171.36C408.515 170.256 408.931 169.368 409.763 168.696C410.611 168.024 411.659 167.688 412.907 167.688C413.899 167.688 414.779 167.912 415.547 168.36C416.331 168.792 416.931 169.4 417.347 170.184L415.163 171.408C414.747 170.496 413.995 170.04 412.907 170.04C412.411 170.04 411.995 170.152 411.659 170.376C411.323 170.584 411.155 170.896 411.155 171.312ZM438.97 163.2L433.114 173.328V180H430.354V173.328L424.498 163.2H427.642L431.746 170.64L435.826 163.2H438.97ZM443.882 180.312C442.122 180.312 440.626 179.704 439.394 178.488C438.162 177.272 437.546 175.776 437.546 174C437.546 172.224 438.162 170.728 439.394 169.512C440.626 168.296 442.122 167.688 443.882 167.688C445.658 167.688 447.154 168.296 448.37 169.512C449.602 170.728 450.218 172.224 450.218 174C450.218 175.776 449.602 177.272 448.37 178.488C447.154 179.704 445.658 180.312 443.882 180.312ZM441.218 176.712C441.938 177.432 442.826 177.792 443.882 177.792C444.938 177.792 445.826 177.432 446.546 176.712C447.266 175.992 447.626 175.088 447.626 174C447.626 172.912 447.266 172.008 446.546 171.288C445.826 170.568 444.938 170.208 443.882 170.208C442.826 170.208 441.938 170.568 441.218 171.288C440.498 172.008 440.138 172.912 440.138 174C440.138 175.088 440.498 175.992 441.218 176.712ZM460.65 168H463.242V180H460.65V178.464C459.866 179.696 458.626 180.312 456.93 180.312C455.554 180.312 454.442 179.872 453.594 178.992C452.746 178.112 452.322 176.904 452.322 175.368V168H454.914V175.104C454.914 176 455.154 176.688 455.634 177.168C456.114 177.648 456.77 177.888 457.602 177.888C458.514 177.888 459.25 177.608 459.81 177.048C460.37 176.472 460.65 175.6 460.65 174.432V168ZM469.873 163.2L468.193 169.44H466.033L466.993 163.2H469.873ZM472.624 180V162.48H475.216V180H472.624ZM478.226 180V162.48H480.818V180H478.226ZM500.939 180L499.763 176.616H492.611L491.435 180H488.435L494.531 163.2H497.843L503.915 180H500.939ZM493.523 174.024H498.851L496.187 166.44L493.523 174.024ZM510.913 180.312C509.105 180.312 507.593 179.704 506.377 178.488C505.177 177.272 504.577 175.776 504.577 174C504.577 172.208 505.177 170.712 506.377 169.512C507.593 168.296 509.105 167.688 510.913 167.688C512.081 167.688 513.145 167.968 514.105 168.528C515.065 169.088 515.785 169.84 516.265 170.784L514.033 172.08C513.761 171.504 513.345 171.056 512.785 170.736C512.241 170.4 511.609 170.232 510.889 170.232C509.833 170.232 508.945 170.592 508.225 171.312C507.521 172.032 507.169 172.928 507.169 174C507.169 175.072 507.521 175.968 508.225 176.688C508.945 177.408 509.833 177.768 510.889 177.768C511.593 177.768 512.225 177.6 512.785 177.264C513.361 176.928 513.793 176.48 514.081 175.92L516.313 177.192C515.801 178.152 515.065 178.912 514.105 179.472C513.145 180.032 512.081 180.312 510.913 180.312ZM524.883 170.496H521.907V176.256C521.907 176.752 522.019 177.112 522.243 177.336C522.467 177.544 522.795 177.664 523.227 177.696C523.675 177.712 524.227 177.704 524.883 177.672V180C522.899 180.24 521.475 180.072 520.611 179.496C519.747 178.904 519.315 177.824 519.315 176.256V170.496H517.107V168H519.315V165.408L521.907 164.64V168H524.883V170.496ZM535.439 168H538.031V180H535.439V178.464C534.655 179.696 533.415 180.312 531.719 180.312C530.343 180.312 529.231 179.872 528.383 178.992C527.535 178.112 527.111 176.904 527.111 175.368V168H529.703V175.104C529.703 176 529.943 176.688 530.423 177.168C530.903 177.648 531.559 177.888 532.391 177.888C533.303 177.888 534.039 177.608 534.599 177.048C535.159 176.472 535.439 175.6 535.439 174.432V168ZM550.566 168H553.158V180H550.566V178.272C549.59 179.632 548.19 180.312 546.366 180.312C544.718 180.312 543.31 179.704 542.142 178.488C540.974 177.256 540.39 175.76 540.39 174C540.39 172.224 540.974 170.728 542.142 169.512C543.31 168.296 544.718 167.688 546.366 167.688C548.19 167.688 549.59 168.36 550.566 169.704V168ZM544.062 176.76C544.782 177.48 545.686 177.84 546.774 177.84C547.862 177.84 548.766 177.48 549.486 176.76C550.206 176.024 550.566 175.104 550.566 174C550.566 172.896 550.206 171.984 549.486 171.264C548.766 170.528 547.862 170.16 546.774 170.16C545.686 170.16 544.782 170.528 544.062 171.264C543.342 171.984 542.982 172.896 542.982 174C542.982 175.104 543.342 176.024 544.062 176.76ZM556.179 180V162.48H558.771V180H556.179ZM561.781 180V162.48H564.373V180H561.781ZM575.47 168H578.23L573.622 180.384C572.47 183.488 570.518 184.96 567.766 184.8V182.376C568.582 182.424 569.238 182.248 569.734 181.848C570.23 181.464 570.638 180.856 570.958 180.024L571.078 179.784L565.99 168H568.822L572.398 176.712L575.47 168ZM596.795 178.728C595.611 179.784 594.083 180.312 592.211 180.312C590.339 180.312 588.811 179.784 587.627 178.728C586.443 177.656 585.851 176.224 585.851 174.432V163.2H588.611V174.264C588.611 175.288 588.907 176.104 589.499 176.712C590.107 177.32 591.011 177.624 592.211 177.624C593.411 177.624 594.307 177.32 594.899 176.712C595.507 176.104 595.811 175.288 595.811 174.264V163.2H598.571V174.432C598.571 176.224 597.979 177.656 596.795 178.728ZM603.765 171.312C603.765 171.712 603.981 172.032 604.413 172.272C604.861 172.496 605.397 172.696 606.021 172.872C606.661 173.032 607.301 173.224 607.941 173.448C608.581 173.672 609.117 174.056 609.549 174.6C609.997 175.128 610.221 175.8 610.221 176.616C610.221 177.768 609.773 178.672 608.877 179.328C607.997 179.984 606.885 180.312 605.541 180.312C604.357 180.312 603.341 180.064 602.493 179.568C601.645 179.072 601.029 178.384 600.645 177.504L602.877 176.208C603.293 177.36 604.181 177.936 605.541 177.936C606.901 177.936 607.581 177.488 607.581 176.592C607.581 176.208 607.357 175.896 606.909 175.656C606.477 175.416 605.941 175.216 605.301 175.056C604.677 174.88 604.045 174.68 603.405 174.456C602.765 174.232 602.221 173.864 601.773 173.352C601.341 172.824 601.125 172.16 601.125 171.36C601.125 170.256 601.541 169.368 602.373 168.696C603.221 168.024 604.269 167.688 605.517 167.688C606.509 167.688 607.389 167.912 608.157 168.36C608.941 168.792 609.541 169.4 609.957 170.184L607.773 171.408C607.357 170.496 606.605 170.04 605.517 170.04C605.021 170.04 604.605 170.152 604.269 170.376C603.933 170.584 603.765 170.896 603.765 171.312ZM614.235 175.104C614.427 176.016 614.867 176.72 615.555 177.216C616.243 177.696 617.083 177.936 618.075 177.936C619.451 177.936 620.483 177.44 621.171 176.448L623.307 177.696C622.123 179.44 620.371 180.312 618.051 180.312C616.099 180.312 614.523 179.72 613.323 178.536C612.123 177.336 611.523 175.824 611.523 174C611.523 172.208 612.115 170.712 613.299 169.512C614.483 168.296 616.003 167.688 617.859 167.688C619.619 167.688 621.059 168.304 622.179 169.536C623.315 170.768 623.883 172.264 623.883 174.024C623.883 174.296 623.851 174.656 623.787 175.104H614.235ZM614.211 172.992H621.267C621.091 172.016 620.683 171.28 620.043 170.784C619.419 170.288 618.683 170.04 617.835 170.04C616.875 170.04 616.075 170.304 615.435 170.832C614.795 171.36 614.387 172.08 614.211 172.992Z" fill="#131313"/>
<path d="M659.136 173C659.136 157.536 646.6 145 631.136 145H625.136V173H659.136Z" fill="#F4F0DC" stroke="#F4F0DC" stroke-width="0.805851"/>
<rect width="34" height="1" transform="matrix(-1 0 0 1 659.136 173)" fill="#F4F0DC" stroke="#F4F0DC" stroke-width="0.805851"/>
<path d="M659.136 174C659.136 188.92 647.04 201.016 632.12 201.016H625.136V174H659.136Z" fill="#F4F0DC" stroke="#F4F0DC" stroke-width="0.805851"/>
<path d="M323.136 236.531C323.136 221.089 335.654 208.57 351.097 208.57H357.136V236.531H323.136Z" fill="#F4F0DC" stroke="#F4F0DC" stroke-width="0.805851"/>
<rect x="323.136" y="236.531" width="34" height="1.5791" fill="#F4F0DC" stroke="#F4F0DC" stroke-width="0.805851"/>
<path d="M357.136 238.117V264.523H349.542C343.603 264.523 338.122 262.562 333.711 259.253C326.547 261.793 317.013 263.519 306.016 262.031C309.374 260.96 320.934 255.309 323.863 244.296C323.388 242.314 323.136 240.245 323.136 238.117H357.136Z" fill="#F4F0DC"/>
<path d="M357.136 238.117H357.539V237.714H357.136V238.117ZM357.136 264.523V264.926H357.539V264.523H357.136ZM349.542 264.523V264.926V264.926V264.523ZM333.711 259.253L333.953 258.931L333.78 258.801L333.576 258.873L333.711 259.253ZM306.016 262.031L305.893 261.647L305.962 262.431L306.016 262.031ZM323.863 244.296L324.253 244.399L324.279 244.301L324.255 244.202L323.863 244.296ZM323.136 238.117V237.714H322.733V238.117H323.136ZM357.136 238.117H356.733V264.523H357.136H357.539V238.117H357.136ZM357.136 264.523V264.121H349.542V264.523V264.926H357.136V264.523ZM349.542 264.523V264.121C343.693 264.121 338.297 262.189 333.953 258.931L333.711 259.253L333.469 259.575C337.948 262.935 343.513 264.926 349.542 264.926V264.523ZM333.711 259.253L333.576 258.873C326.464 261.395 316.994 263.11 306.07 261.632L306.016 262.031L305.962 262.431C317.031 263.928 326.631 262.191 333.846 259.633L333.711 259.253ZM306.016 262.031L306.138 262.415C307.863 261.865 311.636 260.161 315.351 257.207C319.068 254.252 322.758 250.018 324.253 244.399L323.863 244.296L323.474 244.192C322.039 249.587 318.485 253.685 314.85 256.576C311.212 259.469 307.526 261.127 305.893 261.647L306.016 262.031ZM323.863 244.296L324.255 244.202C323.787 242.25 323.539 240.213 323.539 238.117H323.136H322.733C322.733 240.277 322.989 242.377 323.471 244.39L323.863 244.296ZM323.136 238.117V238.52H357.136V238.117V237.714H323.136V238.117Z" fill="#F4F0DC"/>
<rect x="357.136" y="208.547" width="275" height="56" fill="#F4F0DC"/>
<rect x="357.136" y="208.547" width="275" height="56" stroke="#F4F0DC" stroke-width="0.805851"/>
<path d="M372.856 241.339C371.176 243.019 369.12 243.859 366.688 243.859C364.256 243.859 362.192 243.019 360.496 241.339C358.816 239.643 357.976 237.579 357.976 235.147C357.976 232.715 358.816 230.659 360.496 228.979C362.192 227.283 364.256 226.435 366.688 226.435C369.12 226.435 371.176 227.283 372.856 228.979C374.552 230.659 375.4 232.715 375.4 235.147C375.4 237.579 374.552 239.643 372.856 241.339ZM362.44 239.467C363.592 240.603 365.008 241.171 366.688 241.171C368.368 241.171 369.776 240.603 370.912 239.467C372.064 238.315 372.64 236.875 372.64 235.147C372.64 233.419 372.064 231.987 370.912 230.851C369.776 229.699 368.368 229.123 366.688 229.123C365.008 229.123 363.592 229.699 362.44 230.851C361.304 231.987 360.736 233.419 360.736 235.147C360.736 236.875 361.304 238.315 362.44 239.467ZM384.541 231.235C386.189 231.235 387.597 231.851 388.765 233.083C389.933 234.299 390.517 235.787 390.517 237.547C390.517 239.323 389.933 240.819 388.765 242.035C387.597 243.251 386.189 243.859 384.541 243.859C382.717 243.859 381.317 243.187 380.341 241.843V248.347H377.749V231.547H380.341V233.275C381.317 231.915 382.717 231.235 384.541 231.235ZM381.421 240.307C382.141 241.027 383.045 241.387 384.133 241.387C385.221 241.387 386.125 241.027 386.845 240.307C387.565 239.571 387.925 238.651 387.925 237.547C387.925 236.443 387.565 235.531 386.845 234.811C386.125 234.075 385.221 233.707 384.133 233.707C383.045 233.707 382.141 234.075 381.421 234.811C380.701 235.531 380.341 236.443 380.341 237.547C380.341 238.651 380.701 239.571 381.421 240.307ZM399.658 231.235C401.306 231.235 402.714 231.851 403.882 233.083C405.05 234.299 405.634 235.787 405.634 237.547C405.634 239.323 405.05 240.819 403.882 242.035C402.714 243.251 401.306 243.859 399.658 243.859C397.834 243.859 396.434 243.187 395.458 241.843V248.347H392.866V231.547H395.458V233.275C396.434 231.915 397.834 231.235 399.658 231.235ZM396.538 240.307C397.258 241.027 398.162 241.387 399.25 241.387C400.338 241.387 401.242 241.027 401.962 240.307C402.682 239.571 403.042 238.651 403.042 237.547C403.042 236.443 402.682 235.531 401.962 234.811C401.242 234.075 400.338 233.707 399.25 233.707C398.162 233.707 397.258 234.075 396.538 234.811C395.818 235.531 395.458 236.443 395.458 237.547C395.458 238.651 395.818 239.571 396.538 240.307ZM413.648 243.859C411.888 243.859 410.392 243.251 409.16 242.035C407.928 240.819 407.312 239.323 407.312 237.547C407.312 235.771 407.928 234.275 409.16 233.059C410.392 231.843 411.888 231.235 413.648 231.235C415.424 231.235 416.92 231.843 418.136 233.059C419.368 234.275 419.984 235.771 419.984 237.547C419.984 239.323 419.368 240.819 418.136 242.035C416.92 243.251 415.424 243.859 413.648 243.859ZM410.984 240.259C411.704 240.979 412.592 241.339 413.648 241.339C414.704 241.339 415.592 240.979 416.312 240.259C417.032 239.539 417.392 238.635 417.392 237.547C417.392 236.459 417.032 235.555 416.312 234.835C415.592 234.115 414.704 233.755 413.648 233.755C412.592 233.755 411.704 234.115 410.984 234.835C410.264 235.555 409.904 236.459 409.904 237.547C409.904 238.635 410.264 239.539 410.984 240.259ZM424.919 233.563C425.575 232.075 426.807 231.331 428.615 231.331V234.139C427.623 234.075 426.759 234.315 426.023 234.859C425.287 235.387 424.919 236.267 424.919 237.499V243.547H422.327V231.547H424.919V233.563ZM437.531 234.043H434.555V239.803C434.555 240.299 434.667 240.659 434.891 240.883C435.115 241.091 435.443 241.211 435.875 241.243C436.323 241.259 436.875 241.251 437.531 241.219V243.547C435.547 243.787 434.123 243.619 433.259 243.043C432.395 242.451 431.963 241.371 431.963 239.803V234.043H429.755V231.547H431.963V228.955L434.555 228.187V231.547H437.531V234.043ZM448.087 231.547H450.679V243.547H448.087V242.011C447.303 243.243 446.063 243.859 444.367 243.859C442.991 243.859 441.879 243.419 441.031 242.539C440.183 241.659 439.759 240.451 439.759 238.915V231.547H442.351V238.651C442.351 239.547 442.591 240.235 443.071 240.715C443.551 241.195 444.207 241.435 445.039 241.435C445.951 241.435 446.687 241.155 447.247 240.595C447.807 240.019 448.087 239.147 448.087 237.979V231.547ZM460.022 231.235C461.398 231.235 462.51 231.675 463.358 232.555C464.206 233.435 464.63 234.643 464.63 236.179V243.547H462.038V236.443C462.038 235.547 461.798 234.859 461.318 234.379C460.838 233.899 460.182 233.659 459.35 233.659C458.438 233.659 457.702 233.947 457.142 234.523C456.582 235.083 456.302 235.947 456.302 237.115V243.547H453.71V231.547H456.302V233.083C457.086 231.851 458.326 231.235 460.022 231.235ZM469.869 229.267C469.549 229.587 469.165 229.747 468.717 229.747C468.269 229.747 467.877 229.587 467.541 229.267C467.221 228.931 467.061 228.539 467.061 228.091C467.061 227.643 467.221 227.259 467.541 226.939C467.861 226.603 468.253 226.435 468.717 226.435C469.181 226.435 469.573 226.603 469.893 226.939C470.213 227.259 470.373 227.643 470.373 228.091C470.373 228.539 470.205 228.931 469.869 229.267ZM467.421 243.547V231.547H470.013V243.547H467.421ZM479.719 234.043H476.743V239.803C476.743 240.299 476.855 240.659 477.079 240.883C477.303 241.091 477.631 241.211 478.063 241.243C478.511 241.259 479.063 241.251 479.719 241.219V243.547C477.735 243.787 476.311 243.619 475.447 243.043C474.583 242.451 474.151 241.371 474.151 239.803V234.043H471.943V231.547H474.151V228.955L476.743 228.187V231.547H479.719V234.043ZM484.518 229.267C484.198 229.587 483.814 229.747 483.366 229.747C482.918 229.747 482.526 229.587 482.19 229.267C481.87 228.931 481.71 228.539 481.71 228.091C481.71 227.643 481.87 227.259 482.19 226.939C482.51 226.603 482.902 226.435 483.366 226.435C483.83 226.435 484.222 226.603 484.542 226.939C484.862 227.259 485.022 227.643 485.022 228.091C485.022 228.539 484.854 228.931 484.518 229.267ZM482.07 243.547V231.547H484.662V243.547H482.07ZM489.711 238.651C489.903 239.563 490.343 240.267 491.031 240.763C491.719 241.243 492.559 241.483 493.551 241.483C494.927 241.483 495.959 240.987 496.647 239.995L498.783 241.243C497.599 242.987 495.847 243.859 493.527 243.859C491.575 243.859 489.999 243.267 488.799 242.083C487.599 240.883 486.999 239.371 486.999 237.547C486.999 235.755 487.591 234.259 488.775 233.059C489.959 231.843 491.479 231.235 493.335 231.235C495.095 231.235 496.535 231.851 497.655 233.083C498.791 234.315 499.359 235.811 499.359 237.571C499.359 237.843 499.327 238.203 499.263 238.651H489.711ZM489.687 236.539H496.743C496.567 235.563 496.159 234.827 495.519 234.331C494.895 233.835 494.159 233.587 493.311 233.587C492.351 233.587 491.551 233.851 490.911 234.379C490.271 234.907 489.863 235.627 489.687 236.539ZM503.499 234.859C503.499 235.259 503.715 235.579 504.147 235.819C504.595 236.043 505.131 236.243 505.755 236.419C506.395 236.579 507.035 236.771 507.675 236.995C508.315 237.219 508.851 237.603 509.283 238.147C509.731 238.675 509.955 239.347 509.955 240.163C509.955 241.315 509.507 242.219 508.611 242.875C507.731 243.531 506.619 243.859 505.275 243.859C504.091 243.859 503.075 243.611 502.227 243.115C501.379 242.619 500.763 241.931 500.379 241.051L502.611 239.755C503.027 240.907 503.915 241.483 505.275 241.483C506.635 241.483 507.315 241.035 507.315 240.139C507.315 239.755 507.091 239.443 506.643 239.203C506.211 238.963 505.675 238.763 505.035 238.603C504.411 238.427 503.779 238.227 503.139 238.003C502.499 237.779 501.955 237.411 501.507 236.899C501.075 236.371 500.859 235.707 500.859 234.907C500.859 233.803 501.275 232.915 502.107 232.243C502.955 231.571 504.003 231.235 505.251 231.235C506.243 231.235 507.123 231.459 507.891 231.907C508.675 232.339 509.275 232.947 509.691 233.731L507.507 234.955C507.091 234.043 506.339 233.587 505.251 233.587C504.755 233.587 504.339 233.699 504.003 233.923C503.667 234.131 503.499 234.443 503.499 234.859ZM524.93 234.043H521.954V239.803C521.954 240.299 522.066 240.659 522.29 240.883C522.514 241.091 522.842 241.211 523.274 241.243C523.722 241.259 524.274 241.251 524.93 241.219V243.547C522.946 243.787 521.522 243.619 520.658 243.043C519.794 242.451 519.362 241.371 519.362 239.803V234.043H517.154V231.547H519.362V228.955L521.954 228.187V231.547H524.93V234.043ZM532.452 243.859C530.692 243.859 529.196 243.251 527.964 242.035C526.732 240.819 526.116 239.323 526.116 237.547C526.116 235.771 526.732 234.275 527.964 233.059C529.196 231.843 530.692 231.235 532.452 231.235C534.228 231.235 535.724 231.843 536.94 233.059C538.172 234.275 538.788 235.771 538.788 237.547C538.788 239.323 538.172 240.819 536.94 242.035C535.724 243.251 534.228 243.859 532.452 243.859ZM529.788 240.259C530.508 240.979 531.396 241.339 532.452 241.339C533.508 241.339 534.396 240.979 535.116 240.259C535.836 239.539 536.196 238.635 536.196 237.547C536.196 236.459 535.836 235.555 535.116 234.835C534.396 234.115 533.508 233.755 532.452 233.755C531.396 233.755 530.508 234.115 529.788 234.835C529.068 235.555 528.708 236.459 528.708 237.547C528.708 238.635 529.068 239.539 529.788 240.259ZM550.06 240.907H557.5V243.547H547.3V226.747H557.38V229.387H550.06V233.755H556.78V236.371H550.06V240.907ZM566.171 231.235C567.547 231.235 568.659 231.675 569.507 232.555C570.355 233.435 570.779 234.643 570.779 236.179V243.547H568.187V236.443C568.187 235.547 567.947 234.859 567.467 234.379C566.987 233.899 566.331 233.659 565.499 233.659C564.587 233.659 563.851 233.947 563.291 234.523C562.731 235.083 562.451 235.947 562.451 237.115V243.547H559.859V231.547H562.451V233.083C563.235 231.851 564.475 231.235 566.171 231.235ZM583.122 231.547H585.666V242.995C585.666 244.819 585.066 246.219 583.866 247.195C582.666 248.171 581.21 248.659 579.498 248.659C576.73 248.659 574.834 247.691 573.81 245.755L576.042 244.459C576.666 245.691 577.834 246.307 579.546 246.307C580.666 246.307 581.538 246.011 582.162 245.419C582.802 244.843 583.122 244.035 583.122 242.995V241.531C582.146 242.923 580.754 243.619 578.946 243.619C577.25 243.619 575.818 243.019 574.65 241.819C573.482 240.603 572.898 239.139 572.898 237.427C572.898 235.715 573.482 234.259 574.65 233.059C575.818 231.843 577.25 231.235 578.946 231.235C580.754 231.235 582.146 231.931 583.122 233.323V231.547ZM576.57 240.115C577.306 240.835 578.218 241.195 579.306 241.195C580.394 241.195 581.298 240.835 582.018 240.115C582.754 239.395 583.122 238.499 583.122 237.427C583.122 236.355 582.754 235.459 582.018 234.739C581.298 234.019 580.394 233.659 579.306 233.659C578.218 233.659 577.306 234.019 576.57 234.739C575.85 235.459 575.49 236.355 575.49 237.427C575.49 238.499 575.85 239.395 576.57 240.115ZM598.191 231.547H600.783V243.547H598.191V241.819C597.215 243.179 595.815 243.859 593.991 243.859C592.343 243.859 590.935 243.251 589.767 242.035C588.599 240.803 588.015 239.307 588.015 237.547C588.015 235.771 588.599 234.275 589.767 233.059C590.935 231.843 592.343 231.235 593.991 231.235C595.815 231.235 597.215 231.907 598.191 233.251V231.547ZM591.687 240.307C592.407 241.027 593.311 241.387 594.399 241.387C595.487 241.387 596.391 241.027 597.111 240.307C597.831 239.571 598.191 238.651 598.191 237.547C598.191 236.443 597.831 235.531 597.111 234.811C596.391 234.075 595.487 233.707 594.399 233.707C593.311 233.707 592.407 234.075 591.687 234.811C590.967 235.531 590.607 236.443 590.607 237.547C590.607 238.651 590.967 239.571 591.687 240.307ZM613.356 231.547H615.9V242.995C615.9 244.819 615.3 246.219 614.1 247.195C612.9 248.171 611.444 248.659 609.732 248.659C606.964 248.659 605.068 247.691 604.044 245.755L606.276 244.459C606.9 245.691 608.068 246.307 609.78 246.307C610.9 246.307 611.772 246.011 612.396 245.419C613.036 244.843 613.356 244.035 613.356 242.995V241.531C612.38 242.923 610.988 243.619 609.18 243.619C607.484 243.619 606.052 243.019 604.884 241.819C603.716 240.603 603.132 239.139 603.132 237.427C603.132 235.715 603.716 234.259 604.884 233.059C606.052 231.843 607.484 231.235 609.18 231.235C610.988 231.235 612.38 231.931 613.356 233.323V231.547ZM606.804 240.115C607.54 240.835 608.452 241.195 609.54 241.195C610.628 241.195 611.532 240.835 612.252 240.115C612.988 239.395 613.356 238.499 613.356 237.427C613.356 236.355 612.988 235.459 612.252 234.739C611.532 234.019 610.628 233.659 609.54 233.659C608.452 233.659 607.54 234.019 606.804 234.739C606.084 235.459 605.724 236.355 605.724 237.427C605.724 238.499 606.084 239.395 606.804 240.115ZM620.961 238.651C621.153 239.563 621.593 240.267 622.281 240.763C622.969 241.243 623.809 241.483 624.801 241.483C626.177 241.483 627.209 240.987 627.897 239.995L630.033 241.243C628.849 242.987 627.097 243.859 624.777 243.859C622.825 243.859 621.249 243.267 620.049 242.083C618.849 240.883 618.249 239.371 618.249 237.547C618.249 235.755 618.841 234.259 620.025 233.059C621.209 231.843 622.729 231.235 624.585 231.235C626.345 231.235 627.785 231.851 628.905 233.083C630.041 234.315 630.609 235.811 630.609 237.571C630.609 237.843 630.577 238.203 630.513 238.651H620.961ZM620.937 236.539H627.993C627.817 235.563 627.409 234.827 626.769 234.331C626.145 233.835 625.409 233.587 624.561 233.587C623.601 233.587 622.801 233.851 622.161 234.379C621.521 234.907 621.113 235.627 620.937 236.539Z" fill="#131313"/>
<path d="M666.136 236.547C666.136 221.083 653.6 208.547 638.136 208.547H632.136V236.547H666.136Z" fill="#F4F0DC" stroke="#F4F0DC" stroke-width="0.805851"/>
<rect width="34" height="1" transform="matrix(-1 0 0 1 666.136 236.547)" fill="#F4F0DC" stroke="#F4F0DC" stroke-width="0.805851"/>
<path d="M666.136 237.547C666.136 252.467 654.04 264.562 639.12 264.562H632.136V237.547H666.136Z" fill="#F4F0DC" stroke="#F4F0DC" stroke-width="0.805851"/>
<path d="M323.136 300.078C323.136 284.636 335.654 272.117 351.097 272.117H357.136V300.078H323.136Z" fill="#F4F0DC" stroke="#F4F0DC" stroke-width="0.805851"/>
<rect x="323.136" y="300.078" width="34" height="1.5791" fill="#F4F0DC" stroke="#F4F0DC" stroke-width="0.805851"/>
<path d="M357.136 301.664V328.07H349.542C343.603 328.07 338.122 326.109 333.711 322.8C326.547 325.34 317.013 327.066 306.016 325.578C309.374 324.507 320.934 318.856 323.863 307.843C323.388 305.861 323.136 303.792 323.136 301.664H357.136Z" fill="#F4F0DC"/>
<path d="M357.136 301.664H357.539V301.261H357.136V301.664ZM357.136 328.07V328.473H357.539V328.07H357.136ZM349.542 328.07V328.473V328.473V328.07ZM333.711 322.8L333.953 322.477L333.78 322.348L333.576 322.42L333.711 322.8ZM306.016 325.578L305.893 325.194L305.962 325.977L306.016 325.578ZM323.863 307.843L324.253 307.946L324.279 307.848L324.255 307.749L323.863 307.843ZM323.136 301.664V301.261H322.733V301.664H323.136ZM357.136 301.664H356.733V328.07H357.136H357.539V301.664H357.136ZM357.136 328.07V327.667H349.542V328.07V328.473H357.136V328.07ZM349.542 328.07V327.667C343.693 327.667 338.297 325.736 333.953 322.477L333.711 322.8L333.469 323.122C337.948 326.482 343.513 328.473 349.542 328.473V328.07ZM333.711 322.8L333.576 322.42C326.464 324.942 316.994 326.657 306.07 325.179L306.016 325.578L305.962 325.977C317.031 327.475 326.631 325.738 333.846 323.18L333.711 322.8ZM306.016 325.578L306.138 325.962C307.863 325.412 311.636 323.708 315.351 320.754C319.068 317.799 322.758 313.565 324.253 307.946L323.863 307.843L323.474 307.739C322.039 313.134 318.485 317.232 314.85 320.123C311.212 323.016 307.526 324.673 305.893 325.194L306.016 325.578ZM323.863 307.843L324.255 307.749C323.787 305.797 323.539 303.76 323.539 301.664H323.136H322.733C322.733 303.824 322.989 305.924 323.471 307.937L323.863 307.843ZM323.136 301.664V302.067H357.136V301.664V301.261H323.136V301.664Z" fill="#F4F0DC"/>
<rect x="357.136" y="272.094" width="187" height="56" fill="#F4F0DC"/>
<rect x="357.136" y="272.094" width="187" height="56" stroke="#F4F0DC" stroke-width="0.805851"/>
<path d="M366.76 307.406C364.232 307.406 362.136 306.574 360.472 304.91C358.808 303.23 357.976 301.158 357.976 298.694C357.976 296.23 358.808 294.166 360.472 292.502C362.136 290.822 364.232 289.982 366.76 289.982C368.28 289.982 369.68 290.342 370.96 291.062C372.256 291.782 373.264 292.758 373.984 293.99L371.584 295.382C371.136 294.55 370.48 293.894 369.616 293.414C368.768 292.918 367.816 292.67 366.76 292.67C364.968 292.67 363.512 293.238 362.392 294.374C361.288 295.51 360.736 296.95 360.736 298.694C360.736 300.438 361.288 301.878 362.392 303.014C363.512 304.15 364.968 304.718 366.76 304.718C367.816 304.718 368.776 304.478 369.64 303.998C370.504 303.502 371.152 302.838 371.584 302.006L373.984 303.374C373.28 304.606 372.28 305.59 370.984 306.326C369.704 307.046 368.296 307.406 366.76 307.406ZM376.226 307.094V289.574H378.818V307.094H376.226ZM391.331 295.094H393.923V307.094H391.331V305.366C390.355 306.726 388.955 307.406 387.131 307.406C385.483 307.406 384.075 306.798 382.907 305.582C381.739 304.35 381.155 302.854 381.155 301.094C381.155 299.318 381.739 297.822 382.907 296.606C384.075 295.39 385.483 294.782 387.131 294.782C388.955 294.782 390.355 295.454 391.331 296.798V295.094ZM384.827 303.854C385.547 304.574 386.451 304.934 387.539 304.934C388.627 304.934 389.531 304.574 390.251 303.854C390.971 303.118 391.331 302.198 391.331 301.094C391.331 299.99 390.971 299.078 390.251 298.358C389.531 297.622 388.627 297.254 387.539 297.254C386.451 297.254 385.547 297.622 384.827 298.358C384.107 299.078 383.747 299.99 383.747 301.094C383.747 302.198 384.107 303.118 384.827 303.854ZM399.537 297.11C400.193 295.622 401.425 294.878 403.233 294.878V297.686C402.241 297.622 401.377 297.862 400.641 298.406C399.905 298.934 399.537 299.814 399.537 301.046V307.094H396.945V295.094H399.537V297.11ZM407.596 292.814C407.276 293.134 406.892 293.294 406.444 293.294C405.996 293.294 405.604 293.134 405.268 292.814C404.948 292.478 404.788 292.086 404.788 291.638C404.788 291.19 404.948 290.806 405.268 290.486C405.588 290.15 405.98 289.982 406.444 289.982C406.908 289.982 407.3 290.15 407.62 290.486C407.94 290.806 408.1 291.19 408.1 291.638C408.1 292.086 407.932 292.478 407.596 292.814ZM405.148 307.094V295.094H407.74V307.094H405.148ZM417.445 297.59H414.469V303.35C414.469 303.846 414.581 304.206 414.805 304.43C415.029 304.638 415.357 304.758 415.789 304.79C416.237 304.806 416.789 304.798 417.445 304.766V307.094C415.461 307.334 414.037 307.166 413.173 306.59C412.309 305.998 411.877 304.918 411.877 303.35V297.59H409.669V295.094H411.877V292.502L414.469 291.734V295.094H417.445V297.59ZM428.119 295.094H430.879L426.271 307.478C425.119 310.582 423.167 312.054 420.415 311.894V309.47C421.231 309.518 421.887 309.342 422.383 308.942C422.879 308.558 423.287 307.95 423.607 307.118L423.727 306.878L418.639 295.094H421.471L425.047 303.806L428.119 295.094ZM444.163 307.406C442.403 307.406 440.907 306.798 439.675 305.582C438.443 304.366 437.827 302.87 437.827 301.094C437.827 299.318 438.443 297.822 439.675 296.606C440.907 295.39 442.403 294.782 444.163 294.782C445.939 294.782 447.435 295.39 448.651 296.606C449.883 297.822 450.499 299.318 450.499 301.094C450.499 302.87 449.883 304.366 448.651 305.582C447.435 306.798 445.939 307.406 444.163 307.406ZM441.499 303.806C442.219 304.526 443.107 304.886 444.163 304.886C445.219 304.886 446.107 304.526 446.827 303.806C447.547 303.086 447.907 302.182 447.907 301.094C447.907 300.006 447.547 299.102 446.827 298.382C446.107 297.662 445.219 297.302 444.163 297.302C443.107 297.302 442.219 297.662 441.499 298.382C440.779 299.102 440.419 300.006 440.419 301.094C440.419 302.182 440.779 303.086 441.499 303.806ZM459.155 294.782C460.531 294.782 461.643 295.222 462.491 296.102C463.339 296.982 463.763 298.19 463.763 299.726V307.094H461.171V299.99C461.171 299.094 460.931 298.406 460.451 297.926C459.971 297.446 459.315 297.206 458.483 297.206C457.571 297.206 456.835 297.494 456.275 298.07C455.715 298.63 455.435 299.494 455.435 300.662V307.094H452.843V295.094H455.435V296.63C456.219 295.398 457.459 294.782 459.155 294.782ZM483.642 290.294V292.934H478.914V307.094H476.154V292.934H471.402V290.294H483.642ZM486.537 297.11C487.193 295.622 488.425 294.878 490.233 294.878V297.686C489.241 297.622 488.377 297.862 487.641 298.406C486.905 298.934 486.537 299.814 486.537 301.046V307.094H483.945V295.094H486.537V297.11ZM493.625 302.198C493.817 303.11 494.257 303.814 494.945 304.31C495.633 304.79 496.473 305.03 497.465 305.03C498.841 305.03 499.873 304.534 500.561 303.542L502.697 304.79C501.513 306.534 499.761 307.406 497.441 307.406C495.489 307.406 493.913 306.814 492.713 305.63C491.513 304.43 490.913 302.918 490.913 301.094C490.913 299.302 491.505 297.806 492.689 296.606C493.873 295.39 495.393 294.782 497.249 294.782C499.009 294.782 500.449 295.398 501.569 296.63C502.705 297.862 503.273 299.358 503.273 301.118C503.273 301.39 503.241 301.75 503.177 302.198H493.625ZM493.601 300.086H500.657C500.481 299.11 500.073 298.374 499.433 297.878C498.809 297.382 498.073 297.134 497.225 297.134C496.265 297.134 495.465 297.398 494.825 297.926C494.185 298.454 493.777 299.174 493.601 300.086ZM511.866 294.782C513.242 294.782 514.354 295.222 515.202 296.102C516.05 296.982 516.474 298.19 516.474 299.726V307.094H513.882V299.99C513.882 299.094 513.642 298.406 513.162 297.926C512.682 297.446 512.026 297.206 511.194 297.206C510.282 297.206 509.546 297.494 508.986 298.07C508.426 298.63 508.146 299.494 508.146 300.662V307.094H505.554V295.094H508.146V296.63C508.93 295.398 510.17 294.782 511.866 294.782ZM528.769 290.294H531.361V307.094H528.769V305.366C527.793 306.726 526.393 307.406 524.569 307.406C522.921 307.406 521.513 306.798 520.345 305.582C519.177 304.35 518.593 302.854 518.593 301.094C518.593 299.318 519.177 297.822 520.345 296.606C521.513 295.39 522.921 294.782 524.569 294.782C526.393 294.782 527.793 295.454 528.769 296.798V290.294ZM522.265 303.854C522.985 304.574 523.889 304.934 524.977 304.934C526.065 304.934 526.969 304.574 527.689 303.854C528.409 303.118 528.769 302.198 528.769 301.094C528.769 299.99 528.409 299.078 527.689 298.358C526.969 297.622 526.065 297.254 524.977 297.254C523.889 297.254 522.985 297.622 522.265 298.358C521.545 299.078 521.185 299.99 521.185 301.094C521.185 302.198 521.545 303.118 522.265 303.854ZM536.64 298.406C536.64 298.806 536.856 299.126 537.288 299.366C537.736 299.59 538.272 299.79 538.896 299.966C539.536 300.126 540.176 300.318 540.816 300.542C541.456 300.766 541.992 301.15 542.424 301.694C542.872 302.222 543.096 302.894 543.096 303.71C543.096 304.862 542.648 305.766 541.752 306.422C540.872 307.078 539.76 307.406 538.416 307.406C537.232 307.406 536.216 307.158 535.368 306.662C534.52 306.166 533.904 305.478 533.52 304.598L535.752 303.302C536.168 304.454 537.056 305.03 538.416 305.03C539.776 305.03 540.456 304.582 540.456 303.686C540.456 303.302 540.232 302.99 539.784 302.75C539.352 302.51 538.816 302.31 538.176 302.15C537.552 301.974 536.92 301.774 536.28 301.55C535.64 301.326 535.096 300.958 534.648 300.446C534.216 299.918 534 299.254 534 298.454C534 297.35 534.416 296.462 535.248 295.79C536.096 295.118 537.144 294.782 538.392 294.782C539.384 294.782 540.264 295.006 541.032 295.454C541.816 295.886 542.416 296.494 542.832 297.278L540.648 298.502C540.232 297.59 539.48 297.134 538.392 297.134C537.896 297.134 537.48 297.246 537.144 297.47C536.808 297.678 536.64 297.99 536.64 298.406Z" fill="#131313"/>
<path d="M578.136 300.094C578.136 284.63 565.6 272.094 550.136 272.094H544.136V300.094H578.136Z" fill="#F4F0DC" stroke="#F4F0DC" stroke-width="0.805851"/>
<rect width="34" height="1" transform="matrix(-1 0 0 1 578.136 300.094)" fill="#F4F0DC" stroke="#F4F0DC" stroke-width="0.805851"/>
<path d="M578.136 301.094C578.136 316.014 566.04 328.109 551.12 328.109H544.136V301.094H578.136Z" fill="#F4F0DC" stroke="#F4F0DC" stroke-width="0.805851"/>
<rect opacity="0.1" x="0.5" y="0.5" width="700.41" height="345" rx="35.5" stroke="black"/>
<path d="M254.459 12.2969C264.175 12.2969 272.813 16.9157 278.295 24.0773C283.958 31.4743 276.422 39.9844 267.106 39.9844H60.8125C50.0494 39.9844 41.3242 48.7096 41.3242 59.4727C41.3242 70.2357 50.0494 78.9609 60.8125 78.9609H269.46C277.744 78.9609 284.46 85.6767 284.46 93.9609V303.703C284.46 320.272 271.028 333.703 254.459 333.703H42.3438C25.7752 333.703 12.3428 320.272 12.3428 303.703V42.2969C12.3428 25.7283 25.7752 12.2969 42.3438 12.2969H254.459Z" fill="#F4F0DC"/>
<rect x="41.3242" y="95.9609" width="214.884" height="38.9766" rx="19.4883" fill="#FFFCEA"/>
<rect x="41.3242" y="151.938" width="214.884" height="38.9766" rx="19.4883" fill="#FFFCEA"/>
<rect x="41.3242" y="207.914" width="214.884" height="38.9766" rx="19.4883" fill="#FFFCEA"/>
<rect x="41.3242" y="263.891" width="214.884" height="38.9766" rx="19.4883" fill="#FFFCEA"/>
<rect x="236.82" y="49.9609" width="19.3882" height="19.0215" rx="9.51074" fill="#DE4B34"/>
<path d="M247.052 57.9043C247.991 57.9043 248.779 58.2074 249.417 58.8135C250.06 59.4196 250.381 60.1761 250.381 61.083C250.381 62.0173 250.032 62.7965 249.335 63.4209C248.638 64.0407 247.751 64.3506 246.676 64.3506C246.079 64.3506 245.484 64.2412 244.892 64.0225C244.304 63.8037 243.755 63.4733 243.244 63.0312L244.208 61.4795C244.513 61.7985 244.871 62.0469 245.281 62.2246C245.696 62.3978 246.118 62.4844 246.546 62.4844C247.097 62.4844 247.542 62.3454 247.879 62.0674C248.221 61.7848 248.392 61.4385 248.392 61.0283C248.392 60.641 248.243 60.3197 247.947 60.0645C247.651 59.8047 247.273 59.6748 246.812 59.6748C246.252 59.6748 245.771 59.8594 245.37 60.2285L243.661 59.7295L244.153 54.5205H249.711V56.3389H245.78L245.623 58.2461C246.029 58.0182 246.505 57.9043 247.052 57.9043Z" fill="white"/>
<path d="M62.0064 61.6694C62.0064 60.3611 62.0064 58.9522 62.0036 57.6439L57.9384 58.4596C57.9384 58.4814 57.9412 58.5019 57.9412 58.5236C57.9411 58.6104 57.9289 58.6967 57.9049 58.7801L62.0064 61.6694Z" fill="#88857A"/>
<path d="M62.002 57.0914C62.002 55.5818 61.9977 54.2498 61.9961 53.4329V52.7032C61.9961 52.5998 61.9976 52.4964 62.0005 52.393C62.017 52.048 62.0014 51.7022 61.9539 51.3602L59.8877 53.719C59.993 53.8763 60.0478 54.062 60.0449 54.2512C60.042 54.4404 59.9816 54.6243 59.8716 54.7783L62.0028 57.0949L62.002 57.0914Z" fill="#88857A"/>
<path d="M59.109 55.1682C59.0646 55.1673 59.0203 55.1633 58.9764 55.1564L57.674 57.8677C57.712 57.9069 57.7466 57.9493 57.7774 57.9944L61.4897 57.2496L59.4935 55.0834C59.3724 55.139 59.2407 55.1678 59.1075 55.1678L59.109 55.1682Z" fill="#88857A"/>
<path d="M59.1572 63.6695C59.29 63.6694 59.4214 63.6978 59.5423 63.7528C59.6632 63.8078 59.7709 63.8882 59.8581 63.9884L62.006 62.7137V62.2618C62.0016 62.259 61.9973 62.2574 61.993 62.2547L57.6554 59.1965C57.6152 59.2351 57.5717 59.2702 57.5256 59.3015L59.0597 63.6766C59.0917 63.6739 59.1252 63.6707 59.1588 63.6707L59.1572 63.6695Z" fill="#88857A"/>
<path d="M57.0097 59.4546C56.9659 59.4542 56.9221 59.4508 56.8787 59.4443L54.6172 64.1644C54.6459 64.199 54.6708 64.2366 54.6914 64.2765L58.2932 64.2532C58.3589 64.0916 58.4682 63.9514 58.609 63.8483L57.0674 59.451C57.0484 59.451 57.0279 59.4542 57.0105 59.4542L57.0097 59.4546Z" fill="#88857A"/>
<path d="M58.4128 51.4266C58.4131 51.5072 58.3974 51.5871 58.3667 51.6616C58.3359 51.7361 58.2907 51.8038 58.2337 51.8607L58.9358 53.3209C58.9929 53.3105 59.0509 53.3052 59.1091 53.3051C59.2516 53.3052 59.3922 53.3382 59.5199 53.4014L61.7858 50.8153C61.7136 50.6551 61.6207 50.5052 61.5095 50.3693C61.3217 50.1412 61.0871 49.9562 60.8215 49.8268C60.5559 49.6974 60.2656 49.6267 59.9702 49.6194C59.3506 49.5933 58.7429 49.7955 58.2625 50.1877C58.0795 50.3645 57.9403 50.5816 57.8559 50.8216C58.0079 50.8359 58.1491 50.9064 58.2518 51.0194C58.3545 51.1323 58.4113 51.2795 58.4113 51.4321L58.4128 51.4266Z" fill="#88857A"/>
<path d="M60.072 64.4245C60.0838 64.4831 60.0896 64.5428 60.0894 64.6025C60.0892 64.7435 60.0568 64.8825 59.9947 65.009L61.8027 67.3284C61.9248 66.9899 61.9893 66.6333 61.9937 66.2735C61.9997 65.6996 62.0024 64.6053 62.004 63.2764L60.072 64.4245Z" fill="#88857A"/>
<path d="M55.9552 53.8512L58.1961 54.0537C58.2367 53.8496 58.3444 53.665 58.502 53.5292L57.7837 52.0402C57.6238 52.0361 57.4717 51.9698 57.3601 51.8552C57.2484 51.7406 57.186 51.5869 57.1862 51.4269C57.1865 51.3828 57.1914 51.3389 57.2008 51.2958C57.0789 51.3106 56.9581 51.3335 56.8392 51.3645C56.4273 51.4877 56.0623 51.7326 55.7921 52.067C55.5219 52.4014 55.3591 52.8097 55.3252 53.2383V53.2486C55.4846 53.2576 55.6356 53.3232 55.7509 53.4335C55.8663 53.5438 55.9386 53.6917 55.9548 53.8505L55.9552 53.8512Z" fill="#88857A"/>
<path d="M55.7831 67.7302C55.783 67.6541 55.798 67.5787 55.827 67.5084C55.8561 67.4381 55.8987 67.3742 55.9525 67.3204C56.0063 67.2665 56.0701 67.2238 56.1404 67.1947C56.2106 67.1655 56.286 67.1505 56.3621 67.1504C56.4235 67.1504 56.4845 67.1602 56.5428 67.1796L58.3465 65.0627C58.29 64.9625 58.2524 64.8528 58.2356 64.7391L54.7388 64.7623C54.6997 64.8987 54.6173 65.0187 54.504 65.1042C54.3907 65.1896 54.2527 65.2358 54.1108 65.2359C54.0481 65.2357 53.9857 65.2264 53.9257 65.2083C53.9394 65.7691 54.1248 66.3123 54.457 66.7643C54.7893 67.2164 55.2523 67.5556 55.7835 67.7361V67.7318L55.7831 67.7302Z" fill="#88857A"/>
<path d="M59.673 65.3804C59.528 65.4762 59.359 65.5295 59.1852 65.5344C59.0114 65.5393 58.8397 65.4955 58.6895 65.408L56.8988 67.5103C56.9274 67.5801 56.9423 67.6548 56.9426 67.7302C56.9426 67.8569 56.901 67.9802 56.8241 68.081C56.7472 68.1818 56.6394 68.2546 56.5172 68.2882C56.8159 68.6284 57.1853 68.8993 57.5995 69.082C58.0138 69.2647 58.463 69.3548 58.9156 69.3459C59.0608 69.3457 59.2057 69.3368 59.3498 69.3194C59.6426 69.2867 59.9284 69.2076 60.1964 69.085C60.7776 68.8205 61.2597 68.3783 61.5734 67.8221L59.6691 65.3804H59.673Z" fill="#88857A"/>
<path d="M54.1096 63.9276C54.1361 63.9275 54.1625 63.9295 54.1886 63.9335L56.4296 59.2553L56.4035 59.2336L53.7154 60.8466C53.7217 60.8905 53.7252 60.9348 53.7256 60.9792C53.7256 61.0984 53.7021 61.2164 53.6565 61.3265C53.6109 61.4367 53.544 61.5367 53.4597 61.621C53.3754 61.7053 53.2754 61.7722 53.1652 61.8178C53.0551 61.8634 52.9371 61.8869 52.8179 61.8869C52.7004 61.8865 52.5842 61.8637 52.4753 61.8198C52.3694 62.1908 52.361 62.5828 52.4509 62.958C52.5407 63.3332 52.7259 63.6788 52.9884 63.9616C53.1365 64.1202 53.304 64.2597 53.4868 64.3768C53.5299 64.2461 53.6131 64.1324 53.7246 64.0518C53.836 63.9713 53.9701 63.9279 54.1077 63.928L54.1096 63.9276Z" fill="#88857A"/>
<path d="M52.8194 60.071C52.9508 60.0708 53.0807 60.0992 53.1999 60.1543C53.3192 60.2094 53.4251 60.2898 53.5101 60.3899L56.1257 58.8208C56.0926 58.7246 56.0758 58.6237 56.0759 58.522C56.0762 58.4756 56.0801 58.4293 56.0878 58.3835L53.9198 57.741C53.8653 57.8034 53.7966 57.8517 53.7193 57.8818C53.6421 57.9119 53.5588 57.9228 53.4765 57.9136C53.3941 57.9045 53.3152 57.8755 53.2465 57.8292C53.1778 57.7829 53.1213 57.7207 53.0819 57.6478C52.6789 58.0223 52.4283 58.5323 52.3782 59.0801C52.3563 59.4331 52.4119 59.7867 52.5412 60.116C52.6315 60.0866 52.726 60.0718 52.821 60.0722L52.8194 60.071Z" fill="#88857A"/>
<path d="M53.2066 56.9951C53.2983 56.9189 53.4137 56.877 53.533 56.8767C53.6483 56.8769 53.7602 56.9155 53.851 56.9865C53.9418 57.0575 54.0063 57.1568 54.0342 57.2686L56.2839 57.9359C56.3712 57.8276 56.4817 57.7402 56.6073 57.6802C56.7328 57.6202 56.8702 57.589 57.0093 57.589C57.0885 57.5895 57.1672 57.5999 57.2438 57.6198L58.5217 54.9594C58.3878 54.8503 58.2869 54.706 58.2305 54.5427L55.8229 54.324C55.7542 54.4163 55.6629 54.4894 55.5577 54.5363C55.4526 54.5831 55.3372 54.6021 55.2226 54.5914C55.108 54.5807 54.9981 54.5408 54.9034 54.4754C54.8087 54.4099 54.7324 54.3213 54.6819 54.2179C53.8369 54.7175 52.9931 55.656 53.1738 56.8226C53.1825 56.8794 53.1944 56.9363 53.2074 56.9931L53.2066 56.9951Z" fill="#88857A"/>
<path d="M72.1265 60.9188C72.1514 60.8896 72.1747 60.8619 72.1921 60.8371C72.578 60.3325 72.7754 59.7089 72.7501 59.0741C72.7206 58.7726 72.6314 58.4799 72.4879 58.213C72.3443 57.9461 72.1492 57.7104 71.9138 57.5196L70.2715 58.5773L70.2921 60.993C70.4473 61.0547 70.5758 61.1692 70.655 61.3163C70.7342 61.4634 70.759 61.6336 70.7251 61.7972C70.6912 61.9608 70.6007 62.1071 70.4696 62.2106C70.3385 62.3141 70.175 62.3681 70.0081 62.3631C69.8411 62.3581 69.6812 62.2943 69.5566 62.1832C69.4319 62.072 69.3504 61.9204 69.3264 61.7551C69.3024 61.5898 69.3374 61.4213 69.4253 61.2793C69.5132 61.1372 69.6484 61.0307 69.807 60.9784L69.7853 58.4506C69.7851 58.4098 69.7951 58.3697 69.8145 58.3338C69.8339 58.2979 69.862 58.2675 69.8962 58.2453L71.9292 56.9323C71.9363 56.896 71.9438 56.8581 71.9497 56.8214C71.9915 56.5186 71.9703 56.2104 71.8876 55.9161C71.8049 55.6218 71.6624 55.3478 71.469 55.111L66.3401 58.0934C66.37 58.2579 66.3409 58.4275 66.258 58.5727C66.1751 58.7178 66.0437 58.829 65.8869 58.8868C65.7301 58.9446 65.5579 58.9453 65.4006 58.8887C65.2434 58.8322 65.1111 58.722 65.0271 58.5775C64.943 58.433 64.9126 58.2636 64.9412 58.0989C64.9697 57.9342 65.0554 57.7849 65.1832 57.6772C65.311 57.5695 65.4727 57.5102 65.6398 57.5099C65.8069 57.5096 65.9688 57.5682 66.097 57.6755L67.302 56.9746V54.3639C67.1448 54.307 67.0128 54.1965 66.9291 54.0519C66.8454 53.9073 66.8153 53.7378 66.8442 53.5732C66.8731 53.4086 66.9591 53.2594 67.0871 53.152C67.215 53.0445 67.3768 52.9856 67.5439 52.9856C67.711 52.9856 67.8728 53.0445 68.0008 53.152C68.1288 53.2594 68.2147 53.4086 68.2436 53.5732C68.2725 53.7378 68.2425 53.9073 68.1587 54.0519C68.075 54.1965 67.943 54.307 67.7859 54.3639V56.6924L71.1371 54.7428C70.8752 54.4927 70.5795 54.2808 70.2585 54.1133C70.0919 54.0309 69.9177 53.9648 69.7383 53.916C69.7962 53.6941 69.8159 53.464 69.7967 53.2356C69.7624 52.8072 69.5994 52.3991 69.3293 52.0649C69.0592 51.7306 68.6944 51.4857 68.2828 51.3621C67.983 51.2884 67.6749 51.2541 67.3663 51.2603C67.3604 51.2327 67.356 51.1976 67.3533 51.1715C67.3451 51.1012 67.3319 51.0316 67.3138 50.9631C67.2355 50.6651 67.0773 50.3942 66.8564 50.1793C66.5596 49.9202 66.1989 49.7453 65.8117 49.6726V54.5664C65.9688 54.6233 66.1008 54.7338 66.1846 54.8784C66.2683 55.023 66.2983 55.1925 66.2695 55.3571C66.2406 55.5217 66.1546 55.6708 66.0266 55.7783C65.8986 55.8857 65.7368 55.9447 65.5697 55.9447C65.4026 55.9447 65.2408 55.8857 65.1129 55.7783C64.9849 55.6708 64.8989 55.5217 64.87 55.3571C64.8411 55.1925 64.8712 55.023 64.9549 54.8784C65.0386 54.7338 65.1707 54.6233 65.3278 54.5664V49.6114C65.2666 49.6087 65.207 49.6087 65.1514 49.6114C64.856 49.6187 64.5657 49.6894 64.3001 49.8188C64.0345 49.9482 63.7999 50.1332 63.6121 50.3613C63.2812 50.8233 63.1295 51.3898 63.1851 51.9553C63.1953 52.9025 63.1922 53.8698 63.1878 54.8051C63.1878 55.2203 63.1851 55.6371 63.1851 56.0523V56.7354C63.1792 60.8442 63.1748 66.3398 63.1851 66.6164C63.1898 66.9682 63.2666 67.3153 63.4108 67.6362C63.4633 67.7475 63.5232 67.855 63.59 67.9583L65.1798 67.09C65.1536 66.9243 65.1867 66.7547 65.2732 66.611C65.3598 66.4673 65.4942 66.3588 65.6529 66.3044C65.8116 66.2501 65.9844 66.2534 66.1409 66.3139C66.2973 66.3744 66.4274 66.4882 66.5083 66.6351C66.5892 66.7821 66.6156 66.9528 66.583 67.1174C66.5504 67.2819 66.4608 67.4297 66.3299 67.5347C66.1991 67.6396 66.0354 67.6951 65.8677 67.6913C65.7 67.6875 65.539 67.6247 65.413 67.5139L63.8888 68.3458C64.3766 68.8863 65.0449 69.2303 65.7683 69.3131C65.9134 69.3304 66.0594 69.3391 66.2056 69.3392C66.7223 69.3521 67.2338 69.2342 67.6927 68.9962C68.1515 68.7583 68.5427 68.4082 68.8298 67.9784C68.8813 67.8977 68.9623 67.8402 69.0555 67.8182C69.06 67.8179 69.0644 67.817 69.0686 67.8154C69.4017 67.7235 69.7173 67.5768 70.0024 67.3813L65.5918 64.7734C65.5556 64.752 65.5256 64.7215 65.5049 64.685C65.4841 64.6484 65.4732 64.607 65.4734 64.565V62.4773C65.3188 62.4141 65.1913 62.2985 65.1135 62.1507C65.0356 62.0029 65.0123 61.8324 65.0477 61.6692C65.0831 61.5059 65.1748 61.3604 65.3069 61.2581C65.4389 61.1557 65.6028 61.1033 65.7697 61.1098C65.9367 61.1163 66.0959 61.1814 66.2196 61.2937C66.3433 61.406 66.4234 61.5583 66.4459 61.7238C66.4685 61.8893 66.432 62.0575 66.3428 62.1987C66.2537 62.34 66.1176 62.4453 65.9585 62.4962V64.43L70.401 67.0569C70.834 66.6384 71.1102 66.0839 71.1833 65.4861L67.8975 63.5835C67.8609 63.562 67.8305 63.5313 67.8094 63.4945C67.7882 63.4577 67.777 63.416 67.7768 63.3735V60.9215C67.6221 60.8584 67.4947 60.7427 67.4168 60.595C67.339 60.4472 67.3157 60.2767 67.3511 60.1134C67.3864 59.9502 67.4782 59.8046 67.6102 59.7023C67.7423 59.6 67.9062 59.5475 68.0731 59.554C68.24 59.5605 68.3993 59.6257 68.523 59.738C68.6466 59.8503 68.7268 60.0025 68.7493 60.1681C68.7718 60.3336 68.7353 60.5017 68.6462 60.643C68.557 60.7843 68.4209 60.8896 68.2618 60.9405V63.2354L71.1825 64.9269C71.1754 64.863 71.1663 64.8002 71.1533 64.7359C71.1462 64.7028 71.1418 64.6691 71.1402 64.6353C71.1812 64.6083 71.2247 64.5854 71.2701 64.567C71.5949 64.4227 71.8876 64.2152 72.1313 63.9564C72.5022 63.56 72.7156 63.0417 72.7314 62.4991C72.7472 61.9564 72.5644 61.4266 72.2173 61.0092C72.1886 60.9756 72.1563 60.9453 72.121 60.9188H72.1265Z" fill="#88857A"/>
<path d="M83.0615 55.8203H81.8581L78.7705 63.4096H79.8504L80.586 61.5709H84.3031L85.0388 63.4096H86.1506L83.0615 55.8203ZM80.9618 60.6383L82.445 56.91L83.9313 60.6383H80.9618Z" fill="#88857A"/>
<path d="M91.9358 63.9539C91.5563 63.6726 91.0919 63.5297 90.6199 63.5489H88.5625C88.3561 63.5592 88.1527 63.4963 87.9882 63.3713C87.9164 63.3156 87.8588 63.2437 87.8203 63.1613C87.7818 63.0789 87.7635 62.9886 87.7668 62.8978C87.7671 62.7744 87.7998 62.6533 87.8615 62.5465C87.9231 62.4334 88.013 62.3381 88.1224 62.2702C88.4916 62.4497 88.898 62.5395 89.3084 62.5323C89.644 62.5416 89.9781 62.4846 90.2916 62.3646C90.6051 62.2446 90.8918 62.064 91.1354 61.833C91.5717 61.4087 91.8329 60.8362 91.8675 60.2287C91.902 59.6212 91.7074 59.0228 91.3221 58.5518C91.3212 58.4675 91.3384 58.384 91.3724 58.3069C91.4065 58.2298 91.4566 58.1608 91.5194 58.1046C91.6583 57.9875 91.8364 57.9271 92.0179 57.9357H92.3924V57.0556H91.9658C91.6592 57.0441 91.3578 57.1366 91.1105 57.3181C90.8831 57.4916 90.7313 57.746 90.6866 58.0285C90.2691 57.7858 89.7941 57.6595 89.3112 57.6626C88.9757 57.6526 88.6415 57.7089 88.3277 57.8281C88.014 57.9474 87.7268 58.1273 87.4826 58.3576C87.2444 58.5787 87.0558 58.8478 86.9292 59.1471C86.8026 59.4465 86.7409 59.7692 86.7481 60.0941C86.7466 60.4323 86.815 60.7671 86.949 61.0776C87.082 61.3789 87.2755 61.6497 87.5174 61.8732C87.2996 61.9931 87.1226 62.1751 87.009 62.3961C86.8857 62.6243 86.822 62.8799 86.8239 63.1393C86.8187 63.3217 86.8549 63.503 86.9296 63.6695C87.0043 63.8361 87.1156 63.9836 87.2553 64.1011C87.5749 64.3585 87.9776 64.4902 88.3876 64.4713H90.4554C90.7337 64.4601 91.0081 64.5405 91.2364 64.7002C91.3332 64.7691 91.4125 64.8596 91.4681 64.9646C91.5238 65.0695 91.5542 65.186 91.5569 65.3048L92.5345 65.0526C92.5161 64.838 92.4534 64.6296 92.3503 64.4405C92.2473 64.2514 92.1061 64.0857 91.9358 63.9539ZM88.1769 59.0041C88.4865 58.7222 88.8902 58.5659 89.309 58.5659C89.7278 58.5659 90.1315 58.7222 90.4411 59.0041C90.7315 59.2947 90.8946 59.6888 90.8946 60.0996C90.8946 60.5105 90.7315 60.9045 90.4411 61.1952C90.1317 61.4765 89.7286 61.6324 89.3104 61.6324C88.8922 61.6324 88.489 61.4765 88.1796 61.1952C87.8893 60.9047 87.7259 60.5109 87.7254 60.1002C87.7249 59.6895 87.8872 59.2953 88.1769 59.0041Z" fill="#88857A"/>
<path d="M98.7243 60.6083C98.7309 60.0836 98.5993 59.5664 98.3426 59.1086C98.096 58.6666 97.7318 58.3015 97.2904 58.0537C96.8347 57.7976 96.3196 57.666 95.7969 57.6721C95.2705 57.6661 94.7516 57.7977 94.2916 58.0537C93.8491 58.2998 93.4827 58.6627 93.2323 59.1027C92.9746 59.5553 92.8418 60.0682 92.8475 60.589C92.838 60.9825 92.911 61.3737 93.0619 61.7372C93.2127 62.1008 93.438 62.4288 93.7233 62.7C94.0135 62.9805 94.3568 63.2 94.7332 63.3457C95.1095 63.4913 95.5112 63.5602 95.9146 63.5481C96.4265 63.5538 96.9329 63.4422 97.395 63.2218C97.8283 63.0156 98.2052 62.7077 98.4938 62.3243L97.8441 61.7651C97.639 62.046 97.3679 62.2722 97.0548 62.4238C96.7119 62.5954 96.3331 62.6828 95.9497 62.6787C95.4531 62.6936 94.9671 62.5332 94.577 62.2256C94.2044 61.9256 93.9534 61.5005 93.8705 61.0294H98.699C98.7159 60.8026 98.7243 60.6623 98.7243 60.6083ZM93.8591 60.1683C93.935 59.7111 94.1703 59.2956 94.5233 58.9954C94.8798 58.7027 95.3265 58.5422 95.7878 58.5411C96.2491 58.54 96.6965 58.6984 97.0544 58.9895C97.4106 59.2898 97.6469 59.7082 97.7202 60.1683H93.8591Z" fill="#88857A"/>
<path d="M102.898 57.6683C103.203 57.6492 103.507 57.695 103.792 57.8027C104.077 57.9104 104.336 58.0775 104.552 58.2928C104.767 58.5082 104.934 58.7669 105.042 59.0518C105.15 59.3368 105.196 59.6414 105.177 59.9454V63.4101H104.23V60.2399C104.24 60.0191 104.206 59.7986 104.13 59.5914C104.053 59.3841 103.935 59.1944 103.784 59.0334C103.627 58.8799 103.44 58.7604 103.235 58.6822C103.03 58.6039 102.811 58.5687 102.592 58.5787C102.364 58.5678 102.136 58.6031 101.922 58.6825C101.708 58.7618 101.512 58.8836 101.347 59.0405C101.189 59.201 101.067 59.3921 100.986 59.6018C100.906 59.8116 100.869 60.0356 100.879 60.26V63.407H99.9316V57.8009H100.882V58.6545C101.106 58.3307 101.409 58.0698 101.763 57.897C102.116 57.7242 102.509 57.6453 102.902 57.6679L102.898 57.6683Z" fill="#88857A"/>
<path d="M109.333 63.5497C108.8 63.5555 108.274 63.4229 107.808 63.165C107.359 62.9175 106.986 62.5517 106.731 62.1073C106.476 61.6498 106.342 61.1347 106.342 60.6109C106.342 60.0872 106.476 59.5721 106.731 59.1146C106.986 58.6699 107.358 58.3039 107.808 58.0569C108.274 57.7989 108.8 57.6663 109.333 57.6721C109.859 57.6656 110.378 57.7966 110.838 58.0522C111.278 58.2924 111.644 58.6481 111.896 59.081L111.074 59.5748C110.905 59.2726 110.656 59.0227 110.354 58.8521C110.044 58.6744 109.692 58.5828 109.335 58.5869C109.068 58.5797 108.802 58.6275 108.555 58.7272C108.307 58.8269 108.082 58.9765 107.895 59.1667C107.526 59.5571 107.32 60.074 107.32 60.6113C107.32 61.1486 107.526 61.6656 107.895 62.056C108.082 62.2461 108.307 62.3957 108.555 62.4954C108.802 62.5952 109.068 62.6429 109.335 62.6357C109.692 62.6393 110.045 62.5467 110.354 62.3677C110.656 62.1957 110.905 61.945 111.074 61.6424L111.896 62.1365C111.644 62.5718 111.277 62.9296 110.835 63.1709C110.376 63.4245 109.86 63.555 109.335 63.5497H109.333Z" fill="#88857A"/>
<path d="M117.232 57.7981H118.289L115.258 64.5948C115.136 64.8992 114.931 65.1633 114.666 65.3569C114.421 65.5362 114.125 65.6322 113.821 65.6308C113.583 65.6278 113.348 65.5768 113.131 65.4808C112.908 65.3902 112.704 65.2571 112.532 65.089L112.93 64.3632C113.02 64.4735 113.134 64.5625 113.263 64.6238C113.392 64.6852 113.533 64.7175 113.676 64.7184C113.832 64.7168 113.985 64.6679 114.114 64.5779C114.242 64.488 114.34 64.3612 114.396 64.2144L114.798 63.3765L112.357 57.7981H113.443L115.337 62.2711L117.227 57.7969L117.232 57.7981Z" fill="#88857A"/>
<path d="M122.848 63.5348C122.307 63.5382 121.772 63.4352 121.271 63.2317C120.8 63.0427 120.371 62.7625 120.008 62.4073C119.65 62.0505 119.367 61.626 119.176 61.1586C118.943 60.588 118.841 59.9722 118.877 59.3568C118.914 58.7415 119.089 58.1422 119.389 57.6035C119.728 57.0105 120.223 56.5222 120.821 56.1918C121.427 55.8653 122.103 55.6897 122.791 55.6801C123.479 55.6705 124.159 55.8271 124.774 56.1366C125.343 56.4277 125.829 56.8582 126.186 57.388L125.064 58.0814C124.824 57.7314 124.501 57.4466 124.124 57.2527C123.731 57.0483 123.293 56.9442 122.85 56.9496C122.501 56.9402 122.153 57.0029 121.829 57.1337C121.505 57.2646 121.212 57.4608 120.967 57.7101C120.481 58.224 120.211 58.904 120.211 59.6107C120.211 60.3175 120.481 60.9975 120.967 61.5114C121.211 61.7606 121.504 61.9569 121.827 62.088C122.15 62.2191 122.497 62.2822 122.846 62.2735C123.289 62.2777 123.727 62.173 124.12 61.9688C124.497 61.7753 124.82 61.4904 125.059 61.14L126.182 61.8335C125.824 62.3629 125.338 62.7933 124.77 63.0849C124.175 63.3916 123.515 63.5487 122.846 63.5423L122.848 63.5348Z" fill="#88857A"/>
<path d="M132.393 59.114C132.136 58.669 131.761 58.3031 131.31 58.0563C130.842 57.7987 130.316 57.6667 129.782 57.6731C129.386 57.6617 128.992 57.7304 128.623 57.8752C128.254 58.0199 127.919 58.2376 127.637 58.5153C127.086 59.0735 126.777 59.8263 126.777 60.6105C126.777 61.3948 127.086 62.1475 127.637 62.7057C127.919 62.9834 128.254 63.2012 128.622 63.3461C128.991 63.491 129.384 63.5601 129.78 63.5491C130.314 63.5558 130.841 63.4233 131.309 63.1647C131.76 62.9188 132.135 62.5527 132.391 62.1071C132.649 61.6504 132.784 61.135 132.784 60.6107C132.785 60.0864 132.65 59.5709 132.393 59.114ZM131.016 61.8533C130.857 62.0186 130.665 62.1489 130.453 62.2357C130.241 62.3225 130.012 62.3639 129.783 62.3573C129.553 62.3631 129.325 62.3218 129.111 62.2359C128.898 62.1499 128.705 62.0212 128.543 61.8576C128.222 61.5221 128.043 61.0756 128.043 60.6111C128.043 60.1466 128.222 59.7001 128.543 59.3646C128.704 59.1997 128.897 59.0699 129.111 58.9832C129.324 58.8965 129.553 58.8547 129.783 58.8606C130.012 58.8541 130.24 58.8953 130.452 58.9816C130.664 59.0679 130.856 59.1974 131.016 59.3618C131.332 59.6994 131.509 60.1448 131.509 60.6076C131.509 61.0703 131.332 61.5158 131.016 61.8533Z" fill="#88857A"/>
<path d="M136.873 57.7033H137.083V58.9709H136.873C136.64 58.9577 136.406 58.9916 136.186 59.0708C135.966 59.1499 135.764 59.2726 135.592 59.4315C135.434 59.5958 135.311 59.7909 135.231 60.0046C135.151 60.2184 135.116 60.4463 135.127 60.6742V63.4033H133.892V57.7952H135.127V58.6169C135.32 58.332 135.58 58.0993 135.885 57.9398C136.19 57.7804 136.529 57.6991 136.873 57.7033Z" fill="#88857A"/>
<path d="M143.369 60.6218C143.38 60.232 143.311 59.844 143.166 59.4817C143.022 59.1195 142.805 58.7906 142.529 58.5152C142.254 58.2385 141.926 58.0211 141.565 57.8762C141.203 57.7314 140.816 57.6622 140.426 57.673C139.899 57.667 139.38 57.7986 138.92 58.0546C138.476 58.301 138.107 58.6636 137.854 59.1036C137.595 59.5556 137.461 60.0687 137.466 60.5899C137.458 60.984 137.532 61.3756 137.685 61.7392C137.837 62.1029 138.064 62.4305 138.351 62.7009C138.646 62.982 138.993 63.2019 139.374 63.3477C139.754 63.4935 140.16 63.5623 140.567 63.5502C141.067 63.5533 141.562 63.4463 142.016 63.2368C142.446 63.0417 142.824 62.7477 143.119 62.3788L142.287 61.6633C142.097 61.9001 141.855 62.0894 141.58 62.2159C141.275 62.3632 140.94 62.4385 140.601 62.4357C140.182 62.4474 139.771 62.3198 139.432 62.073C139.11 61.8372 138.884 61.4932 138.795 61.1041H143.34C143.36 60.9441 143.37 60.7831 143.369 60.6218ZM138.781 60.0946C138.868 59.7213 139.076 59.3873 139.373 59.1446C139.666 58.9061 140.034 58.7786 140.412 58.7847C140.794 58.7788 141.166 58.9061 141.464 59.1446C141.762 59.3849 141.97 59.7202 142.051 60.0946H138.781Z" fill="#88857A"/>
</svg>
