<svg width="569" height="1011" viewBox="0 0 569 1011" fill="none" xmlns="http://www.w3.org/2000/svg">
<path d="M448.118 626.823L407.484 681.536C385.818 700.211 359.264 712.394 330.959 716.771L312.794 719.544C288.574 723.264 263.771 720.711 240.792 712.102C223.94 705.756 208.693 695.981 195.927 683.214L162.224 649.511L134.575 653.159C133.335 653.305 132.095 653.45 130.782 653.596C43.606 662.277 -17.8187 569.484 22.0853 491.573L41.0526 454.587L13.7691 402.135C-14.5358 347.787 1.87799 280.161 53.0894 246.531C54.1837 245.802 55.278 245.145 56.3723 244.416L105.395 214.141L95.4009 184.085C83.5829 148.631 85.3337 110.04 100.362 75.8265C104.884 65.4675 111.523 56.1297 119.912 48.397C141.652 28.2626 163.391 8.56584 198.699 0.0306096H198.991C253.193 -1.06365 295.578 27.3141 335.701 63.7895C335.701 63.7895 336.941 64.519 337.233 64.519L340.588 64.0813C389.173 57.2969 435.497 89.1034 444.762 137.251C444.835 137.616 444.908 138.053 444.981 138.418C445.199 139.804 445.272 141.263 445.199 142.722L442.428 191.453L446.732 191.891C458.696 193.204 469.638 199.259 476.86 208.889C499.621 239.09 509.615 277.389 504.071 315.324L497.359 361.793C524.643 383.679 539.16 411.473 549.884 422.196C552.145 424.458 554.188 427.011 555.647 429.929L556.085 430.805L563.015 451.158C563.015 451.158 575.052 517.251 564.985 534.395L557.398 547.307C533.616 587.868 494.077 616.683 448.19 626.823H448.118Z" fill="#131313"/>
<path d="M293.973 1010.49H260.197L264.647 410.912L276.684 410.693L293.973 1010.49Z" fill="#131313"/>
</svg>
