<svg width="499" height="740" viewBox="0 0 499 740" fill="none" xmlns="http://www.w3.org/2000/svg">
<path d="M269.763 337.898H228.554V740.001H269.763V337.898Z" fill="#C3C1B1"/>
<path d="M281.325 525.98H213.857V535.639H281.325V525.98Z" fill="#AFAC96"/>
<path d="M277.742 535.636H218.7V739.973H277.742V535.636Z" fill="#C3C1B1"/>
<path d="M498.318 41.3446H0V337.868H498.318V41.3446Z" fill="#F3EFD7"/>
<path d="M482.976 57.9465H15.3411V321.279H482.976V57.9465Z" fill="#C0BCA9"/>
<path d="M477.657 63.1654H15.3411V321.275H477.657V63.1654Z" fill="#DE4B34"/>
<path d="M132.278 23.7427H104.87V31.2962H132.278V23.7427Z" fill="#C0BCA9"/>
<path fill-rule="evenodd" clip-rule="evenodd" d="M107.894 23.7398H129.954L129.142 9.53145H111.169L107.894 23.7398Z" fill="#ACA896"/>
<path d="M139.78 23.7427H112.373V31.2962H139.78V23.7427Z" fill="#ACA896"/>
<path fill-rule="evenodd" clip-rule="evenodd" d="M115.396 23.7398H137.457L133.901 9.53145H116.6L115.396 23.7398Z" fill="#9A9684"/>
<path d="M407.92 23.7427H380.513V31.2962H407.92V23.7427Z" fill="#C0BCA9"/>
<path fill-rule="evenodd" clip-rule="evenodd" d="M383.536 23.7398H405.597L404.813 9.53145H386.812L383.536 23.7398Z" fill="#ACA896"/>
<path d="M415.423 23.7427H388.016V31.2962H415.423V23.7427Z" fill="#ACA896"/>
<path fill-rule="evenodd" clip-rule="evenodd" d="M391.039 23.7398H413.127L409.572 9.53145H392.271L391.039 23.7398Z" fill="#9A9684"/>
<path d="M270.099 23.7427H242.692V31.2962H270.099V23.7427Z" fill="#C0BCA9"/>
<path fill-rule="evenodd" clip-rule="evenodd" d="M245.715 23.7398H267.776L266.964 9.53145H248.991L245.715 23.7398Z" fill="#ACA896"/>
<path d="M277.602 23.7427H250.194V31.2962H277.602V23.7427Z" fill="#ACA896"/>
<path fill-rule="evenodd" clip-rule="evenodd" d="M253.218 23.7398H275.278L271.751 9.53145H254.422L253.218 23.7398Z" fill="#9A9684"/>
<path fill-rule="evenodd" clip-rule="evenodd" d="M103.387 0.378753C103.387 0.378753 95.5199 13.6324 81.3543 41.3753H86.2814C105.626 4.05721 92.8883 29.8906 105.626 4.05721C105.626 4.05721 107.586 4.47841 120.156 7.70759C120.156 10.2067 120.156 9.58894 120.156 9.58894H125.615V5.82624C118.224 3.94489 113.521 1.8389 106.27 0.0137157C105.822 -0.0986036 103.863 0.519152 103.415 0.406833L103.387 0.378753Z" fill="#C0BCA9"/>
<path fill-rule="evenodd" clip-rule="evenodd" d="M240.956 0.378753C240.956 0.378753 233.089 13.6324 218.924 41.3753H223.851C243.196 4.05721 230.458 29.8906 243.196 4.05721C243.196 4.05721 245.155 4.47841 257.725 7.70759C257.725 10.2067 257.725 9.58894 257.725 9.58894H263.184V5.82624C255.793 3.94489 251.09 1.8389 243.839 0.0137157C243.392 -0.0986036 241.432 0.519152 240.984 0.406833L240.956 0.378753Z" fill="#C0BCA9"/>
<path fill-rule="evenodd" clip-rule="evenodd" d="M379.029 0.378753C379.029 0.378753 371.162 13.6324 356.997 41.3753H361.924C381.269 4.05721 368.531 29.8906 381.269 4.05721C381.269 4.05721 383.228 4.47841 395.798 7.70759C395.798 10.2067 395.798 9.58894 395.798 9.58894H401.257V5.82624C393.867 3.94489 389.164 1.8389 381.913 0.0137157C381.465 -0.0986036 379.505 0.519152 379.057 0.406833L379.029 0.378753Z" fill="#C0BCA9"/>
<path d="M269.763 337.898H228.554V359.407H269.763V337.898Z" fill="#AFAC96"/>
</svg>
