<svg width="5271" height="304" viewBox="0 0 5271 304" fill="none" xmlns="http://www.w3.org/2000/svg">
<g opacity="0.1">
<path d="M883.574 302.636H796.283V46.9297L817.459 46.7397L817.604 32.2338L853.772 32.1038L854.042 47.0547L870.178 46.7397L870.678 69.0111L883.574 68.9511V302.636Z" fill="#131313"/>
<path d="M1317.75 302.634H1269.73V125.063H1289.39L1289.45 130.779H1299.17L1299.31 140.024L1307.63 141.259L1308.03 234.77L1317.75 234.69V276.708V302.634Z" fill="#131313"/>
<path d="M1131.23 302.63H1082.08V83.1809L1097.16 83.0909L1098.82 0.51566H1114.82L1117.74 82.9259H1131.23V302.63Z" fill="#131313"/>
<path d="M654.384 302.632H596.105V113.585L613.991 113.505L616.681 42.3701H636.262L638.392 113.365H654.384V302.632Z" fill="#131313"/>
<path d="M917.711 302.634H883.574V197.652L894.049 197.607L893.909 158.105H908.15L908.345 197.527H917.711V302.634Z" fill="#131313"/>
<path d="M712.662 302.63H654.384V110.898H683.526L684.536 170.667L697.416 170.537L697.516 177.717L706.152 177.647L706.172 187.193L712.662 187.073V302.63Z" fill="#131313"/>
<path d="M1031.27 302.633H950.762V175.84L961.268 175.985L961.323 134.467L975.534 134.337L975.974 109.316H987.31L987.64 87.7091H1031.27V302.633Z" fill="#131313"/>
<path d="M1186.1 302.635H1269.73V210.484L1258.48 210.589L1258.51 180.107L1243.73 180.322L1243.47 161.921L1231.55 162.141L1231.6 146.44H1186.1V302.635Z" fill="#131313"/>
<path d="M796.283 302.629H712.663V263.671L714.628 263.681V258.971L716.448 258.961L716.278 248.36H718.723L718.043 237.44L720.618 237.39L720.573 227.529L723.268 227.474L723.303 218.003L784.862 217.413L784.987 226.164L788.872 226.064L789.287 236.235L792.408 236.115L792.873 248.64L796.283 248.585V302.629Z" fill="#131313"/>
<path d="M1082.08 200.701H1059.23V302.628H1082.08V200.701Z" fill="#131313"/>
<path d="M1186.1 301.879L1131.23 302.634V212.853L1144.31 212.713L1145.26 184.966L1159.15 149.104L1170.86 184.966L1172 213.433H1186.1V301.879Z" fill="#131313"/>
<path d="M596.105 302.632H484.463V238.048H555.187V243.148L575.724 243.348V246.593L596.105 246.443V302.632Z" fill="#131313"/>
<path d="M1031.27 302.635H1059.23V230.906L1051.21 231.006L1051.33 208.879L1045.25 208.909V194.658L1041.69 194.668L1041.23 170.262H1031.27V302.635Z" fill="#131313"/>
<path d="M950.763 228.445H917.711V302.635H950.763V228.445Z" fill="#131313"/>
<path d="M484.463 302.63H441.035V173.717H447.386L447.596 149.331H477.852L477.782 174.417L484.463 174.502V302.63Z" fill="#131313"/>
<path d="M362.01 302.632H301.996V95.4038L313.292 95.2638V46.3707L318.937 42.1555L319.647 0.00781304H353.535V46.3707L362.01 46.5108V302.632Z" fill="#131313"/>
<path d="M441.035 302.634H362.01L362.01 142.944L369.441 142.919L369.426 111.397L377.776 111.257L377.226 86.9953L388.157 72.3044L394.492 25.6814H405.528L412.323 71.6644L423.929 86.0353L424.649 110.542L433.005 110.322L433.755 145.279L441.035 145.244V302.634Z" fill="#131313"/>
<path d="M301.996 302.63H262.793V154.735H268.519L268.494 126.759H295.921L295.966 155.536L301.996 155.481V302.63Z" fill="#131313"/>
<path d="M262.793 302.633H233.041V199.732L242.172 199.687L243.927 160.964H253.543L254.628 199.612H262.793V302.633Z" fill="#131313"/>
<path d="M233.042 302.637H161.222V73.1825L181.838 73.1374L182.058 60.0666H216.801L217.106 73.5575L233.042 73.1825V302.637Z" fill="#131313"/>
<path d="M161.222 302.635H93.4232L93.2032 164.906L100.524 164.771L97.1334 142.24L108.274 139.87L109.119 122.524L118.605 122.374L118.565 78.501L132.166 78.271L134.586 122.329L144.656 121.984L146.692 139.87L157.382 142.08L153.907 165.236L161.222 165.066V302.635Z" fill="#131313"/>
<path d="M93.6673 219.429H50.0982V302.629H93.6673V219.429Z" fill="#131313"/>
<path d="M50.0982 302.631H0V188.073H7.32046L7.52548 166.402H42.1527L42.3877 188.693L50.0982 188.768V302.631Z" fill="#131313"/>
</g>
<g opacity="0.1">
<path d="M3519.07 302.628H3431.78V46.9219L3452.96 46.7319L3453.1 32.226L3489.27 32.096L3489.54 47.0469L3505.68 46.7319L3506.18 69.0033L3519.07 68.9433V302.628Z" fill="#131313"/>
<path d="M3953.25 302.627H3905.23V125.055H3924.89L3924.95 130.771H3934.67L3934.81 140.016L3943.13 141.251L3943.53 234.762L3953.25 234.682V276.7V302.627Z" fill="#131313"/>
<path d="M3766.73 302.622H3717.58V83.1731L3732.66 83.0831L3734.32 0.507847H3750.32L3753.24 82.9181H3766.73V302.622Z" fill="#131313"/>
<path d="M3289.88 302.624H3231.61V113.577L3249.49 113.497L3252.18 42.3623H3271.76L3273.89 113.357H3289.88V302.624Z" fill="#131313"/>
<path d="M3553.21 302.626H3519.07V197.644L3529.55 197.599L3529.41 158.097H3543.65L3543.84 197.519H3553.21V302.626Z" fill="#131313"/>
<path d="M3348.16 302.623H3289.88V110.89H3319.03L3320.04 170.659L3332.92 170.529L3333.02 177.71L3341.65 177.64L3341.67 187.185L3348.16 187.065V302.623Z" fill="#131313"/>
<path d="M3666.77 302.625H3586.26V175.832L3596.77 175.977L3596.82 134.459L3611.03 134.329L3611.47 109.308H3622.81L3623.14 87.7013H3666.77V302.625Z" fill="#131313"/>
<path d="M3821.6 302.627H3905.23V210.476L3893.98 210.581L3894.01 180.099L3879.23 180.314L3878.97 161.913L3867.05 162.133L3867.1 146.432H3821.6V302.627Z" fill="#131313"/>
<path d="M3431.78 302.621H3348.16V263.663L3350.13 263.673V258.963L3351.95 258.953L3351.78 248.352H3354.22L3353.54 237.432L3356.12 237.382L3356.07 227.521L3358.77 227.466L3358.8 217.996L3420.36 217.406L3420.49 226.156L3424.37 226.056L3424.79 236.227L3427.91 236.107L3428.37 248.632L3431.78 248.578V302.621Z" fill="#131313"/>
<path d="M3717.58 200.693H3694.73V302.62H3717.58V200.693Z" fill="#131313"/>
<path d="M3821.6 301.871L3766.73 302.626V212.845L3779.81 212.705L3780.76 184.958L3794.65 149.096L3806.36 184.958L3807.5 213.425H3821.6V301.871Z" fill="#131313"/>
<path d="M3231.6 302.624H3119.96V238.04H3190.69V243.14L3211.22 243.34V246.585L3231.6 246.435V302.624Z" fill="#131313"/>
<path d="M3666.77 302.627H3694.73V230.898L3686.71 230.998L3686.83 208.871L3680.75 208.901V194.65L3677.19 194.66L3676.73 170.254H3666.77V302.627Z" fill="#131313"/>
<path d="M3586.26 228.438H3553.21V302.627H3586.26V228.438Z" fill="#131313"/>
<path d="M3119.96 302.622H3076.54V173.709H3082.89L3083.1 149.323H3113.35L3113.28 174.409L3119.96 174.494V302.622Z" fill="#131313"/>
<path d="M2997.51 302.624H2937.5V95.396L2948.79 95.256V46.3629L2954.44 42.1477L2955.15 0H2989.03V46.3629L2997.51 46.5029V302.624Z" fill="#131313"/>
<path d="M3076.54 302.626H2997.51L2997.51 142.936L3004.94 142.911L3004.93 111.389L3013.28 111.249L3012.73 86.9875L3023.66 72.2966L3029.99 25.6736H3041.03L3047.82 71.6565L3059.43 86.0275L3060.15 110.534L3068.51 110.314L3069.26 145.271L3076.54 145.236V302.626Z" fill="#131313"/>
<path d="M2937.5 302.622H2898.29V154.728H2904.02L2903.99 126.751H2931.42L2931.47 155.528L2937.5 155.473V302.622Z" fill="#131313"/>
<path d="M2898.29 302.625H2868.54V199.724L2877.67 199.679L2879.43 160.956H2889.04L2890.13 199.604H2898.29V302.625Z" fill="#131313"/>
<path d="M2868.54 302.629H2796.72V73.1746L2817.34 73.1296L2817.56 60.0588H2852.3L2852.61 73.5497L2868.54 73.1746V302.629Z" fill="#131313"/>
<path d="M2796.72 302.627H2728.92L2728.7 164.899L2736.02 164.764L2732.63 142.232L2743.77 139.862L2744.62 122.516L2754.1 122.366L2754.06 78.4932L2767.67 78.2632L2770.09 122.321L2780.16 121.976L2782.19 139.862L2792.88 142.072L2789.41 165.229L2796.72 165.059V302.627Z" fill="#131313"/>
<path d="M2729.17 219.421H2685.6V302.622H2729.17V219.421Z" fill="#131313"/>
<path d="M2685.6 302.623H2635.5V188.066H2642.82L2643.03 166.394H2677.65L2677.89 188.686L2685.6 188.761V302.623Z" fill="#131313"/>
</g>
<g opacity="0.1">
<path d="M2201.32 303.144H2114.03V47.4376L2135.21 47.2475L2135.35 32.7416L2171.52 32.6116L2171.79 47.5626L2187.93 47.2475L2188.43 69.519L2201.32 69.4589V303.144Z" fill="#131313"/>
<path d="M2635.5 303.142H2587.48V125.571H2607.14L2607.2 131.286H2616.92L2617.06 140.532L2625.39 141.767L2625.78 235.278L2635.5 235.198V277.216V303.142Z" fill="#131313"/>
<path d="M2448.98 303.138H2399.83V83.6887L2414.91 83.5987L2416.57 1.02351H2432.57L2435.49 83.4337H2448.98V303.138Z" fill="#131313"/>
<path d="M1972.13 303.139H1913.86V114.092L1931.74 114.012L1934.43 42.8779H1954.01L1956.14 113.872H1972.13V303.139Z" fill="#131313"/>
<path d="M2235.46 303.142H2201.32V198.16L2211.8 198.115L2211.66 158.612H2225.9L2226.1 198.035H2235.46V303.142Z" fill="#131313"/>
<path d="M2030.41 303.138H1972.13V111.406H2001.28L2002.29 171.175L2015.17 171.045L2015.27 178.225L2023.9 178.155L2023.92 187.701L2030.41 187.581V303.138Z" fill="#131313"/>
<path d="M2349.02 303.141H2268.51V176.348L2279.02 176.493L2279.07 134.975L2293.28 134.845L2293.72 109.823H2305.06L2305.39 88.217H2349.02V303.141Z" fill="#131313"/>
<path d="M2503.85 303.142H2587.48V210.992L2576.23 211.097L2576.26 180.615L2561.48 180.83L2561.22 162.429L2549.31 162.649L2549.35 146.948H2503.85V303.142Z" fill="#131313"/>
<path d="M2114.03 303.137H2030.41V264.179L2032.38 264.189V259.479L2034.2 259.469L2034.03 248.868H2036.47L2035.79 237.947L2038.37 237.897L2038.32 228.037L2041.02 227.982L2041.05 218.511L2102.61 217.921L2102.74 226.672L2106.62 226.572L2107.04 236.742L2110.16 236.622L2110.62 249.148L2114.03 249.093V303.137Z" fill="#131313"/>
<path d="M2399.83 201.209H2376.98V303.136H2399.83V201.209Z" fill="#131313"/>
<path d="M2503.85 302.386L2448.98 303.142V213.361L2462.06 213.221L2463.01 185.474L2476.9 149.612L2488.61 185.474L2489.75 213.941H2503.85V302.386Z" fill="#131313"/>
<path d="M1913.86 303.139H1802.21V238.555H1872.94V243.656L1893.47 243.856V247.101L1913.86 246.951V303.139Z" fill="#131313"/>
<path d="M2349.02 303.143H2376.99V231.413L2368.96 231.513L2369.08 209.387L2363 209.417V195.166L2359.44 195.176L2358.98 170.77H2349.02V303.143Z" fill="#131313"/>
<path d="M2268.51 228.953H2235.46V303.143H2268.51V228.953Z" fill="#131313"/>
<path d="M1802.21 303.138H1758.79V174.225H1765.14L1765.35 149.838H1795.6L1795.53 174.925L1802.21 175.01V303.138Z" fill="#131313"/>
<path d="M1679.76 303.14H1619.75V95.9117L1631.04 95.7717V46.8786L1636.69 42.6633L1637.4 0.51566H1671.29V46.8786L1679.76 47.0186V303.14Z" fill="#131313"/>
<path d="M1758.79 303.142H1679.76L1679.76 143.452L1687.19 143.427L1687.18 111.905L1695.53 111.765L1694.98 87.5032L1705.91 72.8122L1712.24 26.1893H1723.28L1730.07 72.1722L1741.68 86.5431L1742.4 111.05L1750.76 110.83L1751.51 145.787L1758.79 145.752V303.142Z" fill="#131313"/>
<path d="M1619.75 303.138H1580.54V155.243H1586.27L1586.24 127.267H1613.67L1613.72 156.043L1619.75 155.988V303.138Z" fill="#131313"/>
<path d="M1580.54 303.141H1550.79V200.239L1559.92 200.194L1561.68 161.472H1571.29L1572.38 200.119H1580.54V303.141Z" fill="#131313"/>
<path d="M1550.79 303.145H1478.97V73.6903L1499.59 73.6453L1499.81 60.5745H1534.55L1534.86 74.0653L1550.79 73.6903V303.145Z" fill="#131313"/>
<path d="M1478.97 303.143H1411.17L1410.95 165.414L1418.27 165.279L1414.88 142.748L1426.02 140.378L1426.87 123.032L1436.36 122.882L1436.32 79.0089L1449.92 78.7788L1452.34 122.837L1462.41 122.492L1464.44 140.378L1475.13 142.588L1471.66 165.744L1478.97 165.574V303.143Z" fill="#131313"/>
<path d="M1411.42 219.937H1367.85V303.137H1411.42V219.937Z" fill="#131313"/>
<path d="M1367.85 303.139H1317.75V188.581H1325.07L1325.28 166.91H1359.9L1360.14 189.201L1367.85 189.276V303.139Z" fill="#131313"/>
</g>
<g opacity="0.1">
<path d="M4836.82 303.136H4749.53V47.4297L4770.71 47.2397L4770.85 32.7338L4807.02 32.6038L4807.29 47.5547L4823.43 47.2397L4823.93 69.5111L4836.82 69.4511V303.136Z" fill="#131313"/>
<path d="M5271 303.135H5222.98V125.563H5242.64L5242.7 131.279H5252.42L5252.56 140.524L5260.88 141.759L5261.28 235.27L5271 235.19V277.208V303.135Z" fill="#131313"/>
<path d="M5084.48 303.13H5035.33V83.6809L5050.41 83.5909L5052.07 1.01569H5068.07L5070.99 83.4259H5084.48V303.13Z" fill="#131313"/>
<path d="M4607.63 303.132H4549.36V114.085L4567.24 114.005L4569.93 42.8701H4589.51L4591.64 113.865H4607.63V303.132Z" fill="#131313"/>
<path d="M4870.96 303.134H4836.82V198.152L4847.3 198.107L4847.16 158.605H4861.4L4861.6 198.027H4870.96V303.134Z" fill="#131313"/>
<path d="M4665.91 303.13H4607.63V111.398H4636.78L4637.79 171.167L4650.67 171.037L4650.77 178.217L4659.4 178.147L4659.42 187.693L4665.91 187.573V303.13Z" fill="#131313"/>
<path d="M4984.52 303.133H4904.01V176.34L4914.52 176.485L4914.57 134.967L4928.78 134.837L4929.22 109.816H4940.56L4940.89 88.2092H4984.52V303.133Z" fill="#131313"/>
<path d="M5139.35 303.135H5222.98V210.984L5211.73 211.089L5211.76 180.607L5196.98 180.822L5196.72 162.421L5184.81 162.641L5184.85 146.94H5139.35V303.135Z" fill="#131313"/>
<path d="M4749.53 303.129H4665.91V264.171L4667.88 264.181V259.471L4669.7 259.461L4669.53 248.86H4671.97L4671.29 237.94L4673.87 237.89L4673.82 228.029L4676.52 227.974L4676.55 218.503L4738.11 217.913L4738.24 226.664L4742.12 226.564L4742.54 236.735L4745.66 236.615L4746.12 249.14L4749.53 249.085V303.129Z" fill="#131313"/>
<path d="M5035.33 201.201H5012.48V303.128H5035.33V201.201Z" fill="#131313"/>
<path d="M5139.35 302.379L5084.48 303.134V213.353L5097.56 213.213L5098.51 185.466L5112.4 149.604L5124.11 185.466L5125.25 213.933H5139.35V302.379Z" fill="#131313"/>
<path d="M4549.36 303.132H4437.71V238.548H4508.44V243.648L4528.97 243.848V247.093L4549.36 246.943V303.132Z" fill="#131313"/>
<path d="M4984.52 303.135H5012.49V231.406L5004.46 231.506L5004.58 209.379L4998.5 209.409V195.158L4994.94 195.168L4994.48 170.762H4984.52V303.135Z" fill="#131313"/>
<path d="M4904.01 228.945H4870.96V303.135H4904.01V228.945Z" fill="#131313"/>
<path d="M4437.71 303.13H4394.29V174.217H4400.64L4400.85 149.831H4431.1L4431.03 174.917L4437.71 175.002V303.13Z" fill="#131313"/>
<path d="M4315.26 303.132H4255.25V95.9039L4266.54 95.7639V46.8708L4272.19 42.6555L4272.9 0.507847H4306.79V46.8708L4315.26 47.0108V303.132Z" fill="#131313"/>
<path d="M4394.29 303.134H4315.26L4315.26 143.444L4322.69 143.419L4322.68 111.897L4331.03 111.757L4330.48 87.4954L4341.41 72.8044L4347.74 26.1815H4358.78L4365.57 72.1644L4377.18 86.5353L4377.9 111.042L4386.26 110.822L4387.01 145.779L4394.29 145.744V303.134Z" fill="#131313"/>
<path d="M4255.25 303.13H4216.04V155.235H4221.77L4221.74 127.259H4249.17L4249.22 156.036L4255.25 155.981V303.13Z" fill="#131313"/>
<path d="M4216.04 303.133H4186.29V200.232L4195.42 200.187L4197.18 161.464H4206.79L4207.88 200.112H4216.04V303.133Z" fill="#131313"/>
<path d="M4186.29 303.137H4114.47V73.6825L4135.09 73.6375L4135.31 60.5667H4170.05L4170.36 74.0575L4186.29 73.6825V303.137Z" fill="#131313"/>
<path d="M4114.47 303.135H4046.67L4046.45 165.407L4053.77 165.272L4050.38 142.74L4061.52 140.37L4062.37 123.024L4071.85 122.874L4071.81 79.001L4085.42 78.771L4087.84 122.829L4097.91 122.484L4099.94 140.37L4110.63 142.58L4107.16 165.737L4114.47 165.567V303.135Z" fill="#131313"/>
<path d="M4046.92 219.929H4003.35V303.129H4046.92V219.929Z" fill="#131313"/>
<path d="M4003.35 303.131H3953.25V188.573H3960.57L3960.78 166.902H3995.4L3995.64 189.193L4003.35 189.268V303.131Z" fill="#131313"/>
</g>
</svg>
