<svg width="78" height="139" viewBox="0 0 78 139" fill="none" xmlns="http://www.w3.org/2000/svg">
<path d="M61.429 85.9263L55.8588 93.4265C52.8888 95.9866 49.2487 97.6566 45.3686 98.2567L42.8785 98.6367C39.5584 99.1467 36.1583 98.7967 33.0083 97.6166C30.6982 96.7466 28.6082 95.4066 26.8581 93.6566L22.238 89.0365L18.4479 89.5365C18.2779 89.5565 18.1079 89.5765 17.9279 89.5965C5.97761 90.7865 -2.44263 78.0662 3.02751 67.3859L5.62758 62.3158L1.8875 55.1256C-1.9926 47.6754 0.257439 38.4052 7.27762 33.7951C7.42762 33.695 7.57763 33.605 7.72764 33.505L14.4478 29.3549L13.0778 25.2348C11.4577 20.3747 11.6977 15.0846 13.7578 10.3945C14.3778 8.97444 15.2878 7.69439 16.4378 6.63437C19.4179 3.8743 22.398 1.17423 27.2381 0.00419603H27.2781C34.7083 -0.145808 40.5185 3.74428 46.0186 8.74441C46.0186 8.74441 46.1886 8.84441 46.2286 8.84441L46.6886 8.78441C53.3488 7.85439 59.6989 12.2145 60.969 18.8147C60.979 18.8647 60.989 18.9247 60.999 18.9747C61.029 19.1647 61.039 19.3647 61.029 19.5647L60.649 26.2448L61.239 26.3048C62.879 26.4848 64.3791 27.3149 65.3691 28.6349C68.4892 32.775 69.8592 38.0251 69.0992 43.2253L68.1792 49.5955C71.9193 52.5955 73.9093 56.4056 75.3793 57.8756C75.6893 58.1856 75.9694 58.5357 76.1694 58.9357L76.2294 59.0557L77.1794 61.8458C77.1794 61.8458 78.8294 70.906 77.4494 73.256L76.4094 75.0261C73.1493 80.5862 67.7291 84.5363 61.439 85.9263H61.429Z" fill="#C3C1B1"/>
<path d="M40.2985 138.52H35.6684L36.2784 56.3283L37.9284 56.2983L40.2985 138.52Z" fill="#C3C1B1"/>
</svg>
