<?xml version="1.0" encoding="UTF-8"?>
<svg id="Layer_1" data-name="Layer 1" xmlns="http://www.w3.org/2000/svg" viewBox="0 0 1440 1440">
  <path d="M447.99,817.35l22.62-3.83.34,3.8,19.41-2.43.02-4.33,36.27-2.63s-2.85-.06,4.27.13c3.73.1,14.24,3.57,19.59,2.08,7.4-2.05,11.86-9.91,9.3-17.15-.37-1.06-.89-2.07-1.58-2.98-4.83-6.39-10.29-12.43-19.45-10.01s-14.87,8.72-14.87,8.72l-34.83-1.9v-4.27l-15.97-.91-.35,4.62-19.9-1.09s-44.43-13.29-64.8-25.37-33.71-8.43-33.71-8.43c-8.68,0-21.76,3.87-21.76,3.87l-9.06.15s-5.06,1.44-8.99-3.72c-6.42-8.41-4.39-6.71-4.39-6.71,2.77-2.04,5.25-4.57,7.7-6.97,3.64-3.56,8.71-7.46,9.18-12.85.38-4.35-1.17-9.39-4.89-11.97-2.3-1.59-5.35-2.08-7.19-4.32-.07-.09-1.58-.95-1.59-.94l1.32-1.45-5.67-2.65s-1.12.13.5-1.52c1.84-1.88,3.53-4.07.98-7.63-1.16-1.62-3.6-3.32-5.56-3.5-3.15-.29-12.62.88-12.62.88l-.63-1.1-1.64-2.65-1.89,1.32c-1.5-2.94-11.39-9.38-11.39-9.38l.58-1.08-2.38-2.27c-10.77-8.65-20.85-5.16-32.1,5.23-4.26,3.93-16.92,15.48-20.43,22.67-9.73,19.92,7.49,27.04,21.34,36.15,7.49,4.93,31.66,20.94,33.9,25.39,2.5,4.96,4.18,15.47,3.14,18.89l-14.83,15.72s-4.54,2.19-8.08,16.09-25.49,82.34-25.49,82.34c0,0-3.45,20.76,9.79,23.37,16.66,3.28,25.13-16.2,25.13-16.2l33.34-49.69c64.1,87.84,62.69,90.83,64.28,92.42.22.22,9.76-6.43,9.76-6.43l3.2,7.62-.8,120.43.81,165.25h10.04l-.48,8.87s-14.79,18.3-13.36,27.88h41.44s-1.13-19.73-5.53-23.74l1.04-13.6,12.17-.47,2.22-146.85,8.12-133.86,132.43-4.15,104.01,53.99,4.27-6.86,11.72,6.7s8.32,13.7,14.71,16.81,9.39,1.45,12.5-2,30.82-21.11,30.82-21.11c0,0,10.01-8.63,9.58-15.54s-7.9-11.65-17.48-7.25-34.71,10.1-34.71,10.1l-13.52-8.72s4.68-10.05,4.81-10.05-108.02-62.38-108.02-62.38l-141.76-9.01-1.79-1.55,7.76-8.05-60.01-75.94,59.06,8Z"/>
</svg>