<?xml version="1.0" encoding="UTF-8"?>
<svg id="Layer_1" data-name="Layer 1" xmlns="http://www.w3.org/2000/svg" viewBox="0 0 1440 1440">
  <path d="M481.32,771.31c-.11-1.09-4.73-5.2-5.18-6.22-3.22-7.33-4.52-8.25-13.99-7.77-12.02.6-3.19,30.04-3.19,30.04l-11.29,33.97-3.32-1.25-4.22,12.64s-10.49-13.5-26.47-51.06c-2.94-6.91-15.57-17.56-19.36-17.83-1.38-.09-2.48-1.19-2.63-2.56l1.15-9.68c3.16-1.34,16.41,1.89,19.84,1.61,6.06-.49,9.21-6.46,9.9-9.36,1.01-4.26-.63-13.27-.64-13.28l1.98-.06-1.72-5.94s9.08-.08,8.19-6.94c-.63-4.84-8.01-11.67-8.01-11.67v-4.3s-2.89.39-2.89.39c1.2-7.55-.44-20.47-.44-20.47l1.8-.8-2.09-6.73c-1.12-6.27-9.33-11.59-14.54-12.52-4.99-.9-41.4-4.74-50.03,4.41-6.53,6.92-2.48,33.67.56,52.72,1.69,10.6,2.42,21.58,2.42,21.58,0,0-2.63,14.78-12.06,21.24l-21.35,11.68s-8.03,3.02-14.38,16.14c-6.66,13.78-21.42,81.45-21.42,81.45,0,0-6.8,20.77,6.43,23.46,15.25,3.1,19.17-1.04,19.17-1.04,0,0-2.6,36.44-2.67,47.91,0,.3,11.09,1.64,11.09,1.64,0,0-4.77,28.92-1.62,42.3,7.08,30.06,29.35,122.59,29.35,122.59l-16.96,123.81,14.91,1.87-.18,6.94s-7.62,17.13-5.89,21.35c1.74,4.22,25.12,11.01,25.12,11.01,0,0,54.03,5.16,50.89-.52-3.14-5.67-14.14-11.35-20.51-19.33-6.38-7.98-6.85-9.9-6.85-9.9l.94-9.62,13.08.65,33.97-122.2c9.17-15.83,2.84-28.03,2.84-28.03l-43.59-138.71-.74-5.35,12.32-1.05c2.73-.47,4.62-2.99,4.31-5.73l-4.97-77.52,27.89,27.12c1.79,1.29,3.97,1.88,6.26,1.95,6.59.2,12.51-4.04,14.91-10.19l5.63-27.74,2.6.58,3.6-20-2.55-.5,7.6-35.33s7.88-12.16,6.99-19.86Z"/>
</svg>