<?xml version="1.0" encoding="UTF-8"?>
<svg id="Layer_1" data-name="Layer 1" xmlns="http://www.w3.org/2000/svg" viewBox="0 0 1440 1440">
  <path d="M292.41,1241.23s-3.75,3.11-4.79,4.11c-4.39,4.22-5.35,19.89-5.8,23.02l6.55,3.5,117.08-.4c-.04-1.04-.48-2.03-1.25-2.76-12.03-11.48-18.97-10.56-37.89-22.25l.5-13.76,12.61.27c.07,4.55,5.43-65.42,10.1-122.71l4.57-137.88-.33-39.51s8.62.08,8.39-.25l-4.21-63.65s11.27,7.21,19.64,4.27c9.52-3.34,4.79-40.28,4.79-40.28l5.83.55-.86-18.35-6.39-.12s-3.92-42.18-3.4-43.98c3.58-12.39,2.44-10.47,2.94-14.99,2.02-18.36-3.09-17.69-4.68-20.1-1.03-1.57-3.28-3.12-4.66-3.99-.74-.46-1.24-1.22-1.38-2.08-.92-5.9-4.6-24.23-9.4-23.29-.63.12-1.1.61-1.42,1.08-.4-1.79-.83-3.56-1.1-5.09-.01-.11-.34-1.96-.35-1.96l1.45-.2-.76-3.98s-1.02-.52,1.3-.97c2.64-.52,5.23-3.69,5.37-6.15.12-1.97-1.14-4.11-2.47-5.57l-11.21-9,.1-1.25.61-3.32-1.96-.5c.42-3.25-4.17-13.67-4.17-13.67l1.1.07.1-4.17c-2.54-15.69-24.44-11.21-44.22-9.56-19.6,1.64-27.02,13.56-28.06,22.45-1.03,8.89,21.35,51.54,21.35,51.54,0,0,2.39,5.18-.58,17.7-1.91,8.02-12.69,24.33-18.69,32.72-10.54,14.76-5.72,34.45-5.83,46.36-.51,57.06,3.18,109.62,2.66,114.63-.39,3.85,5.9,4.68,5.9,4.68-6.21,6.61-10.15,12.46-10.71,35.05-.6,24.43,1.55,29.5-.35,78.37-1.01,26.02-6.3,71.91-6.3,71.91l-20.58,109.17,13.17.49-2.29,13.81ZM376,732.57c.07-.36.13-.74.34-1.04.58-.84,2.36-.15,3.17-.04,1.36.19,12.33.22,14.95-1.38,2.35-1.44,3.72-3.95,4.39-6.56.54-2.06.86-4.87.94-7,0-.18,0-.37,0-.55l3.03,16.12c-1.23.29-2.16.9-3.26,1.45-1.44.72-2.73,1.15-3.68,2.57-.4.6-.69,1.27-1.13,1.85s-1.09,1.05-1.81,1.04c-.81-.02-1.47-.63-2.1-1.14s-1.49-.97-2.23-.63c-.84.38-.98,1.5-.99,2.43l-.15,10.56c-.02,1.49-.08,2.7-.49,4.11s-.49,3.03-.33,4.46c.46,3.98,12.52,11.95,12.52,11.95l.83,44.71-4.88.22.15,7.15c.07-1.11-12.16-49.74-11.83-55.67.76-13.44-7.57-21-7.34-21.93.46-1.92-.4-10.96-.12-12.66ZM316.47,1229.49l8.65,1.1,9.88-44.74-2.24,48,11.89.19-.28,10.86s-2.55,3.2-3.24,4.66c-1.17,2.46-2.94,7.38-2.94,7.38l-10.61-7.92c-2.27-2.18-4.74-4.14-7.38-5.85l-5.03-3.26,1.29-10.42Z"/>
</svg>