<?xml version="1.0" encoding="UTF-8"?>
<svg id="Layer_1" data-name="Layer 1" xmlns="http://www.w3.org/2000/svg" viewBox="0 0 1440 1440">
  <path d="M308.98,751.69c-6.42-8.41-5.39-9.71-5.39-9.71,3.36-2.48,6.33-3.98,9.66-6.5,2.08-1.58,4.06-3.45,5.02-5.94,1.13-2.91.8-6.4.02-9.35-.55-2.1-1.59-4.03-3.32-5.44-2.32-1.88-5.11-3.58-7.01-5.91-.07-.09-1.58-.95-1.59-.94l1.32-1.45-5.67-2.65s-1.12.13.5-1.52c1.84-1.88,3.53-4.07.98-7.63-1.16-1.62-3.25-2.8-5.15-3.29l-13.03.67-.63-1.1-1.38-3.1-1.87.66c-1.5-2.94-11.66-8.26-11.66-8.26l.58-1.08-2.38-2.27c-10.77-8.65-23.89-2.66-35.13,7.72-4.26,3.93-12.85,15.32-12.85,15.32-19.68,21.91,1.94,31.89,15.79,41,7.49,4.93,18.81,9.28,25.9,14.17,4.1,2.83,9.13,6.96,10.26,11.81,1.44,6.23,4.31,15.51,3.27,18.93l-13.21,12.5s-3.54,5.78-7.08,19.68-22.49,79.34-22.49,79.34c0,0-3.45,20.76,9.79,23.37,16.66,3.28,24.13-16.2,24.13-16.2l31.34-48.69s16.97,26.31,34.35,50.56c15.61,21.77,31.82,41.75,31.93,41.85.22.22,9.76-6.43,9.76-6.43l5.14,8.37-4.17,118.33,1.34,167.12h10.04l.52,8.87s-14.89,18.78-13.47,28.36h41.44s-2.46-20.85-6.86-24.86l.06-12.11,12.17-.47,4.26-147.18,8.34-136.98,138.39-17.35,130.01,6.04,2.42-8.46h10.01s11.91,11.91,18.3,15.02,5.53-.13,8.63-3.58,29.87-28.92,29.87-28.92c0,0,10.1-9.41,9.67-16.32s-2.85-9.32-12.43-4.92-40.75,20.63-40.75,20.63l-9.15,1.63-5.15-2.1s-.23-10.4-.1-10.4-134.44-14.27-134.44-14.27l-136.88,2.62-1.79-1.55,4.76-4.05-65.38-81.53,67.52,8.31,7.2.17-.95,4.58,19.08,3.19.69-4.92,33.8,2.68s10.71,10.27,25.47,11.57,19.86.86,19.94-4.58,9.15-10.96,1.55-18.39-29.14-12.82-32.42-9.88-12,.35-12,.35l-31.68-7.17,1.04-4.23-18.65-4.66-.86,3.97s-97.25-34.36-105.93-34.36-20.42,2.94-20.42,2.94l-16.96,4.1s-2.06-.56-5.99-5.72Z"/>
</svg>