<?xml version="1.0" encoding="UTF-8"?>
<svg id="Layer_1" data-name="Layer 1" xmlns="http://www.w3.org/2000/svg" viewBox="0 0 1440 1440">
  <path d="M299.88,756.74c-6.42-8.41-4.39-6.71-4.39-6.71,3.36-2.48,12.82-11,13.78-13.49,1.13-2.91.8-6.4.02-9.35-.55-2.1-1.59-4.03-3.32-5.44-2.32-1.88-5.41-3.54-7.84-4.8-.1-.05-1.58-.95-1.59-.94l1.15-1.56-5.82-2.23s-1.12.13.5-1.52c1.84-1.88,3.53-4.07.98-7.63-1.16-1.62-3.6-3.32-5.56-3.5-3.15-.29-13.19.82-13.19.82l-.63-1.1-1.64-2.65-1.89,1.32c-1.5-2.94-13.82-6.33-13.82-6.33l.58-1.08-2.38-2.27c-10.77-8.65-19.18-3.42-29.55,5.16-4.47,3.69-14.83,15.92-17.83,23.34-11.35,28.06,5.66,28.92,20.11,37.06,8.89,5.01,33.81,15.45,36.05,19.9,2.5,4.96,9.23,18.88,8.19,22.3l-10.88,9.71s-2.45-.63-5.99,13.27-25.49,86.34-25.49,86.34c0,0-3.45,20.76,9.79,23.37,16.66,3.28,25.13-16.2,25.13-16.2l34.34-50.69s78.18,86.32,78.28,86.42c.22.22,9.76-6.43,9.76-6.43l3.2,7.62-5.8,120.43-3.19,166.25h10.04l.52,8.87s-18.79,18.3-17.36,27.88h41.44s.87-19.73-3.53-23.74l1.04-13.6,12.17-.47,8.22-146.85,10.12-142.86,117.69-33.16,152.41-40.78.47-10.24h10.01s11.09,7.05,17.48,10.16,5.53-.13,8.63-3.58,25.88-34.43,25.88-34.43c0,0,9.26-11.31,8.83-18.22s-4.27-10.08-13.86-5.68-38.46,32.19-38.46,32.19l-14.89.14s.58-10.04.71-10.04-153.87,29.84-153.87,29.84l-117.67,20.32-1.79-1.55,4.76-4.05-71.36-69.88,71.7,11.82-.95,4.58,20.08,4.19.69-4.92,31.8,11.68s9.71,9.27,24.47,10.57,19.86.86,19.94-4.58,9.15-10.96,1.55-18.39-29.14-12.82-32.42-9.88-12,.35-12,.35l-28.68-12.17,1.04-4.23-18.65-8.66-.86,3.97s-95.25-39.36-103.93-39.36-20.42,1.94-20.42,1.94l-23.06,7.15s-5.06,1.44-8.99-3.72Z"/>
</svg>