<?xml version="1.0" encoding="UTF-8"?>
<svg id="Layer_1" data-name="Layer 1" xmlns="http://www.w3.org/2000/svg" viewBox="0 0 1440 1440">
  <path d="M307.54,753.68c-6.42-8.41-4.39-6.71-4.39-6.71,3.36-2.48,14.16-12.94,15.12-15.42,1.13-2.91.8-6.4.02-9.35-.55-2.1-1.59-4.03-3.32-5.44-2.32-1.88-6.11-2.58-8.01-4.91-.07-.09-1.58-.95-1.59-.94l1.32-1.45-5.67-2.65s-1.12.13.5-1.52c1.84-1.88,3.53-4.07.98-7.63-1.16-1.62-3.6-3.32-5.56-3.5-3.15-.29-12.62.88-12.62.88l-.63-1.1-1.64-2.65-1.89,1.32c-1.5-2.94-13.39-7.38-13.39-7.38l.58-1.08-2.38-2.27c-10.77-8.65-18.9-5.42-30.15,4.97-4.26,3.93-16.39,16.51-19.39,23.93-11.35,28.06,7.49,27.04,21.34,36.15,7.49,4.93,31.66,16.94,33.9,21.39,2.5,4.96,6.23,20.48,5.19,23.9l-11.88,11.71s-4.54,2.19-8.08,16.09-24.49,82.34-24.49,82.34c0,0-3.45,20.76,9.79,23.37,16.66,3.28,25.13-16.2,25.13-16.2l33.34-49.69s70.18,89.32,70.28,89.42c.22.22,9.76-6.43,9.76-6.43l3.2,7.62-1.8,120.43-2.19,165.25h10.04l.52,8.87s-16.79,18.3-15.36,27.88h41.44s-1.13-19.73-5.53-23.74l1.04-13.6,12.17-.47,5.22-146.85,11.12-138.86,130.69-15.16,132.41,9.22,1.31-8.46,9.17,2.22s5.09,11.05,11.48,14.16,9.39,1.45,12.5-2,29.18-26.03,29.18-26.03c0,0,10.01-8.63,9.58-15.54s-4.27-12.08-13.86-7.68-36.38,18.53-36.38,18.53l-15.8-2.39s1.49-9.51,1.62-9.51-137.87-23.16-137.87-23.16l-127.67,5.32-1.79-1.55,4.76-4.05-67.36-76.88,70.24,6.66-.95,4.58,20.08,2.19.69-4.92,33.5,5.73s10.71,6.27,25.47,7.57,19.86.86,19.94-4.58,9.15-10.96,1.55-18.39-30.14-9.82-33.42-6.88-12,.35-12,.35l-30.38-6.22,1.04-4.23-18.65-8.66-.86,3.97s-94.79-32.2-103.46-32.2-21.76,3.87-21.76,3.87l-16.06,2.15s-5.06,1.44-8.99-3.72Z"/>
</svg>