<?xml version="1.0" encoding="UTF-8"?>
<svg id="Layer_1" data-name="Layer 1" xmlns="http://www.w3.org/2000/svg" viewBox="0 0 1440 1440">
  <path d="M423.49,738.6c-6.56,3.15-3.19,17.18-2.46,23.57.46,3.98,4.08,10.89,4.08,10.89,0,0-2.55,44.23-5.44,44.65-11.01,1.6-19.96-28.84-23.98-36.31-6.8-12.64-19.52-18.54-22.81-23.48-1.94-2.91-1.39-6.2-1.11-7.9.07-.36.13-.74.34-1.04.58-.84,2.36-.15,3.17-.04,1.36.19,19,1.38,21.62-.22,2.35-1.44,3.72-3.95,4.39-6.56,1.83-6.99.42-9.3-.78-16.24-.01-.11-.34-1.96-.35-1.96l1.26-.24-.76-3.98s.05-1.63,2.37-2.08c2.64-.52,4.01-3.46,4.15-5.92.12-1.97-1.14-4.11-2.47-5.57l-6.26-5.18-.75-5.63.61-3.32-1.96-.5c.42-3.25-2.27-14.39-2.27-14.39l1.1.07.1-4.17c-2.54-15.69-29.31-15.1-49.09-13.45-19.6,1.64-21.23,10.71-22.27,19.6-1.03,8.89,11.71,50.22,11.71,50.22,0,0,3.66,13.31-5.15,23.02-5.54,6.11-22.2,16.28-26.79,25.51s-10.12,40.12-21.52,83.24c-5.04,19.07,20.51,15.67,20.51,15.67,0,0-.69,57.88-1.1,61.84-.39,3.85,12.43,2.42,12.43,2.42-2.83,6.3-3.45,7.92-4.71,24.5-1.84,24.37,53.8,129.37,53.8,129.37l-24.91,53.49-29.22,54.39,8.94,7.51-4.53,7.42s-6.01,1.53-7.21,2.33c-6.67,4.42-12.28,16.65-12.73,19.77l33.28,33.15,83.83-.09c-.04-1.04-1-2.71-1.77-3.44-12.03-11.48-3.03-4.81-21.94-16.49l.5-13.76,10.78-.15c.07,4.52,12-73.34,23.09-138.17.12-.67.81-7.64.81-8.33l-30.26-119.31-5.18-32.2s11.79.08,11.57-.26l-.91-86.18s23.83,23.83,35.22,22.79c15.69-1.43,12.26-38.8,12.26-38.8l5.83.55.63-18.3-5.68-.16s1.47-39.21,1.99-41.01c3.58-12.39,3.73-11.5,4.23-16.03,2.02-18.36-1.32-18.21-2.91-20.62-2.17-3.28-22.8-5.67-25.29-4.48ZM338.71,1219.51l9.05,2.6,7.9-10.4-2.12,24.5,11.05.35-.77,9.25s-6.41,7.19-8.03,11.96c-.71,2.08-1.55,12.72-1.55,12.72h-.09s-6.08-18.91-10.96-22.99c-5.02-4.19-8.19-17.58-8.19-17.58l3.71-10.4Z"/>
</svg>