<?xml version="1.0" encoding="UTF-8"?>
<svg id="Layer_1" data-name="Layer 1" xmlns="http://www.w3.org/2000/svg" viewBox="0 0 1440 1440">
  <path d="M303.88,754.74c-6.42-8.41-4.39-6.71-4.39-6.71,3.36-2.48,12.82-11,13.78-13.49,1.13-2.91.8-6.4.02-9.35-.55-2.1-1.59-4.03-3.32-5.44-2.32-1.88-6.11-2.58-8.01-4.91-.07-.09-1.58-.95-1.59-.94l1.32-1.45-5.67-2.65s-1.12.13.5-1.52c1.84-1.88,3.53-4.07.98-7.63-1.16-1.62-3.6-3.32-5.56-3.5-3.15-.29-12.62.88-12.62.88l-.63-1.1-1.64-2.65-1.89,1.32c-1.5-2.94-13.39-7.38-13.39-7.38l.58-1.08-2.38-2.27c-10.77-8.65-18.9-5.42-30.15,4.97-4.26,3.93-15.39,17.51-18.39,24.93-11.35,28.06,7.49,27.04,21.34,36.15,7.49,4.93,32.67,14.54,34.91,18.99,2.5,4.96,7.23,19.88,6.19,23.3l-9.88,10.71s-4.54,2.19-8.08,16.09-26.49,85.34-26.49,85.34c0,0-3.45,20.76,9.79,23.37,16.66,3.28,25.13-16.2,25.13-16.2l34.34-50.69s76.18,85.32,76.28,85.42c.22.22,9.76-6.43,9.76-6.43l3.2,7.62-3.8,121.43-3.19,166.25h10.04l.52,8.87s-18.79,18.3-17.36,27.88h41.44s.87-19.73-3.53-23.74l1.04-13.6,12.17-.47,8.22-146.85,10.12-142.86,126.69-23.16,143.41-18.78.47-10.24h10.01s8.09,8.05,14.48,11.16,5.53-.13,8.63-3.58,28.88-28.43,28.88-28.43c0,0,9.26-11.31,8.83-18.22s-4.27-12.08-13.86-7.68-38.46,25.19-38.46,25.19l-14.89,2.14s.58-10.04.71-10.04-144.87,7.84-144.87,7.84l-126.67,10.32-1.79-1.55,4.76-4.05-68.36-69.88,68.7,10.82-.95,4.58,20.08,2.19.69-4.92,31.8,11.68s9.71,9.27,24.47,10.57,19.86.86,19.94-4.58,9.15-10.96,1.55-18.39-29.14-12.82-32.42-9.88-12,.35-12,.35l-28.68-12.17,1.04-4.23-18.65-8.66-.86,3.97s-93.25-36.36-101.93-36.36-20.42,1.94-20.42,1.94l-21.06,5.15s-5.06,1.44-8.99-3.72Z"/>
</svg>