<?xml version="1.0" encoding="UTF-8"?>
<svg id="Layer_1" data-name="Layer 1" xmlns="http://www.w3.org/2000/svg" viewBox="0 0 1440 1440">
  <path d="M479.81,776.03c-.14-1.08-4.87-5.38-5.61-6.21-2.94-3.28-7.63-6.13-17.1-6.39-6.83-.2-10.7,9.59-9.58,18.3.85,6.63,5.5,11.93,5.5,11.93l-11.4,37.11-2.1-.66-4.3,10.56s-4.95-13.82-17.97-52.51c-2.39-7.12-6.19-15.81-9.95-16.38-1.36-.19-2.38-1.37-2.42-2.75l2.25-9.47s11.78,4.96,15.21,5.23c10.01.78,14.49-7.41,15.41-10.23,1.33-4.17,1.38-10.82,1.37-10.82l1.97.09.08-5.95s8.59,1.06,8.23-5.85c-.26-4.88-6.26-12.71-6.26-12.71l.55-3.86-2.86-.48c1.79-7.43,1.95-21.6,1.95-21.6l1.85-.66-.2-6.46c-.63-6.34-8.4-12.28-13.52-13.61-4.91-1.29-43.79-8.51-53.1-.05-7.05,6.38-5.1,33.37-3.53,52.6.86,10.7-1.32,16.19-1.32,16.19,0,0-4.37,14.87-14.28,20.57l-19.92,10.35s-9.52,3.81-13.31,15.86c-3.83,12.15-20.62,139.53-21.59,150.96,0,.3,10.93,2.49,10.93,2.49,0,0-6.42,15.58-4.32,29.17,4.73,30.53,34,138.29,34,138.29l-25.83,123.05,12.74,1.87-2.58,9.36s-8.86,16.47-7.53,20.83c3.99,13.12,38.21,8.99,38.21,8.99,0,0,63.78,8.69,61.09,2.8-2.69-5.91-11.53-13.46-20.14-18.96-10.01-6.38-15.28-12.6-15.28-12.6l.39-10.96,12.99,1.66,22.86-112.84c7.23-20.26,5-27.72,5-27.72l-37.96-143.93-.32-5.39,13.03.72c2.76-.27,4.84-2.62,4.73-5.38l.29-21.15,5.84,3.23c2.67,1.48,4.67,3.92,5.58,6.83.62,2.01,2.62,4.61,8,7.17,17.6,8.36,19.06-.86,23.03-9.58,3.97-8.72-1.55-11.74-1.55-11.74,0,0-10.08-5.96-12.93-6.22-1.4-.13-3.07.16-4.4.49-1.65.41-3.38.1-4.82-.79-4.44-2.76-13.84-12.3-18.44-15.26l.43-28.41,22.27,26.96c1.68,1.43,3.81,2.19,6.08,2.43,6.55.71,12.78-3.05,15.65-9l7.31-28.61,2.55.79,4.68-19.9-2.51-.69,8.21-39.64s10.19-9.67,8.68-21.46ZM364.65,1242.2c-2.2,4.27-4.7,7.25-4.7,7.25,0,0-8.25-2.78-6.18-12.04.06-.26,7.57,0,7.57,0l1.95-3.95h2.65s.91,4.46-1.29,8.74Z"/>
</svg>