<?xml version="1.0" encoding="UTF-8"?>
<svg id="Layer_1" data-name="Layer 1" xmlns="http://www.w3.org/2000/svg" viewBox="0 0 1440 1440">
  <path d="M302.88,754.74c-6.42-8.41-4.39-6.71-4.39-6.71,3.36-2.48,11.82-11,12.78-13.49,1.13-2.91.8-6.4.02-9.35-.55-2.1-1.59-4.03-3.32-5.44-2.32-1.88-5.11-2.58-7.01-4.91-.07-.09-1.58-.95-1.59-.94l1.32-1.45-5.67-2.65s-1.12.13.5-1.52c1.84-1.88,3.53-4.07.98-7.63-1.16-1.62-3.6-3.32-5.56-3.5-3.15-.29-12.62.88-12.62.88l-.63-1.1-1.64-2.65-1.89,1.32c-1.5-2.94-13.39-7.38-13.39-7.38l.58-1.08-2.38-2.27c-10.77-8.65-17.2-7.01-28.45,3.38-4.26,3.93-17.88,17.63-20.91,25.03-10.43,25.47,8.31,28.52,22.16,37.63,7.49,4.93,18.81,9.28,25.9,14.17,4.1,2.83,7.02,4.36,9.26,8.81,2.5,4.96,5.97,15.89,4.94,19.31l-10.88,9.71s-2.54,1.19-6.08,15.09-24.49,83.34-24.49,83.34c0,0-3.45,20.76,9.79,23.37,16.66,3.28,25.13-16.2,25.13-16.2l32.34-49.69s75.18,89.32,75.28,89.42c.22.22,9.76-6.43,9.76-6.43l3.2,7.62-6.8,120.43.81,166.25h10.04l.52,8.87s-18.79,18.3-17.36,27.88h41.44s.87-19.73-3.53-23.74l1.04-13.6,12.17-.47,4.22-146.85,15.12-142.86,117.69-25.16,151.41-29.78.47-10.24h10.01s8.09,8.05,14.48,11.16,5.53-.13,8.63-3.58,28.88-33.43,28.88-33.43c0,0,9.26-11.31,8.83-18.22s-4.27-10.08-13.86-5.68-38.46,28.19-38.46,28.19l-14.89,2.14s.58-10.04.71-10.04-152.87,18.84-152.87,18.84l-119.67,16.32-1.79-1.55,4.76-4.05-65.9-70.39,62.04,6.17,7.2.17-.95,4.58,19.08,3.19.69-4.92,33.8,7.68s9.71,9.27,24.47,10.57,19.86.86,19.94-4.58,9.15-10.96,1.55-18.39-29.14-12.82-32.42-9.88-12,.35-12,.35l-29.68-11.17,1.04-4.23-18.65-5.66-.86,3.97s-96.25-36.36-104.93-36.36-20.42,1.94-20.42,1.94l-23.06,7.15s-2.06-.56-5.99-5.72Z"/>
</svg>