<?xml version="1.0" encoding="UTF-8"?>
<svg id="Layer_1" data-name="Layer 1" xmlns="http://www.w3.org/2000/svg" viewBox="0 0 1440 1440">
  <path d="M449.66,831.97l25.44-18.68,3.25,2.55,17.9-12.94-2.89-3.07,17.8-18.11s3.69.03,8.99-1.43c7.48-2.06,11.99-9.97,9.35-17.27-.37-1.03-.88-2-1.55-2.89-4.83-6.39-8.28-10.17-17.43-7.75s-11.04,15.1-11.04,15.1l-17.72,12.12-2.18-2.17-15.79,8.56,1.5,2.32-14.47,7.54s-43.41-23.13-63.79-35.21-47.74-8.46-47.74-8.46l-7.26-12.24c2.77-2.04,4.91-3.04,7.82-4.85,5.07-3.16,13.4-4.73,13.88-10.12.38-4.35.62-9.75-2.62-13.33-1.87-2.07-6.15-5.5-6.16-5.49l1.32-1.45-5.67-2.65s-1.12.13.5-1.52c1.84-1.88,5.84-6,3.29-9.55-1.16-1.62-3.6-3.32-5.56-3.5-3.15-.29-10.52-2.91-10.52-2.91l-.63-1.1-1.64-2.65-1.89,1.32c-1.5-2.94-9.51-11.79-9.51-11.79l.58-1.08-2.38-2.27c-10.77-8.65-23.19-9.77-37.28-.43-4.83,3.2-12.96,8.52-18.19,14.57-17.68,20.4,4.24,33.68,17.53,46.46,1.24,1.2,19.12,18.16,19.12,18.16,0,0,2.42,5.72,2.93,20.35.13,3.83-1.5,7.52-4.42,10l-16.21,13.83s-4.54,2.19-8.08,16.09-29.5,82.69-29.5,82.69c0,0-3.45,20.76,9.79,23.37,16.66,3.28,25.13-16.2,25.13-16.2l31.08-45.45c34.45,68.93,35.95,93.48,42.11,99.64.22.22,9.76-4.43,9.76-4.43l.87,15.42,6.46,111.27,7.01,163.83h10.04l1.52,8.87s-9.79,18.3-8.36,27.88h41.44s-6.13-19.73-10.53-23.74l-.96-13.6,12.17-.47-.63-136.93-.76-125.35,92.45,35.21c5.18.86,5.54,3.51,8.49,7.85l23.89,106.2,11.22-.44s-4.52,27.9,1.87,31.01,54.56,12.09,54.56,12.09c0,0,8.87-.91,8.44-7.81s-5.91-11.05-19.12-17.85c-6.03-3.1-12.5-7.76-15.87-10.01-1.91-1.27-3.27-3.21-3.85-5.43l-2.21-8.49s9.08-5.3,9.21-5.3c.11,0-17.28-101.38-25.08-123.82-1.86-5.35-16.56-15.72-21.99-17.3l-106.64-56.25-1.79-1.55,11.55-7.77-47.7-92.37,57.37,21.24Z"/>
</svg>