<?xml version="1.0" encoding="UTF-8"?>
<svg id="Layer_1" data-name="Layer 1" xmlns="http://www.w3.org/2000/svg" viewBox="0 0 1440 1440">
  <path d="M467.77,737.05c-6.56,3.15-6.58,13.25-5.85,19.64.46,3.98.63,11.55.63,11.55l-10.75,21.39-3.65-1.71-5.74,10.53,3.19,2.27-6.6,11.82s-33.73-23.25-39.09-29.84c-11.57-14.24-20.32-19.19-25.06-22.77-3.59-2.71-16.66-7-16.38-8.7.07-.36-.31-3.61-.32-3.97-.15-3.16-1.83-9.41-.87-8.81.61.38,1.8.2,2.47.19,1.58-.04,3.17-.17,4.74-.33,1.79-.18,3.58-.41,5.35-.71,1.99-.33,3.99-.64,5.76-1.66,1.64-.94,3.01-2.27,4.35-3.58,1.25-1.22,2.33-2.65,2.99-4.27.93-2.25,1.35-4.95.77-7.34-.43-1.78-.91-3.53-1.22-5.33-.01-.11-.34-1.96-.35-1.96l1.26-.24-1.5-5.04s5.33-1.2,5.75-3.63c.51-2.99-.83-5.02-2.16-6.48l-6.26-5.18-5.53-8.1.19-3.5-1.87.35c-1.28-3.76-6.63-12.76-6.63-12.76l1.16-.5-1.79-3.49c-2.54-15.69-41.18-12.04-55.04-4.14-17.09,9.74-16.19,19.04-12.17,27.19s15.02,31.08,15.02,31.08c0,0,13.08,24.24,2.14,37.17-5.32,6.29-14.76,12.87-23.14,22.27-7.68,8.63-12.04,47.26-21.37,89.99-2.85,13.07,12.8,18.84,20.24,13.61,5.22-3.67,14.03-12.36,14.03-12.36,0,0,11.03,64.14,10.62,68.1-.39,3.85,14.68,2.83,14.68,2.83-2.83,6.3-6.78,8.11-2.68,24.22,10.45,40.96,25.29,122.98,25.29,122.98l9.16,148.95,9.83.77.78,10.06s-1.3,2.31-2.5,3.11c-6.67,4.42-1.36,19.19-1.81,22.32l44.47-.22c1.76,0,2.87-1.75,2.32-3.43,0-.01,0-.02,0-.03-4.48-14.78.78-15.18-18.13-26.87l-.19-6.68,5.74-.08c.03,1.81.77-41.95.77-41.95,0,0,74.98-79,81.63-117.82.12-.67-7.47-17.4-7.47-18.09l-47.65-75.37-28.03-53.82s11.79.08,11.57-.26l-15.46-93.34s37.08,19.31,48.47,18.27c15.69-1.43,23.2-40.36,23.2-40.36l3.24,1.27,4.78-15.18-3.45-1.1s9.35-21.65,10.39-23.22c5.01-7.6,5.97-8.84,7.1-12.47,5.5-17.63,2.31-18.3.71-20.72-2.17-3.28-21.59-5.75-24.09-4.55ZM429.94,1082.96l-4.73-9.63-27.32-37.81,1.44,26.82,2.06,39.74,1.49,14.33,27.06-33.45Z"/>
</svg>