<?xml version="1.0" encoding="UTF-8"?>
<svg id="Layer_1" data-name="Layer 1" xmlns="http://www.w3.org/2000/svg" viewBox="0 0 1440 1440">
  <path d="M425.9,827.92l-.33-17.42-6.38-.11s-.29-43.74.23-45.54c3.59-12.39,2.44-10.47,2.94-14.99,2.01-18.36-3.09-17.69-4.68-20.11-2.17-3.28-6.95-6.27-10.95-4.7-3.81,1.5-8.01,2.77-10.42,6.41-.36.55-.81,1.28-1.32,2.14-.54-.08-1.08-.08-1.63.01-3.35.57-6.97.9-9.53,3.44-2.56,2.55-9.39,10.53-9.86,15.83-.3,3.3,8.13,11.79,8.13,11.79l-5.65,16.65c-3.59-7.56-6.4-14.26-6.28-16.46.76-13.44-8.94-19.77-8.71-20.7.46-1.92,2.2-9.48,2.48-11.18.07-.36.13-.74.34-1.04.58-.84,2.36-.15,3.17-.04,1.36.19,16.84-.34,19.46-1.94,2.35-1.44,3.72-3.95,4.39-6.56,1.83-7-2.37-13.73-3.58-20.67-.01-.11-.34-1.96-.35-1.96l2.67-.43-.76-3.98s-1.02-.52,1.3-.97c2.64-.52,4.01-3.46,4.15-5.92.12-1.97-1.14-4.11-2.47-5.57l-11.21-9,.1-1.25.61-3.32-1.96-.5c.42-3.25-4.17-13.67-4.17-13.67l1.1.07.1-4.17c-2.54-15.69-18.78-12.44-38.56-10.79-19.6,1.64-30.9,11.06-31.94,19.95-1.03,8.89,19.4,53.53,19.4,53.53,0,0,2.51,6-.47,18.52-1.9,8.01-14.33,25.74-20.33,34.13-10.54,14.76-6.24,34.09-6.34,46-.51,57.07-.96,109.23-1.48,114.24-.39,3.85,5.9,4.68,5.9,4.68-6.21,6.61-8.16,11.86-8.72,34.45-.6,24.44.68,30.05-1.22,78.91-1.01,26.02-4.11,52.73-4.11,52.73l-50.67,108.23,11.99,7.34-4.71,13.01s-5.5-.93-6.53.07c-4.39,4.23-11.7,19.28-12.16,22.4l39.43,20.22,37.87.48c-7.54-13.74-36.35-38.6-36.35-38.6l4.57-9.32,8.48,3.29,52.77-101.03-1.88,109.48,11.05.34-.3,11.49s-4.25,5.67-5.87,10.44c-1.1,3.23-1.4,10.1-1.48,14.3l72.39.91c-.05-1.03-.48-2.03-1.25-2.76-12.03-11.48-20.9-10.56-39.81-22.25l.5-13.76,10.78-.15c.07,4.55,6.61-52.22,8.15-109.68.98-36.38-4.04-145.51-4.04-145.51l-2.17-43.6s8.61.08,8.39-.26l-2.16-72.73s17.18,11.01,26.59,7.9c9.58-3.16,7.53-41.28,7.53-41.28l5.83.55ZM395.6,808.89l-4.79.45s-.77-1.41-2.01-3.74c1.51-7.3,7.5-36.38,8.14-37.58,1.05-1.98,1.82-3.48,2.41-4.66,1.04.74,1.71,1.18,1.71,1.18l-5.46,44.35Z"/>
</svg>