<?xml version="1.0" encoding="UTF-8"?>
<svg id="Layer_1" data-name="Layer 1" xmlns="http://www.w3.org/2000/svg" viewBox="0 0 1440 1440">
  <path d="M466.26,780.24c3.14-14.59-3.98-16.27-6.52-17.65-3.72-2.02-13.25-7.19-17.5-6.58-5.09.74-7.07.55-13.03,20.36-.19.63.03,5.1.36,6.04,2.12,5.96,2.89,10.32,2.89,10.32l-16.94,36.69-4.92-.86s-4.25,9.1-6.5,13.06c-.34.59,1.2,4.61.91,5.09-.89,1.47-3.44-3.65-3.53-4.06-1.12-4.95-28.51-34.86-28.51-34.86.08-1.82,9.17-19.81,9.29-24.26.06-2.02,2.83-4.55,4.28-5.96,2.46-2.4,4.09-5.83,5.41-8.74,1.5-3.32.48-7.89.8-11.52.14-1.64-1.29-5.98-2.6-7.01-.64-.5-2.34.07-3-.4-.88-.63-2.39-1.14-3.12-1.95-.8-.89-1.16-1.91-1.44-3.06-.22-.89.13-1.9-.08-2.79-.23-.98-.55-2.05-.64-3.05-.01-.11-.34-1.96-.35-1.96l2.67-.43-.76-3.98s-1.02-.52,1.3-.97c2.64-.52,5.2-3.63,5.34-6.09.12-1.97.21-4.35-1.12-5.81l-8.62-9.8.1-1.25.61-3.32-1.96-.5c.42-3.25-1.92-15.95-1.92-15.95l1.1.07.1-4.17c-2.54-15.69-21.3-17.51-41.07-15.86-19.6,1.64-30.04,7.07-31.08,15.96-1.03,8.89,10.48,53.01,10.48,53.01,0,0,.89,2.35-.23,11.67-.99,8.17-9.25,18.9-16.08,26.63-13.05,14.79-22.88,14.91-25.08,41.78-4.63,56.52-12.29,120.41-12.81,125.42-.39,3.85,5.9,4.68,5.9,4.68-6.21,6.61-9.89,11.29-10.45,33.88-.6,24.44,14.99,127.41,14.99,127.41l-73.92,102.11,12.2,7.68-9.17,11.61s-4.24-.04-7.96,2.04c-5.32,2.97-12.85,14.57-13.31,17.69l27.91,23.07h37.71c-4.89-12.49-23.4-32.6-23.4-32.6l8.93-11.59,9.65,5.93,85.61-110.05c2.92-8.27-9.25-95.9-9.25-95.9l53.01,76.4-32.71,127.32,11.05.34-.3,11.49s-7.21,6.53-8.83,11.3c-1.1,3.23-1.4,11.89-1.48,16.09l73.17.82c-.05-1.03-.48-3.82-1.25-4.55-12.03-11.48-20.4-10.27-36.92-21.67l1.13-12.92,12.78.26c.07,4.55,32.43-107.43,34.89-134.44,1.29-14.24-71.67-127.96-73.06-133.79-.26-1.1-2.59-3.69-2.59-3.69,0,0,10.13.41,10.17,0,1.31-15.06,5.18-99.76,5.18-99.76,0,0,30.82,35.37,47.01,30.43,9.65-2.95,20.07-36.15,20.07-36.15l6.37.5,4.9-14.98-5.58-2.04s18.15-40.35,18.75-42.13c1.44-4.28,10.21-7.03,12.58-18.08ZM362.88,775.8s.01.03.02.05c.77,1.68.49,3.67-.22,5.37-.47,1.12-1.1,2.15-1.54,3.28-.21.54-.4,1.09-.55,1.66-.1.39-.55,1.56-.38,1.92-2.82-5.93-10.57-15.14-10.39-15.87.36-1.51,3.09-7.83,3.31-9.17.05-.28.1-.57.27-.81.29-.43,1.06-.5,1.52-.56.66-.08,1.31-.19,1.96-.29.38-.06,4.37-.57,4.37-.66-.14,1.54-.28,3.09-.68,4.59-.29,1.07-.72,2.11-.86,3.2-.17,1.38.12,2.81.84,4,.69,1.16,1.75,2.09,2.33,3.31Z"/>
</svg>