<?xml version="1.0" encoding="UTF-8"?>
<svg id="Layer_1" data-name="Layer 1" xmlns="http://www.w3.org/2000/svg" viewBox="0 0 1440 1440">
  <path d="M477.55,782.77c-.07-1.09-4.53-5.67-5.21-6.55-2.73-3.46-7.24-6.59-16.67-7.44-6.8-.62-11.27,8.91-10.69,17.67.44,6.67,4.75,12.25,4.75,12.25l-10.89,39.7-3.43-1.32-2.99,7.31s-.31-10.03-10.91-49.46c-1.94-7.25-5.28-16.64-9-17.44-1.35-.27-2.29-1.51-2.25-2.89l3.9-10.14s11.45,5.68,14.86,6.16c9.94,1.4,14.92-6.5,16.01-9.26,1.59-4.08,2.05-10.71,2.04-10.71l1.96.21.45-5.93s8.51,1.59,8.58-5.33c.04-4.89-5.46-13.07-5.46-13.07l.79-3.82-2.82-.66c2.25-7.3,3.28-21.44,3.28-21.44l1.89-.54.2-6.46c-.24-6.37-7.62-12.78-12.65-14.42-4.82-1.59-43.18-11.2-53-3.34-7.43,5.93-7.16,32.99-6.78,52.28.2,10.73-2.32,16.08-2.32,16.08,0,0-5.28,14.57-15.53,19.65l-18.46,12.56s-9.74,3.21-14.27,15.01c-4.57,11.89-31.28,134.52-32.96,145.87-.02.3,10.76,3.16,10.76,3.16,0,0-7.37,15.15-6.12,28.85,2.83,30.76,37.28,141.67,37.28,141.67l-30.99,120.37,15,2.22-1.97,8.92s-12.3,14.26-11.78,32.04c.4,13.71,110.06,8.46,107.74,2.42-2.32-6.07-11.69-11.59-19.94-17.61-9.6-6.99-16.66-13.64-16.66-13.64l1.6-10.96,12.86,1.09,17.73-106.82c8.47-19.77,6.71-27.36,6.71-27.36l-38.5-147.64v-5.4s11.48,2.42,11.48,2.42c2.77-.1,4.99-2.32,5.05-5.08l3.09-31.99,22.63,11.59c2.57,1.64,4.42,4.2,5.14,7.16.5,2.04,2.33,4.77,7.54,7.65,17.05,9.43,19.08.32,23.58-8.14,4.5-8.46-.82-11.81-.82-11.81,0,0-9.69-6.57-12.52-7.01-1.39-.21-3.07-.03-4.43.22-1.67.3-3.38-.1-4.77-1.09-4.26-3.03-29.11-18.29-33.52-21.53l1.25-21.17,20.56,28.29c1.59,1.53,3.67,2.42,5.92,2.8,6.49,1.11,12.94-2.25,16.18-8.01l5.86-28.6,2.5.95,5.9-19.57-2.46-.84,5.73-41.19s10.77-9.02,9.99-20.88ZM359.77,1243.55c-2.46,4.13-5.14,6.95-5.14,6.95,0,0-8.06-3.29-5.42-12.4.08-.26,7.56.47,7.56.47l2.19-3.82,2.64.16s.63,4.51-1.83,8.64Z"/>
</svg>