<?xml version="1.0" encoding="UTF-8"?>
<svg id="Layer_1" data-name="Layer 1" xmlns="http://www.w3.org/2000/svg" viewBox="0 0 1440 1440">
  <path d="M488.73,766.85c-.25-1.07-3.22-3.24-3.79-4.19-4.11-6.87-2.83-5.25-12.16-3.6-11.85,2.09-8.95,19.27-8.95,19.27l-9.89,23.53-1.55-.85-6.71,14.34,2.85,1.89-4.48,10s-19.03-20.83-39.56-56.11c-3.78-6.49-15.79-10.87-19.58-10.66-1.38.08-2.61-.87-2.93-2.21l-.03-12.33c2.97-1.72,14.13.76,17.5.06,5.95-1.24,8.33-7.56,8.66-10.52.47-4.35-2.84-15.16-2.85-15.16l1.95-.31-2.44-5.68s8.56-1.08,6.82-7.78c-1.23-4.72-8.76-11.53-8.76-11.53l-.54-4.27-2.81.75c-1.17-3.09-3.5-18.32-3.5-18.32l1.69-1.02-2.91-6.42c-1.89-6.08-10.45-8.35-15.74-8.63-5.06-.27-40.44,1.97-45.9,7.81-10.1,10.82-3.19,30.54,4.11,47.46,4.1,9.48,7.32,25.64,7.32,25.64,0,0-3.43,16.25-11.99,23.83l-23.31,12.95s-7.6,3.99-12.26,17.81c-4.89,14.5-28.03,81.72-28.03,81.72,0,0-4.17,21.46,9.3,22.48,15.52,1.18,38.16-6.56,38.16-6.56,0,0,.34,41.26,1.69,52.65.04.3,11.21.25,11.21.25,0,0-1.63,18.72-2.41,24.92l4.29,20.49,20.76,120.47-1.21,123.8h15.03l.69,6.91s-6.91,9.15-4.67,13.12c2.25,3.97,10.71,20.37,10.71,20.37h42.6s-2.46-4.53-2.84-7.12c-.39-2.59,6.08,4.14,9.58,4.66,3.49.52,14.37,1.94,10.55-3.3s-7.83-14.37-15.15-21.5c-7.32-7.12-13.66-17.93-13.66-17.93l3.37-10.94,10.81,2.39,40.7-118.64c7.13-16.85-.67-28.17-.67-28.17l-53.76-132.99-1.4-5.22,12.09-2.58c2.65-.81,4.21-3.54,3.56-6.22l-11.49-80.81,33.53,27.16c1.94,1.06,4.17,1.37,6.45,1.16,6.56-.62,11.91-5.57,13.52-11.97l8.22-32.59,2.21.82,5.51-18.55-1.96-1.47,8.63-27.8s7.66-7.23,5.82-14.76ZM413.5,1091.04s-6.48,18.82-6.91,19c-.45,0-3.8-37.21-3.8-37.21l10.71,18.21Z"/>
</svg>