<?xml version="1.0" encoding="UTF-8"?>
<svg id="Layer_1" data-name="Layer 1" xmlns="http://www.w3.org/2000/svg" viewBox="0 0 1440 1440">
  <path d="M435.72,836.08c-1.08-4.51-1.53-11.79-3.69-15.29-.56-.9-3.29.37-3.92-.45-.53-.7-2.54-13.74-2.66-14.56-.31-2-.53-4.02-.74-6.03-.41-4.03-.74-8.06-1-12.1-.13-1.91-.11-3.83-.14-5.75-.03-2.48.66-4.92,1.22-7.32,1.26-5.33,1.97-10.78,2.67-16.21.3-2.25.57-4.62-.25-6.73-.56-1.44-1.6-2.65-2.79-3.63-1.55-1.28-3.36-2.05-5.03-3.11-1.81-1.16-3.6-2.34-5.48-3.38-.32-.17-.65-.35-.91-.61-.58-.55-.65-1.34-.72-2.09-.01-.11-.34-1.96-.35-1.96l2.67-.43.15-4.22c-.27-.14-.25-.34-.05-.53.28-.25.66-.24,1-.26.4-.02.82-.12,1.21-.23,1.52-.4,2.91-1.19,3.99-2.34,1.27-1.34,2.43-3,2.43-4.92-.01-1.96-.99-3.89-2.17-5.4-2.16-2.73-4.11-5.67-6.92-7.8-.19-.42-.35-.76-.54-1.18l.1-1.25.61-3.32-1.96-.5c.42-3.25.89-15.69.89-15.69l1.1.07.1-4.17c-2.54-15.69-22.47-20.79-42.25-19.14-19.6,1.64-27.72,7.16-28.76,16.05-1.03,8.89,6.84,48.11,6.84,48.11,0,0,.69,3.89-1.03,13.11-2.45,13.1-14.59,18.82-21.41,24.09-15.61,12.05-16.32,10.71-22.97,40.14-3.62,16.04-13.83,44.98-13.23,58.84.28,6.47,8.35,8.19,8.18,11.01-2.08,35.65-4.87,56.99-5.21,60.29-.39,3.85,9.55,5.6,9.55,5.6-6.21,6.61-7.32,15.73-5.83,34.32,1.75,21.77,18.71,108.67,22.09,126.61.4,2.12-.08,4.31-1.33,6.07l-67.99,95.2,10.45,7.5-7.6,11.74s-4.25-.05-7.97,2.03c-5.32,2.97-9.17,14.23-9.63,17.35l28.66,30.08h31.73c-6.37-11.16-20.44-39.06-20.44-39.06l8.26-11.04,9.65,5.93,74.82-99.56c4.44-6.09,6.27-15.91,5.86-23.44-.91-16.85-6.5-37.03-6.85-38.28l10.8,27.74c1.93,5.46,2.21,11.38.79,17l-31.17,120.01,11.6,2.07-2.76,11.76s-7.21,6.54-8.83,11.31c-1.1,3.23-2.29,10.09-2.37,14.29l65.64.82c-.05-1.03-.48-3.82-1.25-4.55-12.03-11.48-13.27-7.16-29.79-18.56l3.6-13.19,12.77.26c.07,4.55,29.04-101.86,37.07-134.82,2.76-11.3-53.67-140.24-55.06-146.07-.26-1.1-3.52-7.24-3.52-7.24,0,0,14.07-.09,14.11-.5,1.31-15.06,3.54-85.99,3.54-85.99,0,0,14.62,25.25,30.81,20.31,7.27-2.23,9.56-24.58,5.55-44.83-.16-.79,6.25-1.2,6.06-1.98ZM405.08,802.6c.65,5.31-1.1,10.49-1.1,10.49,0,0-2.72-4.21-2.59-5.44s-6.34-18.46-9.45-26.74c-3.11-8.29-10.88-12.24-10.88-12.24l-.45-11.14c7.68.52,14.42,3.69,14.42,3.69,0,0,1.12,10.36,2.41,14.18,1.3,3.82,8.55,5.38,8.55,5.38,0,0-1.55,16.51-.91,21.82Z"/>
</svg>