<?xml version="1.0" encoding="UTF-8"?>
<svg id="Layer_1" data-name="Layer 1" xmlns="http://www.w3.org/2000/svg" viewBox="0 0 1440 1440">
  <path d="M392.05,731.9c-1.44,1.67-2.71,3.48-3.81,5.39-1.33,2.32-2.4,4.8-3.15,7.37s-1.62,5.22-1.31,7.95c.46,3.98,12.52,11.95,12.52,11.95l-.69,44.33-4.79.45s-12.9-36.26-12.57-42.19c.76-13.44-10.17-22.47-9.94-23.4.46-1.92,2.21-9.48,2.49-11.18.07-.36.13-.74.34-1.04.58-.84,2.36-.15,3.17-.04,1.36.19,12.33.22,14.95-1.38,2.35-1.44,3.72-3.95,4.39-6.56,1.83-6.99.19-14.03-1.01-20.97-.01-.11-.34-1.96-.35-1.96l2.67-.43-.76-3.98s-1.02-.52,1.3-.97c2.64-.52,4.01-3.46,4.15-5.92.12-1.97-1.14-4.11-2.47-5.57l-11.21-9,.1-1.25.61-3.32-1.96-.5c.42-3.25-4.17-13.67-4.17-13.67l1.1.07.1-4.17c-2.54-15.69-23.01-10.12-42.79-8.47-19.6,1.64-27.55,13.69-28.59,22.58-1.03,8.89,20.45,50.32,20.45,50.32,0,0,4.03,6.04,1.05,18.56-1.91,8.02-12.32,24.21-18.32,32.6-10.54,14.76-6.23,34.09-6.34,46-.51,57.06,1.69,109.24,1.17,114.25-.39,3.85,5.9,4.68,5.9,4.68-6.21,6.61-9.2,11.21-9.76,33.8-.6,24.43-.2,30.58-2.1,79.45-1.01,26.02-6.04,65.78-6.04,65.78l-31.17,103.51,12.78,1.55-3.54,15.6s-4.42,1.66-5.46,2.66c-4.39,4.22-11.7,19.28-12.15,22.4l31.25,13.99,119.49.29c-.04-1.04-.48-2.03-1.25-2.76-12.03-11.48-20.89-10.56-39.81-22.25l.5-13.76,10.78-.15c.07,4.55,3.48-52.4,8.16-109.68l2.94-150.48-.33-39.51s8.62.08,8.39-.25l-3.6-67.57s14.09,6.53,23.5,3.42c9.58-3.16,4.42-41.26,4.42-41.26l5.83.55-.86-18.35-6.39-.12s-5.7-42.63-5.18-44.43c3.58-12.39,2.44-10.47,2.94-14.99,2.02-18.36-3.09-17.69-4.68-20.1-.87-1.32-2.04-2.45-3.35-3.33-1.44-.98-2.69-1.35-4.38-1.74-1.21-.27-1.59-.83-2.94-.51-1.18.28-2.25.91-3.25,1.57-2.58,1.71-4.92,3.79-6.94,6.14ZM297.73,1222.66l9.58,2.46,27-76.14-2.55,84.99,11.05.35-.3,11.48s-4.25,5.67-5.87,10.45c-1.64,4.83-3.91,11.57-3.91,11.57,0,0-11.92-13.6-16.81-17.68-5.02-4.19-21.22-15.37-21.22-15.37l3.02-12.11Z"/>
</svg>