<?xml version="1.0" encoding="UTF-8"?>
<svg id="Layer_1" data-name="Layer 1" xmlns="http://www.w3.org/2000/svg" viewBox="0 0 1440 1440">
  <path d="M480.8,773.28c-.11-1.09-4.73-5.2-5.18-6.22-3.22-7.32-4.52-8.24-13.98-7.77-12.02.6-4.66,31.08-4.66,31.08l-10.83,36.84-3.32-1.25-4.22,12.64s-8.98-19.36-24.96-56.92c-2.94-6.91-7.62-13.29-11.41-13.56-1.38-.09-2.48-1.19-2.63-2.56l1.51-9.61c3.16-1.34,15.44,2.27,18.87,2,6.06-.49,9.21-6.47,9.91-9.36,1-4.26.79-12.52.78-12.52l1.97-.06-1.05-5.92s8.42-.11,7.53-6.97c-.64-4.84-7.23-12.18-7.23-12.18l.25-3.89-2.89-.26c1.21-7.55-.48-19.71-.48-19.71l1.8-.8-.16-6.41c-1.12-6.27-9.33-11.59-14.54-12.52-4.99-.9-44.31-5.08-52.94,4.07-6.53,6.91-2.49,33.67.56,52.72,1.69,10.6,1.12,16.68,1.12,16.68,0,0-4.93,16.08-14.37,22.53l-21.5,10.75s-9.19,4.53-12.04,16.84c-2.87,12.41-10.41,68.13-12.99,84.41-.54,3.36.12,6.8,1.85,9.73l7.96,8.09s-5.78,35.41-5.86,46.88c0,.3,11.09,1.64,11.09,1.64,0,0-6.88,21.3-3.73,34.68,7.08,30.07,32.24,132.42,32.24,132.42l-20.86,122.75,12.85.87-1.85,9.54s-7.62,17.13-5.89,21.35,25.12,11.01,25.12,11.01c0,0,64.26,3.72,61.12-1.95-3.14-5.68-14.14-11.35-20.51-19.33-6.38-7.98-11.86-10.18-11.86-10.18l.95-9.62,13.08.65,31.77-119.38c9.17-15.83,2.84-28.03,2.84-28.03l-40.2-138.63-.74-5.35,13.05-.29c2.73-.48,4.62-2.99,4.3-5.73l-3.57-75.33,27.89,27.13c1.79,1.29,3.97,1.88,6.25,1.95,6.59.2,12.51-4.04,14.91-10.19l5.63-27.75,2.6.59,3.61-20-2.55-.5,9.11-41.2s7.37-10.19,6.48-17.89ZM367.35,1246.07l-6.02-.32,1.49-12.3,6.25.13-1.72,12.49Z"/>
</svg>