<?xml version="1.0" encoding="UTF-8"?>
<svg id="Layer_1" data-name="Layer 1" xmlns="http://www.w3.org/2000/svg" viewBox="0 0 1440 1440">
  <path d="M449.92,824.82l22.94-9.82,1.25,3.55,18.63-9.32-.89-4.07,27.82-13.18s-2.85-.06,4.27.13c3.73.1,9.21.54,14.56-.95,7.4-2.05,11.86-9.91,9.3-17.15-.37-1.06-.89-2.07-1.58-2.98-4.83-6.39-8.28-10.17-17.43-7.75s-14.85,12.91-14.85,12.91l-28.94,9.21-.92-4.12-17.85,4.04.57,4.46-15.81,2.84s-43.59-19.9-63.97-31.98-36.71-9.43-36.71-9.43c-8.68,0-19.91,2.01-19.91,2.01l-7.26-12.24c2.77-2.04,4.79-3.15,7.7-4.97,5.07-3.16,11.09-7.24,11.57-12.63.38-4.35-1.65-8.38-4.89-11.97-1.87-2.07-6.15-5.5-6.16-5.49l1.32-1.45-5.67-2.65s-1.12.13.5-1.52c1.84-1.88,3.53-4.07.98-7.63-1.16-1.62-3.6-3.32-5.56-3.5-3.15-.29-11.62-1.12-11.62-1.12l-.63-1.1-1.64-2.65-1.89,1.32c-1.5-2.94-10.39-12.38-10.39-12.38l.58-1.08-2.38-2.27c-10.77-8.65-21.52-8.96-32.76,1.42-4.26,3.93-21.13,15.12-24.64,22.31-9.73,19.92,8.36,30.2,22.21,39.31,1.44.95,22.55,17.8,22.55,17.8,0,0,8.64,8.74,6.4,27.56l-16.73,15.64s-4.54,2.19-8.08,16.09-28.49,84.34-28.49,84.34c0,0-3.45,20.76,9.79,23.37,16.66,3.28,25.13-16.2,25.13-16.2l32.34-46.69c49.1,81.86,51.11,93.17,54.15,96.21.22.22,9.76-6.43,9.76-6.43l.87,17.42.46,110.27,6.01,163.83h10.04l1.52,8.87s-12.79,18.3-11.36,27.88h41.44s-3.13-19.73-7.53-23.74l-.96-13.6,12.17-.47,1.11-144.31,3.05-125.88,106.54,17.73c5.18.86,9.78,3.81,12.73,8.15l58.67,86.48,8.43-5.95,9.16,10.65s-.04,16.29,6.34,19.4,48.61,2.32,48.61,2.32c0,0,8.87-.91,8.44-7.81s-6.47-7.51-17.87-11.65c-9.91-3.6-31.71-16.47-31.71-16.47l-6.35-7.53s5.6-7.31,5.73-7.31c.11,0-45.56-77.72-60.21-102.64-2.87-4.88-7.49-8.47-12.93-10.05l-124.17-35.4-1.79-1.55,10.21-8.49-53.32-83.4,59.99,13.47Z"/>
</svg>