<?xml version="1.0" encoding="UTF-8"?>
<svg id="Layer_1" data-name="Layer 1" xmlns="http://www.w3.org/2000/svg" viewBox="0 0 1440 1440">
  <path d="M459.56,853.13l11.1-29.93,2.15,1.31,5.98-15.97-2.89-3.07,8.5-20.67s2.87-2.7,8.18-6.45c6.34-4.48,6.14-10.03,3.5-17.33-.37-1.03-.88-2-1.55-2.89-4.83-6.39-5.06-6.73-14.22-4.31s-9.69,17.83-9.69,17.83l-11.65,21.61-2.82-1.88-8.31,12.48,2.57,2.07-4.7,8.35s-37.21-40.23-56.77-53.59c-14.04-9.59-14.19-7.56-17.94-6.94-1.36.23-2.69-.58-3.15-1.88l-2.62-12.09c2.77-2.04,14.65-2.23,17.92-3.29,5.78-1.88,6.47-7.41,6.47-10.39,0-4.37-6-15.43-6.01-15.43l1.5-1.23-2.63-4.67s7.57-5.27,5.25-8.98c-2.58-4.13-10.61-7.5-10.61-7.5l-1-4.18-2.71,1.05c-1.5-2.94-8.54-18.99-8.54-18.99l1.57-1.19-3.58-6.08c-3.32-4.13-8.02-7.84-13.31-7.55s-14.23,1.52-19.41,3.32c-5.48,1.9-22.62,9.12-27.41,15.52-8.87,11.85.89,27.95,9.98,43.98,5.09,8.98,12.95,22.1,12.95,22.1,0,0-.86,19.42-8.55,27.88l-21.35,13.04s-4.64,3.43-10.72,16.42c-6.47,13.86-33.86,85.88-33.86,85.88,0,0-3.54,21.29,9.79,23.37,22.39,3.49,26.67-15.29,26.67-15.29l23.5-39.42c16.32,69.93,12.5,92.46,18.66,98.62.22.22,10.69-3.13,10.69-3.13,0,0,.4,18.79.3,25.04-.42,25.54,13.55,110.76,13.55,110.76l9.59,155.68h12.04l-.48,8.87s-5.79,19.3-4.36,28.88h44.44s-13.13-20.73-17.53-24.74l-.96-13.6,14.3-.63-3.58-132.28-4.88-87.02,41.03,50.86c2.63,1.44-.64,10.42-.91,11.97l-25.3,107.76,10.45,2.27s-5.44,9.71-8.86,19.55c-2.3,6.63-4.29,14.43-1.47,15.8,6.39,3.11,52.52,27.5,52.52,27.5,0,0,8.87-.91,8.44-7.81s-18.76-26.89-30.75-35.67c-1.36-.99,4.53-14.88,4.53-14.88,0,0,12.04.88,11.46-1.34,0,0,31.76-110.73,31.34-127.68-.14-5.66-15.02-32.16-20.51-36.9l-61.29-97.6-1.79-1.55,11.74-3.87c2.54-1.09,3.79-3.97,2.86-6.57l-25.07-92.24,42.66,33.85c5.82,2.41,11.18-.39,15.55-4.93Z"/>
</svg>