<?xml version="1.0" encoding="UTF-8"?>
<svg id="Layer_1" data-name="Layer 1" xmlns="http://www.w3.org/2000/svg" viewBox="0 0 1440 1440">
  <path d="M471.91,785.27c3.14-14.59-3.98-16.27-6.52-17.65-3.72-2.02-13.52-9.43-17.77-8.82-5.09.74-7.07.55-13.03,20.36-.19.63.03,5.1.36,6.04,2.12,5.96,1.92,12.39,1.92,12.39l-18.97,34.1-4.92-.86s-5.54,9.84-7.79,13.79c-.34.59,1.2,4.61.91,5.09-.89,1.47-3.44-3.65-3.53-4.06-1.12-4.95-29.93-35.25-29.93-35.25.08-1.82,7-15.36,7.21-19.8.08-1.75,7.22-7.78,8.67-9.19,2.45-2.41,4.56-6.41,5.88-9.32,1.5-3.32.45-4.97.77-8.6.14-1.64-4.83-8.59-6.14-9.62-.64-.5-2.75-1.11-3.41-1.58-.88-.63-2.87-.81-3.59-1.62-.8-.89-.74-6.06-.84-7.06-.01-.11-.34-1.96-.35-1.96l2.67-.43-.76-3.98c-.27-.14-.25-.34-.05-.53.27-.25.66-.24.99-.26.41-.02.82-.13,1.22-.23,1.55-.41,2.99-1.26,4.09-2.44.84-.91,1.5-2.02,1.7-3.24.17-1,.03-2.04-.26-3.01-.31-1.06-.71-2.35-1.45-3.19-1.58-1.79-2.72-3.63-4.3-5.43-1.18-1.34-2.36-2.68-3.53-4.02l.1-1.25.61-3.32-1.96-.5c.42-3.25-1.92-15.95-1.92-15.95l1.1.07.1-4.17c-2.54-15.69-21.55-18.65-41.33-17-19.6,1.64-29.33,7.3-30.37,16.19-1.03,8.89,9.17,49.06,9.17,49.06,0,0,.89,2.35-.23,11.67-.99,8.17-8.89,19.63-15.72,27.37-13.05,14.79-25.23,14.14-27.43,41.01-4.63,56.52-14.89,124.37-15.41,129.38-.39,3.85,6.22,5.1,6.22,5.1-6.21,6.61-9.22,8.74-9.78,31.33-.6,24.44,16.99,128.49,16.99,128.49l-74.36,102.18,12.2,7.68-7.61,11.74s-4.24-.04-7.96,2.04c-5.32,2.97-13.45,15.76-13.91,18.88l26.48,18.83h40.23c-6.37-11.17-23.96-29.79-23.96-29.79l8.26-11.04,9.65,5.93,84.97-109.75c3.5-17.22-10.71-101.79-10.71-101.79l59.4,78.56-36.32,125.67,11.6,2.07-.3,11.49s-7.21,6.53-8.83,11.3c-1.1,3.23-1.4,11.89-1.48,16.09l73.17.82c-.05-1.03-.48-3.82-1.25-4.55-12.03-11.48-20.4-10.27-36.92-21.67l1.13-12.92,12.78.26c.07,4.55,39.02-110.37,41.55-137.38,1.08-11.59-82.95-121.9-84.34-127.73-.26-1.1-2.59-3.69-2.59-3.69,0,0,10.13.41,10.17,0,1.31-15.06,5.91-101.87,5.91-101.87,0,0,33.02,37.06,49.21,32.12,9.65-2.95,22.75-37.12,22.75-37.12l4.75.6,7.25-14.07-3.24-3.04s19.74-37.04,20.34-38.82c1.44-4.28,10.21-7.03,12.58-18.08ZM360.86,779.49s.01.03.02.05c.77,1.68.49,3.67-.22,5.37-.47,1.12-1.1,2.15-1.54,3.28-.21.54-.4,1.09-.55,1.66-.1.39-.55,1.56-.38,1.92-2.82-5.93-9.57-14.14-9.39-14.87.36-1.51,1.89-7.53,2.11-8.87.05-.28.1-.57.27-.81.29-.43,1.06-.5,1.52-.56.66-.08,1.31-.19,1.96-.29.38-.06,5.31,1.26,5.31,1.17-.14,1.54-1.28,2.09-1.68,3.59-.29,1.07-.46-.03-.6,1.07-.17,1.38.12,2.81.84,4,.69,1.16,1.75,2.09,2.33,3.31Z"/>
</svg>