<?xml version="1.0" encoding="UTF-8"?>
<svg id="Layer_1" data-name="Layer 1" xmlns="http://www.w3.org/2000/svg" viewBox="0 0 1440 1440">
  <path d="M458.6,774.06c3.14-14.59-4.62-14.89-7.17-16.27-3.72-2.02-13.25-7.19-17.5-6.58-5.09.74-6.67-.19-12.63,19.61-.19.63.03,5.1.36,6.04,2.12,5.96,5.21,10.83,5.21,10.83l-16.19,40.68-5.26-.03s-3.63,15.74-3.96,14.29c-1.12-4.95-24.91-37.91-24.91-37.91.08-1.82,4.57-24.76,4.69-29.21.06-2.02,2.83-4.55,4.28-5.96,2.46-2.4,4.09-5.83,5.41-8.74,1.5-3.32.48-7.89.8-11.52.14-1.64-.29-2.98-1.6-4.01-.64-.5-2.34.07-3-.4-.88-.63-2.39-1.14-3.12-1.95-.8-.89-1.16-1.91-1.44-3.06-.22-.89.13-1.9-.08-2.79-.23-.98-.55-2.05-.64-3.05-.01-.11-.34-1.96-.35-1.96l2.67-.43-.76-3.98s-1.02-.52,1.3-.97c2.64-.52,5.2-3.63,5.34-6.09.12-1.97.21-4.35-1.12-5.81l-8.62-9.8.1-1.25.61-3.32-1.96-.5c.42-3.25-1.92-15.95-1.92-15.95l1.1.07.1-4.17c-2.54-15.69-21.3-17.51-41.07-15.86-19.6,1.64-30.67,9.76-31.71,18.65-1.03,8.89,12.56,50.37,12.56,50.37,0,0,.89,2.35-.23,11.67-.99,8.17-11.22,22.11-18.04,29.85-13.05,14.79-19.86,15.3-22.06,42.17-4.63,56.52-10.34,120.07-10.86,125.08-.39,3.85,5.9,4.68,5.9,4.68-6.21,6.61-9.67,10.26-10.23,32.85-.6,24.44,10.32,130.14,10.32,130.14l-71.92,102.11,12.2,7.68-9.17,11.61s-4.24-.04-7.96,2.04c-5.32,2.97-12.85,14.57-13.31,17.69l27.91,23.07h37.71c-4.89-12.49-23.4-32.6-23.4-32.6l8.93-11.59,9.65,5.93,83.61-110.05c2.92-8.27-6.28-95.22-6.28-95.22l42,73.88-26.67,129.16,11.05.34-.3,11.49s-7.21,6.53-8.83,11.3c-1.1,3.23-1.4,11.89-1.48,16.09l73.17.82c-.05-1.03-.48-3.82-1.25-4.55-12.03-11.48-20.4-10.27-36.92-21.67l1.13-12.92,12.78.26c.07,4.55,28.51-108.36,30.96-135.37,1.29-14.24-63.6-130.42-64.99-136.25-.26-1.1-2.59-3.69-2.59-3.69,0,0,10.13.41,10.17,0,1.31-15.06,5.59-96.52,5.59-96.52,0,0,28.19,32.65,44.37,27.71,9.65-2.95,18.78-36.25,18.78-36.25l6.37.5,3.25-15.51-5.58-2.04s14.79-42.68,15.38-44.46c1.44-4.28,8.93-7.37,11.31-18.42ZM364.24,771.56c-.32,2.15.78.34.48,2.49-.6,4.44-1.32,6.24-1.92,10.67-2.82-5.93-11.57-16.14-11.39-16.87.36-1.51,3.09-7.83,3.31-9.17.05-.28.1-.57.27-.81.46-.67,2.92-.68,3.56-.6.38.05,2.11-.06,4.28-.29-.06.19-.1.38-.13.57-.13.88.05,1.77.26,2.64.56,2.35-1.33,4.4-.34,6.62.48,1.08,1.15,2.1,1.59,3.18.24.58.13.97.04,1.58Z"/>
</svg>