<?xml version="1.0" encoding="UTF-8"?>
<svg id="Layer_1" data-name="Layer 1" xmlns="http://www.w3.org/2000/svg" viewBox="0 0 1440 1440">
  <path d="M679.2,995.05s-86.08-67.81-105.47-74.77c-22.78-8.18-145.76-20.41-145.76-20.41l4.79-2.43c2.97-1.51,4.13-5.17,2.56-8.11l-50.89-80.95,81.2,3.52-.08,3.05,17.18-.67-.15-3.78,38.7-1.12s21.65,5.04,29.14,3.06,7.64-20.2,7.64-20.2c0,0-2.26-11.38-9.66-10.88-7.41.5-12.35-3.14-18.6-.68-6.7,2.63-12.19,6.22-12.19,6.22l-34.09-2.1v-2.96l-16.68-1.35-.09,3.29s-101.69-35.28-113.2-34.64c-11.51.64-31.93,8.77-36.6.45-5.19-9.22-3.77-10.44-3.77-10.44,3.71-1.91,6.88-2.92,10.57-4.88,2.3-1.23,4.56-2.76,5.91-5.06,1.57-2.69,1.81-6.19,1.51-9.22-.21-2.16-.93-4.23-2.42-5.9-1.99-2.23-4.47-4.35-5.98-6.95-.06-.1-1.41-1.19-1.42-1.18l1.53-1.22-5.18-3.52s-1.12-.05.74-1.42c2.12-1.56,4.13-3.46,2.18-7.37-.89-1.78-2.76-3.29-4.56-4.07l-12.97-1.41-.44-1.18-.87-3.29-1.95.35c-1.01-3.14-10.2-10.01-10.2-10.01l.75-.97-1.99-2.62c-9.25-10.25-23.16-6.43-35.91,2.03-4.83,3.21-15.13,13.08-15.13,13.08-22.92,18.5-3.16,31.79,9.06,42.99,6.61,6.06,17.1,12.16,23.32,18.11,3.6,3.44,7.91,8.32,8.24,13.29.43,6.38,1.78,16,.22,19.21-2.66,5.46-15.35,13.71-16.71,19.12-1.37,5.41-23.72,90.44-23.72,90.44,0,0-1.91,21.76,11.17,24.6s26.73-20.2,35-36.58c7.82-15.49,11.79-23.46,11.79-23.46l48.51,86.7s4.41,10.57,10.26,9.1c5.85-1.47,5.9-2.71,5.9-2.71l4.88,147,3.02,142.66,12.44,1.22v11.72s-3.83,2.42-2.99,7.21c.84,4.79-.17,18.4-.17,18.4h31.62l-8.04-25.94-.15-11.8,10.42-1.77,3.92-138.88,1.95-136.95,135.86,7.42,56.42,36.6,38.57,22.42,5.08-7.98,4.76,5.13,10.29,10.7s1.77,6.26,11.47,7.56c9.69,1.3,25.38-11.18,38.72-14.76,7.51-2.01,17.04-4.74,19.55-9.84s-9.24-9.93-12.56-11.01-42.88,4.45-42.88,4.45l-8.81-5.87,5.45-7.78Z"/>
</svg>