<?xml version="1.0" encoding="UTF-8"?>
<svg id="Layer_1" data-name="Layer 1" xmlns="http://www.w3.org/2000/svg" viewBox="0 0 1440 1440">
  <path d="M461.43,833.9l20.55-25.23,2.15,1.31,13.07-13.42-2.89-3.07,13.36-15.05s3.08-.57,8.39-4.33c6.34-4.48,6.14-10.03,3.5-17.33-.37-1.03-.88-2-1.55-2.89-4.83-6.39-5.28-8.85-14.43-6.44s-10.26,16.87-10.26,16.87l-14.5,13.27-2.18-2.17-13.25,11.1,1.5,2.32-14.78,13.1s-43.5-27.97-63.06-41.33-39.24-7.62-39.24-7.62l-6.73-14.94c2.77-2.04,5.99-1.34,9.26-2.4,5.78-1.88,8.62-5.31,10.24-10.94,1.21-4.2,1.11-9.8-2.13-13.38-1.87-2.07-4.15-5.5-4.16-5.49l1.32-1.45-4.52-3.86s-1.12.13.5-1.52c1.84-1.88,4.68-4.79,2.13-8.34-1.16-1.62-2.85-2.52-5.56-3.5-2.97-1.08-8.26-2.53-8.26-2.53l-.63-1.1-1.66-3.26-1.89,1.32c-1.5-2.94-9.11-13.03-9.11-13.03l1.57-1.19-2.38-2.27c-10.77-8.65-12.12-10.55-34.22-2.97-5.49,1.88-18.23,8.63-23.47,14.68-17.68,20.4,5.21,34.82,17.35,48.69,5.99,6.84,15.45,19.49,15.45,19.49,0,0,6.35,17.14-1.34,25.6l-19.15,15.99s-4.54,2.19-8.08,16.09-30.61,83.67-30.61,83.67c0,0-3.45,20.76,9.79,23.37,16.66,3.28,25.13-16.2,25.13-16.2l28.92-45.76c32.12,72.52,32.1,95.99,38.26,102.15.22.22,9.67-4.49,9.67-4.49,0,0,.4,18.79.3,25.04-.42,25.54,8.13,101.84,8.13,101.84l7.01,163.83h10.04l1.52,8.87s-7.79,18.3-6.36,27.88h41.44s-8.13-19.73-12.53-23.74l-.96-13.6,12.17-.47-.63-136.93-3.06-120.69,79.57,43.43c5.18.86,4.22,3.02,5.88,8.69l8.69,112.59,11.22-.44s-.91,8.23-2.71,16.93c-1.42,6.88-4.29,14.43-1.47,15.8,6.39,3.11,57.76,23.05,57.76,23.05,0,0,8.87-.91,8.44-7.81s-26-26.45-37.99-35.22c-1.36-.99-1.45-14.2-1.45-14.2,0,0,12.04.88,11.46-1.34,0,0,.9-117.74-6.91-140.18-1.86-5.35-16.56-15.72-21.99-17.3l-96.71-64.8-1.79-1.55,14.87-7.38-42.87-92.1,49.96,21.81c5.82,2.41,12.53,1.01,16.9-3.52Z"/>
</svg>