<?xml version="1.0" encoding="UTF-8"?>
<svg id="Layer_1" data-name="Layer 1" xmlns="http://www.w3.org/2000/svg" viewBox="0 0 1440 1440">
  <path d="M431.86,756.19c2.01-18.36-1.51-13.64-3.1-16.06-2.17-3.28-17.51-5.01-21.76-4.4-5.09.74-9.65-1.21-10.55,19.21-.03.66.03,5.1.36,6.04,2.12,5.96,9.33,10.15,9.33,10.15l-5.18,42.91-6.56-.17s-.13,12.26-.46,10.81c-1.12-4.95-8.59-12.64-8.59-12.64.08-1.82,2.8-39.45,2.92-43.9.06-2.02.13-4-.03-6.01-.26-3.25.94-6.44,2.26-9.35,1.5-3.32,1.45-8.34,1.77-11.97.35-4-1.21-8.13-4.13-10.89-.41-.38-.84-.75-1.32-1.04.09-.27.17-.55.24-.82,1.83-7,.16-8.17-1.05-15.11-.01-.11-.34-1.96-.35-1.96l2.67-.43-.76-3.98s-1.02-.52,1.3-.97c2.64-.52,4.01-3.46,4.15-5.92.12-1.97-1.14-4.11-2.47-5.57l-11.21-9,.1-1.25.61-3.32-1.96-.5c.42-3.25-3.17-14.67-3.17-14.67l1.1.07.1-4.17c-2.54-15.69-18.66-14.79-38.44-13.14-19.6,1.64-32.05,8.87-33.09,17.76-1.03,8.89,16.64,51.88,16.64,51.88,0,0,2.51,6-.47,18.52-1.9,8.01-14.81,26.25-21.48,34.12-12.65,14.94-9.7,34.82-9.8,46.73-.51,57.07-4,108.58-4.52,113.59-.39,3.85,5.9,4.68,5.9,4.68-6.21,6.61-9.54,12.31-10.1,34.9-.6,24.44-1.19,25.26-1.08,74.16.07,28.57.13,53.18.13,53.18l-62.85,107.31,12.2,7.68-6.96,11.89s-4.24-.04-7.96,2.04c-5.32,2.97-13.14,16.69-13.6,19.81l40.21,24.84,29.76.48c-7.54-13.74-26.81-38.75-26.81-38.75l6.15-11.8,9.33,4.49,75.11-116.01.58-39.47,4.75,25.08-7.97,138.74,11.05.34-.3,11.49s-4.25,5.67-5.87,10.44c-1.1,3.23-1.4,10.1-1.48,14.3l72.39.91c-.05-1.03-.48-2.03-1.25-2.76-12.03-11.48-20.9-10.56-39.81-22.25l.5-13.76,14-.05c.07,4.55,11.35-99.88,12.26-126.99,1.06-31.56-17.83-124.32-17.83-124.32,0,0-4.52-30.56-5.91-36.39-.26-1.1-2.59-3.69-2.59-3.69,0,0,10.13.41,10.17,0,1.31-15.06-.39-80.2-.39-80.2,0,0,17.85,19.08,32.03,14.55,9.61-3.07,12.28-41.15,12.28-41.15l5.83.55.53-16.04-5.87-.77s2.67-41.8,3.19-43.6c3.59-12.39,6.66-13.87,7.16-18.39ZM372.41,754.4c-.41,2.74-.75,5.49-1.13,8.23-.77,5.66-.97,10.88-1.74,16.53-3.59-7.56-2.53-5.66-2.41-7.86.76-13.44-11.65-16.27-11.42-17.2.46-1.92,3.05-13.08,3.33-14.79.07-.36.13-.73.34-1.03.58-.85,3.72-.87,4.53-.76.49.07,2.69-.08,5.45-.37-.08.24-.13.48-.17.72-.16,1.12.07,2.26.33,3.36.72,3-.44,4.28.82,7.11.61,1.37,1.46,2.67,2.03,4.05.31.74.17,1.24.05,2.01Z"/>
</svg>