<?xml version="1.0" encoding="UTF-8"?>
<svg id="Layer_1" data-name="Layer 1" xmlns="http://www.w3.org/2000/svg" viewBox="0 0 1440 1440">
  <path d="M493.95,760.81c-.37-1.03-.88-2.01-1.55-2.89-4.83-6.39-5.06-6.73-14.22-4.31-9.15,2.42-9.68,17.83-9.68,17.83l-10.16,21.59-2.82-1.88-7.05,14.63,2.58,2.07-5.32,10.44s-23.74-20.99-47.98-53.85c-4.45-6.04-16.87-9.09-20.61-8.47-1.36.23-2.69-.58-3.15-1.88l-1.37-12.25c2.77-2.04,14.13-.78,17.4-1.84,5.78-1.88,7.47-8.42,7.47-11.4,0-4.37-4.46-14.76-4.47-14.76l1.5-1.23-2.64-4.67s8.4-2,5.94-8.47c-1.73-4.56-9.96-10.52-9.96-10.52l-1-4.18-2.71,1.05c-1.5-2.95-5.46-17.84-5.46-17.84l1.57-1.19-3.59-6.07c-2.54-5.84-11.29-7.17-16.58-6.88-5.06.28-15.85.77-21.03,2.57-5.48,1.9-19.72,6.53-24.51,12.93-8.87,11.85.89,27.95,9.98,43.98,5.1,8.98,10.05,24.69,10.05,24.69,0,0-1.98,15.2-9.67,23.66l-24.6,15.67s-4.65,3.43-10.72,16.42c-6.47,13.86-32.56,82.21-32.56,82.21,0,0-3.55,21.29,9.79,23.36,22.39,3.49,26.67-15.29,26.67-15.29l19.68-34.05c11.94,70.18,6.19,89.02,12.35,95.18.21.21,10.23-2.25,10.23-2.25,0,0,.4,18.79.3,25.04-.42,25.53,16.51,119.94,16.51,119.94l7.49,147.23h13.62l-.48,8.87s-5.79,19.3-4.36,28.88h46.76s-13.13-20.72-17.53-24.74l-.72-13.05s6.82-5.7,13.3,3.79c6.47,9.5,14.67,15.54,28.92,19.77,14.24,4.23,13.03-1.55,13.03-1.55,0,0-.95-7.34-5.78-12.69-4.83-5.35-22.79-35.74-22.79-35.74l2.93-5.7,12.54,2.86s33.22-101.79,38.49-119.32c5.26-17.52-3.72-27.93-3.72-27.93l-64.18-123.32-1.95-5.04,11.74-3.87c2.54-1.09,3.8-3.97,2.86-6.57l-18.94-81.35,39.11,26.06c5.83,2.4,11.76-.72,16.14-5.25l13.21-38.36,2.15,1.32,5.62-17.48-2.11-1.25,7.29-20.53s1.87-2.7,7.18-6.45c6.34-4.49,4.21-8.4,1.57-15.69ZM430.52,1076.42l-23.06,72.65-1.16-60.87-4.79-49.72,29.01,37.94Z"/>
</svg>