<?xml version="1.0" encoding="UTF-8"?>
<svg id="Layer_1" data-name="Layer 1" xmlns="http://www.w3.org/2000/svg" viewBox="0 0 1440 1440">
  <path d="M438.18,761.21c2.01-18.36-1.51-13.64-3.1-16.06-2.17-3.28-15.61-6.66-19.86-6.05-5.09.74-9.65-1.21-10.55,19.21-.03.66.03,5.1.36,6.04,2.12,5.96,7.33,10.62,7.33,10.62l-9.82,44.31-5.26-.03s-1.36,12.14-1.69,10.69c-1.12-4.95-13.35-21.06-13.35-21.06.08-1.82,2.75-35.64,2.87-40.09.06-2.02.13-4-.03-6.01-.26-3.25,2.18-6.54,3.5-9.45,1.5-3.32,3.69-10.83,4.01-14.46.35-4-3.86-6.35-6.78-9.11-.41-.38-.84-.75-1.32-1.04.09-.27.21-.54.24-.82.48-4.4-.51-6.35-.99-8.51-.01-.11-.34-1.96-.35-1.96l2.67-.43-.76-3.98s-1.02-.52,1.3-.97c2.64-.52,5.2-3.63,5.34-6.09.12-1.97-1.14-4.11-2.47-5.57l-9.62-8.8.1-1.25.61-3.32-1.96-.5c.42-3.25-3.21-15.38-3.21-15.38l1.1.07.1-4.17c-2.54-15.69-20.21-14.29-39.99-12.64-19.6,1.64-30.1,8.09-31.14,16.98-1.03,8.89,13.67,52.8,13.67,52.8,0,0,1.73,2.92.6,12.25-.99,8.17-13.63,26.24-20.46,33.98-13.05,14.79-13.64,32.58-14.08,44.49-2.1,56.67-6.03,114.97-6.55,119.98-.39,3.85,5.9,4.68,5.9,4.68-6.21,6.61-9.19,11.62-9.75,34.21-.6,24.44,2.66,127.89,2.66,127.89l-67.06,105.61,12.2,7.68-6.96,11.89s-4.24-.04-7.96,2.04c-5.32,2.97-13.14,16.69-13.6,19.81l32.23,25h33.15c-7.54-13.74-23.58-37.67-23.58-37.67l6.15-11.8,9.33,4.49,79.65-112.66c2.92-8.27.17-61.6.17-61.6l14.69,44.86-12.37,133.94,11.05.34-.3,11.49s-6,6.4-7.62,11.17c-1.1,3.23-1.4,11.89-1.48,16.09l74.67.91c-.05-1.03-.48-3.82-1.25-4.55-12.03-11.48-20.4-10.27-39.31-21.96l.5-13.76,11.22-.33c.07,4.55,16.59-99.67,17.49-126.78,1.06-31.56-27.27-122.32-27.27-122.32,0,0-6.75-27.04-8.14-32.87-.26-1.1-2.59-3.69-2.59-3.69,0,0,10.13.41,10.17,0,1.31-15.06,1.55-85.01,1.55-85.01,0,0,20.09,23.62,36.28,18.68,9.65-2.95,13.86-39.5,13.86-39.5l6.37.5,1.6-16.58-5.87-.77s6.05-42.89,6.57-44.69c3.59-12.39,6.66-13.87,7.16-18.39ZM371.41,762.4c-.41,2.74-.75,5.49-1.13,8.23-.77,5.66-1.68,7.95-2.45,13.6-3.59-7.56-3.15-5.89-3.45-8.07-1.7-12.43-10.79-16.23-10.56-17.16.46-1.92,3.94-9.98,4.22-11.69.07-.36.13-.73.34-1.03.58-.85,3.72-.87,4.53-.76.49.07,2.69-.08,5.45-.37-.08.24-.13.48-.17.72-.16,1.12.07,2.26.33,3.36.72,3-.44,4.28.82,7.11.61,1.37,1.46,2.67,2.03,4.05.31.74.17,1.24.05,2.01Z"/>
</svg>