<?xml version="1.0" encoding="UTF-8"?>
<svg id="Layer_1" data-name="Layer 1" xmlns="http://www.w3.org/2000/svg" viewBox="0 0 1440 1440">
  <path d="M448.31,820.16l22.3-5.63.34,3.8,19.41-4.43.02-4.33,34.27-7.63s-2.85-.06,4.27.13c3.73.1,14.24,4.57,19.59,3.08,7.4-2.05,11.86-9.91,9.3-17.15-.37-1.06-.89-2.07-1.58-2.98-4.83-6.39-10.29-12.43-19.45-10.01s-14.87,8.72-14.87,8.72l-32.83,3.1v-4.27l-18.97,1.09-.35,4.62-20.58-.28s-41.78-15.27-62.15-27.36-33.71-8.43-33.71-8.43c-8.68,0-13.73.05-13.73.05l-11.06,1.15s-5.06,1.44-8.99-3.72c-6.42-8.41-4.39-6.71-4.39-6.71,2.77-2.04,5.25-2.57,7.7-4.97,3.64-3.56,8.71-8.46,9.18-13.85.38-4.35-1.17-9.39-4.89-11.97-2.3-1.59-3.35-2.08-5.19-4.32-.07-.09-1.58-.95-1.59-.94l1.32-1.45-5.67-2.65s-1.12.13.5-1.52c1.84-1.88,3.53-4.07.98-7.63-1.16-1.62-3.6-3.32-5.56-3.5-3.15-.29-12.62-1.12-12.62-1.12l-.63-1.1-1.64-2.65-1.89,1.32c-1.5-2.94-11.39-9.38-11.39-9.38l.58-1.08-2.38-2.27c-10.77-8.65-21.85-6.16-33.1,4.23-4.26,3.93-16.92,16.48-20.43,23.67-9.73,19.92,8.49,27.04,22.34,36.15,7.49,4.93,26.66,18.94,28.9,23.39,2.5,4.96,4.18,17.47,3.14,20.89l-13.83,14.72s-4.54,2.19-8.08,16.09-28.49,86.34-28.49,86.34c0,0-3.45,20.76,9.79,23.37,16.66,3.28,25.13-16.2,25.13-16.2l33.34-49.69c64.1,87.84,58.43,94.77,60.02,96.36.22.22,9.76-6.43,9.76-6.43l3.2,7.62,1.62,118.92.65,162.82h10.04l-.48,8.87s-12.79,18.3-11.36,27.88h41.44s-3.13-19.73-7.53-23.74l1.04-13.6,12.17-.47,2.38-144.41,5.7-132.35,127.34,5.61,85.96,74.19,7.48-7.06,8.51,6.9s4.72,14.95,11.11,18.06,9.39,1.45,12.5-2,35.74-14.05,35.74-14.05c0,0,8.87-.91,8.44-7.81s-4.73-8.03-17.48-7.25c-10.53.64-34.06-1.55-34.06-1.55l-8.29-7.51s5.6-7.31,5.73-7.31-96.96-90.92-96.96-90.92l-135.47-18.02-1.79-1.55,7.76-8.05-55.94-78.64,58.38,8.81Z"/>
</svg>