<?xml version="1.0" encoding="UTF-8"?>
<svg id="Layer_1" data-name="Layer 1" xmlns="http://www.w3.org/2000/svg" viewBox="0 0 1440 1440">
  <path d="M461.87,841.67l16.41-29.85,2.15,1.31,7.86-15.45-2.89-3.07,10.63-18.65s3.08-.57,8.39-4.33c6.34-4.48,6.14-10.03,3.5-17.33-.37-1.03-.88-2-1.55-2.89-4.83-6.39-5.28-8.85-14.43-6.44s-9.69,17.83-9.69,17.83l-14.47,21.23-2.36-2.74-8.31,12.48,2.21,1.78-8.73,10.37s-42.09-31.88-61.65-45.24c-14.02-9.58-24.4-9.95-28.13-9.32-1.37.23-2.7-.57-3.17-1.88l-4.08-11.44c2.77-2.04,11.31-3.95,14.57-5.01,5.78-1.88,6.47-7.41,6.47-10.39,0-4.37-6.33-14.51-6.33-14.5l1.5-1.23-3.42-4.28s-1.12.13.5-1.52c1.84-1.88,6.71-4.39,4.16-7.94-1.16-1.62-2.85-2.52-5.56-3.5-2.97-1.08-7.55-4.02-7.55-4.02l-.63-1.1-1.66-3.26-1.89,1.32c-1.5-2.94-8.42-15.45-8.42-15.45l1.57-1.19-2.38-2.27c-6.94-7.37-5.97-14.15-35.36-6.04-5.59,1.54-19.97,8.29-25.21,14.33-17.68,20.4,4.09,38.62,16.23,52.49,5.99,6.84,11.57,13.9,11.57,13.9,0,0,4.32,19.38-3.37,27.84l-18.58,13.81s-4.64,3.43-10.72,16.42c-6.47,13.86-34.54,87.26-34.54,87.26,0,0-3.45,20.76,9.79,23.37,16.66,3.28,25.13-16.2,25.13-16.2l26.13-43.12c32.12,72.52,25.05,93.8,31.21,99.95.22.22,10.69-3.13,10.69-3.13,0,0,.4,18.79.3,25.04-.42,25.54,10.65,109.21,10.65,109.21l9.52,157.3h12.04l-.48,8.87s-9.79,18.3-8.36,27.88h44.44s-9.13-19.73-13.53-23.74l-.96-13.6,12.17-.47-1.39-134.05-5.51-111.8,61.81,50.62c5.14,2.67,6.15,7.14,5.88,8.69l-12.34,113.64,11.22-.44s-.91,8.23-2.71,16.93c-1.42,6.88-4.29,14.43-1.47,15.8,6.39,3.11,55.76,29.05,55.76,29.05,0,0,8.87-.91,8.44-7.81s-22-28.45-33.99-37.22c-1.36-.99-1.45-14.2-1.45-14.2,0,0,12.04.88,11.46-1.34,0,0,19.31-118.44,11.51-140.87-1.86-5.35-15.88-16.92-21.38-21.66l-79.84-78.36-1.79-1.55,11.74-3.87c2.54-1.09,3.79-3.97,2.86-6.57l-31.03-83.21,45.27,19.76c5.82,2.41,11.18-.39,15.55-4.93Z"/>
</svg>