<?xml version="1.0" encoding="UTF-8"?>
<svg id="Layer_1" data-name="Layer 1" xmlns="http://www.w3.org/2000/svg" viewBox="0 0 1440 1440">
  <path d="M477.3,788.9c-.02-1.09-4.24-5.89-4.88-6.8-2.55-3.59-6.9-6.95-16.28-8.27-6.76-.96-11.71,8.33-11.57,17.11.1,6.68,4.13,12.47,4.13,12.47l-12.87,39.1-3.36-1.49-3.35,7.15s.19-10.04-8.41-49.94c-1.58-7.34-4.44-16.88-8.11-17.87-1.33-.34-2.21-1.63-2.1-3l4.41-9.94s11.15,6.25,14.53,6.9c9.86,1.9,15.23-5.74,16.46-8.44,1.79-3.99,2.58-10.6,2.57-10.6l1.95.31.75-5.9s8.42,2.02,8.83-4.89c.29-4.88-4.8-13.33-4.8-13.33l.98-3.77-2.79-.8c2.61-7.18,4.36-21.25,4.36-21.25l1.91-.45.53-6.44c.08-6.37-6.97-13.14-11.91-15.04-4.73-1.83-42.56-13.36-52.76-6-7.72,5.55-8.81,32.59-9.4,51.87-.34,10.73-3.13,15.94-3.13,15.94,0,0-6.01,14.29-16.49,18.84l-19.07,11.62s-9.89,2.72-15,14.27c-5.17,11.64-32,135.21-34.25,146.46-.03.3,10.58,3.7,10.58,3.7,0,0-5.83,15.05-5.27,28.79,1.28,30.87,37.08,141.13,37.08,141.13l-30.62,119.95,14.86,2.98-2.41,8.81s-12.18,11.84-12.56,29.63c-.29,13.71,109.5,13.99,107.48,7.83-2.01-6.17-11.09-12.16-19.03-18.59-9.23-7.46-15.95-14.46-15.95-14.46l2.15-10.86,12.79,1.74,16.64-103.3c9.45-19.32,3.09-38.91,3.09-38.91l-35.16-139.02.29-5.39,11.33,3c2.77.04,5.1-2.06,5.3-4.82l4.7-31.79,15.1,11.76c2.49,1.77,4.2,4.42,4.78,7.41.4,2.07,2.09,4.88,7.15,8.02,16.55,10.28,19.04,1.28,23.96-6.94,4.92-8.22-.22-11.84-.22-11.84,0,0-9.35-7.05-12.15-7.63-1.38-.28-3.07-.18-4.43,0-1.68.22-3.38-.27-4.71-1.33-4.1-3.24-23.08-10.65-27.32-14.11l2.31-21.08,14.04,20.2c1.51,1.61,3.54,2.6,5.77,3.1,6.43,1.44,13.04-1.6,16.56-7.19l7.29-28.27,2.45,1.07,6.88-19.25-2.42-.97,7.8-40.85s11.21-8.47,11.03-20.35ZM358.96,1243.17c-2.66,4-5.48,6.68-5.48,6.68,0,0-7.89-3.69-4.79-12.66.09-.25,7.52.85,7.52.85l2.38-3.71,2.63.3s.4,4.53-2.26,8.54Z"/>
</svg>