<?xml version="1.0" encoding="UTF-8"?>
<svg id="Layer_1" data-name="Layer 1" xmlns="http://www.w3.org/2000/svg" viewBox="0 0 1440 1440">
  <path d="M299.88,756.74c-6.42-8.41-4.39-6.71-4.39-6.71,3.36-2.48,11.82-11,12.78-13.49,1.13-2.91.8-6.4.02-9.35-.55-2.1-1.59-4.03-3.32-5.44-2.32-1.88-9.59-5.85-9.6-5.85l1.32-1.45-5.67-2.65s-1.12.13.5-1.52c1.84-1.88,3.53-3.07.98-6.63-1.16-1.62-3.6-3.32-5.56-3.5-3.15-.29-12.62.88-12.62.88l-.63-1.1-1.64-2.65-1.89,1.32c-1.5-2.94-14.39-6.38-14.39-6.38l.58-1.08-2.38-2.27c-10.77-8.65-18.9-5.42-30.15,4.97-4.26,3.93-14.39,16.51-17.39,23.93-11.35,28.06,6.49,28.04,20.34,37.15,7.49,4.93,34.67,12.54,36.91,16.99,2.5,4.96,9.23,18.88,8.19,22.3l-10.88,9.71s-2.54,1.19-6.08,15.09-26.49,87.34-26.49,87.34c0,0-3.45,20.76,9.79,23.37,16.66,3.28,25.13-16.2,25.13-16.2l35.34-51.69s78.18,86.32,78.28,86.42c.22.22,9.76-6.43,9.76-6.43l3.2,7.62-5.8,120.43-3.19,166.25h10.04l.52,8.87s-18.79,18.3-17.36,27.88h41.44s.87-19.73-3.53-23.74l1.04-13.6,12.17-.47,8.22-146.85,12.13-144.53,115.76-30.23,152.33-40.04.47-10.24h10.01s12.09,5.05,18.48,8.16,5.53-.13,8.63-3.58,24.88-30.43,24.88-30.43c0,0,9.26-14.31,8.83-21.22s-4.27-10.08-13.86-5.68-38.46,31.19-38.46,31.19l-14.89,2.14s.58-10.04.71-10.04-154.7,27.57-154.7,27.57l-116.84,20.6-1.79-1.55,4.76-4.05-71.36-69.88,71.7,11.82-.95,4.58,20.08,4.19.69-4.92,31.8,11.68s9.71,9.27,24.47,10.57,19.86.86,19.94-4.58,9.15-10.96,1.55-18.39-29.14-12.82-32.42-9.88-12,.35-12,.35l-28.68-12.17,1.04-4.23-18.65-8.66-.86,3.97s-95.25-39.36-103.93-39.36-20.42,1.94-20.42,1.94l-23.06,7.15s-5.06,1.44-8.99-3.72Z"/>
</svg>