<?xml version="1.0" encoding="UTF-8"?>
<svg id="Layer_1" data-name="Layer 1" xmlns="http://www.w3.org/2000/svg" viewBox="0 0 1440 1440">
  <path d="M425.9,831.71l-.33-17.42-6.38-.11s-.29-47.53.23-49.33c3.59-12.39,2.44-10.47,2.94-14.99,2.01-18.36-3.09-17.69-4.68-20.11-2.17-3.28-6.95-6.27-10.95-4.7-3.81,1.5-8.01,2.77-10.42,6.41-.36.55-.81,1.28-1.32,2.14-.54-.08.33,1.85-.22,1.94-3.35.57-6.97.9-9.53,3.44-2.56,2.55-8.39,5.26-8.86,10.56-.3,3.3,2.5,6.54,2.5,6.54l-6.04,24.35c-3.59-7.56-5.43-9.41-5.31-11.61.76-13.44-9.58-17.95-9.35-18.88.46-1.92,2.64-10.6,2.92-12.3.07-.36.13-.74.34-1.04.58-.84,2.36-.15,3.17-.04,1.36.19,17.94-.32,20.56-1.92,2.35-1.44,3.72-3.95,4.39-6.56,1.83-7-2.37-13.73-3.58-20.67-.01-.11-.34-1.96-.35-1.96l2.67-.43-.76-3.98s-1.02-.52,1.3-.97c2.64-.52,4.01-3.46,4.15-5.92.12-1.97-1.14-4.11-2.47-5.57l-11.21-9,.1-1.25.61-3.32-1.96-.5c.42-3.25-4.17-13.67-4.17-13.67l1.1.07.1-4.17c-2.54-15.69-18.78-12.44-38.56-10.79-19.6,1.64-30.9,11.06-31.94,19.95-1.03,8.89,18.39,50.39,18.39,50.39,0,0,2.51,6-.47,18.52-1.9,8.01-17.23,27.22-23.23,35.61-10.54,14.76-6.24,34.09-6.34,46-.51,57.07-2.71,106.21-3.23,111.22-.39,3.85,5.9,4.68,5.9,4.68-6.21,6.61-8.16,11.86-8.72,34.45-.6,24.44.68,30.05-1.22,78.91-1.01,26.02-1.71,51.51-1.71,51.51l-59.38,108.32,11.99,7.34-6.95,11.9s-3.11.43-6.82,2.5c-5.32,2.97-14.11,16.65-14.57,19.77l39.43,24.21,33.06.48c-7.54-13.74-29.48-38.72-29.48-38.72l5.53-11.83,9.32,4.49,69.7-117.98,1.77-18.95-5.8,145.26,11.05.34-.3,11.49s-4.25,5.67-5.87,10.44c-1.1,3.23-1.4,10.1-1.48,14.3l72.39.91c-.05-1.03-.48-2.03-1.25-2.76-12.03-11.48-20.9-10.56-39.81-22.25l.5-13.76,10.78-.15c.07,4.55,10.4-94.1,10.13-125.6-.27-31.58-10.53-125.48-10.53-125.48,0,0-2.15-34.25-3.54-40.08-.26-1.1-2.59-3.69-2.59-3.69,0,0,9.24-.02,9.41-.39,3.28-7.08-1.04-76.6-1.04-76.6,0,0,20.89,15.48,30.3,12.37,9.58-3.16,10.15-41.9,10.15-41.9l5.83.55ZM395.6,808.89l-4.15.2s-2.21-3.8-3.45-6.13c1.51-7.3,6.63-39.14,7.27-40.34,1.05-1.98,3.43.28,4.55-6.37-1.1,5.5,1.24,8.28,1.24,8.28l-5.46,44.35ZM280.73,1271.7c-6.17-16.96-29.48-38.72-29.48-38.72l5.53-11.83"/>
</svg>