<?xml version="1.0" encoding="UTF-8"?>
<svg id="Layer_1" data-name="Layer 1" xmlns="http://www.w3.org/2000/svg" viewBox="0 0 1440 1440">
  <path d="M389.34,736.95c-6.56,3.15-7.4,14.08-6.67,20.47.46,3.98,4.08,10.89,4.08,10.89l2.65,38.85-1.68.15s-13.34-36.67-13.01-42.6c.76-13.44-9.96-19.1-9.73-20.03.46-1.92,1.54-12.16,1.82-13.86.07-.36.13-.74.34-1.04.58-.84,2.36-.15,3.17-.04,1.36.19,15.59.3,18.21-1.3,2.35-1.44,3.72-3.95,4.39-6.56,1.83-6.99-.77-14.6-1.97-21.55-.01-.11-.34-1.96-.35-1.96l2.67-.43-.76-3.98s-1.02-.52,1.3-.97c2.64-.52,4.01-3.46,4.15-5.92.12-1.97-1.14-4.11-2.47-5.57l-11.21-9,.1-1.25.61-3.32-1.96-.5c.42-3.25-4.17-13.67-4.17-13.67l1.1.07.1-4.17c-2.54-15.69-22.63-11.15-42.41-9.5-19.6,1.64-27.58,12.28-28.62,21.17-1.03,8.89,19.92,54.93,19.92,54.93,0,0,1.34,5.91-1.64,18.43-1.91,8.02-12.78,23.34-18.78,31.73-10.54,14.76-6.23,34.09-6.34,46-.51,57.06,2.28,106.83,1.76,111.84-.39,3.85,5.9,4.68,5.9,4.68-6.21,6.61-8.61,13.4-9.86,29.98-1.84,24.37-.17,33.93-2.07,82.79-1.01,26.02-4.32,58.53-4.32,58.53l-40.9,111.48,13.36,4.55-4.12,12.6s-4.26,1.86-5.46,2.66c-6.67,4.42-11.7,19.28-12.15,22.4l38.48,17.09,125.8.42c-.04-1.04-1-2.71-1.77-3.44-12.03-11.48-21.41-9.88-40.33-21.57l.5-13.76,10.78-.15c.07,4.52,3.44-51.72,8.07-108.66.06-.68.08-1.37.08-2.05l-.07-150.45-.96-39.68s9.25.25,9.02-.09l-3.84-68.98s14.42,7.08,22.62,5.87c9.98-1.47,8.11-42.46,8.11-42.46l5.83.55-.86-18.35-6.39-.12s-2.07-35.89-1.55-37.69c3.58-12.39,2.44-10.47,2.94-14.99,2.02-18.36-3.09-17.69-4.68-20.1-2.17-3.28-6.94-6.28-10.95-4.7-2.51.99-4.87,8-4.87,8,0,0-8.43-2.88-10.92-1.68ZM285.92,1221.14l9.05,2.6,38.41-87.57-1.61,97.8,11.05.35-.3,11.48s-4.25,5.67-5.87,10.45c-.71,2.08-1.18,14.23-1.18,14.23h-11.68s-15.44-17.61-20.33-21.69c-5.02-4.19-21.26-17.25-21.26-17.25l3.71-10.4Z"/>
</svg>