<?xml version="1.0" encoding="UTF-8"?>
<svg id="Layer_1" data-name="Layer 1" xmlns="http://www.w3.org/2000/svg" viewBox="0 0 1440 1440">
  <path d="M359.48,718.08c.04-1.42-.28-2.69-.7-4.09-.32-1.1-5.46-7.13-6.62-9.48-.05-.1-1.02-1.72-1.03-1.72l1.1-.48-2.14-3.47s-1.12-.13.83-1.37c2.22-1.42,5.8-3.29,4.11-7.33-.77-1.84-2.53-3.46-4.28-4.37l-13.2-5.83-.36-1.21-.65-3.34-1.97.22c-.8-3.2-8.81-11.55-8.81-11.55l.81-.92-1.81-2.75c-8.55-10.85-27.06-5.89-41.22-.06l-11.83,6.95c-23.41,17.46-3.45,31.94,4.45,43.04,7.9,11.09,20.63,28.75,20.63,28.75,0,0,.95,20.55-2.07,25.81s-18.43,13.77-20.16,19.08-21.8,86.72-21.8,86.72c0,0-3.37,21.58,9.5,25.29,12.86,3.71,18.04-4.92,24.95-21.93s11.31-21.06,11.31-21.06l28.94,83.07s3.69,10.85,9.63,9.77,6.06-2.31,6.06-2.31l7.45,147.24,11.33,145.39,12.33,2.05.95,9.84s-3.97,2.16-3.45,6.99,4.14,18.3,4.14,18.3h33.5l-12.78-24.26-.99-12.51,10.51-1.07-5.79-138.57.65-116.81,100.71,52.88,7.51,89.74,2.72,22.66,11.78.39-9.32,21.24s-6.76,8.14,5.98,14.44,32.16,22.01,38.24,24.02,16.9,3.37,15.93-6.28-14.37-18.13-21.17-30.04c-6.8-11.91-9.19-10.62-9.19-10.62l.97-15.54,11.27-.98-7.04-124.62s1.73-20.98-20.03-31.6c-21.76-10.62-116.55-71.05-116.55-71.05l10.53-4.49-34.49-104.67,56.49,22.98s9.58,2.69,17.57-5.48c7.42-7.6,21.5-20.37,21.5-20.37l1.81,2.24,12.86-9.84-2.76-3.19,26.98-18.95s10.36-2.85,17.96-4.32,6.09-16.19,6.09-16.19c0,0-1.49-11.5-8.91-11.5s-11.16-1.99-16.51,2.07-10.92,14.01-10.92,14.01l-25.03,17.42-2.68-2.76-12.12,6.91.86,3.28-18.89,12.2s-21.29-9.73-51.98-24.75-32.5-17.74-44.03-17.87-17.68-.58-21.79-9.19c-4.11-8.61-2.69-5.73,3.69-7.61,3.34-.98,6.68-2.02,9.93-3.3,1.98-.78,3.95-1.55,5.77-2.68,2.02-1.26,3.28-3.37,4.07-5.56.57-1.56.44-2.68.63-4.34.03-.24.04-.48.05-.72Z"/>
</svg>