<?xml version="1.0" encoding="UTF-8"?>
<svg id="Layer_1" data-name="Layer 1" xmlns="http://www.w3.org/2000/svg" viewBox="0 0 1440 1440">
  <path d="M451.77,770.46c3.35-14.55-2.91-15.54-5.46-16.93-3.72-2.02-14.44-7.71-18.69-7.1-5.09.74-6.67-.19-12.63,19.61-.19.63.03,5.1.36,6.04,2.12,5.96,7.33,10.62,7.33,10.62l-14.17,41.3-5.26-.03s-3.63,15.74-3.96,14.29c-1.12-4.95-22.74-33.55-22.74-33.55.08-1.82,4.57-24.76,4.69-29.21.06-2.02,2.38-8.05,3.82-9.45,2.46-2.4,4.09-5.83,5.41-8.74,1.5-3.32.75-8.1,1.07-11.73.35-4-2.26-3.94-5.18-6.7-.41-.38-.84-.75-1.32-1.04.09-.27-.43-.76-.51-1.03-1.35-4.48-1.1-5.91-1.58-8.06-.01-.11-.34-1.96-.35-1.96l2.67-.43-.76-3.98s-1.02-.52,1.3-.97c2.64-.52,5.2-3.63,5.34-6.09.12-1.97.21-4.35-1.12-5.81l-9.62-8.8.1-1.25.61-3.32-1.96-.5c.42-3.25-3.21-15.38-3.21-15.38l1.1.07.1-4.17c-2.54-15.69-20.3-17.51-40.07-15.86-19.6,1.64-30.67,9.76-31.71,18.65-1.03,8.89,12.56,50.37,12.56,50.37,0,0,1.08,6.06-.05,15.38-.99,8.17-11.13,19.8-17.96,27.54-13.05,14.79-17.57,18.37-19.77,45.24-4.63,56.52-8.96,117-9.48,122.01-.39,3.85,5.9,4.68,5.9,4.68-6.21,6.61-9.19,11.62-9.75,34.21-.6,24.44,8.11,128.61,8.11,128.61l-72.83,103.39,12.2,7.68-7.14,10.83s-4.24-.04-7.96,2.04c-5.32,2.97-13.17,14.63-13.63,17.75l26.08,25h36.71c-4.89-12.49-20.43-34.85-20.43-34.85l7.34-11.22,9.65,5.93,83.95-113.84c2.92-8.27-3.91-82.36-3.91-82.36l32.85,64.75-21.6,131.1,11.05.34-.3,11.49s-7.21,6.53-8.83,11.3c-1.1,3.23-1.4,11.89-1.48,16.09l73.17.82c-.05-1.03-.48-3.82-1.25-4.55-12.03-11.48-20.4-10.27-36.92-21.67l1.13-12.92,12.78.26c.07,4.55,21.33-105.51,23.78-132.52,1.29-14.24-40.4-109.42-40.4-109.42,0,0-11.58-27.73-12.97-33.56-.26-1.1-2.59-3.69-2.59-3.69,0,0,10.13.41,10.17,0,1.31-15.06,3.58-94.32,3.58-94.32,0,0,26.21,32.19,42.4,27.25,9.65-2.95,16.16-38.46,16.16-38.46l6.37.5,3.25-15.51-5.58-2.04s11.88-43.29,12.47-45.06c1.44-4.28,8.53-12.63,9.55-17.06ZM366.24,766.58c-.32,2.15-.59,4.31-.89,6.46-.6,4.44-1.32,6.24-1.92,10.67-2.82-5.93-2.33-4.65-2.71-6.33-1.8-7.89-8.47-12.74-8.29-13.47.36-1.51,3.09-7.83,3.31-9.17.05-.28.1-.57.27-.81.46-.67,2.92-.68,3.56-.6.38.05,2.11-.06,4.28-.29-.06.19-.1.38-.13.57-.13.88.05,1.77.26,2.64.56,2.35-.35,3.36.64,5.58.48,1.08,1.15,2.1,1.59,3.18.24.58.13.97.04,1.58Z"/>
</svg>