<?xml version="1.0" encoding="UTF-8"?>
<svg id="Layer_1" data-name="Layer 1" xmlns="http://www.w3.org/2000/svg" viewBox="0 0 1440 1440">
  <path d="M476.33,791.8c3.14-14.59-3.98-16.27-6.52-17.65-3.72-2.02-9.97-5.96-14.22-5.35-5.09.74-7.07.55-13.03,20.36-.19.63.14,5.07.36,6.04.56,2.49-.69,4.55-.69,4.55l-22.47,34.71-4.92-.86-5.2,7.24s-6.5-8.51-20.62-26.9c-1.11-1.45,1.74-18.01,1.95-22.45.08-1.75,5.15-5.5,6.59-6.92,2.45-2.41,4.56-6.41,5.88-9.32,1.5-3.32,1.75-7.77,2.07-11.4.14-1.64-.04-4.77-1.34-5.8-.64-.5-5.75-4.11-6.41-4.58-.88-.63-2.87-.81-3.59-1.62-.8-.89-.74-6.06-.84-7.06-.01-.11-.34-1.96-.35-1.96l2.67-.43.15-4.22c-.27-.14-.25-.34-.05-.53.27-.25.66-.24.99-.26.41-.02.82-.13,1.22-.23,1.55-.41,2.99-1.26,4.09-2.44.84-.91,1.5-2.02,1.7-3.24.17-1,.03-2.04-.26-3.01-.31-1.06-.71-2.35-1.45-3.19-1.58-1.79-2.72-3.63-4.3-5.43-1.18-1.34-2.36-2.68-3.53-4.02l.1-1.25.61-3.32-1.96-.5c.42-3.25.89-15.69.89-15.69l1.1.07.1-4.17c-2.54-15.69-22.28-20.17-42.06-18.52-19.6,1.64-27.9,6.53-28.94,15.42-1.03,8.89,6.84,48.12,6.84,48.12,0,0,.89,2.35-.23,11.67-.99,8.17-12.11,20.67-18.94,28.4-13.05,14.79-22.74,9.73-27.56,40.82-8.67,56.04-15.77,126.55-16.29,131.56-.39,3.85,6.22,5.1,6.22,5.1-6.21,6.61-9.22,8.74-9.78,31.33-.6,24.44,12.99,127.49,12.99,127.49l-74.36,101.18,11.2,8.68-7.61,11.74s-4.24-.04-7.96,2.04c-5.32,2.97-13.45,15.76-13.91,18.88l26.48,18.83h40.23c-6.37-11.17-23.96-29.79-23.96-29.79l8.26-11.04,9.65,5.93,85.97-109.75c3.5-17.22-6.09-99.59-6.09-99.59l51.41,76.14-36.49,125.61,11.6,2.07-2.77,11.76s-7.21,6.53-8.83,11.3c-1.1,3.23-1.4,11.89-1.48,16.09l73.17.82c-.05-1.03-.48-3.82-1.25-4.55-12.03-11.48-20.4-10.27-36.92-21.67l3.6-13.19,12.78.26c.07,4.55,38.78-107.63,41.31-134.63,1.08-11.59-76.18-125.38-77.57-131.21-.26-1.1-2.59-3.69-2.59-3.69,0,0,10.1-.3,10.14-.71,1.31-15.06,6.94-99.17,6.94-99.17,0,0,25.26,33.08,41.45,28.14,9.65-2.95,20.51-34.14,20.51-34.14l4.75.6,7.25-14.07-3.24-3.04s23.88-36.17,24.47-37.94c1.44-4.28,10.49-1.38,12.86-12.43ZM371.81,780.5c.57,3.08.38,6.3-.57,9.28-1.34-1.63-2.27-3.46-3.94-4.76-.89-.7-1.84-1.33-2.82-1.89-.82-.46-2.43-.82-3.07-1.45-.07-.03-.34-1.7-.37-1.83-.13-.8-.06-1.62.04-2.41.36-2.85-.3-5.74.16-8.56.05-.28.1-.57.27-.81.29-.43,1.06-.5,1.52-.56.66-.08,1.31-.19,1.96-.29.38-.06,5.31,1.26,5.31,1.17-.17,1.84-1.23,2.97-.77,5.02.32,1.42.97,2.74,1.47,4.12.35.97.61,1.96.8,2.97Z"/>
</svg>