<?xml version="1.0" encoding="UTF-8"?>
<svg id="Layer_1" data-name="Layer 1" xmlns="http://www.w3.org/2000/svg" viewBox="0 0 1440 1440">
  <path d="M303.98,752.69c-6.42-8.41-4.39-6.71-4.39-6.71,3.36-2.48,6.33-3.98,9.66-6.5,2.08-1.58,4.06-4.45,5.02-6.94,1.13-2.91.8-6.4.02-9.35-.55-2.1-1.59-4.03-3.32-5.44-2.32-1.88-5.11-2.58-7.01-4.91-.07-.09-1.58-.95-1.59-.94l1.32-1.45-5.67-2.65s-1.12.13.5-1.52c1.84-1.88,3.53-4.07.98-7.63-1.16-1.62-3.6-3.32-5.56-3.5-3.15-.29-12.62.88-12.62.88l-.63-1.1-1.64-2.65-1.89,1.32c-1.5-2.94-12.39-7.38-12.39-7.38l.58-1.08-2.38-2.27c-10.77-8.65-19.89-7.66-31.13,2.72-4.26,3.93-17.2,17.29-20.23,24.69-10.43,25.47,8.31,28.52,22.16,37.63,7.49,4.93,18.81,9.28,25.9,14.17,4.1,2.83,9.13,6.96,10.26,11.81,1.44,6.23,3.46,12.55,2.43,15.97l-10.88,10.71s-3.03,3.54-6.56,17.44-24.49,83.34-24.49,83.34c0,0-3.45,20.76,9.79,23.37,16.66,3.28,25.13-16.2,25.13-16.2l32.34-49.69s72.18,89.32,72.28,89.42c.22.22,9.76-6.43,9.76-6.43l3.2,7.62-3.8,120.43-.19,166.25h10.04l.52,8.87s-17.79,18.3-16.36,27.88h41.44s-.13-19.73-4.53-23.74l1.04-13.6,12.17-.47,5.22-146.85,11.48-140.12,126.52-22.49,141.35-16.6.41-8.99h10.01s11.76,9.29,18.15,12.4,5.53-.13,8.63-3.58,28.88-33.43,28.88-33.43c0,0,9.52-9.28,9.09-16.19s-4.27-10.08-13.86-5.68-38.72,26.16-38.72,26.16l-15.6.6s1.19-9.79,1.32-9.79-146.32,4.46-146.32,4.46l-125.86,12.92-1.79-1.55,4.76-4.05-64.9-72.39,62.04,6.17,7.2.17-.95,4.58,19.08,3.19.69-4.92,33.8,7.68s9.71,9.27,24.47,10.57,19.86.86,19.94-4.58,9.15-10.96,1.55-18.39-29.14-12.82-32.42-9.88-12,.35-12,.35l-29.68-11.17,1.04-4.23-18.65-5.66-.86,3.97s-96.25-36.36-104.93-36.36-20.42,1.94-20.42,1.94l-21.96,5.1s-2.06-.56-5.99-5.72Z"/>
</svg>