<?xml version="1.0" encoding="UTF-8"?>
<svg id="Layer_1" data-name="Layer 1" xmlns="http://www.w3.org/2000/svg" viewBox="0 0 1440 1440">
  <path d="M618.37,1090l-35.44-95.87s-5.18-28.66-24.06-36.91c-22.19-9.69-137.05-50.48-137.05-50.48l4.94-2.11c3.07-1.31,4.46-4.88,3.1-7.92l-43.17-88.58,61.4,13.03s8.26,1.15,17.57-5.48c7.51-5.35,16.06-9.58,16.06-9.58l1.81,2.24,16.66-7.17-2.76-3.19,33.88-12.01s12.36,1.15,19.96-.32,6.09-16.19,6.09-16.19c0,0-1.49-11.5-8.91-11.5s-13.16-5.99-18.51-1.93-11.92,13.01-11.92,13.01l-28.76,8.2-2.68-2.76-15.8,3.06.86,3.28-19.14,3.78s-83.83-33-95.36-33.13-24.72,3.91-28.84-4.7c-4.56-9.54-3.06-10.67-3.06-10.67,3.83-1.66,7.66-3.34,11.46-5.06,2.38-1.07,4.73-2.45,6.23-4.66,1.75-2.58,2.22-6.05,2.12-9.1-.07-2.17-.64-4.28-2.02-6.05-1.83-2.35-4.17-4.64-5.5-7.33-.05-.1-1.33-1.28-1.34-1.28l1.61-1.12-4.93-3.86s-1.12-.13.83-1.37c2.22-1.42,5.8-3.29,4.11-7.33-.77-1.84-2.53-3.46-4.28-4.37l-12.85-2.27-.36-1.21-.65-3.34-1.97.22c-.8-3.2-9.51-10.67-9.51-10.67l.81-.92-1.81-2.75c-8.55-10.85-17.01-8.35-31.17-2.52l-20.37,12.28c-23.41,17.46-3.94,32.53,5.9,43.27,6.05,6.61,15.59,17.04,21.41,23.4,3.36,3.68,5.21,8.47,5.21,13.46,0,6.39-.36,14.8-2.14,17.9-3.02,5.27-16.23,12.65-17.96,17.96-1.73,5.31-21.41,87.45-21.41,87.45,0,0-3.37,21.58,9.5,25.29,12.86,3.71,18.27-13.04,27.63-28.83,8.84-14.94,13.33-22.62,13.33-22.62l38.33,87.37s3.69,10.85,9.63,9.77,6.06-2.31,6.06-2.31l4.45,145.24,9.33,145.39,12.33,2.05.95,9.84s-3.97,2.16-3.45,6.99c.52,4.83,3.14,18.3,3.14,18.3h31.5l-10.78-24.26v-12.51s10.52-1.07,10.52-1.07l-3.79-138.57,2.65-129.81,123.21,37.31,36.47,64.83,16.75,35.08,7.62-2.74,4.4,5.44-.65,12.82s-1.55,5.83,8.03,7.77,25.36,6.02,34.83,8.03c7.61,1.61,11.4,5.44,14.24.52s-2.85-13.99-6.09-15.28-33.93-18.91-33.93-18.91l-4.14-6.99,9.6-4.99Z"/>
</svg>